<?xml version="1.0" standalone="no"?>
<!DOCTYPE svg PUBLIC "-//W3C//DTD SVG 1.1//EN" "http://www.w3.org/Graphics/SVG/1.1/DTD/svg11.dtd" >
<svg>
<metadata>
Created by FontForge 20090914 at Wed Jan 18 09:37:15 2023
 By www-data
Copyright &#194;&#169; 2020 by Francesco Canovaro, Andrea Tartarelli. All rights reserved.
</metadata>
<defs>
<font id="BogartTrial-Regular" horiz-adv-x="0" >
  <font-face 
    font-family="Bogart Trial"
    font-weight="400"
    font-stretch="normal"
    units-per-em="1000"
    panose-1="0 0 5 0 0 0 0 0 0 0"
    ascent="800"
    descent="-200"
    x-height="474.999"
    cap-height="701"
    bbox="-689 -371.001 1620 1056"
    underline-thickness="53"
    underline-position="-148"
    unicode-range="U+0020-U+FB06"
  />
<missing-glyph horiz-adv-x="486" 
 />
    <glyph glyph-name="f_f" unicode="ff" horiz-adv-x="627" 
d="M644 687c29.333 -21.333 43.9971 -48.9971 43.9971 -82.9971c0 -10 -3.16699 -18.667 -9.5 -26s-15.166 -11 -26.499 -11c-22 0 -35.667 13 -41 39c-1.33301 21.333 -8.5 38.166 -21.5 50.499s-31.5 18.5 -55.5 18.5c-26 0 -47 -7.83301 -63 -23.5
s-24 -35.834 -24 -60.501c0 -16 2.16699 -31 6.5 -45s10.5 -29.667 18.5 -47l11 -27h116c11.333 0 17 -5 17 -15c0 -8 -2 -14.833 -6 -20.5s-9 -8.5 -15 -8.5h-79c-9.33301 0 -16 -1.66699 -20 -5s-6 -9.33301 -6 -18v-290c0 -20.667 0.833008 -35.334 2.5 -44.001
s6.5 -15.667 14.5 -21s21.333 -9.33301 40 -12c12 -3.33301 18 -10 18 -20c0 -8 -3.83301 -13.667 -11.5 -17s-23.167 -5 -46.5 -5h-119c-23.333 0 -39.333 1.83301 -48 5.5s-13 9.16699 -13 16.5c0 10 5.66699 16.667 17 20c18.667 2.66699 32 6.66699 40 12
s12.833 12.333 14.5 21s2.5 23.334 2.5 44.001v291c0 14.667 -7.66699 22 -23 22h-152c-9.33301 0 -16.166 -1.83301 -20.499 -5.5s-6.5 -9.5 -6.5 -17.5v-290c0 -19.333 0.833008 -33 2.5 -41s6.16699 -14.333 13.5 -19s20 -9.33398 38 -14.001
c12 -6.66699 18 -14.334 18 -23.001c0 -7.33301 -3.66699 -12.833 -11 -16.5s-21.666 -5.5 -42.999 -5.5h-119c-23.333 0 -39.333 1.83301 -48 5.5s-13 9.16699 -13 16.5c0 8.66699 5.66699 15.334 17 20.001c18.667 2.66699 32 6.66699 40 12s12.833 12.333 14.5 21
s2.5 23.334 2.5 44.001v291c0 14.667 -7.66699 22 -23 22h-51c-4 0 -7.33301 1.66699 -10 5s-4 7.33301 -4 12c0 8 2 14.5 6 19.5s8.33301 7.5 13 7.5h66c-0.666992 3.33301 -3.66699 13.333 -9 30c-12 34.667 -18 64.334 -18 89.001c0 37.333 12.5 68 37.5 92
s58.5 36 100.5 36c36 0 68.167 -9.5 96.5 -28.5s42.5 -43.167 42.5 -72.5c0 -9.33301 -2.66699 -17.333 -8 -24s-13 -10 -23 -10c-16.667 0 -28 12 -34 36c-2.66699 18.667 -10.5 32.5 -23.5 41.5s-28.5 13.5 -46.5 13.5c-21.333 0 -38.5 -7.33301 -51.5 -22
s-19.5 -33.334 -19.5 -56.001c0 -18 3 -35.667 9 -53s12.333 -32.5 19 -45.5s11 -21.833 13 -26.5h206c-0.666992 4.66699 -1.66699 9 -3 13s-2.33301 7.33301 -3 10c-5.33301 18 -9.33301 34.167 -12 48.5s-4 30.166 -4 47.499c0 37.333 14.167 68 42.5 92
s66.5 36 114.5 36c44 0 80.667 -10.667 110 -32z" />
    <glyph glyph-name="f_f_i" unicode="ffi" horiz-adv-x="886" 
d="M869 18c0 -7.33301 -3.83398 -12.835 -11.501 -16.502s-23.167 -5.5 -46.5 -5.5l-60 1l-59 -1c-22.667 0 -37.834 1.66699 -45.501 5s-11.5 9 -11.5 17c0 8.66699 5.66699 15.334 17 20.001c17.333 3.33301 29.666 7.66602 36.999 12.999s11.833 12.333 13.5 21
s2.5 23 2.5 43v259c0 17.333 -3.66699 30.666 -11 39.999s-20 14 -38 14h-140c-9.33301 0 -16 -1.66699 -20 -5s-6 -9.33301 -6 -18v-290c0 -20.667 0.833008 -35.167 2.5 -43.5s6.5 -15.166 14.5 -20.499s21.333 -9.66602 40 -12.999c12 -3.33301 18 -10 18 -20
c0 -8 -3.83301 -13.667 -11.5 -17s-23.167 -5 -46.5 -5h-119c-23.333 0 -39.333 1.83301 -48 5.5s-13 9.16699 -13 16.5c0 10 5.66699 16.667 17 20c18.667 2.66699 32 6.66699 40 12s12.833 12.333 14.5 21s2.5 23.334 2.5 44.001v291c0 14.667 -7.66699 22 -23 22h-152
c-9.33301 0 -16.166 -1.83301 -20.499 -5.5s-6.5 -9.5 -6.5 -17.5v-290c0 -19.333 0.833008 -33 2.5 -41s6.16699 -14.333 13.5 -19s20 -9.33398 38 -14.001c12 -6.66699 18 -14.334 18 -23.001c0 -7.33301 -3.66699 -12.833 -11 -16.5s-21.666 -5.5 -42.999 -5.5h-119
c-23.333 0 -39.333 1.83301 -48 5.5s-13 9.16699 -13 16.5c0 8.66699 5.66699 15.334 17 20.001c18.667 2.66699 32 6.66699 40 12s12.833 12.333 14.5 21s2.5 23.334 2.5 44.001v291c0 14.667 -7.66699 22 -23 22h-51c-4 0 -7.33301 1.66699 -10 5s-4 7.33301 -4 12
c0 8 2 14.5 6 19.5s8.33301 7.5 13 7.5h66c-0.666992 3.33301 -3.66699 13.333 -9 30c-12 34.667 -18 64.334 -18 89.001c0 37.333 12.5 68 37.5 92s58.5 36 100.5 36c36 0 68.167 -9.5 96.5 -28.5s42.5 -43.167 42.5 -72.5c0 -9.33301 -2.66699 -17.333 -8 -24
s-13 -10 -23 -10c-16.667 0 -28 12 -34 36c-2.66699 18.667 -10.5 32.5 -23.5 41.5s-28.5 13.5 -46.5 13.5c-21.333 0 -38.5 -7.33301 -51.5 -22s-19.5 -33.334 -19.5 -56.001c0 -18 3 -35.667 9 -53s12.333 -32.5 19 -45.5s11 -21.833 13 -26.5h206
c-0.666992 4.66699 -1.66699 9 -3 13s-2.33301 7.33301 -3 10c-5.33301 18 -9.33301 34.167 -12 48.5s-4 30.166 -4 47.499c0 37.333 14 68 42 92s66 36 114 36c26.667 0 51.834 -4.66699 75.501 -14s42.834 -22.5 57.501 -39.5s22 -36.5 22 -58.5
c0 -10 -2.66699 -18.167 -8 -24.5s-13.333 -9.5 -24 -9.5c-20 0 -33 12 -39 36c-2.66699 22 -11.5 38.5 -26.5 49.5s-34.167 16.5 -57.5 16.5c-26.667 0 -47.667 -7.83301 -63 -23.5s-23 -35.834 -23 -60.501c0 -16 2.16699 -31 6.5 -45s10.5 -29.667 18.5 -47l11 -27h197
c19.333 0.666992 37.333 2.66699 54 6c4.66699 0.666992 9.66699 1.33398 15 2.00098s11 1 17 1c9.33301 0 16.166 -2 20.499 -6s6.5 -11 6.5 -21v-339c0 -20 1 -34.333 3 -43s7 -15.667 15 -21s21.333 -9.66602 40 -12.999c12 -3.33301 18 -10 18 -20z" />
    <glyph glyph-name="f_f_l" unicode="ffl" horiz-adv-x="908" 
d="M606 689c24.667 -20 36.999 -46.6699 36.999 -80.0029c0 -9.33301 -2.5 -17.166 -7.5 -23.499s-13.167 -9.5 -24.5 -9.5c-10 0 -17.667 2.83301 -23 8.5s-9.66602 14.5 -12.999 26.5c-2.66699 22.667 -9 39 -19 49s-24.667 15 -44 15c-24 0 -42 -7.16699 -54 -21.5
s-18 -33.5 -18 -57.5c0 -16.667 2.66699 -32.334 8 -47.001s12.666 -30.667 21.999 -48c8.66699 -18.667 13 -28.334 13 -29.001h116c11.333 0 17 -5 17 -15c0 -8 -2 -14.833 -6 -20.5s-9 -8.5 -15 -8.5h-79c-9.33301 0 -16 -1.66699 -20 -5s-6 -9.33301 -6 -18v-290
c0 -20.667 0.833008 -35.167 2.5 -43.5s6.5 -15.166 14.5 -20.499s21.333 -9.66602 40 -12.999c12 -4.66699 18 -11.334 18 -20.001c0 -8 -3.83301 -13.667 -11.5 -17s-23.167 -5 -46.5 -5h-119c-23.333 0 -39.333 1.83301 -48 5.5s-13 9.16699 -13 16.5
c0 8.66699 5.66699 15.334 17 20.001c18.667 2.66699 32 6.66699 40 12s12.833 12.333 14.5 21s2.5 23.334 2.5 44.001v291c0 14.667 -7.66699 22 -23 22h-152c-9.33301 0 -16.166 -1.83301 -20.499 -5.5s-6.5 -9.5 -6.5 -17.5v-290c0 -19.333 0.833008 -33 2.5 -41
s6.16699 -14.333 13.5 -19s20 -9.33398 38 -14.001c12 -6.66699 18 -14.334 18 -23.001c0 -7.33301 -3.66699 -12.833 -11 -16.5s-21.666 -5.5 -42.999 -5.5h-119c-23.333 0 -39.333 1.83301 -48 5.5s-13 9.16699 -13 16.5c0 8.66699 5.66699 15.334 17 20.001
c18.667 2.66699 32 6.66699 40 12s12.833 12.333 14.5 21s2.5 23.334 2.5 44.001v291c0 14.667 -7.66699 22 -23 22h-51c-4 0 -7.33301 1.66699 -10 5s-4 7.33301 -4 12c0 8 2 14.5 6 19.5s8.33301 7.5 13 7.5h66c-0.666992 3.33301 -3.66699 13.333 -9 30
c-12 34.667 -18 64.334 -18 89.001c0 37.333 12.5 68 37.5 92s58.5 36 100.5 36c36 0 68.167 -9.5 96.5 -28.5s42.5 -43.167 42.5 -72.5c0 -9.33301 -2.66699 -17.333 -8 -24s-13 -10 -23 -10c-16.667 0 -28 12 -34 36c-2.66699 18.667 -10.5 32.5 -23.5 41.5
s-28.5 13.5 -46.5 13.5c-21.333 0 -38.5 -7.33301 -51.5 -22s-19.5 -33.334 -19.5 -56.001c0 -18 3 -35.667 9 -53s12.333 -32.5 19 -45.5s11 -21.833 13 -26.5h206c-2 8 -5 16.667 -9 26c-6.66699 18 -11.834 33.833 -15.501 47.5s-5.5 28.834 -5.5 45.501
c0 37.333 12.5 68 37.5 92s59.167 36 102.5 36c40 0 72.333 -10 97 -30zM891.999 17.9971c0 -8 -4 -13.6719 -12 -17.0049s-23.667 -5 -47 -5l-59 1l-60 -1c-23.333 0 -39.333 1.83301 -48 5.5s-13 9.16699 -13 16.5c0 10 5.66699 16.667 17 20
c18.667 2.66699 32 6.66699 40 12s12.833 12.333 14.5 21s2.5 23.334 2.5 44.001v487c0 14.667 -1.16699 24.667 -3.5 30s-8.83301 8 -19.5 8c-14 -0.666992 -24.167 -0.166992 -30.5 1.5s-9.5 5.83398 -9.5 12.501c0 10 10 18.667 30 26l34 11
c2.66699 0.666992 11.167 3.33398 25.5 8.00098s25.833 7 34.5 7c10 0 17.167 -2 21.5 -6s6.5 -11 6.5 -21v-564c0 -20.667 0.833008 -35.167 2.5 -43.5s6.5 -15.166 14.5 -20.499s21.333 -9.66602 40 -12.999c12.667 -4 19 -10.667 19 -20z" />
    <glyph glyph-name="f_i" unicode="fi" horiz-adv-x="596" 
d="M579 18c0 -7.33301 -3.83203 -12.8369 -11.499 -16.5039s-23.167 -5.5 -46.5 -5.5l-60 1l-59 -1c-22.667 0 -37.834 1.66699 -45.501 5s-11.5 9 -11.5 17c0 8.66699 5.66699 15.334 17 20.001c17.333 3.33301 29.666 7.66602 36.999 12.999s11.833 12.333 13.5 21
s2.5 23 2.5 43v259c0 17.333 -3.66699 30.666 -11 39.999s-20 14 -38 14h-140c-9.33301 0 -16.166 -1.83301 -20.499 -5.5s-6.5 -9.5 -6.5 -17.5v-290c0 -20 1 -34.333 3 -43s7 -15.667 15 -21s21.333 -9.66602 40 -12.999c12 -3.33301 18 -10 18 -20
c0 -7.33301 -3.83301 -12.833 -11.5 -16.5s-23.167 -5.5 -46.5 -5.5h-119c-23.333 0 -39.333 1.83301 -48 5.5s-13 9.16699 -13 16.5c0 10 5.66699 16.667 17 20c18.667 2.66699 32 6.66699 40 12s12.833 12.333 14.5 21s2.5 23.334 2.5 44.001v291
c0 14.667 -7.66699 22 -23 22h-51c-4 0 -7.33301 1.66699 -10 5s-4 7.33301 -4 12c0 8 2 14.5 6 19.5s8.33301 7.5 13 7.5h66c-0.666992 4 -1.66699 8.33301 -3 13s-2.33301 9.33398 -3 14.001c-10 32.667 -15 63.334 -15 92.001c0 37.333 14 68 42 92s66 36 114 36
c26.667 0 51.834 -4.66699 75.501 -14s42.834 -22.5 57.501 -39.5s22 -36.5 22 -58.5c0 -10 -2.66699 -18.167 -8 -24.5s-13.333 -9.5 -24 -9.5c-20 0 -33 12 -39 36c-2.66699 22 -11.5 38.5 -26.5 49.5s-34.167 16.5 -57.5 16.5c-26.667 0 -47.667 -7.83301 -63 -23.5
s-23 -35.834 -23 -60.501c0 -16 2.16699 -31 6.5 -45s10.5 -29.667 18.5 -47l11 -27h196c21.333 0.666992 39.666 2.66699 54.999 6c4.66699 0.666992 9.66699 1.33398 15 2.00098s11 1 17 1c9.33301 0 16.166 -2 20.499 -6s6.5 -11 6.5 -21v-339c0 -20 1 -34.333 3 -43
s7 -15.667 15 -21s21.333 -9.66602 40 -12.999c12 -3.33301 18 -10 18 -20z" />
    <glyph glyph-name="f_l" unicode="fl" horiz-adv-x="618" 
d="M98 -4c-23.333 0 -39.334 1.83008 -48.001 5.49707s-13 9.16699 -13 16.5c0 8.66699 5.66699 15.334 17 20.001c18.667 2.66699 32 6.66699 40 12s12.833 12.333 14.5 21s2.5 23.334 2.5 44.001v291c0 14.667 -7.66699 22 -23 22h-51c-4 0 -7.33301 1.66699 -10 5
s-4 7.33301 -4 12c0 8 2 14.5 6 19.5s8.33301 7.5 13 7.5h66c-2 6.66699 -5 16 -9 28c-6 16.667 -10.833 31.834 -14.5 45.501s-5.5 28.834 -5.5 45.501c0 37.333 12.5 68 37.5 92s59.167 36 102.5 36c40 0 72.333 -10 97 -30s37 -46.667 37 -80
c0 -9.33301 -2.5 -17.166 -7.5 -23.499s-13.167 -9.5 -24.5 -9.5c-10 0 -17.667 2.83301 -23 8.5s-9.66602 14.5 -12.999 26.5c-2.66699 22 -9 38.167 -19 48.5s-24.667 15.5 -44 15.5c-24 0 -42 -7.16699 -54 -21.5s-18 -33.5 -18 -57.5
c0 -16.667 2.66699 -32.334 8 -47.001s12.666 -30.667 21.999 -48c8.66699 -18.667 13 -28.334 13 -29.001h116c11.333 0 17 -5 17 -15c0 -8 -2 -14.833 -6 -20.5s-9 -8.5 -15 -8.5h-79c-9.33301 0 -16.166 -1.83301 -20.499 -5.5s-6.5 -9.5 -6.5 -17.5v-290
c0 -20 1 -34.333 3 -43s7 -15.667 15 -21s21.333 -9.66602 40 -12.999c12 -4.66699 18 -11.334 18 -20.001c0 -7.33301 -3.83301 -12.833 -11.5 -16.5s-23.167 -5.5 -46.5 -5.5h-119zM375.999 1.49707c-8.66699 3.66699 -13 9.16211 -13 16.4951c0 10 5.66699 16.667 17 20
c18.667 2.66699 32 6.66699 40 12s12.833 12.333 14.5 21s2.5 23.334 2.5 44.001v487c0 14.667 -1.16699 24.667 -3.5 30s-8.83301 8 -19.5 8c-14 -0.666992 -24.167 -0.166992 -30.5 1.5s-9.5 5.83398 -9.5 12.501c0 10 10 18.667 30 26l34 11
c2.66699 0.666992 11.167 3.33398 25.5 8.00098s25.833 7 34.5 7c10 0 17.167 -2 21.5 -6s6.5 -11 6.5 -21v-564c0 -20.667 0.833008 -35.167 2.5 -43.5s6.5 -15.166 14.5 -20.499s21.333 -9.66602 40 -12.999c12.667 -4 19 -10.667 19 -20c0 -8 -4 -13.667 -12 -17
s-23.667 -5 -47 -5l-59 1l-60 -1c-23.333 0 -39.333 1.83301 -48 5.5z" />
    <glyph glyph-name=".notdef" horiz-adv-x="486" 
 />
    <glyph glyph-name="space" unicode=" " horiz-adv-x="290" 
 />
    <glyph glyph-name="exclam" unicode="!" horiz-adv-x="237" 
d="M95 199c-2.66699 46 -7.33105 104.667 -13.998 176c-9.33301 112 -15.333 196 -18 252c-1.33301 26 2.5 46.833 11.5 62.5s23.833 23.5 44.5 23.5c20 0 34.667 -7.83301 44 -23.5s13.666 -36.5 12.999 -62.5c-2.66699 -48 -8.66699 -124.667 -18 -230
c-4.66699 -52 -10 -118 -16 -198c-4.66699 -14.667 -12.334 -22 -23.001 -22c-11.333 0 -19.333 7.33301 -24 22zM72.0029 7c-12 12 -18.001 26.667 -18.001 44c0 18.667 5.83301 34.167 17.5 46.5s26.834 18.5 45.501 18.5c19.333 0 35.333 -6.16699 48 -18.5
s19 -27.833 19 -46.5c0 -18 -6.33301 -32.833 -19 -44.5s-28.667 -17.5 -48 -17.5c-18 0 -33 6 -45 18z" />
    <glyph glyph-name="quotedbl" unicode="&#x22;" horiz-adv-x="269" 
d="M39 548c-5.33301 66.667 -8 108.667 -8 126c0 11.333 2.33301 19.5 7 24.5s12.667 7.5 24 7.5s19.5 -2.5 24.5 -7.5s7.5 -12.833 7.5 -23.5c0 -18 -2.66699 -60.333 -8 -127l-5 -75c-0.666992 -4 -2.66699 -7 -6 -9s-7.33301 -3 -12 -3c-10.667 0 -17 4 -19 12zM183 548
c-5.33301 66.667 -8 108.667 -8 126c0 11.333 2.33301 19.5 7 24.5s12.667 7.5 24 7.5s19.5 -2.5 24.5 -7.5s7.5 -12.833 7.5 -23.5c0 -18 -2.66699 -60.333 -8 -127l-5 -75c-0.666992 -4 -2.66699 -7 -6 -9s-7.33301 -3 -12 -3c-10.667 0 -17 4 -19 12z" />
    <glyph glyph-name="numbersign" unicode="#" horiz-adv-x="672" 
d="M112 7c0 2 0.667969 5.66895 2.00098 11.002l49 191v3c0 6.66699 -3.33301 10 -10 10h-93c-10 0 -17.167 1.33301 -21.5 4s-6.5 7 -6.5 13c0 26 11.667 39 35 39h98c10 0 16 5 18 15l33 121c0.666992 1.33301 1 3 1 5c0 7.33301 -4 11 -12 11h-97
c-10 0 -17.167 1.33301 -21.5 4s-6.5 7 -6.5 13c0 26 12 39 36 39h100c6.66699 0 11.334 1.16699 14.001 3.5s5 6.16602 7 11.499l47 184c2.66699 9.33301 6.66699 15.666 12 18.999s13.333 5 24 5c8.66699 0 14.667 -1.33301 18 -4s5 -6.66699 5 -12
c0 -2 -0.666992 -7 -2 -15l-46 -178v-4c0 -6.66699 3.66699 -10 11 -10h136c5.33301 0 9 1.16699 11 3.5s3.66699 6.16602 5 11.499l48 184c2.66699 8.66699 6.5 14.834 11.5 18.501s12.833 5.5 23.5 5.5c9.33301 0 15.666 -1.33301 18.999 -4s5 -7 5 -13
c0 -2.66699 -0.666992 -7.33398 -2 -14.001l-46 -175c-0.666992 -1.33301 -1 -3.33301 -1 -6c0 -3.33301 0.666992 -6 2 -8s3 -3 5 -3h90c18 0 27 -6 27 -18s-3 -21.333 -9 -28s-14.333 -10 -25 -10h-95c-5.33301 0 -9 -1.16699 -11 -3.5s-3.66699 -6.16602 -5 -11.499
l-32 -121v-4c0 -3.33301 1.16699 -6.16602 3.5 -8.49902s5.5 -3.5 9.5 -3.5h89c18 0 27 -6 27 -18c0 -11.333 -2.83301 -20.5 -8.5 -27.5s-13.834 -10.5 -24.501 -10.5h-93c-7.33301 0 -13 -1.33301 -17 -4s-6.66699 -7 -8 -13l-49 -190
c-2 -9.33301 -5.83301 -15.833 -11.5 -19.5s-13.834 -5.5 -24.501 -5.5c-15.333 0 -23 6 -23 18c0 1.33301 0.666992 4.66602 2 9.99902l49 187l1 5c0 4 -1.16699 7 -3.5 9s-5.16602 3 -8.49902 3h-132c-12 0 -19 -4.66699 -21 -14l-50 -193
c-2 -8.66699 -5.66699 -15 -11 -19s-13.333 -6 -24 -6c-15.333 0 -23 5.66699 -23 17zM385.001 278.002c11.333 0 18 5.66602 20 16.999l33 119c0.666992 1.33301 1 3 1 5c0 3.33301 -1 6 -3 8s-4 3 -6 3h-137c-6 0 -10.5 -1.16699 -13.5 -3.5
s-5.16699 -6.16602 -6.5 -11.499l-31 -121c-0.666992 -1.33301 -1 -3 -1 -5c0 -3.33301 1 -6 3 -8s4.33301 -3 7 -3h134z" />
    <glyph glyph-name="dollar" unicode="$" horiz-adv-x="572" 
d="M272 -10c-43.333 1.33301 -83.6641 10.168 -120.997 26.501s-67.333 39.5 -90 69.5s-34 64.667 -34 104c0 14.667 3.5 26.167 10.5 34.5s16.833 12.5 29.5 12.5c11.333 0 21.5 -3.66699 30.5 -11s14.5 -19 16.5 -35c0 -44.667 14.167 -80.834 42.5 -108.501
s67.5 -41.5 117.5 -41.5c46.667 0 84.167 12.167 112.5 36.5s42.5 56.833 42.5 97.5c0 38.667 -14.167 70.334 -42.5 95.001s-72.5 45.667 -132.5 63c-75.333 22.667 -128.166 49.834 -158.499 81.501s-45.5 73.167 -45.5 124.5c0 32 8.66699 60.667 26 86
s42.666 45.666 75.999 60.999s73.333 23.333 120 24v94c0 7.33301 6 11 18 11s18 -3.66699 18 -11v-95c38 -4.66699 73 -15.5 105 -32.5s57.5 -39.667 76.5 -68s28.5 -60.833 28.5 -97.5c0 -13.333 -3.33301 -23.833 -10 -31.5s-16 -11.5 -28 -11.5
c-10.667 0 -20.167 3.16699 -28.5 9.5s-13.5 17.166 -15.5 32.499c-1.33301 45.333 -15.5 81.666 -42.5 108.999s-63.833 41 -110.5 41c-38.667 0 -71 -10 -97 -30s-39 -46.333 -39 -79c0 -34 12.5 -62.167 37.5 -84.5s66.5 -41.5 124.5 -57.5
c82 -22 140.833 -50.667 176.5 -86s53.5 -78.666 53.5 -129.999c0 -58 -20.833 -105.333 -62.5 -142s-97.834 -57 -168.501 -61v-113c0 -4 -1.83301 -7 -5.5 -9s-7.83398 -3 -12.501 -3s-8.83398 1 -12.501 3s-5.5 5 -5.5 9v113z" />
    <glyph glyph-name="percent" unicode="%" horiz-adv-x="892" 
 />
    <glyph glyph-name="ampersand" unicode="&#x26;" horiz-adv-x="634" 
d="M150.5 19c-41 20 -72.334 47.167 -94.001 81.5s-32.5 72.833 -32.5 115.5c0 31.333 7.83301 61.333 23.5 90s37.167 53.334 64.5 74.001s57.666 34.667 90.999 42c6.66699 2 10 4.33301 10 7c0 2 -2.33301 4 -7 6c-25.333 8 -47.333 22.667 -66 44s-28 45.666 -28 72.999
c0 30 8 56.833 24 80.5s38.667 42.167 68 55.5s62.666 20 99.999 20c50 0 90.833 -10.333 122.5 -31s51.167 -46.667 58.5 -78c0.666992 -2 1 -5 1 -9c0 -9.33301 -2.66699 -17.666 -8 -24.999s-12.666 -11 -21.999 -11s-17 2.66699 -23 8s-12.333 16 -19 32
c-8.66699 20.667 -21.334 36.667 -38.001 48s-39.667 17 -69 17c-32 0 -59.333 -9.33301 -82 -28s-34 -43.667 -34 -75c0 -20 5.5 -37.833 16.5 -53.5s24.667 -27.834 41 -36.501s31.833 -13.334 46.5 -14.001c10.667 0 18 -1 22 -3s6 -5.66699 6 -11
c0 -8.66699 -1.66699 -15 -5 -19s-10.666 -7.66699 -21.999 -11c-54 -12 -95.833 -34.833 -125.5 -68.5s-44.5 -74.5 -44.5 -122.5c0 -33.333 7.5 -63.5 22.5 -90.5s36.333 -48.167 64 -63.5s59.834 -23 96.501 -23c65.333 0 114.5 20.833 147.5 62.5s49.5 96.5 49.5 164.5
c0 26 -3.33301 43.167 -10 51.5s-20.667 12.5 -42 12.5c-40.667 0 -59.667 -17.667 -57 -53c-1.33301 -11.333 -8 -17 -20 -17c-4 0 -7.16699 1.16699 -9.5 3.5s-3.83301 6.83301 -4.5 13.5c-1.33301 8 -2 15 -2 21c0 27.333 7.83301 50.833 23.5 70.5
s41.167 29.5 76.5 29.5c18 0 38 -1.66699 60 -5c25.333 -2.66699 44.666 -4 57.999 -4c38.667 0 57.334 16.667 56.001 50c2 14 8.66699 21 20 21c6 0 10.333 -4 13 -12s4 -17.333 4 -28c-1.33301 -53.333 -28.666 -81.666 -81.999 -84.999c-19.333 -2 -28 -5.66699 -26 -11
c3.33301 -5.33301 6.5 -13.833 9.5 -25.5s4.5 -25.167 4.5 -40.5c0 -52 -11 -98.5 -33 -139.5s-54.167 -73 -96.5 -96s-92.5 -34.5 -150.5 -34.5c-57.333 0 -106.5 10 -147.5 30z" />
    <glyph glyph-name="quotesingle" unicode="'" horiz-adv-x="204" 
d="M87 548c-5.33301 66.667 -8 108.667 -8 126c0 11.333 2.33301 19.5 7 24.5s12.667 7.5 24 7.5s19.5 -2.5 24.5 -7.5s7.5 -12.833 7.5 -23.5c0 -18 -2.66699 -60.333 -8 -127l-5 -75c-0.666992 -4 -2.66699 -7 -6 -9s-7.33301 -3 -12 -3c-10.667 0 -17 4 -19 12z" />
    <glyph glyph-name="parenleft" unicode="(" horiz-adv-x="333" 
d="M312 -157c-2.66699 0 -8 1.33203 -16 3.99902c-80.667 45.333 -144.834 108 -192.501 188s-71.5 167.667 -71.5 263c0 96 23.833 183.833 71.5 263.5s111.834 142.167 192.501 187.5c8 2.66699 13.333 4 16 4c10.667 0 16 -5.33301 16 -16
c0 -3.33301 -1.33301 -6.66602 -4 -9.99902s-5.5 -6.33301 -8.5 -9s-5.5 -5 -7.5 -7c-57.333 -42.667 -102.833 -101 -136.5 -175s-50.5 -153.333 -50.5 -238s16.833 -164 50.5 -238s79.167 -132.667 136.5 -176c8.66699 -6.66699 14.167 -11.5 16.5 -14.5
s3.5 -6.5 3.5 -10.5c0 -10.667 -5.33301 -16 -16 -16z" />
    <glyph glyph-name="parenright" unicode=")" horiz-adv-x="333" 
d="M9 -130.5c2.66699 3 5.66699 5.83105 9 8.49805s5.66602 4.66699 6.99902 6c57.333 43.333 102.833 102 136.5 176s50.5 153.333 50.5 238s-16.833 164 -50.5 238s-79.167 132.333 -136.5 175c-2 2 -5.16699 4.83301 -9.5 8.5s-7.16602 6.83398 -8.49902 9.50098
s-2 5.33398 -2 8.00098c0 10.667 5.33301 16 16 16c2.66699 0 8 -1.33301 16 -4c80.667 -45.333 144.834 -107.833 192.501 -187.5s71.5 -167.5 71.5 -263.5c0 -95.333 -23.833 -183 -71.5 -263s-111.834 -142.667 -192.501 -188c-8 -2.66699 -13.333 -4 -16 -4
c-10.667 0 -16 5.33301 -16 16c0 4 1.33301 7.5 4 10.5z" />
    <glyph glyph-name="asterisk" unicode="*" horiz-adv-x="361" 
d="M66 448c0 5.33301 2.33594 10.3291 7.00293 14.9961c21.333 22.667 44 44.334 68 65.001c5.33301 5.33301 8.33301 9.16602 9 11.499s-1.66602 3.83301 -6.99902 4.5c-32 7.33301 -63.667 18.333 -95 33c-10.667 2.66699 -16 8.66699 -16 18
c0 4.66699 1 9.33398 3 14.001c3.33301 12 9.66602 18 18.999 18c1.33301 0 4.66602 -0.666992 9.99902 -2c24 -10.667 51.333 -25 82 -43c5.33301 -3.33301 9.66602 -5 12.999 -5c2 0 3.33301 0.833008 4 2.5s0.333984 3.83398 -0.999023 6.50098c-4 30.667 -6 64 -6 100
c0 16 8.33301 24 25 24s25 -8 25 -24c0 -31.333 -2.33301 -64.666 -7 -99.999v-4c0 -4 1.33301 -6 4 -6c2 0 6 2 12 6c18.667 12 46 26.333 82 43c5.33301 1.33301 8.66602 2 9.99902 2c9.33301 0 16 -6 20 -18c1.33301 -3.33301 2 -7.66602 2 -12.999
c0 -10 -5.33301 -16.333 -16 -19c-30.667 -14 -60.667 -24.333 -90 -31c-6.66699 -0.666992 -10 -3 -10 -7c0 -3.33301 1.66699 -6.33301 5 -9c24.667 -22 48 -44.333 70 -67c4.66699 -4.66699 7 -9.66699 7 -15c0 -6.66699 -4 -12.667 -12 -18
c-6.66699 -5.33301 -12.667 -8 -18 -8s-11 3.33301 -17 10c-12 14 -27 33 -45 57l-14 19c-2.66699 4.66699 -5.33398 7 -8.00098 7c-3.33301 0 -6.33301 -2.33301 -9 -7c-21.333 -30.667 -41 -56 -59 -76c-6 -6.66699 -11.667 -10 -17 -10c-4.66699 0 -10.667 2.66699 -18 8
c-8 5.33301 -12 11.333 -12 18z" />
    <glyph glyph-name="plus" unicode="+" horiz-adv-x="431" 
d="M197 76.5c-6 5.66699 -8.99902 15.501 -8.99902 29.501v107c0 7.33301 -4.33301 11 -13 11h-110c-10.667 0 -18.834 1.83301 -24.501 5.5s-8.5 10.167 -8.5 19.5c0 10.667 3 18.5 9 23.5s15.667 7.5 29 7.5h104c9.33301 0 14 4.33301 14 13v111
c0 10.667 3.16699 18.5 9.5 23.5s13.5 7.5 21.5 7.5c9.33301 0 15.833 -2.66699 19.5 -8s5.5 -13 5.5 -23v-111c0 -8.66699 3.33301 -13 10 -13h114c10.667 0 18.5 -3.16699 23.5 -9.5s7.5 -13.5 7.5 -21.5c0 -16.667 -10.333 -25 -31 -25h-115c-6 0 -9 -3.33301 -9 -10
v-113c0 -10.667 -1.83301 -18.834 -5.5 -24.501s-10.167 -8.5 -19.5 -8.5c-8.66699 0 -16 2.83301 -22 8.5z" />
    <glyph glyph-name="comma" unicode="," horiz-adv-x="201" 
d="M40.5 -100c-3 3.33301 -4.50098 6.99902 -4.50098 10.999c0 6.66699 3.33301 11.334 10 14.001c36 16 54 34.667 54 56c0 8.66699 -6.66699 14 -20 16c-13.333 1.33301 -24.666 7 -33.999 17s-14 23.667 -14 41c0 18 6.33301 33 19 45s28.667 18 48 18
c22.667 0 40 -7.5 52 -22.5s18 -35.833 18 -62.5c0 -29.333 -6.66699 -54.5 -20 -75.5s-29.333 -36.667 -48 -47s-35 -15.5 -49 -15.5c-4.66699 0 -8.5 1.66699 -11.5 5z" />
    <glyph glyph-name="hyphen" unicode="-" horiz-adv-x="329" 
d="M58 218c-8.66699 0 -15.167 1.33203 -19.5 3.99902s-6.5 7.33398 -6.5 14.001c0 10.667 2.66699 19.667 8 27s13.333 11 24 11h209c16 0 24 -6 24 -18c0 -10.667 -2.66699 -19.667 -8 -27s-13 -11 -23 -11h-208z" />
    <glyph glyph-name="period" unicode="." horiz-adv-x="235" 
d="M68.5 4.5c-11 10.333 -16.5 23.8311 -16.5 40.498c0 20.667 6.66699 38 20 52s30 21 50 21c18 0 32.667 -5.66699 44 -17s17 -25.666 17 -42.999c0 -19.333 -7 -35.666 -21 -48.999s-31 -20 -51 -20c-17.333 0 -31.5 5.16699 -42.5 15.5z" />
    <glyph glyph-name="slash" unicode="/" horiz-adv-x="532" 
d="M115 -140c-7.33301 -14.667 -14.001 -24.833 -20.001 -30.5s-16.667 -8.5 -32 -8.5c-20.667 0 -31 5.66699 -31 17c0 6 2.66699 14.333 8 25l378 815c7.33301 16 14 26.667 20 32s16.667 8 32 8c10.667 0 18.334 -1.5 23.001 -4.5s7 -7.5 7 -13.5
c0 -4 -2.33301 -12 -7 -24z" />
    <glyph glyph-name="zero" unicode="0" horiz-adv-x="640" 
d="M465.5 28.5c44.333 26.333 79.333 61.835 105 106.502s38.5 93.334 38.5 146.001c0 53.333 -13.333 102 -40 146s-62 78.833 -106 104.5s-91.333 38.5 -142 38.5c-54 0 -103.167 -13.333 -147.5 -40s-79 -62.334 -104 -107.001s-37.5 -92.667 -37.5 -144
c0 -50.667 12.833 -98.334 38.5 -143.001s60.5 -80.334 104.5 -107.001s92.333 -40 145 -40s101.167 13.167 145.5 39.5zM145 475.002c24 20.667 51.166 36.833 81.499 48.5s61.833 17.5 94.5 17.5c32 0 62.833 -6 92.5 -18s55.834 -28 78.501 -48h-347zM513.999 454.001
c44 -53.333 66 -111.668 66 -175.001c0 -30.667 -5.16699 -60.167 -15.5 -88.5s-24.833 -54.166 -43.5 -77.499h-346zM124.999 103.999c-20.667 24 -36.666 50.999 -47.999 80.999s-17 61.333 -17 94c1.33301 64.667 20.666 120.334 57.999 167.001h346zM146 83.998h349
c-24.667 -20 -51.834 -35.833 -81.501 -47.5s-60.5 -17.5 -92.5 -17.5c-63.333 0 -121.666 21.667 -174.999 65z" />
    <glyph glyph-name="one" unicode="1" horiz-adv-x="640" 
d="M465.5 28.5c44.333 26.333 79.333 61.835 105 106.502s38.5 93.334 38.5 146.001c0 53.333 -13.333 102 -40 146s-62 78.833 -106 104.5s-91.333 38.5 -142 38.5c-54 0 -103.167 -13.333 -147.5 -40s-79 -62.334 -104 -107.001s-37.5 -92.667 -37.5 -144
c0 -50.667 12.833 -98.334 38.5 -143.001s60.5 -80.334 104.5 -107.001s92.333 -40 145 -40s101.167 13.167 145.5 39.5zM145 475.002c24 20.667 51.166 36.833 81.499 48.5s61.833 17.5 94.5 17.5c32 0 62.833 -6 92.5 -18s55.834 -28 78.501 -48h-347zM513.999 454.001
c44 -53.333 66 -111.668 66 -175.001c0 -30.667 -5.16699 -60.167 -15.5 -88.5s-24.833 -54.166 -43.5 -77.499h-346zM124.999 103.999c-20.667 24 -36.666 50.999 -47.999 80.999s-17 61.333 -17 94c1.33301 64.667 20.666 120.334 57.999 167.001h346zM146 83.998h349
c-24.667 -20 -51.834 -35.833 -81.501 -47.5s-60.5 -17.5 -92.5 -17.5c-63.333 0 -121.666 21.667 -174.999 65z" />
    <glyph glyph-name="two" unicode="2" horiz-adv-x="640" 
d="M465.5 28.5c44.333 26.333 79.333 61.835 105 106.502s38.5 93.334 38.5 146.001c0 53.333 -13.333 102 -40 146s-62 78.833 -106 104.5s-91.333 38.5 -142 38.5c-54 0 -103.167 -13.333 -147.5 -40s-79 -62.334 -104 -107.001s-37.5 -92.667 -37.5 -144
c0 -50.667 12.833 -98.334 38.5 -143.001s60.5 -80.334 104.5 -107.001s92.333 -40 145 -40s101.167 13.167 145.5 39.5zM145 475.002c24 20.667 51.166 36.833 81.499 48.5s61.833 17.5 94.5 17.5c32 0 62.833 -6 92.5 -18s55.834 -28 78.501 -48h-347zM513.999 454.001
c44 -53.333 66 -111.668 66 -175.001c0 -30.667 -5.16699 -60.167 -15.5 -88.5s-24.833 -54.166 -43.5 -77.499h-346zM124.999 103.999c-20.667 24 -36.666 50.999 -47.999 80.999s-17 61.333 -17 94c1.33301 64.667 20.666 120.334 57.999 167.001h346zM146 83.998h349
c-24.667 -20 -51.834 -35.833 -81.501 -47.5s-60.5 -17.5 -92.5 -17.5c-63.333 0 -121.666 21.667 -174.999 65z" />
    <glyph glyph-name="three" unicode="3" horiz-adv-x="640" 
d="M465.5 28.5c44.333 26.333 79.333 61.835 105 106.502s38.5 93.334 38.5 146.001c0 53.333 -13.333 102 -40 146s-62 78.833 -106 104.5s-91.333 38.5 -142 38.5c-54 0 -103.167 -13.333 -147.5 -40s-79 -62.334 -104 -107.001s-37.5 -92.667 -37.5 -144
c0 -50.667 12.833 -98.334 38.5 -143.001s60.5 -80.334 104.5 -107.001s92.333 -40 145 -40s101.167 13.167 145.5 39.5zM145 475.002c24 20.667 51.166 36.833 81.499 48.5s61.833 17.5 94.5 17.5c32 0 62.833 -6 92.5 -18s55.834 -28 78.501 -48h-347zM513.999 454.001
c44 -53.333 66 -111.668 66 -175.001c0 -30.667 -5.16699 -60.167 -15.5 -88.5s-24.833 -54.166 -43.5 -77.499h-346zM124.999 103.999c-20.667 24 -36.666 50.999 -47.999 80.999s-17 61.333 -17 94c1.33301 64.667 20.666 120.334 57.999 167.001h346zM146 83.998h349
c-24.667 -20 -51.834 -35.833 -81.501 -47.5s-60.5 -17.5 -92.5 -17.5c-63.333 0 -121.666 21.667 -174.999 65z" />
    <glyph glyph-name="four" unicode="4" horiz-adv-x="640" 
d="M465.5 28.5c44.333 26.333 79.333 61.835 105 106.502s38.5 93.334 38.5 146.001c0 53.333 -13.333 102 -40 146s-62 78.833 -106 104.5s-91.333 38.5 -142 38.5c-54 0 -103.167 -13.333 -147.5 -40s-79 -62.334 -104 -107.001s-37.5 -92.667 -37.5 -144
c0 -50.667 12.833 -98.334 38.5 -143.001s60.5 -80.334 104.5 -107.001s92.333 -40 145 -40s101.167 13.167 145.5 39.5zM145 475.002c24 20.667 51.166 36.833 81.499 48.5s61.833 17.5 94.5 17.5c32 0 62.833 -6 92.5 -18s55.834 -28 78.501 -48h-347zM513.999 454.001
c44 -53.333 66 -111.668 66 -175.001c0 -30.667 -5.16699 -60.167 -15.5 -88.5s-24.833 -54.166 -43.5 -77.499h-346zM124.999 103.999c-20.667 24 -36.666 50.999 -47.999 80.999s-17 61.333 -17 94c1.33301 64.667 20.666 120.334 57.999 167.001h346zM146 83.998h349
c-24.667 -20 -51.834 -35.833 -81.501 -47.5s-60.5 -17.5 -92.5 -17.5c-63.333 0 -121.666 21.667 -174.999 65z" />
    <glyph glyph-name="five" unicode="5" horiz-adv-x="640" 
d="M465.5 28.5c44.333 26.333 79.333 61.835 105 106.502s38.5 93.334 38.5 146.001c0 53.333 -13.333 102 -40 146s-62 78.833 -106 104.5s-91.333 38.5 -142 38.5c-54 0 -103.167 -13.333 -147.5 -40s-79 -62.334 -104 -107.001s-37.5 -92.667 -37.5 -144
c0 -50.667 12.833 -98.334 38.5 -143.001s60.5 -80.334 104.5 -107.001s92.333 -40 145 -40s101.167 13.167 145.5 39.5zM145 475.002c24 20.667 51.166 36.833 81.499 48.5s61.833 17.5 94.5 17.5c32 0 62.833 -6 92.5 -18s55.834 -28 78.501 -48h-347zM513.999 454.001
c44 -53.333 66 -111.668 66 -175.001c0 -30.667 -5.16699 -60.167 -15.5 -88.5s-24.833 -54.166 -43.5 -77.499h-346zM124.999 103.999c-20.667 24 -36.666 50.999 -47.999 80.999s-17 61.333 -17 94c1.33301 64.667 20.666 120.334 57.999 167.001h346zM146 83.998h349
c-24.667 -20 -51.834 -35.833 -81.501 -47.5s-60.5 -17.5 -92.5 -17.5c-63.333 0 -121.666 21.667 -174.999 65z" />
    <glyph glyph-name="six" unicode="6" horiz-adv-x="640" 
d="M465.5 28.5c44.333 26.333 79.333 61.835 105 106.502s38.5 93.334 38.5 146.001c0 53.333 -13.333 102 -40 146s-62 78.833 -106 104.5s-91.333 38.5 -142 38.5c-54 0 -103.167 -13.333 -147.5 -40s-79 -62.334 -104 -107.001s-37.5 -92.667 -37.5 -144
c0 -50.667 12.833 -98.334 38.5 -143.001s60.5 -80.334 104.5 -107.001s92.333 -40 145 -40s101.167 13.167 145.5 39.5zM145 475.002c24 20.667 51.166 36.833 81.499 48.5s61.833 17.5 94.5 17.5c32 0 62.833 -6 92.5 -18s55.834 -28 78.501 -48h-347zM513.999 454.001
c44 -53.333 66 -111.668 66 -175.001c0 -30.667 -5.16699 -60.167 -15.5 -88.5s-24.833 -54.166 -43.5 -77.499h-346zM124.999 103.999c-20.667 24 -36.666 50.999 -47.999 80.999s-17 61.333 -17 94c1.33301 64.667 20.666 120.334 57.999 167.001h346zM146 83.998h349
c-24.667 -20 -51.834 -35.833 -81.501 -47.5s-60.5 -17.5 -92.5 -17.5c-63.333 0 -121.666 21.667 -174.999 65z" />
    <glyph glyph-name="seven" unicode="7" horiz-adv-x="640" 
d="M465.5 28.5c44.333 26.333 79.333 61.835 105 106.502s38.5 93.334 38.5 146.001c0 53.333 -13.333 102 -40 146s-62 78.833 -106 104.5s-91.333 38.5 -142 38.5c-54 0 -103.167 -13.333 -147.5 -40s-79 -62.334 -104 -107.001s-37.5 -92.667 -37.5 -144
c0 -50.667 12.833 -98.334 38.5 -143.001s60.5 -80.334 104.5 -107.001s92.333 -40 145 -40s101.167 13.167 145.5 39.5zM145 475.002c24 20.667 51.166 36.833 81.499 48.5s61.833 17.5 94.5 17.5c32 0 62.833 -6 92.5 -18s55.834 -28 78.501 -48h-347zM513.999 454.001
c44 -53.333 66 -111.668 66 -175.001c0 -30.667 -5.16699 -60.167 -15.5 -88.5s-24.833 -54.166 -43.5 -77.499h-346zM124.999 103.999c-20.667 24 -36.666 50.999 -47.999 80.999s-17 61.333 -17 94c1.33301 64.667 20.666 120.334 57.999 167.001h346zM146 83.998h349
c-24.667 -20 -51.834 -35.833 -81.501 -47.5s-60.5 -17.5 -92.5 -17.5c-63.333 0 -121.666 21.667 -174.999 65z" />
    <glyph glyph-name="eight" unicode="8" horiz-adv-x="640" 
d="M465.5 28.5c44.333 26.333 79.333 61.835 105 106.502s38.5 93.334 38.5 146.001c0 53.333 -13.333 102 -40 146s-62 78.833 -106 104.5s-91.333 38.5 -142 38.5c-54 0 -103.167 -13.333 -147.5 -40s-79 -62.334 -104 -107.001s-37.5 -92.667 -37.5 -144
c0 -50.667 12.833 -98.334 38.5 -143.001s60.5 -80.334 104.5 -107.001s92.333 -40 145 -40s101.167 13.167 145.5 39.5zM145 475.002c24 20.667 51.166 36.833 81.499 48.5s61.833 17.5 94.5 17.5c32 0 62.833 -6 92.5 -18s55.834 -28 78.501 -48h-347zM513.999 454.001
c44 -53.333 66 -111.668 66 -175.001c0 -30.667 -5.16699 -60.167 -15.5 -88.5s-24.833 -54.166 -43.5 -77.499h-346zM124.999 103.999c-20.667 24 -36.666 50.999 -47.999 80.999s-17 61.333 -17 94c1.33301 64.667 20.666 120.334 57.999 167.001h346zM146 83.998h349
c-24.667 -20 -51.834 -35.833 -81.501 -47.5s-60.5 -17.5 -92.5 -17.5c-63.333 0 -121.666 21.667 -174.999 65z" />
    <glyph glyph-name="nine" unicode="9" horiz-adv-x="640" 
d="M465.5 28.5c44.333 26.333 79.333 61.835 105 106.502s38.5 93.334 38.5 146.001c0 53.333 -13.333 102 -40 146s-62 78.833 -106 104.5s-91.333 38.5 -142 38.5c-54 0 -103.167 -13.333 -147.5 -40s-79 -62.334 -104 -107.001s-37.5 -92.667 -37.5 -144
c0 -50.667 12.833 -98.334 38.5 -143.001s60.5 -80.334 104.5 -107.001s92.333 -40 145 -40s101.167 13.167 145.5 39.5zM145 475.002c24 20.667 51.166 36.833 81.499 48.5s61.833 17.5 94.5 17.5c32 0 62.833 -6 92.5 -18s55.834 -28 78.501 -48h-347zM513.999 454.001
c44 -53.333 66 -111.668 66 -175.001c0 -30.667 -5.16699 -60.167 -15.5 -88.5s-24.833 -54.166 -43.5 -77.499h-346zM124.999 103.999c-20.667 24 -36.666 50.999 -47.999 80.999s-17 61.333 -17 94c1.33301 64.667 20.666 120.334 57.999 167.001h346zM146 83.998h349
c-24.667 -20 -51.834 -35.833 -81.501 -47.5s-60.5 -17.5 -92.5 -17.5c-63.333 0 -121.666 21.667 -174.999 65z" />
    <glyph glyph-name="colon" unicode=":" horiz-adv-x="235" 
d="M68.5 5.5c-11 10.333 -16.5 23.8311 -16.5 40.498c0 20.667 6.66699 38 20 52s30 21 50 21c18 0 32.667 -5.66699 44 -17s17 -25.666 17 -42.999c0 -19.333 -7 -35.666 -21 -48.999s-31 -20 -51 -20c-17.333 0 -31.5 5.16699 -42.5 15.5zM68.5 368.498
c-11 10.333 -16.5 23.8311 -16.5 40.498c0 20.667 6.66699 38 20 52s30 21 50 21c18 0 32.667 -5.66699 44 -17s17 -25.666 17 -42.999c0 -19.333 -7 -35.666 -21 -48.999s-31 -20 -51 -20c-17.333 0 -31.5 5.16699 -42.5 15.5z" />
    <glyph glyph-name="semicolon" unicode=";" horiz-adv-x="238" 
d="M68.5 367.5c-11 10.333 -16.5 23.832 -16.5 40.499c0 21.333 6.66699 39 20 53s30 21 50 21c18 0 32.667 -5.66699 44 -17s17 -26 17 -44c0 -19.333 -7 -35.666 -21 -48.999s-31 -20 -51 -20c-17.333 0 -31.5 5.16699 -42.5 15.5zM62.5 -94.001
c-3 3.33301 -4.5 6.99902 -4.5 10.999c0 6 3 10.333 9 13c34.667 15.333 52 33.333 52 54c0 8.66699 -6.33301 14 -19 16c-13.333 1.33301 -24.333 6.83301 -33 16.5s-13 22.834 -13 39.501c0 17.333 6 31.833 18 43.5s27.333 17.5 46 17.5c22 0 38.833 -7.33301 50.5 -22
s17.5 -35 17.5 -61c0 -28 -6.5 -52.167 -19.5 -72.5s-28.333 -35.5 -46 -45.5s-33.5 -15 -47.5 -15c-4 0 -7.5 1.66699 -10.5 5z" />
    <glyph glyph-name="less" unicode="&#x3c;" horiz-adv-x="470" 
d="M417 64c-3.33301 0 -8.99902 0.667969 -16.999 2.00098c-40 10 -88.833 26.333 -146.5 49s-109.167 44.667 -154.5 66c-25.333 12.667 -42.833 24.5 -52.5 35.5s-14.5 22.833 -14.5 35.5c0 13.333 5.16699 25.5 15.5 36.5s27.833 22.5 52.5 34.5
c49.333 23.333 101.833 45.833 157.5 67.5s103.5 37.5 143.5 47.5l16 2c7.33301 0 12.666 -1.83301 15.999 -5.5s5 -9.5 5 -17.5c0 -10 -2.5 -17.667 -7.5 -23s-14.167 -10.333 -27.5 -15c-25.333 -8 -70.833 -25.5 -136.5 -52.5s-111.167 -46.833 -136.5 -59.5
c-2 -0.666992 -4.83301 -2 -8.5 -4s-6 -3.83301 -7 -5.5s-1.5 -3.83398 -1.5 -6.50098c0 -4 5.33301 -9 16 -15c26 -12 72 -31.5 138 -58.5s111.333 -44.5 136 -52.5c13.333 -4.66699 22.5 -9.66699 27.5 -15s7.5 -13 7.5 -23c0 -15.333 -7 -23 -21 -23z" />
    <glyph glyph-name="equal" unicode="=" horiz-adv-x="444" 
d="M70 289c-12.667 0 -22.167 1.33203 -28.5 3.99902s-9.5 7.33398 -9.5 14.001c0 10.667 4 19.667 12 27s19.667 11 35 11h297c24 0 36 -6.33301 36 -19c0 -10.667 -4 -19.5 -12 -26.5s-19.333 -10.5 -34 -10.5h-296zM70 151.999c-12.667 0 -22.167 1.33203 -28.5 3.99902
s-9.5 7.33398 -9.5 14.001c0 10.667 4 19.667 12 27s19.667 11 35 11h297c24 0 36 -6.33301 36 -19c0 -10.667 -4 -19.5 -12 -26.5s-19.333 -10.5 -34 -10.5h-296z" />
    <glyph glyph-name="greater" unicode="&#x3e;" horiz-adv-x="470" 
d="M39.5 110c5 5.33301 14.167 10.3301 27.5 14.9971c24.667 8 70 25.5 136 52.5s112 46.5 138 58.5c10.667 6 16 11 16 15s-0.666992 6.66699 -2 8s-3.66602 2.83301 -6.99902 4.5s-6 2.83398 -8 3.50098c-25.333 12.667 -70.833 32.5 -136.5 59.5
s-111.167 44.5 -136.5 52.5c-13.333 4.66699 -22.5 9.66699 -27.5 15s-7.5 13 -7.5 23c0 8 1.66699 13.833 5 17.5s8.66602 5.5 15.999 5.5l16 -2c40 -10 88 -26 144 -48s108.333 -44.333 157 -67c24.667 -11.333 42.167 -22.666 52.5 -33.999s15.5 -23.666 15.5 -36.999
c0 -12.667 -4.83301 -24.5 -14.5 -35.5s-27.167 -22.833 -52.5 -35.5c-45.333 -21.333 -96.833 -43.333 -154.5 -66s-106.5 -39 -146.5 -49c-8 -1.33301 -13.667 -2 -17 -2c-14 0 -21 7.66699 -21 23c0 10 2.5 17.667 7.5 23z" />
    <glyph glyph-name="question" unicode="?" horiz-adv-x="500" 
d="M213 201c0 28.667 4.50293 53.6689 13.5029 75.002s20.167 39.166 33.5 53.499s30.666 30.5 51.999 48.5c28.667 25.333 50 48 64 68s21 45 21 75c0 42.667 -12.167 76.667 -36.5 102s-56.166 38 -95.499 38c-28.667 0 -54.334 -6.5 -77.001 -19.5
s-40.5 -30.5 -53.5 -52.5s-19.5 -46.667 -19.5 -74c0 -16.667 -3.83301 -29.667 -11.5 -39s-17.834 -14 -30.501 -14c-12 0 -22 4.5 -30 13.5s-12 21.167 -12 36.5c0 36 10.167 69.167 30.5 99.5s48.5 54.5 84.5 72.5s76.333 27 121 27
c40.667 0 77.334 -7.33301 110.001 -22s58.167 -35.834 76.5 -63.501s27.5 -59.5 27.5 -95.5c0 -28 -4.83301 -52.333 -14.5 -73s-21.834 -38 -36.501 -52s-34 -30.333 -58 -49c-34 -26 -60 -49.833 -78 -71.5s-29.333 -49.5 -34 -83.5
c-6.66699 -16 -15.334 -24 -26.001 -24c-14 0 -21 8 -21 24zM192.003 7.00195c-12 12 -18.002 26.667 -18.002 44c0 18.667 6 34.167 18 46.5s27.333 18.5 46 18.5s34.334 -6.16699 47.001 -18.5s19 -27.833 19 -46.5c0 -18 -6.16699 -32.833 -18.5 -44.5
s-28.166 -17.5 -47.499 -17.5c-18.667 0 -34 6 -46 18z" />
    <glyph glyph-name="at" unicode="@" horiz-adv-x="708" 
d="M410 68c-12.667 -24.667 -29.333 -44.1689 -50 -58.502s-44.334 -21.5 -71.001 -21.5c-31.333 0 -57.333 11.167 -78 33.5s-31 52.166 -31 89.499s7.66699 73.166 23 107.499s36.5 62 63.5 83s57.833 31.5 92.5 31.5c23.333 0 43.666 -5.33301 60.999 -16
s29.333 -25.667 36 -45l8 38c1.33301 8 7.16602 13.833 17.499 17.5s21.833 5.5 34.5 5.5c4 0 7.33301 -1.16699 10 -3.5s3.33398 -5.83301 2.00098 -10.5l-52 -225c-2.66699 -10.667 -4 -21.334 -4 -32.001c0 -11.333 2.83301 -20 8.5 -26s15.167 -9 28.5 -9
c23.333 0 45.333 9.33301 66 28s37.167 43.834 49.5 75.501s18.5 65.5 18.5 101.5c0 38 -10.167 73.667 -30.5 107s-50 60 -89 80s-84.833 30 -137.5 30c-64 0 -120.333 -14.5 -169 -43.5s-86.167 -67.667 -112.5 -116s-39.5 -100.833 -39.5 -157.5
c0 -51.333 11.667 -97.166 35 -137.499s55.833 -71.833 97.5 -94.5s89.167 -34 142.5 -34c48 0 89.833 7 125.5 21s65.167 31.667 88.5 53c5.33301 4.66699 11.666 7 18.999 7c11.333 0 17 -3.66699 17 -11c0 -3.33301 -1.33301 -6.33301 -4 -9
c-26.667 -27.333 -61.5 -49.666 -104.5 -66.999s-90.833 -26 -143.5 -26c-59.333 0 -112.166 12.333 -158.499 37s-82.5 59.334 -108.5 104.001s-39 95.334 -39 152.001c0 64.667 14.5 124 43.5 178s70.667 96.833 125 128.5s117.166 47.5 188.499 47.5
c55.333 0 104.833 -11 148.5 -33s77.667 -51.833 102 -89.5s36.5 -79.5 36.5 -125.5c0 -45.333 -8.66699 -86.833 -26 -124.5s-40.666 -67.167 -69.999 -88.5s-60.666 -32 -93.999 -32c-55.333 0 -80.666 26.667 -75.999 80zM381.001 62.498
c17.333 20.333 30.834 44.833 40.501 73.5s14.5 54.667 14.5 78c0 22 -6.5 41.167 -19.5 57.5s-29.833 24.5 -50.5 24.5c-23.333 0 -43.833 -8.5 -61.5 -25.5s-31.334 -38.667 -41.001 -65s-14.5 -52.833 -14.5 -79.5c0 -27.333 6.5 -49.833 19.5 -67.5
s30.5 -26.5 52.5 -26.5c22.667 0 42.667 10.167 60 30.5z" />
    <glyph glyph-name="A" unicode="A" horiz-adv-x="735" 
d="M5 19c0 5.33301 2.66504 10.165 7.99805 14.498s11.333 7.5 18 9.5c18 2 31.5 5 40.5 9s16.167 10.167 21.5 18.5s11.333 21.5 18 39.5l198 512c2 5.33301 3 10.333 3 15c0 13.333 -7.66699 21.333 -23 24c-12.667 2.66699 -19 9.66699 -19 21c0 5.33301 2.33301 10 7 14
s12 6 22 6h54c22.667 0 39 -4.5 49 -13.5s18.333 -21.5 25 -37.5l211 -547c5.33301 -15.333 10.5 -26.5 15.5 -33.5s11.5 -12.167 19.5 -15.5s20.333 -6 37 -8c13.333 -3.33301 20 -11.666 20 -24.999c0 -15.333 -10 -23 -30 -23h-123h-60
c-18.667 0 -32.167 1.33301 -40.5 4s-12.5 8.33398 -12.5 17.001c0 9.33301 5.66699 15.333 17 18c22.667 2.66699 38.334 6.16699 47.001 10.5s13 11.166 13 20.499c0 6.66699 -2.66699 17.334 -8 32.001l-33 87c-4 10 -9 17.5 -15 22.5s-14.333 7.5 -25 7.5h-219
c-15.333 0 -25.666 -1.5 -30.999 -4.5s-10.333 -10.5 -15 -22.5l-33 -85c-6.66699 -18 -10 -30.667 -10 -38c0 -9.33301 4.33301 -16 13 -20s23.667 -6.66699 45 -8c16.667 -3.33301 25 -10.333 25 -21c0 -14 -11.333 -21 -34 -21c-15.333 0.666992 -43.333 1 -84 1
c-40 0 -67.333 -0.333008 -82 -1c-20 0 -30 7 -30 21zM444.998 264.999c14 0 21 4.66699 21 14c0 4 -0.666992 7.33301 -2 10l-84 228l-23 62c-2 7.33301 -4.66699 11 -8 11c-2.66699 0 -5.66699 -3.66699 -9 -11l-110 -292l-2 -8c0 -9.33301 9 -14 27 -14h190z" />
    <glyph glyph-name="B" unicode="B" horiz-adv-x="642" 
d="M40 3.5c-5.33301 3 -8 8.83594 -8 17.5029c0 10.667 7.33301 19 22 25c20.667 4 35.334 8.33301 44.001 13s14.5 10.834 17.5 18.501s4.5 20.167 4.5 37.5v469c0 18 -1.5 31 -4.5 39s-8.83301 14.167 -17.5 18.5s-23.667 8.5 -45 12.5c-14 5.33301 -21 13.666 -21 24.999
c0 8.66699 2.5 14.5 7.5 17.5s14.5 4.5 28.5 4.5c21.333 -0.666992 73.666 -0.333984 156.999 0.999023c28 0.666992 63.667 1 107 1c74 0 129.667 -14.167 167 -42.5s56 -65.5 56 -111.5c0 -40.667 -8.66699 -72.334 -26 -95.001s-38 -39.334 -62 -50.001
c-4.66699 -2 -7 -4.33301 -7 -7s2.66699 -5 8 -7c38 -10.667 71.667 -31 101 -61s44 -71 44 -123c0 -64 -23.833 -114.833 -71.5 -152.5s-117.167 -56.5 -208.5 -56.5l-163 1c-28 0.666992 -61.667 1 -101 1c-14 0 -23.667 1.5 -29 4.5zM323 409.003
c41.333 0 74.667 11.5 100 34.5s38 54.5 38 94.5c0 38 -12.333 67.833 -37 89.5s-57.667 32.5 -99 32.5h-82c-14 0 -23.5 -3 -28.5 -9s-7.5 -16.667 -7.5 -32v-175c0 -13.333 2.16699 -22.5 6.5 -27.5s13.833 -7.5 28.5 -7.5h81zM325.001 47.0029
c55.333 0 100.334 14.334 135.001 43.001s52 69.667 52 123c0 49.333 -15.833 87.166 -47.5 113.499s-74.834 39.5 -129.501 39.5h-84c-16.667 0 -28.167 -2.5 -34.5 -7.5s-9.5 -13.167 -9.5 -24.5v-228c0 -20 3.83301 -34.833 11.5 -44.5s20.167 -14.5 37.5 -14.5h69z" />
    <glyph glyph-name="C" unicode="C" horiz-adv-x="642" 
d="M188.5 34.5c-48.333 30.333 -86.498 73.333 -114.498 129s-42 119.834 -42 192.501c0 65.333 13.333 125.166 40 179.499s63.667 97.166 111 128.499s101.333 47 162 47c33.333 0 65.333 -5.16699 96 -15.5s58 -24.833 82 -43.5c8.66699 -6.66699 20.334 -18 35.001 -34
c13.333 -17.333 23 -33 29 -47c10.667 -20 16 -41.667 16 -65c0 -15.333 -4.33301 -28.333 -13 -39s-21.667 -16 -39 -16c-13.333 0 -24.833 4.33301 -34.5 13s-18.167 24 -25.5 46c0 42.667 -14.333 78.334 -43 107.001s-66.334 43 -113.001 43
c-38.667 0 -73.334 -11 -104.001 -33s-54.834 -52.667 -72.501 -92s-26.5 -84.333 -26.5 -135c0 -61.333 9.66699 -117 29 -167s47.5 -89.5 84.5 -118.5s81.167 -43.5 132.5 -43.5c54.667 0 99.667 13 135 39s57 60.333 65 103c2.66699 8.66699 9 13 19 13
c5.33301 0 10.166 -2 14.499 -6s6.16602 -9.33301 5.49902 -16c-3.33301 -36 -15.666 -70.5 -36.999 -103.5s-51.666 -59.833 -90.999 -80.5s-86 -31 -140 -31c-58.667 0 -112.167 15.167 -160.5 45.5z" />
    <glyph glyph-name="D" unicode="D" horiz-adv-x="707" 
d="M163 -2l-94.001 1c-14 0 -23.667 1.5 -29 4.5s-8 8.83301 -8 17.5c0 10.667 7.33301 19 22 25c20.667 4 35.5 8.5 44.5 13.5s14.833 12 17.5 21s4 23.167 4 42.5v454c0 20 -1.33301 34.333 -4 43s-8.33398 15.5 -17.001 20.5s-23.667 9.5 -45 13.5
c-14.667 6 -22 14.333 -22 25c0 8.66699 2.66699 14.5 8 17.5s15 4.5 29 4.5c25.333 0 59.333 0.666992 102 2l79 1c86.667 0 161.834 -14 225.501 -42s112.834 -69.167 147.501 -123.5s52 -119.833 52 -196.5c0 -111.333 -33.5 -196.833 -100.5 -256.5
s-161.5 -89.5 -283.5 -89.5c-33.333 0 -76 0.666992 -128 2zM504.999 124c46.667 52.667 70 126.332 70 220.999c0 66 -13.5 122.5 -40.5 169.5s-64.667 82.5 -113 106.5s-104.5 36 -168.5 36c-16 0 -26.833 -2.66699 -32.5 -8s-8.5 -15.666 -8.5 -30.999v-530
c0 -18 6.66699 -29.667 20 -35s36.666 -8 69.999 -8c88.667 0 156.334 26.333 203.001 79z" />
    <glyph glyph-name="E" unicode="E" horiz-adv-x="638" 
d="M604 219.5c3.33301 -3.66699 5.00293 -9.83203 5.00293 -18.499c0 -16.667 -7 -52.667 -21 -108c-8 -33.333 -14.833 -57.833 -20.5 -73.5s-10.834 -25.834 -15.501 -30.501s-10.334 -7 -17.001 -7c-6 0 -10.667 0.833008 -14 2.5s-5.33301 2.83398 -6 3.50098
c-5.33301 4 -11.333 7 -18 9s-17 3 -31 3c-127.333 0 -215.333 -0.166992 -264 -0.5s-81 -0.5 -97 -0.5h-36c-14 0 -23.667 1.5 -29 4.5s-8 8.83301 -8 17.5c0 10.667 7.33301 19 22 25c20.667 4 35.5 8.5 44.5 13.5s14.833 12 17.5 21s4 23.167 4 42.5v454
c0 19.333 -1.33301 33.5 -4 42.5s-8.5 16 -17.5 21s-23.833 9.5 -44.5 13.5c-14.667 6 -22 14.333 -22 25c0 7.33301 2.5 12.833 7.5 16.5s13.833 5.5 26.5 5.5h30c13.333 0 41.833 -0.166992 85.5 -0.5s125.5 -0.5 245.5 -0.5c13.333 0 23.166 0.833008 29.499 2.5
s12.833 4.5 19.5 8.5c6 4.66699 12.667 7 20 7c6 0 11.333 -2.33301 16 -7s9.83398 -15 15.501 -31s12.5 -40.333 20.5 -73c14.667 -56 22 -92.333 22 -109c0 -8.66699 -1.66699 -14.667 -5 -18s-8.33301 -5 -15 -5c-14 0 -24 8.66699 -30 26c-15.333 50 -27 84.667 -35 104
s-16.5 32.166 -25.5 38.499s-22.833 9.5 -41.5 9.5h-161c-13.333 0 -23 -1.16699 -29 -3.5s-10.167 -7.16602 -12.5 -14.499s-3.5 -19 -3.5 -35v-173c0 -12.667 1.5 -22 4.5 -28s9.16699 -9 18.5 -9h98c13.333 0 22.666 2 27.999 6s8 12 8 24c0 3.33301 -1.33301 15 -4 35
c-1.33301 8 -0.166016 14.667 3.50098 20s9.16699 8 16.5 8s13 -2.5 17 -7.5s7.66699 -15.5 11 -31.5s7.66602 -42.333 12.999 -79c6 -40.667 9 -69 9 -85c0 -12.667 -1.66699 -21.167 -5 -25.5s-8.33301 -6.5 -15 -6.5c-14 0 -21.667 8 -23 24c-4 22 -8 38.167 -12 48.5
s-8.83301 17.166 -14.5 20.499s-13.834 5 -24.501 5h-105c-10 0 -16.5 -2.66699 -19.5 -8s-4.5 -15 -4.5 -29v-217c0 -14 1 -24 3 -30s6.16699 -10 12.5 -12s16.5 -3 30.5 -3h205c17.333 0 31 3.83301 41 11.5s19 21.667 27 42s17.667 52.833 29 97.5
c3.33301 10 7.33301 17 12 21s10.334 6 17.001 6s11.667 -1.83301 15 -5.5z" />
    <glyph glyph-name="F" unicode="F" horiz-adv-x="587" 
d="M40 3.5c-5.33301 3 -7.99805 8.82812 -7.99805 17.4951c0 10.667 7.33301 19 22 25c20.667 4 35.5 8.5 44.5 13.5s14.833 12 17.5 21s4 23.167 4 42.5v454c0 20 -1.33301 34.333 -4 43s-8.33398 15.5 -17.001 20.5s-23.667 9.5 -45 13.5c-6.66699 2 -12 5.16699 -16 9.5
s-6 9.5 -6 15.5c0 8.66699 2.66699 14.5 8 17.5s15 4.5 29 4.5h97c35.333 -0.666992 119.333 -1 252 -1c14 0 24.333 1 31 3s12.667 4.66699 18 8c7.33301 4.66699 14.333 7 21 7c7.33301 0 13.166 -2.33301 17.499 -7s9 -14.5 14 -29.5s12.167 -40.5 21.5 -76.5
c14.667 -52.667 22 -87.667 22 -105c0 -9.33301 -1.66699 -15.833 -5 -19.5s-8.66602 -5.5 -15.999 -5.5c-13.333 0 -23.666 10.333 -30.999 31c-14 49.333 -24.667 83.333 -32 102s-15.333 30.834 -24 36.501s-22.334 8.5 -41.001 8.5h-156
c-14 0 -24.167 -1.33301 -30.5 -4s-10.5 -7.5 -12.5 -14.5s-3 -18.167 -3 -33.5v-188c0 -11.333 1.5 -19.666 4.5 -24.999s9.5 -8 19.5 -8h92c12 0 20.5 1.66699 25.5 5s7.5 9.33301 7.5 18c0 6 -2.33301 20 -7 42c-0.666992 2.66699 -1 6.33398 -1 11.001
c0 6.66699 1.5 11.667 4.5 15s8.5 5 16.5 5c6 0 11 -2.5 15 -7.5s8.66699 -15.5 14 -31.5s12.333 -41.667 21 -77c14 -54.667 21 -89 21 -103c0 -7.33301 -1.33301 -12.5 -4 -15.5s-7.33398 -4.5 -14.001 -4.5c-7.33301 0 -13 1.83301 -17 5.5s-7.33301 9.5 -10 17.5
c-5.33301 21.333 -10.333 37 -15 47s-10 16.667 -16 20s-14 5 -24 5h-102c-13.333 0 -21.833 -3 -25.5 -9s-5.5 -16.667 -5.5 -32v-168c0 -19.333 1.66699 -33.166 5 -41.499s10.666 -14.666 21.999 -18.999s31 -8.83301 59 -13.5c8 -1.33301 14.833 -4.5 20.5 -9.5
s8.5 -11.167 8.5 -18.5c0 -8 -3.66699 -13.667 -11 -17s-19.666 -5 -36.999 -5h-210c-14 0 -23.667 1.5 -29 4.5z" />
    <glyph glyph-name="G" unicode="G" horiz-adv-x="696" 
d="M194.5 37.5c-51 32.333 -90.834 76.6719 -119.501 133.005s-43 119.166 -43 188.499c0 68.667 14.667 129.667 44 183s68.333 94.833 117 124.5s101 44.5 157 44.5c36 0 70.333 -5.83301 103 -17.5s61 -27.834 85 -48.501c13.333 -12 22.666 -21.667 27.999 -29
c12.667 -14.667 22.334 -30.334 29.001 -47.001c9.33301 -20.667 14 -41.667 14 -63c0 -16 -4.33301 -29.333 -13 -40s-21.334 -16 -38.001 -16c-14.667 0 -27 4.16699 -37 12.5s-18 24.166 -24 47.499c0.666992 44 -13.333 80 -42 108s-66.667 42 -114 42
c-40 0 -76 -11.333 -108 -34s-56.833 -53.667 -74.5 -93s-26.5 -83 -26.5 -131c0 -62.667 11 -120.667 33 -174s52.167 -95.833 90.5 -127.5s80.833 -47.5 127.5 -47.5c50 0 87.833 9.5 113.5 28.5s38.5 41.5 38.5 67.5v45c0 29.333 -1.66699 49.333 -5 60
s-9.16602 17.167 -17.499 19.5s-27.166 5.5 -56.499 9.5c-6.66699 2 -12.167 5.5 -16.5 10.5s-6.5 10.5 -6.5 16.5c0 7.33301 2.66699 12.666 8 15.999s14.333 5 27 5h125h59c12 0 20.667 -1.5 26 -4.5s8 -8.5 8 -16.5c0 -11.333 -6.66699 -19.333 -20 -24l-24 -5
c-12.667 -2.66699 -20.334 -10.5 -23.001 -23.5s-4 -34.833 -4 -65.5v-49c0 -36 -13 -66.667 -39 -92c-11.333 -10.667 -23.666 -19.667 -36.999 -27c-43.333 -23.333 -101 -35 -173 -35c-63.333 0 -120.5 16.167 -171.5 48.5z" />
    <glyph glyph-name="H" unicode="H" horiz-adv-x="785" 
d="M40 3.5c-5.33301 3 -8.00098 8.83398 -8.00098 17.501c0 10.667 7.33301 19 22 25c20.667 4 35.5 8.5 44.5 13.5s14.833 12 17.5 21s4 23.167 4 42.5v454c0 19.333 -1.33301 33.5 -4 42.5s-8.5 16 -17.5 21s-23.833 9.5 -44.5 13.5c-6.66699 2 -12 5.16699 -16 9.5
s-6 9.5 -6 15.5c0 8.66699 2.66699 14.5 8 17.5s15 4.5 29 4.5h194c14 0 23.667 -1.5 29 -4.5s8 -8.83301 8 -17.5c0 -10 -7.66699 -18.333 -23 -25c-20.667 -4 -35.5 -8.5 -44.5 -13.5s-14.667 -11.833 -17 -20.5s-3.5 -23 -3.5 -43v-144
c0 -18.667 2.66699 -30.834 8 -36.501s15.666 -8.5 30.999 -8.5h283c15.333 0 25.666 3 30.999 9s8 18 8 36v144c0 20 -1.33301 34.333 -4 43s-8.33398 15.5 -17.001 20.5s-23.667 9.5 -45 13.5c-6.66699 2 -12 5.16699 -16 9.5s-6 9.5 -6 15.5
c0 8.66699 2.66699 14.5 8 17.5s15 4.5 29 4.5h194c14 0 23.667 -1.5 29 -4.5s8 -8.83301 8 -17.5c0 -10 -7.66699 -18.333 -23 -25c-20.667 -4 -35.5 -8.5 -44.5 -13.5s-14.667 -11.833 -17 -20.5s-3.5 -23 -3.5 -43v-454c0 -20 1.33301 -34.333 4 -43
s8.33398 -15.5 17.001 -20.5s23.667 -9.5 45 -13.5c6.66699 -2 12 -5.16699 16 -9.5s6 -9.5 6 -15.5c0 -8.66699 -2.66699 -14.5 -8 -17.5s-15 -4.5 -29 -4.5h-194c-14 0 -23.667 1.5 -29 4.5s-8 8.83301 -8 17.5c0 10 7.66699 18.333 23 25c20.667 4 35.5 8.5 44.5 13.5
s14.667 11.833 17 20.5s3.5 23 3.5 43v166c0 18.667 -2.66699 31 -8 37s-15.666 9 -30.999 9h-283c-15.333 0 -25.666 -2.83301 -30.999 -8.5s-8 -18.167 -8 -37.5v-166c0 -20 1.33301 -34.333 4 -43s8.33398 -15.5 17.001 -20.5s23.667 -9.5 45 -13.5
c6.66699 -2 12 -5.16699 16 -9.5s6 -9.5 6 -15.5c0 -8.66699 -2.66699 -14.5 -8 -17.5s-15 -4.5 -29 -4.5h-194c-14 0 -23.667 1.5 -29 4.5z" />
    <glyph glyph-name="I" unicode="I" horiz-adv-x="332" 
d="M69 -1c-14 0 -23.666 1.5 -28.999 4.5s-8 8.83301 -8 17.5c0 10.667 7.33301 19 22 25c20.667 4 35.5 8.5 44.5 13.5s14.833 12 17.5 21s4 23.167 4 42.5v454c0 19.333 -1.33301 33.5 -4 42.5s-8.5 16 -17.5 21s-23.833 9.5 -44.5 13.5c-6.66699 2 -12 5.16699 -16 9.5
s-6 9.5 -6 15.5c0 8.66699 2.66699 14.5 8 17.5s15 4.5 29 4.5c32 0 52.333 -0.333008 61 -1h28h16l89 1c14 0 23.667 -1.5 29 -4.5s8 -8.83301 8 -17.5c0 -10.667 -7.33301 -19 -22 -25c-20.667 -4 -35.5 -8.5 -44.5 -13.5s-14.833 -12 -17.5 -21s-4 -23.167 -4 -42.5v-454
c0 -19.333 1.33301 -33.5 4 -42.5s8.5 -16 17.5 -21s23.833 -9.5 44.5 -13.5c6.66699 -2 12.167 -5.16699 16.5 -9.5s6.5 -9.5 6.5 -15.5c0 -8.66699 -2.66699 -14.5 -8 -17.5s-15 -4.5 -29 -4.5c-32.667 0 -53.334 0.333008 -62.001 1h-27h-17z" />
    <glyph glyph-name="J" unicode="J" horiz-adv-x="519" 
d="M74.5 44c-32.333 36.667 -48.501 81.6699 -48.501 135.003c0 16.667 4.5 30.167 13.5 40.5s21.167 15.5 36.5 15.5s27.166 -5.33301 35.499 -16s11.5 -24.334 9.5 -41.001c-0.666992 -6 -1 -14.667 -1 -26c0 -36.667 8.5 -64.5 25.5 -83.5s41.833 -28.5 74.5 -28.5
c83.333 0 125 59.333 125 178l-1 82c-2 53.333 -3 114.666 -3 183.999v89c0 19.333 -1.66699 33.666 -5 42.999s-10.333 16.333 -21 21s-28.334 9 -53.001 13c-18 5.33301 -27 15 -27 29c0 8 3.33301 13.667 10 17s18.334 5 35.001 5h195c12 0 20.333 -1.5 25 -4.5
s7 -8.83301 7 -17.5c0 -10.667 -6.66699 -19 -20 -25c-16.667 -4 -28.667 -8.5 -36 -13.5s-12 -12 -14 -21s-3 -23.167 -3 -42.5v-337c0 -80 -17.667 -141.833 -53 -185.5s-88.666 -65.5 -159.999 -65.5c-65.333 0 -114.166 18.333 -146.499 55z" />
    <glyph glyph-name="K" unicode="K" horiz-adv-x="734" 
d="M40 3.5c-5.33301 3 -7.99902 8.83594 -7.99902 17.5029c0 10.667 7.33301 19 22 25c20.667 4 35.5 8.5 44.5 13.5s14.833 12 17.5 21s4 23.167 4 42.5v454c0 20 -1.33301 34.333 -4 43s-8.33398 15.5 -17.001 20.5s-23.667 9.5 -45 13.5c-6.66699 2 -12 5.16699 -16 9.5
s-6 9.5 -6 15.5c0 8.66699 2.66699 14.5 8 17.5s15 4.5 29 4.5h193c12 0 20.5 -1.5 25.5 -4.5s7.5 -8.83301 7.5 -17.5c0 -10.667 -6.66699 -19 -20 -25c-20 -4 -34.333 -8.5 -43 -13.5s-14.167 -11.833 -16.5 -20.5s-3.5 -23 -3.5 -43v-191c0 -10.667 2.66699 -16 8 -16
c4.66699 0 10.334 3.33301 17.001 10l233 221c12 12 18 21.667 18 29c0 6 -4.5 11.333 -13.5 16s-22.833 8.66699 -41.5 12c-10.667 5.33301 -16 13 -16 23c0 8.66699 4 14.5 12 17.5s20.667 4.5 38 4.5h166c15.333 0 27 -1.66699 35 -5s12 -9.66602 12 -18.999
c0 -14.667 -9.66699 -23.334 -29 -26.001c-19.333 -1.33301 -34 -2.83301 -44 -4.5s-20.333 -5.83398 -31 -12.501s-23 -17 -37 -31l-127 -124c-6 -6 -9 -13.667 -9 -23c0 -7.33301 2 -14.666 6 -21.999l208 -338c12 -20 23.333 -33.5 34 -40.5s27.334 -11.167 50.001 -12.5
c15.333 -2.66699 23 -10.334 23 -23.001c0 -8.66699 -3.33301 -14.667 -10 -18s-16.667 -5 -30 -5h-188c-21.333 0 -32 7.33301 -32 22c0 11.333 8.33301 18.666 25 21.999c14.667 1.33301 25.167 3.5 31.5 6.5s9.5 7.16699 9.5 12.5c0 6.66699 -5.33301 19 -16 37l-168 263
c-6.66699 12 -14.334 18 -23.001 18c-6.66699 0 -14.334 -4.33301 -23.001 -13l-68 -65c-6.66699 -7.33301 -11.667 -14.833 -15 -22.5s-5 -17.834 -5 -30.501v-126c0 -20 1.16699 -34.333 3.5 -43s8 -15.5 17 -20.5s23.833 -9.5 44.5 -13.5c6 -2 11 -5.16699 15 -9.5
s6 -9.5 6 -15.5c0 -8.66699 -2.5 -14.5 -7.5 -17.5s-14.167 -4.5 -27.5 -4.5h-194c-14 0 -23.667 1.5 -29 4.5z" />
    <glyph glyph-name="L" unicode="L" horiz-adv-x="592" 
d="M481 -12c-10.667 8 -28 11.999 -52 11.999h-271l-89 -1c-14 0 -23.667 1.5 -29 4.5s-8 8.83301 -8 17.5c0 10.667 7.33301 19 22 25c21.333 4 36.333 8.5 45 13.5s14.334 11.833 17.001 20.5s4 23 4 43v454c0 19.333 -1.33301 33.5 -4 42.5s-8.5 16 -17.5 21
s-23.833 9.5 -44.5 13.5c-6.66699 2 -12 5.16699 -16 9.5s-6 9.5 -6 15.5c0 8.66699 2.66699 14.5 8 17.5s15 4.5 29 4.5h204c16.667 0 28.334 -1.5 35.001 -4.5s10 -8.83301 10 -17.5c0 -10 -9 -18.333 -27 -25c-24.667 -4 -42.334 -8.5 -53.001 -13.5s-17.667 -12 -21 -21
s-5 -23.167 -5 -42.5v-476c0 -22.667 3.33301 -37.167 10 -43.5s18.667 -9.5 36 -9.5h168c17.333 0 31 3.83301 41 11.5s19.333 21.834 28 42.501s19 52.667 31 96c6 18 15.667 27 29 27s20 -8.66699 20 -26c0 -19.333 -7.33301 -55.333 -22 -108
c-8.66699 -32.667 -15.834 -56.667 -21.501 -72s-10.5 -25.333 -14.5 -30s-9 -7 -15 -7s-13 2 -21 6z" />
    <glyph glyph-name="M" unicode="M" horiz-adv-x="907" 
d="M32 5c-6.66699 4 -10.002 9.66406 -10.002 16.9971c0 6 2.33301 10.833 7 14.5s10.667 6.16699 18 7.5c20.667 2 35.667 5 45 9s16.166 11.333 20.499 22s7.5 27.334 9.5 50.001l35 467l1 16c0 19.333 -4.5 32.166 -13.5 38.499s-27.167 11.166 -54.5 14.499
c-12.667 3.33301 -19 10.333 -19 21c0 8 2.66699 13.333 8 16s13 4 23 4c22 0 39.333 -0.333008 52 -1l52 -1c11.333 0 19.833 -1.33301 25.5 -4s9.5 -7 11.5 -13l3 -22c4 -13.333 6.66699 -21.666 8 -24.999l197 -489c2 -6 5 -9 9 -9c3.33301 0 6.33301 3 9 9l187 489
c3.33301 8 5.33301 15.333 6 22c0 12 0.333008 20.333 1 25c1.33301 6 4.33301 10.333 9 13s12.667 4 24 4c21.333 0 37.5 0.166992 48.5 0.5s19.5 0.5 25.5 0.5c7.33301 0.666992 19 1 35 1c23.333 0 35 -7.33301 35 -22c0 -4.66699 -2 -9.16699 -6 -13.5
s-9 -7.16602 -15 -8.49902c-21.333 -2 -36.166 -4.66699 -44.499 -8s-14 -9.33301 -17 -18s-3.83301 -22.667 -2.5 -42l30 -474c1.33301 -20 3.83301 -34.5 7.5 -43.5s10.334 -15.5 20.001 -19.5s24.834 -6.66699 45.501 -8c17.333 -4 26 -11.333 26 -22
c0 -14 -10.333 -21.667 -31 -23c-96 0 -167.333 -0.333008 -214 -1c-24 0 -36 7.66699 -36 23c0 4.66699 2.16699 9 6.5 13s9.5 6.66699 15.5 8c21.333 2 36.5 4.66699 45.5 8s15.167 9.66602 18.5 18.999s4.33301 24 3 44l-19 409c0 2.66699 -0.666992 5 -2 7s-3 3 -5 3
c-2.66699 0 -5 -2.66699 -7 -8s-3.33301 -8.33301 -4 -9l-194 -490c-7.33301 -16.667 -15.333 -25 -24 -25c-5.33301 0 -10.166 2.33301 -14.499 7s-7.83301 10.334 -10.5 17.001l-203 491c-0.666992 1.33301 -2.16699 4.5 -4.5 9.5s-4.83301 7.5 -7.5 7.5
c-2 0 -3.66699 -0.833008 -5 -2.5s-2 -4.16699 -2 -7.5l-23 -416c-0.666992 -19.333 0.833008 -33.166 4.5 -41.499s10.167 -13.833 19.5 -16.5s25.333 -4.66699 48 -6c15.333 -3.33301 23 -10.666 23 -21.999c0 -14.667 -12 -22 -36 -22l-85 1l-83 -1
c-10.667 0 -19.334 2 -26.001 6z" />
    <glyph glyph-name="N" unicode="N" horiz-adv-x="747" 
d="M64 -1c-11.333 0 -19.5039 1.66406 -24.5039 4.99707s-7.5 8.33301 -7.5 15c0 12 6.66699 19.667 20 23c23.333 2.66699 39.333 6.5 48 11.5s14.167 14.5 16.5 28.5s3.5 39.667 3.5 77v408c0 27.333 -1.16699 46.5 -3.5 57.5s-7.66602 18.833 -15.999 23.5
s-23.5 8.33398 -45.5 11.001c-15.333 4.66699 -23 12.334 -23 23.001c0 6.66699 2.33301 11.5 7 14.5s13.667 4.5 27 4.5h111c8.66699 0 15.5 -1 20.5 -3s9.16699 -5.33301 12.5 -10l360 -510c4 -6 8.66699 -9 14 -9s8 5 8 15v382c0 28 -1.16699 47.333 -3.5 58
s-7.66602 18.334 -15.999 23.001s-23.5 8.33398 -45.5 11.001c-15.333 3.33301 -23 11.333 -23 24c0 6.66699 2.33301 11.5 7 14.5s13.667 4.5 27 4.5h158c11.333 0 19.5 -1.66699 24.5 -5s7.5 -8.33301 7.5 -15c0 -12 -6.66699 -19.667 -20 -23
c-23.333 -2.66699 -39.166 -6.5 -47.499 -11.5s-13.833 -14.667 -16.5 -29s-4 -39.833 -4 -76.5v-521c0 -7.33301 -2 -12.833 -6 -16.5s-9 -5.5 -15 -5.5c-6.66699 0 -12 1.33301 -16 4s-8 6.66699 -12 12l-406 559c-3.33301 3.33301 -6.66602 5 -9.99902 5
c-4.66699 0 -7 -3.33301 -7 -10v-434c0 -28 1.16699 -47.5 3.5 -58.5s7.83301 -18.833 16.5 -23.5s23.667 -8.33398 45 -11.001c8 -2 13.833 -4.83301 17.5 -8.5s5.5 -8.5 5.5 -14.5c0 -6.66699 -2.5 -11.667 -7.5 -15s-13.833 -5 -26.5 -5z" />
    <glyph glyph-name="O" unicode="O" horiz-adv-x="731" 
d="M195 34c-50.667 30 -90.498 72.501 -119.498 127.501s-43.5 118.5 -43.5 190.5c0 67.333 13.833 128.333 41.5 183s66.667 97.667 117 129s108.5 47 174.5 47c63.333 0 120.333 -14.833 171 -44.5s90.5 -71.834 119.5 -126.501s43.5 -117.667 43.5 -189
c0 -68 -13.833 -129.5 -41.5 -184.5s-66.834 -98.333 -117.501 -130s-109 -47.5 -175 -47.5c-62.667 0 -119.334 15 -170.001 45zM489.502 72.001c33 21.333 59.332 52.333 78.999 93s29.5 88.667 29.5 144c0 59.333 -10.5 116 -31.5 170s-50.333 97.667 -88 131
s-80.5 50 -128.5 50c-40 0 -76.667 -10.5 -110 -31.5s-59.666 -51.667 -78.999 -92s-29 -87.833 -29 -142.5c0 -60 10.5 -117.167 31.5 -171.5s50.333 -98.333 88 -132s80.5 -50.5 128.5 -50.5c40 0 76.5 10.667 109.5 32z" />
    <glyph glyph-name="P" unicode="P" horiz-adv-x="618" 
d="M40 3.5c-5.33301 3 -8.00391 8.83301 -8.00391 17.5c0 10.667 7.33301 19 22 25c21.333 4.66699 36.333 9.33398 45 14.001s14.334 11.5 17.001 20.5s4 23.167 4 42.5v444c0 27.333 -1.16699 46.333 -3.5 57s-7.83301 18.334 -16.5 23.001s-24 8.33398 -46 11.001
c-14.667 3.33301 -22 11 -22 23c0 6.66699 2.5 11.667 7.5 15s13.833 5 26.5 5c32 0 79.333 0.666992 142 2l98 1c94.667 0 167.334 -19 218.001 -57s76 -91.667 76 -161c0 -67.333 -23.667 -119 -71 -155s-116.666 -54 -207.999 -54h-72c-16.667 0 -27 -2.5 -31 -7.5
s-6 -15.5 -6 -31.5v-105c0 -22.667 1.66699 -38.834 5 -48.501s10.333 -16.834 21 -21.501s29.334 -9.33398 56.001 -14.001c18 -4.66699 27 -14 27 -28c0 -7.33301 -3.33301 -12.833 -10 -16.5s-18 -5.5 -34 -5.5h-208c-14 0 -23.667 1.5 -29 4.5zM319.996 324
c58.667 0 103.166 13.5 133.499 40.5s45.5 63.167 45.5 108.5c0 58.667 -18.167 103.667 -54.5 135s-86.833 47 -151.5 47h-39c-15.333 0 -26.166 -3.5 -32.499 -10.5s-9.5 -19.833 -9.5 -38.5v-248c0 -12 2.33301 -20.667 7 -26s15 -8 31 -8h70z" />
    <glyph glyph-name="Q" unicode="Q" horiz-adv-x="731" 
d="M936 -64c0 -9.33301 -4.99609 -19.333 -14.9961 -30s-25.5 -19.5 -46.5 -26.5s-47.167 -10.5 -78.5 -10.5c-35.333 0 -69.333 6 -102 18s-71.334 29.333 -116.001 52c-36 18 -65.167 31.5 -87.5 40.5s-44.166 13.833 -65.499 14.5c-21.333 -3.33301 -41.333 -5 -60 -5
c-62.667 0 -119.334 15 -170.001 45s-90.5 72.5 -119.5 127.5s-43.5 118.5 -43.5 190.5c0 67.333 13.833 128.333 41.5 183s66.667 97.667 117 129s108.5 47 174.5 47c63.333 0 120.333 -14.833 171 -44.5s90.5 -71.834 119.5 -126.501s43.5 -117.667 43.5 -189
c0 -74 -16.5 -140.333 -49.5 -199s-78.5 -102 -136.5 -130c23.333 -7.33301 57.666 -21.666 102.999 -42.999c38.667 -18 71.5 -31.667 98.5 -41s53.167 -14 78.5 -14c16.667 0 31.167 2 43.5 6s26.166 9.66699 41.499 17c14.667 8 25.667 12 33 12
s13.666 -2.66699 18.999 -8c4 -4 6 -9 6 -15zM163.504 222.5c21 -54.333 50.332 -98.333 87.999 -132s80.5 -50.5 128.5 -50.5c40 0 76.5 10.667 109.5 32s59.333 52.333 79 93s29.5 88.667 29.5 144c0 59.333 -10.5 116 -31.5 170s-50.333 97.667 -88 131
s-80.5 50 -128.5 50c-40 0 -76.667 -10.5 -110 -31.5s-59.666 -51.667 -78.999 -92s-29 -87.833 -29 -142.5c0 -60 10.5 -117.167 31.5 -171.5z" />
    <glyph glyph-name="R" unicode="R" horiz-adv-x="707" 
d="M39.5 3.5c-5 3 -7.49512 8.83496 -7.49512 17.502c0 10.667 7.33301 19 22 25c21.333 4.66699 36.333 9.33398 45 14.001s14.334 11.5 17.001 20.5s4 23.167 4 42.5v444c0 24 -1.33301 41.167 -4 51.5s-8.33398 17.833 -17.001 22.5s-23.667 9 -45 13
c-14.667 6 -22 15 -22 27c0 6.66699 2.5 11.667 7.5 15s13.833 5 26.5 5c30.667 0 82 0.666992 154 2l106 1c182.667 0 274 -67 274 -201c0 -44 -12.833 -81.333 -38.5 -112s-64.834 -53.334 -117.501 -68.001c-3.33301 -1.33301 -5.16602 -3.33301 -5.49902 -6
s1.16699 -4.33398 4.5 -5.00098c33.333 -14 57.833 -33.667 73.5 -59s31.167 -62 46.5 -110c10.667 -34.667 21 -60.167 31 -76.5s24 -24.5 42 -24.5c11.333 0 19.833 2 25.5 6s11 9.16699 16 15.5s9.16699 9.5 12.5 9.5c7.33301 0 11 -5 11 -15
c0 -17.333 -9.83301 -32.833 -29.5 -46.5s-44.834 -20.5 -75.501 -20.5c-29.333 0 -52.333 5.66699 -69 17s-28.834 26.166 -36.501 44.499s-14.834 43.166 -21.501 74.499c-12 56 -30 99 -54 129s-58 45 -102 45h-62c-16 0 -26.5 -2.66699 -31.5 -8s-7.5 -16.333 -7.5 -33
v-127c0 -24 1.33301 -41.167 4 -51.5s8.16699 -17.833 16.5 -22.5s23.166 -9 44.499 -13c14.667 -6 22 -14.667 22 -26c0 -7.33301 -2.33301 -12.666 -7 -15.999s-13.334 -5 -26.001 -5h-199c-13.333 0 -22.5 1.5 -27.5 4.5zM322.005 347.002
c59.333 0 103.667 13.168 133 39.501s44 60.166 44 101.499c0 54 -15.5 95.333 -46.5 124s-77.167 43 -138.5 43h-59c-16 0 -27.167 -3.5 -33.5 -10.5s-9.5 -20.167 -9.5 -39.5v-214c0 -16 2.66699 -27.333 8 -34s16.333 -10 33 -10h69z" />
    <glyph glyph-name="S" unicode="S" horiz-adv-x="572" 
d="M154 16c-40 18 -71.001 43 -93.001 75c-13.333 18 -22 35 -26 51c-5.33301 14.667 -8 30.667 -8 48c0 14.667 3.5 26.167 10.5 34.5s16.833 12.5 29.5 12.5c11.333 0 21.5 -3.66699 30.5 -11s14.5 -19 16.5 -35c0 -44.667 14.167 -80.834 42.5 -108.501
s67.5 -41.5 117.5 -41.5c46.667 0 84.167 12.167 112.5 36.5s42.5 56.833 42.5 97.5c0 38.667 -14.167 70.334 -42.5 95.001s-72.5 45.667 -132.5 63c-75.333 22.667 -128.166 49.834 -158.499 81.501s-45.5 73.167 -45.5 124.5c0 32 9.16699 61 27.5 87
s44.333 46.667 78 62s73.167 23 118.5 23c44 0 85 -8.83301 123 -26.5s67.667 -42.5 89 -74.5c9.33301 -13.333 17 -27.666 23 -42.999c6 -18 9 -36.667 9 -56c0 -13.333 -3.33301 -23.833 -10 -31.5s-16 -11.5 -28 -11.5c-10.667 0 -20.167 3.16699 -28.5 9.5
s-13.5 17.166 -15.5 32.499c-1.33301 45.333 -15.5 81.666 -42.5 108.999s-63.833 41 -110.5 41c-38.667 0 -71 -10 -97 -30s-39 -46.333 -39 -79c0 -34 12.5 -62.167 37.5 -84.5s66.5 -41.5 124.5 -57.5c82 -22 140.833 -50.667 176.5 -86s53.5 -78.666 53.5 -129.999
c0 -40.667 -10.5 -76.334 -31.5 -107.001s-50.667 -54.5 -89 -71.5s-82.833 -25.5 -133.5 -25.5c-47.333 0 -91 9 -131 27z" />
    <glyph glyph-name="T" unicode="T" horiz-adv-x="641" 
d="M169.5 3.5c-7 3 -10.4971 8.83691 -10.4971 17.5039c0 10 9.66699 18.333 29 25c27.333 4 46.666 8.5 57.999 13.5s18.666 11.833 21.999 20.5s5 23 5 43v476c0 21.333 -2.33301 35.666 -7 42.999s-15 11 -31 11h-67c-16 0 -28.333 -3.5 -37 -10.5
s-16.334 -19.333 -23.001 -37s-16.334 -48.834 -29.001 -93.501c-5.33301 -16 -10.833 -27.167 -16.5 -33.5s-12.5 -9.5 -20.5 -9.5s-13.667 2.16699 -17 6.5s-5 11.166 -5 20.499c0 17.333 7.66699 54.333 23 111c11.333 42.667 20.666 71.834 27.999 87.501
s15.666 23.5 24.999 23.5c4.66699 0 11.667 -2 21 -6c14.667 -8 32 -12 52 -12h300c14.667 0 25.5 1 32.5 3s14.5 5 22.5 9s14.667 6 20 6c6 0 11.167 -2.5 15.5 -7.5s9.33301 -15.333 15 -31s12.834 -39.834 21.501 -72.501c7.33301 -26 13.333 -49 18 -69s7 -35 7 -45
c0 -8.66699 -1.66699 -14.834 -5 -18.501s-8.66602 -5.5 -15.999 -5.5c-8.66699 0 -15.834 3.16699 -21.501 9.5s-11.5 17.5 -17.5 33.5c-12 44 -21.333 75 -28 93s-14.167 30.5 -22.5 37.5s-20.166 10.5 -35.499 10.5h-68c-17.333 0 -28.166 -3.5 -32.499 -10.5
s-6.5 -21.5 -6.5 -43.5v-472c0 -22 1.66699 -37.5 5 -46.5s10.5 -16 21.5 -21s30.5 -9.5 58.5 -13.5c19.333 -6.66699 29 -15 29 -25c0 -7.33301 -3.16699 -12.833 -9.5 -16.5s-17.833 -5.5 -34.5 -5.5h-231c-18 0 -30.5 1.5 -37.5 4.5z" />
    <glyph glyph-name="U" unicode="U" horiz-adv-x="740" 
d="M169 53c-46.667 42.667 -69.9941 106.33 -69.9941 190.997v323c0 23.333 -1.33301 40 -4 50s-8.33398 17.667 -17.001 23s-23.334 10 -44.001 14c-14.667 5.33301 -22 14 -22 26c0 6.66699 2.66699 11.834 8 15.501s14.333 5.5 27 5.5l197 -1
c13.333 0 22.666 -1.5 27.999 -4.5s8 -8.83301 8 -17.5c0 -11.333 -7.33301 -19.333 -22 -24c-21.333 -4.66699 -36.5 -9.33398 -45.5 -14.001s-14.833 -11.5 -17.5 -20.5s-4 -23.167 -4 -42.5v-326c0 -65.333 17.167 -115.166 51.5 -149.499s84.5 -51.5 150.5 -51.5
c64 0 113.167 16.333 147.5 49s51.5 79 51.5 139v316c0 28.667 -1.5 49 -4.5 61s-8.66699 20.5 -17 25.5s-22.833 9.16699 -43.5 12.5c-15.333 6 -23 14.333 -23 25c0 8 3 13.667 9 17s15.333 5 28 5h71c31.333 0 57.666 0.333008 78.999 1c24.667 0 37 -7.33301 37 -22
c0 -10.667 -7.33301 -19 -22 -25c-20.667 -3.33301 -35.334 -7.66602 -44.001 -12.999s-14.5 -14.166 -17.5 -26.499s-4.5 -32.5 -4.5 -60.5v-307c0 -86 -22.333 -150.5 -67 -193.5s-110.334 -64.5 -197.001 -64.5c-91.333 0 -160.333 21.333 -207 64z" />
    <glyph glyph-name="V" unicode="V" horiz-adv-x="731" 
d="M364 -3c-24 0 -41.666 14.335 -52.999 43.002l-210 548c-6.66699 18 -13.167 31.167 -19.5 39.5s-13.166 13.666 -20.499 15.999s-19 4.83301 -35 7.5c-14 4 -21 12 -21 24c0 10 4.5 16.667 13.5 20s24.833 5 47.5 5h81c32 0 58.667 0.333008 80 1
c21.333 0 35.5 -1.83301 42.5 -5.5s10.5 -9.83398 10.5 -18.501c0 -11.333 -8 -19.333 -24 -24c-24.667 -2.66699 -41 -5.16699 -49 -7.5s-12 -7.83301 -12 -16.5c0 -6.66699 2.66699 -17.334 8 -32.001l173 -471c3.33301 -9.33301 7 -14 11 -14c3.33301 0 7 4.66699 11 14
l127 347l50 134c3.33301 8.66699 5 16.334 5 23.001c0 8 -3.33301 13 -10 15s-16.334 3.5 -29.001 4.5s-21.667 1.83301 -27 2.5c-15.333 4 -23 12.333 -23 25c0 8 3.16699 14 9.5 18s16.5 6 30.5 6c10 0 17.667 -0.333008 23 -1l73 -1c10.667 0 32 0.666992 64 2
c23.333 0 35 -7.66699 35 -23c0 -13.333 -8.33301 -22 -25 -26c-20.667 -2 -35.834 -6 -45.501 -12s-18.5 -20 -26.5 -42l-213 -558c-4.66699 -14 -11.5 -24.667 -20.5 -32s-18.833 -11 -29.5 -11h-2z" />
    <glyph glyph-name="W" unicode="W" horiz-adv-x="1053" 
d="M328 -3c-25.333 0 -42.999 14.332 -52.999 42.999l-172 541c-6.66699 20 -12.667 34.333 -18 43s-12.166 14.834 -20.499 18.501s-20.833 6.5 -37.5 8.5c-14.667 4 -22 12.333 -22 25c0 9.33301 4.5 15.833 13.5 19.5s24.167 5.5 45.5 5.5c26.667 -0.666992 55 -1 85 -1
c29.333 0 55.666 0.333008 78.999 1c17.333 0 29.333 -2 36 -6s10 -10.333 10 -19c0 -4.66699 -1.83301 -9 -5.5 -13s-7.83398 -6.33301 -12.501 -7c-22.667 -2 -38.167 -5 -46.5 -9s-12.5 -11 -12.5 -21c0 -8 2.66699 -20.667 8 -38l138 -469c2.66699 -8 6 -12 10 -12
s7 4 9 12l131 397c4.66699 12 7 25 7 39c0 11.333 -2.33301 26.333 -7 45c-4.66699 18 -12 30.333 -22 37s-27.333 11.334 -52 14.001c-13.333 2.66699 -20 11 -20 25c0 16 12.667 24 38 24h187c14 0 24.167 -1.83301 30.5 -5.5s9.5 -9.5 9.5 -17.5
c0 -5.33301 -1.83301 -10.333 -5.5 -15s-8.16699 -7.66699 -13.5 -9c-20 -1.33301 -35 -2.83301 -45 -4.5s-16.667 -4.16699 -20 -7.5c-2.66699 -2.66699 -4 -6 -4 -10c0 -4.66699 2.33301 -15.334 7 -32.001l138 -481c2 -6 5 -9 9 -9s7 3 9 9l159 487c3.33301 10 5 17 5 21
c0 8.66699 -5.5 14.834 -16.5 18.501s-31.833 6.83398 -62.5 9.50098c-12 3.33301 -18 10.666 -18 21.999c0 8.66699 3 15 9 19s16 6 30 6c24 -0.666992 52.667 -1 86 -1c32.667 0 60 0.333008 82 1c10.667 0 19.167 -2 25.5 -6s9.5 -10 9.5 -18
c0 -12.667 -7.66699 -20.334 -23 -23.001c-20.667 -2 -35.5 -4.5 -44.5 -7.5s-15.833 -8 -20.5 -15s-9.66699 -18.5 -15 -34.5l-183 -557c-10 -28.667 -27 -43 -51 -43h-3c-12.667 0 -23.667 3.5 -33 10.5s-16.333 17.5 -21 31.5l-117 413c-2 7.33301 -4.66699 11 -8 11
s-6.33301 -3.66699 -9 -11c-15.333 -46 -24.666 -73.667 -27.999 -83l-49.5 -148l-61.5 -181c-8.66699 -28.667 -25.334 -43 -50.001 -43h-3z" />
    <glyph glyph-name="X" unicode="X" horiz-adv-x="739" 
d="M19 18c0 7.33301 2.16504 13.6641 6.49805 18.9971s11.166 8.33301 20.499 9c22 2 37.667 5.66699 47 11s21.333 18.333 36 39l177 246c4.66699 7.33301 7 14.333 7 21s-1.66699 12 -5 16l-156 225c-13.333 18.667 -24.5 30.834 -33.5 36.501s-25.5 9.83398 -49.5 12.501
c-6 0.666992 -10.667 3 -14 7s-5 9.66699 -5 17c0 10 3.33301 16.5 10 19.5s18 4.5 34 4.5c20.667 -0.666992 52.334 -1 95.001 -1c44 0 76.667 0.333008 98 1c14 0 24 -1.66699 30 -5s9 -9 9 -17c0 -6 -1.66699 -11.167 -5 -15.5s-8 -6.83301 -14 -7.5
c-22 -2 -37.667 -4.5 -47 -7.5s-14 -7.5 -14 -13.5c0 -4 2.66699 -9.66699 8 -17l124 -179c5.33301 -7.33301 10.666 -11 15.999 -11s10.333 3.33301 15 10l121 174c6.66699 9.33301 10 17 10 23c0 6.66699 -4.66699 11.834 -14 15.501s-25 6.16699 -47 7.5
c-6.66699 0.666992 -12 3.33398 -16 8.00098s-6 9.66699 -6 15c0 14 12.333 21 37 21c42.667 -1.33301 69.334 -2 80.001 -2c18 0 31.667 0.333008 41 1l49 1c18.667 0 28 -7 28 -21c0 -7.33301 -2.16699 -13.666 -6.5 -18.999s-11.166 -8.33301 -20.499 -9
c-21.333 -2 -36.833 -5.83301 -46.5 -11.5s-21.834 -18.5 -36.501 -38.5l-148 -208c-4 -6 -6 -12.333 -6 -19c0 -6 1.33301 -10.667 4 -14l170 -245c14.667 -20.667 26 -35.334 34 -44.001s16.333 -14.667 25 -18s22.334 -6.33301 41.001 -9c12 -2 18 -10.333 18 -25
c0 -8.66699 -3.16699 -14.834 -9.5 -18.501s-17.833 -5.5 -34.5 -5.5c-20 0.666992 -48 1 -84 1c-41.333 0 -77.333 -0.333008 -108 -1c-12 0 -21 1.66699 -27 5s-9 9 -9 17c0 15.333 9 23.333 27 24c16 1.33301 27.333 3.16602 34 5.49902s10 6.83301 10 13.5
c0 8.66699 -7 23 -21 43l-134 193c-6 8 -11.333 12 -16 12c-5.33301 0 -10.333 -3.33301 -15 -10l-152 -213c-7.33301 -10.667 -11 -18.667 -11 -24c0 -6.66699 4.33301 -11.667 13 -15s23 -6 43 -8c7.33301 -0.666992 13 -3.16699 17 -7.5s6 -9.16602 6 -14.499
c0 -8 -3.16699 -13.5 -9.5 -16.5s-15.833 -4.5 -28.5 -4.5c-26 0.666992 -58.333 1 -97 1c-27.333 0 -48.666 -0.333008 -63.999 -1c-20.667 0 -31 7 -31 21z" />
    <glyph glyph-name="Y" unicode="Y" horiz-adv-x="677" 
d="M217 3.5c-5.33301 3 -7.99902 8.83594 -7.99902 17.5029c0 10.667 7.33301 19 22 25c20.667 4 35.5 8.5 44.5 13.5s14.667 11.833 17 20.5s3.5 23 3.5 43v125c0 19.333 -6.66699 40.666 -20 63.999l-170 292c-10.667 19.333 -20.834 31.666 -30.501 36.999
s-25.834 9 -48.501 11c-14.667 3.33301 -22 11.666 -22 24.999c0 9.33301 3.33301 15.666 10 18.999s17.334 5 32.001 5h125h67c28.667 0 43 -7 43 -21c0 -12 -6.33301 -20.333 -19 -25c-21.333 -2 -36.666 -4.83301 -45.999 -8.5s-14 -9.16699 -14 -16.5
c0 -6 2.33301 -12.667 7 -20l145 -246c3.33301 -6 6.66602 -9 9.99902 -9c4 0 7.33301 3 10 9l147 254c3.33301 6.66699 5 12 5 16c0 7.33301 -5.66699 12.833 -17 16.5s-29.333 6.16699 -54 7.5c-9.33301 4.66699 -14 11.667 -14 21c0 8 2.66699 13.667 8 17
s13.666 5 24.999 5h59h108c20 0 30 -6.66699 30 -20s-8.66699 -22.666 -26 -27.999c-14.667 -0.666992 -25.667 -2.5 -33 -5.5s-13.166 -7.33301 -17.499 -13s-10.833 -15.834 -19.5 -30.501l-169 -287c-12 -21.333 -18 -44 -18 -68v-116c0 -23.333 1.16699 -40 3.5 -50
s7.83301 -17.667 16.5 -23s23.667 -10 45 -14c15.333 -5.33301 23 -13.666 23 -24.999c0 -7.33301 -2.5 -12.833 -7.5 -16.5s-13.833 -5.5 -26.5 -5.5h-197c-14 0 -23.667 1.5 -29 4.5z" />
    <glyph glyph-name="Z" unicode="Z" horiz-adv-x="613" 
d="M495 -13c-34.667 8.66699 -66.3359 12.9951 -95.0029 12.9951h-345c-9.33301 0 -16.666 2 -21.999 6s-8 9 -8 15c0 6.66699 2 13.334 6 20.001s6.33301 10.667 7 12l406 579c4 5.33301 6 9.66602 6 12.999c0 5.33301 -4.66699 8 -14 8h-236
c-16 0 -28.5 -3.33301 -37.5 -10s-17.5 -20.167 -25.5 -40.5s-19 -53.833 -33 -100.5c-3.33301 -9.33301 -7.16602 -16.166 -11.499 -20.499s-10.166 -6.5 -17.499 -6.5c-6.66699 0 -11.667 2 -15 6s-5 11.333 -5 22c0 20.667 7 55.334 21 104.001
c10 34.667 17.667 59.334 23 74.001s10 24.5 14 29.5s9 7.5 15 7.5c4 0 11.333 -2 22 -6c10 -4 19.167 -7 27.5 -9s19.166 -3 32.499 -3h354c5.33301 0 9.83301 -1.16699 13.5 -3.5s5.83398 -4.83301 6.50098 -7.5c0.666992 -1.33301 1 -3.33301 1 -6
c0 -5.33301 -2.33301 -11.666 -7 -18.999l-416 -583c-7.33301 -10.667 -11 -19 -11 -25s5 -9 15 -9h279c14.667 0 26.334 3.66699 35.001 11s17.334 21.5 26.001 42.5s20 54.833 34 101.5c4 8.66699 8.16699 14.834 12.5 18.501s9.83301 5.5 16.5 5.5
c12.667 0 19 -10.667 19 -32s-7 -55.333 -21 -102c-10 -33.333 -17.833 -57.5 -23.5 -72.5s-10.334 -24.833 -14.001 -29.5s-7.83398 -7 -12.501 -7c-2.66699 0 -10 1.33301 -22 4z" />
    <glyph glyph-name="bracketleft" unicode="[" horiz-adv-x="277" 
d="M82 -154c-20 0 -33.333 3.33301 -40 10s-10 18 -10 34v805c0 15.333 3.33301 26.5 10 33.5s20 10.5 40 10.5h170c13.333 0 20 -7.33301 20 -22s-7 -22 -21 -22h-105c-10.667 0 -18 -2.16699 -22 -6.5s-6 -10.5 -6 -18.5v-755c0 -8 2 -14.167 6 -18.5s11.333 -6.5 22 -6.5
h103c15.333 0 23 -7.33301 23 -22s-7 -22 -21 -22h-169z" />
    <glyph glyph-name="backslash" unicode="\" horiz-adv-x="532" 
d="M39 676c-4.66699 12 -7.00098 19.999 -7.00098 23.999c0 6 2.33301 10.5 7 13.5s12.334 4.5 23.001 4.5c15.333 0 26 -2.66699 32 -8s12.667 -16 20 -32l378 -815c5.33301 -10.667 8 -19 8 -25c0 -11.333 -10.333 -17 -31 -17c-15.333 0 -26 2.83301 -32 8.5
s-12.667 15.834 -20 30.501z" />
    <glyph glyph-name="bracketright" unicode="]" horiz-adv-x="277" 
d="M26 -154c-14 0 -21 7.33301 -21 22s7.66699 22 23 22h103c10.667 0 18 2.16699 22 6.5s6 10.5 6 18.5v755c0 8 -2 14.167 -6 18.5s-11.333 6.5 -22 6.5h-105c-14 0 -21 7.33301 -21 22s6.66699 22 20 22h170c20 0 33.333 -3.5 40 -10.5s10 -18.167 10 -33.5v-805
c0 -16 -3.33301 -27.333 -10 -34s-20 -10 -40 -10h-169z" />
    <glyph glyph-name="asciicircum" unicode="^" horiz-adv-x="370" 
d="M35.5 528.5c-2.33301 3.66699 -2.83301 8.16602 -1.5 13.499c5.33301 15.333 22.833 37.833 52.5 67.5s54.5 51.167 74.5 64.5c7.33301 5.33301 15.333 8 24 8c7.33301 0 15.666 -2.66699 24.999 -8c18.667 -12 42.667 -33.167 72 -63.5s47.333 -53.166 54 -68.499
c0.666992 -1.33301 1 -3 1 -5c0 -4 -1.33301 -7.33301 -4 -10s-5.66699 -4 -9 -4c-9.33301 0 -21 5.33301 -35 16l-29 26l-47 42c-15.333 13.333 -24.666 20 -27.999 20c-4 0 -31.333 -22.333 -82 -67c-6 -6 -13.667 -13 -23 -21c-6 -4.66699 -12.333 -8.5 -19 -11.5
s-11.667 -4.5 -15 -4.5c-4.66699 0 -8.16699 1.83301 -10.5 5.5z" />
    <glyph glyph-name="underscore" unicode="_" horiz-adv-x="492" 
d="M26 -143c-17.333 0 -26 5.33301 -26 16c0 8 2.5 14.333 7.5 19s12.167 7 21.5 7h439c16 0 24 -5.33301 24 -16c0 -8 -2.5 -14.333 -7.5 -19s-11.5 -7 -19.5 -7h-439z" />
    <glyph glyph-name="grave" unicode="`" horiz-adv-x="258" 
d="M155 554.5c-30 21 -57.998 43.332 -83.998 66.999s-39 39.834 -39 48.501c0 6 2.5 10.333 7.5 13s14.167 4 27.5 4s23.666 -1.16699 30.999 -3.5s13.666 -7.5 18.999 -15.5c1.33301 -2 11.333 -13.667 30 -35c52.667 -58.667 79 -91.667 79 -99s-4.66699 -11 -14 -11
c-8 0 -27 10.5 -57 31.5z" />
    <glyph glyph-name="a" unicode="a" horiz-adv-x="539" 
d="M75.5 26c-25 24.667 -37.5 57.002 -37.5 97.002c0 43.333 18.167 78.5 54.5 105.5s88.166 41.5 155.499 43.5c27.333 0.666992 47.333 2 60 4s21 5.16699 25 9.5s5.33301 10.833 4 19.5l-3 25c-4.66699 36 -15 63 -31 81s-38.333 27 -67 27c-30 0 -54 -8.16699 -72 -24.5
s-26.667 -39.166 -26 -68.499c-1.33301 -12.667 -6 -22.334 -14 -29.001s-18.333 -10 -31 -10c-9.33301 0 -17.5 3.33301 -24.5 10s-10.5 16 -10.5 28c0 25.333 8.66699 48.666 26 69.999s41 38.166 71 50.499s63.333 18.5 100 18.5c52 0 91.5 -13.5 118.5 -40.5
s43.5 -66.833 49.5 -119.5l24 -193c3.33301 -28.667 8 -48.167 14 -58.5s14 -15.5 24 -15.5c6.66699 0 11.834 1.5 15.501 4.5s7.66699 7.66699 12 14s8.16602 9.5 11.499 9.5c9.33301 0 14 -6.33301 14 -19c0 -10 -3.33301 -20.667 -10 -32s-16.167 -20.833 -28.5 -28.5
s-26.166 -11.5 -41.499 -11.5c-24 0 -42.167 6.66699 -54.5 20s-21.5 33.333 -27.5 60c-2.66699 6 -5 9 -7 9s-9.16699 -8.5 -21.5 -25.5s-31.333 -32.5 -57 -46.5s-59.5 -21 -101.5 -21c-50.667 0 -88.5 12.333 -113.5 37zM316 79.002
c24.667 24.667 36.999 55.001 36.999 91.001c0 8 -0.333008 14 -1 18l-2 20c-1.33301 9.33301 -4.16602 15.833 -8.49902 19.5s-11.333 6 -21 7s-27.167 1.5 -52.5 1.5c-48 0 -83.333 -8.83301 -106 -26.5s-34 -40.834 -34 -69.501c0 -31.333 8.16699 -55.5 24.5 -72.5
s40.833 -25.5 73.5 -25.5c35.333 0 65.333 12.333 90 37z" />
    <glyph glyph-name="b" unicode="b" horiz-adv-x="558" 
d="M211.5 6c-21 11.333 -39.498 25.668 -55.498 43.001c-8.66699 8.66699 -14.334 13 -17.001 13c-4.66699 0 -11 -8.33301 -19 -25c-6 -12 -11.167 -21.167 -15.5 -27.5s-10.166 -9.5 -17.499 -9.5c-6 0 -10 1.66699 -12 5s-2.66699 9.66602 -2 18.999
c4.66699 32.667 7 79.667 7 141v437c0 14 -1.5 23.833 -4.5 29.5s-10.167 8.5 -21.5 8.5c-7.33301 0 -14 -0.333008 -20 -1s-11 -1 -15 -1c-6.66699 0 -11.5 0.833008 -14.5 2.5s-4.83301 4.5 -5.5 8.5c0 11.333 9.66699 20.333 29 27l41 12c36 12 60 18 72 18
c10 0 17.167 -2 21.5 -6s6.5 -11 6.5 -21v-288c0 -11.333 1.33301 -17 4 -17c0.666992 0 6.66699 9.66699 18 29s29.666 37.5 54.999 54.5s56.666 25.5 93.999 25.5c34.667 0 66.167 -9.33301 94.5 -28s50.666 -46 66.999 -82s24.5 -78.333 24.5 -127
c0 -49.333 -9.66699 -93.5 -29 -132.5s-46.166 -69.5 -80.499 -91.5s-73.5 -33 -117.5 -33c-37.333 0 -66.5 5.66699 -87.5 17zM396.502 81.502c24.333 32.333 36.5 76.168 36.5 131.501c0 64 -11.5 114.167 -34.5 150.5s-54.167 54.5 -93.5 54.5
c-42 0 -75.167 -16 -99.5 -48s-36.5 -71.667 -36.5 -119v-17c0 -66.667 11.833 -116.834 35.5 -150.501s55.834 -50.5 96.501 -50.5c39.333 0 71.166 16.167 95.499 48.5z" />
    <glyph glyph-name="c" unicode="c" horiz-adv-x="493" 
d="M139 21.5c-34.667 21.667 -61.1709 51.333 -79.5039 89s-27.5 79.5 -27.5 125.5c0 47.333 10 89.666 30 126.999s47.167 66.5 81.5 87.5s72.5 31.5 114.5 31.5c31.333 0 61.5 -6.16699 90.5 -18.5s52.333 -29.5 70 -51.5s26.5 -46.667 26.5 -74
c0 -11.333 -3 -20.833 -9 -28.5s-14.667 -11.5 -26 -11.5c-24.667 0 -40.667 14 -48 42c-2 28.667 -11.667 52.167 -29 70.5s-43.666 27.5 -78.999 27.5c-23.333 0 -45 -7 -65 -21s-36.167 -34 -48.5 -60s-18.5 -56.333 -18.5 -91c0 -62 14.167 -113.333 42.5 -154
s68.5 -61 120.5 -61c30.667 0 58.334 6.83301 83.001 20.5s45.334 31.5 62.001 53.5c4.66699 7.33301 9.66699 11 15 11c6.66699 0 11.334 -2.5 14.001 -7.5s3 -10.5 1 -16.5c-16.667 -37.333 -41.667 -67.166 -75 -89.499s-74.666 -33.5 -123.999 -33.5
c-46.667 0 -87.334 10.833 -122.001 32.5z" />
    <glyph glyph-name="d" unicode="d" horiz-adv-x="570" 
d="M120.5 19.5c-28.333 20.333 -50.168 48.998 -65.501 85.998s-23 79.5 -23 127.5c0 46.667 8.66699 89 26 127s42 67.833 74 89.5s69 32.5 111 32.5c32 0 57.167 -5.16699 75.5 -15.5s32.666 -21 42.999 -32s16.5 -16.5 18.5 -16.5c4 0 6.5 4.5 7.5 13.5
s1.5 25.5 1.5 49.5v121c0 14 -1.66699 23.833 -5 29.5s-10.666 8.5 -21.999 8.5c-6.66699 0 -13 -0.333008 -19 -1s-11.333 -1 -16 -1c-6.66699 0 -11.5 0.833008 -14.5 2.5s-4.5 4.83398 -4.5 9.50098c0 10.667 9.66699 19.334 29 26.001l37 11l44 13c14 4 24.667 6 32 6
c9.33301 0 16.166 -2 20.499 -6s6.5 -11 6.5 -21v-581c0 -13.333 1.66699 -23 5 -29s10 -9 20 -9c8 0 15.333 0.333008 22 1s12.334 1 17.001 1c6 0 10.333 -0.833008 13 -2.5s4.33398 -4.5 5.00098 -8.5c0 -7.33301 -2.5 -12.833 -7.5 -16.5s-12.167 -7.16699 -21.5 -10.5
c-13.333 -3.33301 -29.333 -8 -48 -14c-33.333 -10.667 -55.333 -16 -66 -16c-9.33301 0 -16.166 2 -20.499 6s-6.5 11 -6.5 21v52c-0.666992 16 -2 24 -4 24c-0.666992 0 -6.83398 -9.5 -18.501 -28.5s-30.167 -37 -55.5 -54s-56.333 -25.5 -93 -25.5
s-69.167 10.167 -97.5 30.5zM325.998 70.998c19.333 13.333 34.667 31.832 46 55.499s17 50.167 17 79.5v33c0 62.667 -11.5 111.667 -34.5 147s-55.833 53 -98.5 53c-23.333 0 -45 -6.66699 -65 -20s-36.167 -33.166 -48.5 -59.499s-18.5 -57.833 -18.5 -94.5
c0 -66.667 12.333 -119 37 -157s58.334 -57 101.001 -57c23.333 0 44.666 6.66699 63.999 20z" />
    <glyph glyph-name="e" unicode="e" horiz-adv-x="481" 
d="M136.5 23c-34.333 22.667 -60.3369 53.1641 -78.0039 91.4971s-26.5 80.833 -26.5 127.5s10.5 88.334 31.5 125.001s49 65 84 85s72.833 30 113.5 30c37.333 0 70.5 -7.83301 99.5 -23.5s51.5 -35.834 67.5 -60.501s24 -50.334 24 -77.001
c0 -21.333 -5.16699 -36.166 -15.5 -44.499s-27.5 -14.166 -51.5 -17.499l-240 -36c-5.33301 -0.666992 -9.16602 -2.16699 -11.499 -4.5s-3.5 -6.16602 -3.5 -11.499c0 -24 6 -48 18 -72s29.5 -44 52.5 -60s50.5 -24 82.5 -24c32.667 0 61.334 7.16699 86.001 21.5
s45.334 32.5 62.001 54.5c4.66699 6 9.33398 9 14.001 9c7.33301 0 12.166 -2.66699 14.499 -8s2.5 -10.666 0.5 -15.999c-16.667 -36 -42.167 -65.5 -76.5 -88.5s-75.833 -34.5 -124.5 -34.5c-47.333 0 -88.166 11.333 -122.499 34zM335.996 297.997
c12.667 2 21.334 5.00098 26.001 9.00098s7 10.333 7 19c0 17.333 -4.83301 34.666 -14.5 51.999s-23.667 31.666 -42 42.999s-39.5 17 -63.5 17c-20.667 0 -40.834 -6.16699 -60.501 -18.5s-35.667 -29.666 -48 -51.999s-18.5 -47.5 -18.5 -75.5
c0 -9.33301 0.833008 -15.833 2.5 -19.5s4.5 -5.5 8.5 -5.5s7 0.333008 9 1z" />
    <glyph glyph-name="f" unicode="f" horiz-adv-x="337" 
d="M98 -4c-23.333 0 -39.335 1.83203 -48.002 5.49902s-13 9.16699 -13 16.5c0 10 5.66699 16.667 17 20c18.667 2.66699 32 6.66699 40 12s12.833 12.333 14.5 21s2.5 23.334 2.5 44.001v291c0 14.667 -7.66699 22 -23 22h-51c-4 0 -7.33301 1.66699 -10 5
s-4 7.33301 -4 12c0 8 2 14.5 6 19.5s8.33301 7.5 13 7.5h66c-0.666992 4 -1.66699 8.33301 -3 13s-2.33301 9.33398 -3 14.001c-10 32.667 -15 63.334 -15 92.001c0 37.333 14.167 68 42.5 92s66.5 36 114.5 36c44 0 80.667 -10.667 110 -32s44 -49 44 -83
c0 -10 -3.16699 -18.667 -9.5 -26s-15.166 -11 -26.499 -11c-22 0 -35.667 13 -41 39c-1.33301 21.333 -8.5 38.166 -21.5 50.499s-31.5 18.5 -55.5 18.5c-26 0 -47 -7.83301 -63 -23.5s-24 -35.834 -24 -60.501c0 -16 2.16699 -31 6.5 -45s10.5 -29.667 18.5 -47l11 -27
h116c11.333 0 17 -5 17 -15c0 -8 -2 -14.833 -6 -20.5s-9 -8.5 -15 -8.5h-79c-9.33301 0 -16.166 -1.83301 -20.499 -5.5s-6.5 -9.5 -6.5 -17.5v-290c0 -20 1 -34.5 3 -43.5s7 -16.167 15 -21.5s21.333 -9.33301 40 -12c12 -3.33301 18 -10 18 -20
c0 -7.33301 -3.83301 -12.833 -11.5 -16.5s-23.167 -5.5 -46.5 -5.5h-119z" />
    <glyph glyph-name="g" unicode="g" horiz-adv-x="507" 
d="M441.5 56c23 -22.667 34.5049 -50.999 34.5049 -84.999c0 -48.667 -21.167 -87.334 -63.5 -116.001s-98.5 -43 -168.5 -43c-30.667 0 -60.334 3.5 -89.001 10.5s-53.667 17.5 -75 31.5c-40.667 26 -61 59 -61 99c0 14.667 4.33301 26.167 13 34.5s19.667 12.5 33 12.5
s25.166 -4 35.499 -12s17.5 -19.333 21.5 -34c0.666992 -27.333 10.334 -49 29.001 -65c23.333 -21.333 58 -32 104 -32c40 0 72.667 9.66699 98 29s38 44.666 38 75.999c0 36 -14.333 65.667 -43 89s-66 35.333 -112 36c-40 0 -76.5 8.16699 -109.5 24.5s-59 39.333 -78 69
s-28.5 64.167 -28.5 103.5c0 36.667 9.33301 70 28 100s45.167 53.833 79.5 71.5s73.166 26.5 116.499 26.5c31.333 0 59 -4.33301 83 -13v1c3.33301 -0.666992 8.33301 -1 15 -1c32 0 48 23 48 69c0 12.667 4.16699 22.5 12.5 29.5s18.166 10.5 29.499 10.5
s21.166 -3.83301 29.499 -11.5s12.5 -17.167 12.5 -28.5c0 -25.333 -7.83301 -46.666 -23.5 -63.999s-36.167 -29 -61.5 -35c24.667 -18.667 44 -41.167 58 -67.5s21 -55.5 21 -87.5c0 -42.667 -10.833 -79.5 -32.5 -110.5s-51.834 -53.833 -90.501 -68.5
c41.333 -10 73.5 -26.333 96.5 -49zM150.005 179.001c26 -32 59.666 -48 100.999 -48c38 0 68.5 12.333 91.5 37s34.5 57.334 34.5 98.001c0 48.667 -13 89.5 -39 122.5s-59.667 49.5 -101 49.5c-35.333 0 -65.166 -12.833 -89.499 -38.5s-36.5 -57.834 -36.5 -96.501
c0 -50.667 13 -92 39 -124z" />
    <glyph glyph-name="h" unicode="h" horiz-adv-x="616" 
d="M37 3.5c-8.66699 3.66699 -12.999 9.17188 -12.999 16.5049c0 4.66699 1.5 8.66699 4.5 12s7.16699 5.66602 12.5 6.99902c18.667 3.33301 32 7.66602 40 12.999s12.833 12.333 14.5 21s2.5 23 2.5 43v486c0 13.333 -1.5 23 -4.5 29s-9.83301 9 -20.5 9
c-7.33301 0 -14.166 -0.333008 -20.499 -1s-11.833 -1 -16.5 -1c-6.66699 0 -11.5 0.833008 -14.5 2.5s-4.5 5.16699 -4.5 10.5c0 6 2.5 10.833 7.5 14.5s12.167 7.16699 21.5 10.5c13.333 3.33301 29 8 47 14c3.33301 0.666992 13.166 3.5 29.499 8.5s28.5 7.5 36.5 7.5
c9.33301 0 16.166 -2 20.499 -6s6.5 -11 6.5 -21v-276c0 -16 1.33301 -24 4 -24c1.33301 0 6.66602 9.16699 15.999 27.5s26 35.666 50 51.999s55.333 24.5 94 24.5c44 0 80 -14 108 -42s45 -70.333 51 -127l21 -187c2.66699 -26 5.5 -43.833 8.5 -53.5
s8.16699 -16.5 15.5 -20.5s20.333 -7.66699 39 -11c13.333 -4.66699 20 -12 20 -22c0 -7.33301 -3.5 -12.833 -10.5 -16.5s-20.167 -5.5 -39.5 -5.5l-71 1l-68 -1c-18.667 0 -31.667 1.5 -39 4.5s-11 8.83301 -11 17.5c0 10.667 6.66699 17.667 20 21
c20.667 4 34.5 8.66699 41.5 14s10.5 16.333 10.5 33c0 5.33301 -1.33301 20.666 -4 45.999l-19 166c-5.33301 41.333 -16.666 71.5 -33.999 90.5s-43 28.5 -77 28.5c-20 0 -39.667 -5.83301 -59 -17.5s-35.333 -29.834 -48 -54.501s-19 -55.667 -19 -93v-137
c0 -20 1 -34.5 3 -43.5s7 -16 15 -21s21.333 -9.16699 40 -12.5c12 -3.33301 18 -10 18 -20c0 -7.33301 -3.83301 -12.833 -11.5 -16.5s-23.167 -5.5 -46.5 -5.5l-59 1l-60 -1c-23.333 0 -39.333 1.83301 -48 5.5z" />
    <glyph glyph-name="i" unicode="i" horiz-adv-x="282" 
d="M41 1.5c-8.66699 3.66699 -12.998 9.16504 -12.998 16.498c0 10 5.33301 16.667 16 20c18.667 2.66699 32 6.66699 40 12s12.833 12.333 14.5 21s2.5 23.334 2.5 44.001v259c0 13.333 -1.33301 23 -4 29s-8.66699 9 -18 9c-8 0 -15.333 -0.333008 -22 -1
s-12.334 -1 -17.001 -1c-7.33301 0 -12.5 0.833008 -15.5 2.5s-4.5 5.16699 -4.5 10.5c0 6 2.5 10.833 7.5 14.5s12.167 7.16699 21.5 10.5l29 9c44.667 14 72.667 21 84 21c10 0 17.167 -2 21.5 -6s6.5 -11 6.5 -21v-336c0 -20 1 -34.333 3 -43s7 -15.667 15 -21
s21.333 -9.66602 40 -12.999c12 -3.33301 18 -10 18 -20c0 -7.33301 -3.83301 -12.833 -11.5 -16.5s-23.167 -5.5 -46.5 -5.5l-60 1l-60 -1c-22.667 0 -38.334 1.83301 -47.001 5.5zM80.002 573.498c-12 9.66699 -18 22.167 -18 37.5s6 27.5 18 36.5s28 13.5 48 13.5
c19.333 0 34.833 -4.5 46.5 -13.5s17.5 -21.167 17.5 -36.5s-5.83301 -27.833 -17.5 -37.5s-27.167 -14.5 -46.5 -14.5c-20 0 -36 4.83301 -48 14.5z" />
    <glyph glyph-name="j" unicode="j" horiz-adv-x="253" 
d="M4 -176c-8 0 -14.334 2.16699 -19.001 6.5s-7 9.83301 -7 16.5c0 5.33301 1.83301 10.333 5.5 15s8.83398 8.33398 15.501 11.001c63.333 19.333 95 77.666 95 174.999v326c0 14 -1.5 24 -4.5 30s-10.167 8.66699 -21.5 8c-16 -1.33301 -26.333 -2 -31 -2
c-16 0 -24 4.33301 -24 13c0 6 2.5 10.833 7.5 14.5s12.167 7.16699 21.5 10.5l23 7c47.333 15.333 77.333 23 90 23c10 0 17.167 -2 21.5 -6s6.5 -11 6.5 -21v-382c0 -75.333 -15.833 -132.333 -47.5 -171s-72.5 -63 -122.5 -73c-2 -0.666992 -5 -1 -9 -1zM74.999 573.5
c-12 9.66699 -18 22.167 -18 37.5s6 27.5 18 36.5s28 13.5 48 13.5c19.333 0 34.833 -4.5 46.5 -13.5s17.5 -21.167 17.5 -36.5s-5.83301 -27.833 -17.5 -37.5s-27.167 -14.5 -46.5 -14.5c-20 0 -36 4.83301 -48 14.5z" />
    <glyph glyph-name="k" unicode="k" horiz-adv-x="590" 
d="M33.5 2c-7 3.33301 -10.4961 8.66504 -10.4961 15.998c0 10 5.66699 16.667 17 20c19.333 2.66699 33 6.66699 41 12s12.833 12.333 14.5 21s2.5 23.334 2.5 44.001v487c0 13.333 -1.5 23 -4.5 29s-9.5 9 -19.5 9c-7.33301 0 -14.333 -0.333008 -21 -1
s-12.334 -1 -17.001 -1c-12 0 -18.333 3.66699 -19 11c0 7.33301 2.5 13 7.5 17s12.167 7.33301 21.5 10l41 12c36 12 60 18 72 18c10 0 17.167 -2 21.5 -6s6.5 -11 6.5 -21v-411c0 -5.33301 0.833008 -9.66602 2.5 -12.999s4.16699 -5 7.5 -5c4 0 9 3 15 9l145 145
c8.66699 8.66699 13 16 13 22c0 4 -2.5 6.5 -7.5 7.5s-17.167 1.83301 -36.5 2.5c-10 1.33301 -15 7.33301 -15 18c0 6.66699 3.16699 11.5 9.5 14.5s14.166 4.5 23.499 4.5l78 -1l76 1c21.333 0 32 -7 32 -21c0 -13.333 -7.33301 -20.666 -22 -21.999
c-24.667 -0.666992 -43.834 -4.33398 -57.501 -11.001s-26.834 -16.334 -39.501 -29.001l-63 -63c-9.33301 -9.33301 -14 -17.333 -14 -24c0 -5.33301 2.33301 -11 7 -17l136 -192c15.333 -20.667 27.5 -34 36.5 -40s22.167 -9.66699 39.5 -11c16.667 -4 25 -11.667 25 -23
c0 -7.33301 -3.16699 -13 -9.5 -17s-14.833 -6 -25.5 -6c-19.333 0.666992 -44 1 -74 1c-30.667 0 -56 -0.333008 -76 -1c-16.667 0 -28.167 1.66699 -34.5 5s-9.5 9 -9.5 17c0 4.66699 2 8 6 10s10.333 4.33301 19 7c8 2 14.333 4.33301 19 7s7 6.33398 7 11.001
c0 5.33301 -3 12.333 -9 21l-107 149c-6.66699 9.33301 -13.667 14 -21 14c-6 0 -11.667 -2.66699 -17 -8l-46 -46c-6 -5.33301 -9.66699 -11.333 -11 -18s-2 -19.667 -2 -39v-28c0 -14 1 -24.5 3 -31.5s7.16699 -12.833 15.5 -17.5s21.833 -8.33398 40.5 -11.001
c12.667 -4.66699 19 -11.667 19 -21c0 -7.33301 -3 -12.666 -9 -15.999s-16.667 -5 -32 -5c-19.333 0.666992 -46 1 -80 1c-33.333 0 -59 -0.333008 -77 -1c-15.333 0 -26.5 1.66699 -33.5 5z" />
    <glyph glyph-name="l" unicode="l" horiz-adv-x="279" 
d="M37 1.5c-8.66699 3.66699 -13 9.16504 -13 16.498c0 10 5.66699 16.667 17 20c18.667 2.66699 32 6.66699 40 12s12.833 12.333 14.5 21s2.5 23.334 2.5 44.001v487c0 13.333 -1.5 23 -4.5 29s-9.83301 9 -20.5 9c-7.33301 0 -14.166 -0.333008 -20.499 -1
s-11.833 -1 -16.5 -1c-6.66699 0 -11.5 0.833008 -14.5 2.5s-4.5 5.16699 -4.5 10.5c0 6 2.5 10.833 7.5 14.5s12.167 7.16699 21.5 10.5l37 11l44 13c14 4 24.667 6 32 6c9.33301 0 16.166 -2 20.499 -6s6.5 -11 6.5 -21v-564c0 -20 1 -34.333 3 -43s7 -15.667 15 -21
s21.333 -9.66602 40 -12.999c12 -3.33301 18 -10 18 -20c0 -7.33301 -3.83301 -12.833 -11.5 -16.5s-23.167 -5.5 -46.5 -5.5l-59 1l-60 -1c-23.333 0 -39.333 1.83301 -48 5.5z" />
    <glyph glyph-name="m" unicode="m" horiz-adv-x="890" 
d="M40.5 2c-8.33301 3.33301 -12.5039 8.66602 -12.5039 15.999c0 5.33301 1.33301 9.5 4 12.5s7 5.5 13 7.5c18.667 3.33301 31.834 7.66602 39.501 12.999s12.334 12.166 14.001 20.499s2.5 22.833 2.5 43.5v258c0 14 -1.33301 23.833 -4 29.5s-9.33398 8.5 -20.001 8.5
c-7.33301 0 -14.333 -0.333008 -21 -1s-12.334 -1 -17.001 -1c-6.66699 0 -11.5 0.833008 -14.5 2.5s-4.5 5.16699 -4.5 10.5c0 6.66699 2.33301 11.834 7 15.501s11.334 6.83398 20.001 9.50098c5.33301 2 11 3.83301 17 5.5s12 3.5 18 5.5c41.333 13.333 68.333 20 81 20
c9.33301 0 16.166 -2.16699 20.499 -6.5s6.5 -11.5 6.5 -21.5v-37c0 -12 0.333008 -20.667 1 -26s1.66699 -8 3 -8c0.666992 0 5.33398 9 14.001 27s25.167 35.333 49.5 52s54.833 25 91.5 25c30.667 0 57 -8 79 -24s38.667 -39.667 50 -71
c2.66699 -6 5.33398 -9 8.00098 -9c1.33301 0 6.83301 9.33301 16.5 28s25.5 36 47.5 52s51.333 24 88 24c38.667 0 71 -14 97 -42s42 -70.333 48 -127l22 -187c2.66699 -26.667 5.33398 -44.667 8.00098 -54s7.5 -16 14.5 -20s19.833 -7.66699 38.5 -11
c14 -4 21 -11.333 21 -22c0 -7.33301 -3 -12.833 -9 -16.5s-17.333 -5.5 -34 -5.5l-71 1l-68 -1c-21.333 0 -36 1.5 -44 4.5s-12 8.83301 -12 17.5c0 11.333 6.33301 18.333 19 21c21.333 3.33301 35.333 7.66602 42 12.999s10 16.333 10 33
c0 4.66699 -1.33301 20.334 -4 47.001l-19 164c-9.33301 80.667 -40.666 121 -93.999 121c-18 0 -35.333 -5.5 -52 -16.5s-30.5 -27.833 -41.5 -50.5s-16.5 -51 -16.5 -85v-151c0 -20.667 0.833008 -35.5 2.5 -44.5s6.33398 -16.667 14.001 -23s20.5 -11.166 38.5 -14.499
c8.66699 -2 13 -7.33301 13 -16c0 -14 -10.333 -21 -31 -21l-80 1l-77 -1c-22.667 0 -34 7 -34 21c0 10 4.66699 16.667 14 20c16.667 2.66699 28.667 6.83398 36 12.501s11.833 13.167 13.5 22.5s2.5 23.666 2.5 42.999v159c0 96 -32.667 144 -98 144
c-18 0 -36 -5.66699 -54 -17s-33 -29.333 -45 -54s-18 -56 -18 -94v-138c0 -20 0.833008 -34.667 2.5 -44s6.16699 -16.666 13.5 -21.999s19.666 -9 36.999 -11c10 -4.66699 15 -11.667 15 -21c0 -6.66699 -3.33301 -11.834 -10 -15.501s-20.334 -5.5 -41.001 -5.5l-61 1
l-58 -1c-23.333 0 -39.166 1.66699 -47.499 5z" />
    <glyph glyph-name="n" unicode="n" horiz-adv-x="619" 
d="M41 3.5c-8.66699 3.66699 -12.9961 9.16797 -12.9961 16.501c0 10.667 5.33301 17 16 19c18.667 3.33301 32 7.66602 40 12.999s12.833 12.333 14.5 21s2.5 23 2.5 43v258c0 13.333 -1.33301 23 -4 29s-9.33398 9 -20.001 9l-37 -1c-7.33301 0 -12.5 0.833008 -15.5 2.5
s-4.5 4.83398 -4.5 9.50098c0 6 2.5 10.833 7.5 14.5s12.167 7.16699 21.5 10.5l29 9c44.667 14 72.667 21 84 21c10 0 17.167 -2 21.5 -6s6.5 -11 6.5 -21v-60c0 -8 1.33301 -12 4 -12c0.666992 0 5.66699 9.16699 15 27.5s26.166 35.666 50.499 51.999
s55.833 24.5 94.5 24.5c93.333 0 147 -61.333 161 -184l19 -171c3.33301 -27.333 6.16602 -45.666 8.49902 -54.999s7.16602 -16 14.499 -20s20.333 -7.66699 39 -11c13.333 -4 20 -11.333 20 -22c0 -7.33301 -3 -12.833 -9 -16.5s-17.333 -5.5 -34 -5.5l-71 1l-68 -1
c-21.333 0 -36 1.5 -44 4.5s-12 8.83301 -12 17.5c0 11.333 6.33301 18.333 19 21c21.333 3.33301 35.333 7.5 42 12.5s10 15.5 10 31.5c0 5.33301 -1.33301 22 -4 50l-17 148c-5.33301 46.667 -16.666 81 -33.999 103s-43.333 33 -78 33c-20 0 -39.667 -6 -59 -18
s-35.333 -30.333 -48 -55s-19 -55.334 -19 -92.001v-137c0 -20 1 -34.5 3 -43.5s7 -16 15 -21s21.333 -9.16699 40 -12.5c12 -3.33301 18 -10 18 -20c0 -7.33301 -3.83301 -12.833 -11.5 -16.5s-23.167 -5.5 -46.5 -5.5l-60 1l-60 -1c-22.667 0 -38.334 1.83301 -47.001 5.5
z" />
    <glyph glyph-name="o" unicode="o" horiz-adv-x="553" 
d="M150 20.5c-37.333 21 -66.332 50.333 -86.999 88s-31 80.167 -31 127.5s10.333 89.833 31 127.5s49.667 67 87 88s79.666 31.5 126.999 31.5s89.5 -10.5 126.5 -31.5s65.833 -50.333 86.5 -88s31 -80.167 31 -127.5c0 -48 -10.333 -90.667 -31 -128
s-49.334 -66.5 -86.001 -87.5s-79 -31.5 -127 -31.5c-47.333 0 -89.666 10.5 -126.999 31.5zM387.501 81c26.333 31.333 39.5 73 39.5 125c0 38.667 -6.5 75.667 -19.5 111s-31.5 64.166 -55.5 86.499s-51.667 33.5 -83 33.5c-42.667 0 -77.167 -15.667 -103.5 -47
s-39.5 -72.666 -39.5 -123.999c0 -38.667 6.5 -76 19.5 -112s31.5 -65 55.5 -87s51.667 -33 83 -33c42.667 0 77.167 15.667 103.5 47z" />
    <glyph glyph-name="p" unicode="p" horiz-adv-x="575" 
d="M37 -175.5c-8.66699 3.66699 -13 9.50195 -13 17.502c0 9.33301 5.66699 15.666 17 18.999c18.667 2.66699 32 6.66699 40 12s12.833 12.5 14.5 21.5s2.5 23.5 2.5 43.5v435c0 14.667 -1.66699 25 -5 31s-10.666 8.66699 -21.999 8l-16.5 -2
c-5.66699 -0.666992 -11.5 -1 -17.5 -1c-6.66699 0 -11.667 1 -15 3s-5 5.66699 -5 11c0 6 2.5 10.833 7.5 14.5s12.167 7.16699 21.5 10.5l37 11l44 13c14 4 24.667 6 32 6c9.33301 0 16.166 -2 20.499 -6s6.5 -11 6.5 -21v-60c0 -11.333 1.66699 -17 5 -17
c0.666992 0 6.5 9.5 17.5 28.5s29.333 37.167 55 54.5s57.167 26 94.5 26c34.667 0 66 -9.33301 94 -28s50.167 -46 66.5 -82s24.5 -78.333 24.5 -127s-9.5 -92.667 -28.5 -132s-45 -70 -78 -92s-69.833 -33 -110.5 -33c-44.667 0 -82.667 16.333 -114 49l-8.5 8.5
c-4.33301 4.33301 -7.5 6.5 -9.5 6.5c-5.33301 0 -8 -7.33301 -8 -22v-97c0 -18.667 1 -32.167 3 -40.5s7 -15 15 -20s21.333 -8.83301 40 -11.5c12 -4.66699 18 -11.334 18 -20.001c0 -8 -3.83301 -13.833 -11.5 -17.5s-23.167 -5.5 -46.5 -5.5l-59 1l-60 -1
c-23.333 0 -39.333 1.83301 -48 5.5zM414 80.502c24.667 31.667 36.999 74.167 36.999 127.5c0 40.667 -5.5 77.167 -16.5 109.5s-26.667 57.5 -47 75.5s-43.5 27 -69.5 27c-42 0 -74.5 -15.5 -97.5 -46.5s-34.5 -72.167 -34.5 -123.5v-22c0 -64 12 -112.5 36 -145.5
s56.333 -49.5 97 -49.5c38.667 0 70.334 15.833 95.001 47.5z" />
    <glyph glyph-name="q" unicode="q" horiz-adv-x="552" 
d="M328 -175.5c-8.66699 3.66699 -12.999 9.5 -12.999 17.5c0 9.33301 5.33301 15.666 16 18.999c18.667 2.66699 32 6.83398 40 12.501s13 12.834 15 21.501s3 23 3 43v146c0 4 -0.166992 7.16699 -0.5 9.5s-1.5 3.5 -3.5 3.5c-0.666992 0 -6.83398 -9.5 -18.501 -28.5
s-30.167 -37 -55.5 -54s-56.333 -25.5 -93 -25.5s-69.167 10.167 -97.5 30.5s-50.166 49 -65.499 86s-23 79.5 -23 127.5c0 47.333 8.66699 89.833 26 127.5s42.5 67.5 75.5 89.5s72.167 33 117.5 33c39.333 0 70.166 -5.83301 92.499 -17.5s41.833 -25.834 58.5 -42.501
c7.33301 -8.66699 13 -13 17 -13s10.667 9.66699 20 29c6 12.667 11.333 22.5 16 29.5s9.66699 10.5 15 10.5s9.33301 -2 12 -6s3.66699 -9.33301 3 -16c-5.33301 -39.333 -8 -89.666 -8 -150.999v-368c0 -20 1 -34.333 3 -43s7 -15.667 15 -21s21.333 -9.33301 40 -12
c12 -4.66699 18 -11.334 18 -20.001c0 -8 -3.83301 -13.833 -11.5 -17.5s-23.167 -5.5 -46.5 -5.5l-60 1l-59 -1c-23.333 0 -39.333 1.83301 -48 5.5zM325.001 70c19.333 12.667 34.8311 30.833 46.498 54.5s17.5 50.5 17.5 80.5v34c0 61.333 -11.5 110 -34.5 146
s-55.5 54 -97.5 54c-23.333 0 -45.166 -6.83301 -65.499 -20.5s-36.666 -33.667 -48.999 -60s-18.5 -57.833 -18.5 -94.5c0 -66 12.5 -118 37.5 -156s58.833 -57 101.5 -57c22 0 42.667 6.33301 62 19z" />
    <glyph glyph-name="r" unicode="r" horiz-adv-x="458" 
d="M41 1.5c-8.66699 3.66699 -13 9.16406 -13 16.4971c0 10 5.33301 16.667 16 20c18.667 2.66699 32 6.66699 40 12s12.833 12.333 14.5 21s2.5 23.334 2.5 44.001v258c0 14 -1.33301 24 -4 30s-9.33398 9 -20.001 9c-7.33301 0 -14.333 -0.333008 -21 -1
s-12.334 -1 -17.001 -1c-6.66699 0 -11.5 0.833008 -14.5 2.5s-4.5 5.16699 -4.5 10.5c0 6 2.5 10.833 7.5 14.5s12.167 7.16699 21.5 10.5l41 12c36 12 60 18 72 18c10 0 17.167 -2 21.5 -6s6.5 -11 6.5 -21v-57c0 -10 1.33301 -15 4 -15
c0.666992 0 5.33398 9.16699 14.001 27.5s23.834 35.666 45.501 51.999s49.167 24.5 82.5 24.5s59.333 -10.167 78 -30.5s28 -48.166 28 -83.499c0 -20 -4.5 -37 -13.5 -51s-22.5 -21 -40.5 -21c-10.667 0 -20.167 3.83301 -28.5 11.5s-11.166 18.834 -8.49902 33.501
c3.33301 8 5 17.333 5 28c0 31.333 -18.333 47 -55 47c-18.667 0 -36.5 -6.66699 -53.5 -20s-30.833 -32.5 -41.5 -57.5s-16 -54.167 -16 -87.5v-137c0 -20 1 -34.333 3 -43s7 -15.667 15 -21s21.333 -9.66602 40 -12.999c12 -3.33301 18 -10 18 -20
c0 -7.33301 -3.83301 -12.833 -11.5 -16.5s-23.167 -5.5 -46.5 -5.5l-60 1l-60 -1c-22.667 0 -38.334 1.83301 -47.001 5.5z" />
    <glyph glyph-name="s" unicode="s" horiz-adv-x="471" 
d="M124 17c-20 10 -36.665 23.668 -49.998 41.001c-16 19.333 -24 42 -24 68c0 11.333 3.16699 20.666 9.5 27.999s14.833 11 25.5 11c21.333 0 35 -12.667 41 -38c1.33301 -25.333 10.833 -46.833 28.5 -64.5s43.167 -26.5 76.5 -26.5c36.667 0 65 7.5 85 22.5
s30 35.167 30 60.5c0 24.667 -9.66699 44.667 -29 60s-52 28.666 -98 39.999c-56 14 -95.167 32.167 -117.5 54.5s-33.5 51.833 -33.5 88.5c0 35.333 15.833 64.333 47.5 87s70.834 34 117.501 34c37.333 0 72.666 -8 105.999 -24c22 -9.33301 40 -22 54 -38
c18 -21.333 27 -45.666 27 -72.999c0 -10 -3 -18.5 -9 -25.5s-13.667 -10.5 -23 -10.5c-20.667 0 -34.334 11.333 -41.001 34c-0.666992 24.667 -9.83398 45.834 -27.501 63.501s-42.5 26.5 -74.5 26.5c-26 0 -47.667 -6 -65 -18s-26 -27.667 -26 -47
c0 -22.667 8.33301 -41.334 25 -56.001s46.667 -26.667 90 -36c60 -12.667 102.833 -31.167 128.5 -55.5s38.5 -54.833 38.5 -91.5c0 -45.333 -18 -80.5 -54 -105.5s-84 -37.5 -144 -37.5c-42 0 -80 9.33301 -114 28z" />
    <glyph glyph-name="t" unicode="t" horiz-adv-x="391" 
d="M120 28c-24.667 25.333 -37.0029 64.998 -37.0029 118.998v262c0 7.33301 -1.83301 12.333 -5.5 15s-8.83398 4 -15.501 4h-14c-5.33301 0 -9.66602 2 -12.999 6s-5 8.66699 -5 14c0 8.66699 4.33301 20.334 13 35.001l10 15c18.667 37.333 36.334 64.333 53.001 81
c16 14.667 32.667 22 50 22c6.66699 0 11.334 -2 14.001 -6s4 -10.667 4 -20v-69c0 -15.333 0.666992 -24.833 2 -28.5s5 -5.5 11 -5.5h139c6.66699 0 11.334 -1.16699 14.001 -3.5s4 -7.16602 4 -14.499c0 -8 -2.5 -14.333 -7.5 -19s-11.5 -7 -19.5 -7h-123
c-15.333 0 -23 -6.66699 -23 -20v-247c0 -36 7.5 -63 22.5 -81s35.833 -27 62.5 -27c16 0 32.5 4.83301 49.5 14.5s31.833 24.167 44.5 43.5c4.66699 6.66699 9.66699 10 15 10s9.33301 -2.33301 12 -7s3 -9.66699 1 -15c-28 -72.667 -79.667 -109 -155 -109
c-44 0 -78.333 12.667 -103 38z" />
    <glyph glyph-name="u" unicode="u" horiz-adv-x="590" 
d="M127.5 37c-29 31.333 -43.499 78.667 -43.499 142v194c0 14 -1.5 24 -4.5 30s-9.83301 9 -20.5 9c-7.33301 0 -14.166 -0.333008 -20.499 -1s-11.833 -1 -16.5 -1c-6.66699 0 -11.5 0.833008 -14.5 2.5s-4.83301 4.5 -5.5 8.5c0 7.33301 2.5 12.833 7.5 16.5
s12.5 7.16699 22.5 10.5l37 11l44 13c14 4 24.667 6 32 6c9.33301 0 16.166 -2 20.499 -6s6.5 -11 6.5 -21v-257c0 -93.333 36.667 -140 110 -140c21.333 0 41.666 6 60.999 18s35.166 30.5 47.499 55.5s18.5 55.833 18.5 92.5v153c0 14 -1.5 24 -4.5 30s-9.83301 9 -20.5 9
c-7.33301 0 -14.166 -0.333008 -20.499 -1s-11.833 -1 -16.5 -1c-6.66699 0 -11.5 0.833008 -14.5 2.5s-4.83301 4.5 -5.5 8.5c0 7.33301 2.5 12.833 7.5 16.5s12.5 7.16699 22.5 10.5l37 11l44 13c14 4 24.667 6 32 6c9.33301 0 16.166 -2 20.499 -6s6.5 -11 6.5 -21v-353
c0 -13.333 1.5 -23 4.5 -29s9.83301 -9 20.5 -9c7.33301 0 14.166 0.333008 20.499 1s11.833 1 16.5 1c6.66699 0 11.5 -0.833008 14.5 -2.5s4.83301 -4.5 5.5 -8.5c0 -7.33301 -2.5 -12.833 -7.5 -16.5s-12.5 -7.16699 -22.5 -10.5l-37 -11l-44 -13
c-14 -4 -24.667 -6 -32 -6c-9.33301 0 -16.166 2 -20.499 6s-6.5 11 -6.5 21v56c0 10.667 -1.66699 16 -5 16c-0.666992 0 -5.5 -9 -14.5 -27s-25.667 -35.167 -50 -51.5s-56.166 -24.5 -95.499 -24.5c-48.667 0 -87.5 15.667 -116.5 47z" />
    <glyph glyph-name="v" unicode="v" horiz-adv-x="498" 
d="M249 -3c-12 0 -21 1.83008 -27 5.49707s-11.333 10.834 -16 21.501c-9.33301 24 -19.166 51.667 -29.499 83l-22.5 68c-30.667 92 -55.334 161 -74.001 207c-7.33301 18 -14.333 29.833 -21 35.5s-18 9.5 -34 11.5c-14.667 4.66699 -22 12 -22 22
c0 9.33301 3.83301 15.5 11.5 18.5s21.167 4.5 40.5 4.5l74 -1l72 1c20.667 0 34.334 -1.66699 41.001 -5s10 -9 10 -17c0 -10.667 -7 -18 -21 -22c-21.333 -1.33301 -36.5 -4.16602 -45.5 -8.49902s-13.5 -10.833 -13.5 -19.5c0 -5.33301 1.33301 -11 4 -17l48 -141
l51 -150c2 -5.33301 4.66699 -8 8 -8c2.66699 0 6 2.33301 10 7c72.667 80 110 152 112 216c1.33301 23.333 -0.666992 42 -6 56s-15.666 25.667 -30.999 35c-14.667 14 -22 29.333 -22 46c0 13.333 5.66699 23.333 17 30c9.33301 4.66699 18 7 26 7
c11.333 0 23.333 -4.66699 36 -14c9.33301 -8 16 -16.333 20 -25c14 -23.333 21 -54.666 21 -93.999c0 -48 -14.667 -99 -44 -153s-67 -108 -113 -162c-10.667 -14 -19.834 -23.833 -27.501 -29.5s-16.834 -8.5 -27.501 -8.5h-5z" />
    <glyph glyph-name="w" unicode="w" horiz-adv-x="768" 
d="M732 403.5c4 -19.667 5.33691 -39.168 4.00391 -58.501c-1.33301 -32 -9.33301 -65.667 -24 -101s-31 -67.333 -49 -96l-74 -113c-9.33301 -14.667 -17.833 -24.667 -25.5 -30s-16.5 -8 -26.5 -8h-5c-10 0 -17.833 2 -23.5 6s-10.834 11 -15.501 21
c-29.333 82.667 -53 145 -71 187c-3.33301 8.66699 -7.33301 10 -12 4c0 -0.666992 -0.666992 -2.33398 -2 -5.00098c-16 -50 -47.667 -108.333 -95 -175c-10.667 -14.667 -19.667 -24.667 -27 -30s-16 -8 -26 -8h-4c-12.667 0 -22 1.83301 -28 5.5
s-11.333 10.834 -16 21.501c-20 49.333 -50.333 130.666 -91 243.999l-41 114c-6.66699 18 -13.334 29.833 -20.001 35.5s-18.334 9.5 -35.001 11.5c-14.667 4.66699 -22 12 -22 22c0 9.33301 3.83301 15.5 11.5 18.5s21.167 4.5 40.5 4.5l69 -1l67 1
c20.667 0 34.334 -1.66699 41.001 -5s10 -9 10 -17c0 -10 -5.66699 -16.667 -17 -20c-20.667 -2.66699 -34.834 -5.66699 -42.501 -9s-11.5 -8.66602 -11.5 -15.999c0 -4.66699 1.66699 -12 5 -22c35.333 -111.333 70.333 -208.333 105 -291c2 -4.66699 4 -7 6 -7
c2.66699 0 5.66699 2.33301 9 7c32 47.333 56.167 88 72.5 122s24.833 68.333 25.5 103c1.33301 19.333 -1 35.833 -7 49.5s-16 25.167 -30 34.5c-6.66699 4.66699 -11.667 10.334 -15 17.001s-5 13 -5 19c0 3.33301 0.333008 6 1 8c1.33301 11.333 7.16602 20 17.499 26
s23.166 8.33301 38.499 7c22 -3.33301 39.5 -15 52.5 -35s18.167 -45.667 15.5 -77c-0.666992 -8.66699 -2.66699 -20.334 -6 -35.001l1 -4c42.667 -95.333 74.667 -173.666 96 -234.999c2 -4 4.33301 -6 7 -6s5.33398 2 8.00098 6l24 34c28 40.667 48.667 73.834 62 99.501
s20.333 53.167 21 82.5c1.33301 23.333 -1 42.166 -7 56.499s-17 26.5 -33 36.5c-10.667 7.33301 -17 16.333 -19 27c-1.33301 5.33301 -2 8.66602 -2 9.99902c0 5.33301 1 9.33301 3 12c2 12.667 9 21.334 21 26.001c2.66699 0.666992 6.66699 1 12 1
c7.33301 0 15 -1 23 -3c16 -3.33301 28.667 -11 38 -23c10 -13.333 17 -29.833 21 -49.5z" />
    <glyph glyph-name="x" unicode="x" horiz-adv-x="557" 
d="M26 2.5c-6 3 -9.00098 8.16699 -9.00098 15.5c0 5.33301 1.83301 9.33301 5.5 12s9.16699 5.33398 16.5 8.00098c16.667 1.33301 29.667 5.33301 39 12s21.666 20.667 36.999 42l101 138c4.66699 7.33301 7 13.666 7 18.999c0 6 -2 11.333 -6 16l-90 127
c-11.333 16.667 -20 26.834 -26 30.501s-18.333 6.5 -37 8.5c-8 1.33301 -13.5 3.66602 -16.5 6.99902s-4.5 8.33301 -4.5 15c0 8 3 13.667 9 17s15.333 4.66602 28 3.99902s34.667 -1 66 -1c45.333 0 77 0.333008 95 1c23.333 0 35 -6.66699 35 -20
c0 -9.33301 -5 -15.333 -15 -18c-14 -1.33301 -23.833 -3.33301 -29.5 -6s-8.5 -6.33398 -8.5 -11.001c0 -4 2.16699 -9.16699 6.5 -15.5l8.5 -12.5l64 -88c3.33301 -4 6.33301 -6 9 -6s5 1.66699 7 5l71 101c5.33301 7.33301 8 13 8 17c0 4.66699 -3 8.33398 -9 11.001
s-16.333 4.66699 -31 6c-4 1.33301 -7.5 3.5 -10.5 6.5s-4.5 6.5 -4.5 10.5c0 8 2.83301 13.5 8.5 16.5s14.5 4.5 26.5 4.5c28 -1.33301 51 -2 69 -2c14.667 0 32 0.666992 52 2c22 0 33 -7 33 -21c0 -9.33301 -6.66699 -16 -20 -20c-14 -1.33301 -26.167 -4.5 -36.5 -9.5
s-19.166 -12.5 -26.499 -22.5l-97 -135c-3.33301 -4.66699 -5 -10 -5 -16c0 -5.33301 1.66699 -10.666 5 -15.999l105 -147c14 -19.333 24.667 -31.5 32 -36.5s19 -8.5 35 -10.5c11.333 -2 17 -9 17 -21c0 -8 -3.66699 -13.667 -11 -17s-20 -5 -38 -5h-140
c-29.333 0 -44 6.66699 -44 20c0 10 4.66699 16 14 18c27.333 2.66699 41 8.66699 41 18c0 6 -3.66699 13.667 -11 23l-84 117c-2.66699 4 -5.66699 6 -9 6c-4 0 -8 -2.66699 -12 -8l-87 -120c-6.66699 -8.66699 -10 -15.667 -10 -21s2.83301 -8.83301 8.5 -10.5
s15.834 -3.5 30.501 -5.5c12 -2 18 -7.66699 18 -17c0 -13.333 -12 -20 -36 -20h-116c-12.667 0 -22 1.5 -28 4.5z" />
    <glyph glyph-name="y" unicode="y" horiz-adv-x="498" 
d="M2.5 -161.5c-17 14.333 -25.5029 33.501 -25.5029 57.501c0 13.333 4 24.5 12 33.5s18 13.5 30 13.5c10.667 0 19.334 -3 26.001 -9s11 -14 13 -24c1.33301 -14 5 -25.5 11 -34.5s13.667 -13.5 23 -13.5c14.667 0 33.167 10 55.5 30s44.5 43.333 66.5 70
c3.33301 4.66699 5 9.33398 5 14.001c0 6 -3 17 -9 33c-10 26 -20.667 56.333 -32 91l-25 75c-30.667 91.333 -54.667 159.666 -72 204.999c-7.33301 18 -14.5 30.167 -21.5 36.5s-18.5 10.5 -34.5 12.5c-14.667 3.33301 -22 11 -22 23c0 8 3.33301 13.667 10 17
s18.334 5 35.001 5l79 -1l80 1c18 0 30 -1.83301 36 -5.5s9 -9.16699 9 -16.5c0 -10.667 -5.66699 -17.334 -17 -20.001c-23.333 -2.66699 -39.833 -6.5 -49.5 -11.5s-14.5 -12.167 -14.5 -21.5c0 -4.66699 1.66699 -11 5 -19c12.667 -32.667 31.667 -87 57 -163
c20 -61.333 35 -105.666 45 -132.999c2 -5.33301 5 -8 9 -8s7 2.33301 9 7c34 51.333 60.333 94.833 79 130.5s28.667 68.5 30 98.5c0.666992 5.33301 1 12.333 1 21c0 18 -3.16699 32 -9.5 42s-15.5 18 -27.5 24c-16.667 12.667 -25 28 -25 46
c0 5.33301 1.33301 10.666 4 15.999s6.33398 9.66602 11.001 12.999c7.33301 5.33301 17 8 29 8s23.667 -4 35 -12c10 -8 17.333 -17 22 -27c14 -24 21 -54.333 21 -91c0 -53.333 -27 -126.666 -81 -219.999c-29.333 -49.333 -58.333 -93 -87 -131
c-93.333 -122.667 -169 -184 -227 -184c-28.667 0 -51.5 7.16699 -68.5 21.5z" />
    <glyph glyph-name="z" unicode="z" horiz-adv-x="489" 
d="M381 -6c-3.33301 0.666992 -12.8291 1.83301 -28.4961 3.5s-33.5 2.5 -53.5 2.5h-230c-18 0 -27 6 -27 18c0 7.33301 3.66699 16.333 11 27l282 366c2 3.33301 3 6 3 8c0 4.66699 -3 7 -9 7h-170c-10.667 0 -18.834 -1.66699 -24.501 -5s-10.834 -11 -15.501 -23
s-10.334 -32 -17.001 -60c-3.33301 -9.33301 -7 -15.833 -11 -19.5s-9.66699 -5.5 -17 -5.5c-5.33301 0 -9.5 1.66699 -12.5 5s-4.5 10.666 -4.5 21.999c0 14 2.33301 33.667 7 59c5.33301 26 9.5 44.333 12.5 55s6.33301 17.667 10 21s8.83398 5 15.501 5
c5.33301 0 16.666 -1.33301 33.999 -4s42 -4 74 -4h227c7.33301 0 13 -1.83301 17 -5.5s6 -7.5 6 -11.5c0 -6 -4 -14.333 -12 -25l-281 -369c-2.66699 -4 -4 -7 -4 -9c0 -4.66699 3.66699 -7 11 -7h173c12.667 0 22 2.16699 28 6.5s11.333 13 16 26s11 35.833 19 68.5
c3.33301 8.66699 7.16602 14.834 11.499 18.501s9.83301 5.5 16.5 5.5c4.66699 0 8.5 -1.83301 11.5 -5.5s4.5 -11.167 4.5 -22.5c0 -16 -2.66699 -37.333 -8 -64c-6 -28 -10.667 -47.667 -14 -59s-6.83301 -18.833 -10.5 -22.5s-9.16699 -5.5 -16.5 -5.5c-6 0 -14 1 -24 3z
" />
    <glyph glyph-name="braceleft" unicode="{" horiz-adv-x="321" 
d="M136 -114.5c-24.667 24.333 -37 61.501 -37 111.501c0 22 1.33301 51.667 4 89c0.666992 8.66699 1.33398 21.334 2.00098 38.001s1 31.334 1 44.001c0 23.333 -1.66699 41.666 -5 54.999s-10.833 24.333 -22.5 33s-29.5 15.334 -53.5 20.001
c-13.333 4 -20 10.333 -20 19c0 7.33301 6.66699 13.666 20 18.999c24 4.66699 41.833 11.5 53.5 20.5s19.167 20.167 22.5 33.5s5 31.333 5 54c0 12.667 -0.333008 27.334 -1 44.001s-1.33398 29.334 -2.00098 38.001c-2.66699 37.333 -4 67.333 -4 90
c0 49.333 12.333 86.166 37 110.499s66.334 36.5 125.001 36.5c36.667 0 55 -8 55 -24c0 -6 -3.16699 -10 -9.5 -12s-17.5 -3 -33.5 -3c-34 0 -57.833 -9.16699 -71.5 -27.5s-20.5 -45.833 -20.5 -82.5c0 -17.333 0.333008 -32.5 1 -45.5s1.33398 -24.167 2.00098 -33.5
c2.66699 -36 4 -64 4 -84c0 -34.667 -5.16699 -62.834 -15.5 -84.501s-31.5 -37.167 -63.5 -46.5c-2 -0.666992 -3 -1.66699 -3 -3s1 -2.33301 3 -3c32 -9.33301 53.167 -24.833 63.5 -46.5s15.5 -49.834 15.5 -84.501c0 -20.667 -1.33301 -49 -4 -85
c-0.666992 -8.66699 -1.33398 -19.5 -2.00098 -32.5s-1 -28.167 -1 -45.5c0 -36.667 6.83301 -64.167 20.5 -82.5s37.5 -27.5 71.5 -27.5c16 0 27.167 -0.833008 33.5 -2.5s9.5 -5.83398 9.5 -12.501c0 -16 -18.333 -24 -55 -24c-58.667 0 -100.334 12.167 -125.001 36.5z
" />
    <glyph glyph-name="bar" unicode="|" horiz-adv-x="128" 
d="M32 -147v861c0 6 2.5 10.167 7.5 12.5s13.167 3.5 24.5 3.5c22 0 33 -5.33301 33 -16v-861c0 -11.333 -11 -17 -33 -17c-21.333 0 -32 5.66699 -32 17z" />
    <glyph glyph-name="braceright" unicode="}" horiz-adv-x="321" 
d="M5 -127c0 6.66699 3.16699 10.833 9.5 12.5s17.5 2.5 33.5 2.5c34 0 57.833 9.16699 71.5 27.5s20.5 45.833 20.5 82.5c0 17.333 -0.333008 32.5 -1 45.5s-1.33398 23.833 -2.00098 32.5c-2.66699 36 -4 64.333 -4 85c0 34.667 5.16699 62.834 15.5 84.501
s31.5 37.167 63.5 46.5c2 0.666992 3 1.66699 3 3s-1 2.33301 -3 3c-32 9.33301 -53.167 24.833 -63.5 46.5s-15.5 49.834 -15.5 84.501c0 20 1.33301 48 4 84c0.666992 9.33301 1.33398 20.5 2.00098 33.5s1 28.167 1 45.5c0 36.667 -6.83301 64.167 -20.5 82.5
s-37.5 27.5 -71.5 27.5c-16 0 -27.167 1 -33.5 3s-9.5 6 -9.5 12c0 16 18.333 24 55 24c58.667 0 100.334 -12.167 125.001 -36.5s37 -61.166 37 -110.499c0 -22.667 -1.33301 -52.667 -4 -90c-0.666992 -8.66699 -1.33398 -21.334 -2.00098 -38.001s-1 -31.334 -1 -44.001
c0 -22.667 1.66699 -40.667 5 -54s10.833 -24.5 22.5 -33.5s29.5 -15.833 53.5 -20.5c13.333 -5.33301 20 -11.666 20 -18.999c0 -8.66699 -6.66699 -15 -20 -19c-24 -4.66699 -41.833 -11.334 -53.5 -20.001s-19.167 -19.667 -22.5 -33s-5 -31.666 -5 -54.999
c0 -12.667 0.333008 -27.334 1 -44.001s1.33398 -29.334 2.00098 -38.001c2.66699 -37.333 4 -67 4 -89c0 -50 -12.333 -87.167 -37 -111.5s-66.334 -36.5 -125.001 -36.5c-36.667 0 -55 8 -55 24z" />
    <glyph glyph-name="asciitilde" unicode="~" horiz-adv-x="408" 
d="M37 218.5c-3.33301 3.66699 -5 8.83496 -5 15.502c0 33.333 9.16699 60 27.5 80s43.166 30 74.499 30c13.333 0 26.333 -3 39 -9s27.667 -15.667 45 -29c15.333 -10.667 27.5 -18.334 36.5 -23.001s17.833 -7 26.5 -7c18.667 0 32.5 5.16699 41.5 15.5
s14.5 23.166 16.5 38.499c2 13.333 8.33301 20 19 20c6 0 10.667 -2 14 -6s4.66602 -9.66699 3.99902 -17c-1.33301 -34 -10.833 -60.5 -28.5 -79.5s-41.5 -28.5 -71.5 -28.5c-16 0 -31 3.33301 -45 10s-29.667 16.667 -47 30c-13.333 10 -24.166 17.167 -32.499 21.5
s-16.5 6.5 -24.5 6.5c-34 0 -53.667 -18.333 -59 -55c-0.666992 -12.667 -6.66699 -19 -18 -19c-5.33301 0 -9.66602 1.83301 -12.999 5.5z" />
    <glyph glyph-name="uni00A0" unicode="&#xa0;" horiz-adv-x="504" 
 />
    <glyph glyph-name="exclamdown" unicode="&#xa1;" horiz-adv-x="237" 
d="M165 467c12.667 -10.667 19.001 -24.334 19.001 -41.001s-6.33301 -30.667 -19 -42s-28.667 -17 -48 -17c-18.667 0 -33.834 5.5 -45.501 16.5s-17.5 25.167 -17.5 42.5c0 16.667 6 30.334 18 41.001s27 16 45 16c19.333 0 35.333 -5.33301 48 -16zM142.001 290
c2.66699 -44.667 7.99707 -105.001 15.9971 -181.001c9.33301 -94 15.333 -164.667 18 -212c0.666992 -23.333 -3.66602 -42.166 -12.999 -56.499s-24 -21.5 -44 -21.5c-20.667 0 -35.5 7 -44.5 21s-12.833 33 -11.5 57c2.66699 52 8.66699 129.333 18 232
c6.66699 67.333 11.334 121 14.001 161c4.66699 13.333 12.667 20 24 20c10.667 0 18.334 -6.66699 23.001 -20z" />
    <glyph glyph-name="cent" unicode="&#xa2;" horiz-adv-x="493" 
d="M459 128.5c2.66699 -5 2.99902 -10.499 0.999023 -16.499c-16 -35.333 -39.667 -64 -71 -86s-69.666 -34.333 -114.999 -37v-44c0 -2.66699 -1.5 -4.66699 -4.5 -6s-6.5 -2 -10.5 -2s-7.66699 0.666992 -11 2s-5 3.33301 -5 6v45c-43.333 2.66699 -81 15.167 -113 37.5
s-56.333 51.666 -73 87.999s-25 76.5 -25 120.5c0 45.333 9.16699 86.166 27.5 122.499s43.666 65.333 75.999 87s68.166 33.834 107.499 36.501v55c0 4.66699 5.33301 7 16 7c10 0 15 -2.33301 15 -7v-56c29.333 -2 57.166 -9.33301 83.499 -22s47.5 -29.5 63.5 -50.5
s24 -44.5 24 -70.5c0 -11.333 -3 -20.833 -9 -28.5s-14.667 -11.5 -26 -11.5c-24.667 0 -40.667 14 -48 42c-2 26 -10 47.667 -24 65s-35.333 28 -64 32v-386h11c30.667 0 58.334 6.83301 83.001 20.5s45.334 31.5 62.001 53.5c4.66699 7.33301 9.66699 11 15 11
c6.66699 0 11.334 -2.5 14.001 -7.5zM152.999 129.001c20.667 -38 50.667 -62.333 90 -73v381c-34 -3.33301 -62.667 -20.5 -86 -51.5s-35 -70.833 -35 -119.5c0 -53.333 10.333 -99 31 -137z" />
    <glyph glyph-name="sterling" unicode="&#xa3;" horiz-adv-x="574" 
d="M552 196.5c2.66699 -4.33301 3.99805 -9.83496 3.99805 -16.502c0 -56.667 -14.5 -102.5 -43.5 -137.5s-68.167 -52.5 -117.5 -52.5c-22 0 -45.5 3 -70.5 9s-56.5 14.667 -94.5 26l-35 10c-4 2 -7.33301 3 -10 3c-3.33301 0 -6 -1.66699 -8 -5
c-10.667 -13.333 -21 -23.333 -31 -30s-22 -10 -36 -10c-16 0 -29.833 5.33301 -41.5 16s-17.5 23.667 -17.5 39s4.66699 27.5 14 36.5s21.666 13.5 36.999 13.5c12 0 23 -1 33 -3h4c5.33301 0 9.33301 3 12 9c10.667 22 19.5 48 26.5 78s10.5 59.667 10.5 89
c0 8.66699 -0.333008 15.334 -1 20.001h-72c-19.333 0 -29 4.66699 -29 14c0 8 3.16699 14.667 9.5 20s15.5 8 27.5 8h60c-4.66699 28 -10.667 55 -18 81c-6.66699 28.667 -11.667 51.834 -15 69.501s-5 35.5 -5 53.5c0 32.667 7.66699 62.167 23 88.5
s37.333 47.166 66 62.499s61.667 23 99 23c57.333 0 103 -16.333 137 -49s51 -75.667 51 -129c0 -14.667 -3.66699 -26.167 -11 -34.5s-17 -12.5 -29 -12.5c-11.333 0 -20.666 4 -27.999 12s-11 18.333 -11 31c0 41.333 -9 73.5 -27 96.5s-45 34.5 -81 34.5
c-35.333 0 -63.666 -11.333 -84.999 -34s-32 -50.334 -32 -83.001c0 -15.333 1.5 -31.166 4.5 -47.499s7.83301 -36.833 14.5 -61.5c11.333 -44.667 18.666 -78.334 21.999 -101.001h92c8 0 14.667 -1.16699 20 -3.5s8 -5.83301 8 -10.5c0 -8 -3.16699 -14.667 -9.5 -20
s-15.166 -8 -26.499 -8h-80v-20c0 -29.333 -4.83301 -60.333 -14.5 -93s-20.5 -61 -32.5 -85c-1.33301 -2.66699 -2 -4.66699 -2 -6c0 -4 2.66699 -6.66699 8 -8c6.66699 -0.666992 30.667 -4.66699 72 -12c16.667 -3.33301 33.834 -6.5 51.501 -9.5s34.167 -4.5 49.5 -4.5
c37.333 0 67.333 10.833 90 32.5s36 53.834 40 96.501c1.33301 6.66699 3 11.834 5 15.501s5.66699 5.5 11 5.5s9.33301 -2.16699 12 -6.5z" />
    <glyph glyph-name="currency" unicode="&#xa4;" horiz-adv-x="542" 
d="M43 133.5c-7.33301 7 -11.0039 14.167 -11.0039 21.5c0 11.333 4.66699 21 14 29l57 52c7.33301 7.33301 11 13.666 11 18.999c0 2 -1.33301 7 -4 15c-7.33301 14.667 -12.666 29.167 -15.999 43.5s-5 30.166 -5 47.499c0 16.667 1.83301 31.834 5.5 45.501
s9.83398 29.834 18.501 48.501c2.66699 5.33301 4 10 4 14s-3 9 -9 15l-59 55c-9.33301 8 -14 17 -14 27c0 7.33301 3.83301 14.833 11.5 22.5s15.167 11.5 22.5 11.5c5.33301 0 9.83301 -0.833008 13.5 -2.5s8.16699 -5.16699 13.5 -10.5l59 -61
c4.66699 -4.66699 9.66699 -7 15 -7c4 0 9.33301 1.33301 16 4c14.667 8 28.834 13.667 42.501 17s29.5 5 47.5 5c16.667 0 31.667 -1.5 45 -4.5s27.666 -7.83301 42.999 -14.5c8 -3.33301 13.333 -5 16 -5c4.66699 0 10.334 3.66699 17.001 11l53 57
c8.66699 8.66699 17.667 13 27 13c7.33301 0 14.666 -3.83301 21.999 -11.5s11 -15.167 11 -22.5c0 -9.33301 -4.66699 -18 -14 -26l-60 -56c-5.33301 -5.33301 -8 -10.666 -8 -15.999c0 -4 1.33301 -8.66699 4 -14c8 -14 13.667 -28 17 -42s5 -29.667 5 -47
c0 -18.667 -2 -35.334 -6 -50.001s-10.333 -29.667 -19 -45c-3.33301 -6.66699 -5 -11.667 -5 -15c0 -4.66699 3.33301 -10 10 -16l59 -55c9.33301 -8 14 -17.333 14 -28c0 -8 -3.83301 -15.5 -11.5 -22.5s-15.167 -10.5 -22.5 -10.5
c-5.33301 0 -9.66602 0.666992 -12.999 2s-7.66602 4.66602 -12.999 9.99902c-28 30.667 -48 51.334 -60 62.001c-4.66699 4.66699 -10 7 -16 7c-4 0 -8.66699 -1.33301 -14 -4c-26.667 -14.667 -57 -22 -91 -22c-30.667 0 -60 6.33301 -88 19c-8 3.33301 -13 5 -15 5
c-4.66699 0 -10.334 -3.33301 -17.001 -10l-53 -58c-8.66699 -8.66699 -18 -13 -28 -13c-7.33301 0 -14.666 3.5 -21.999 10.5zM359.996 272c24 24 36 55.332 36 93.999c0 36.667 -11.167 66.334 -33.5 89.001s-51.166 34 -86.499 34c-38 0 -69 -11.833 -93 -35.5
s-36 -54.5 -36 -92.5c0 -36.667 11.167 -66.667 33.5 -90s51.166 -35 86.499 -35c38 0 69 12 93 36z" />
    <glyph glyph-name="yen" unicode="&#xa5;" horiz-adv-x="677" 
d="M672 681c0 -13.333 -8.66699 -22.6699 -26 -28.0029c-14.667 -0.666992 -25.667 -2.5 -33 -5.5s-13.166 -7.33301 -17.499 -13s-10.833 -15.834 -19.5 -30.501l-169 -287l-2 -3h103c16.667 0 25 -4.33301 25 -13c0 -7.33301 -2.83301 -13.333 -8.5 -18
s-13.167 -7 -22.5 -7h-110c-2 -8.66699 -3 -17.667 -3 -27v-45h119c16.667 0 25 -4.33301 25 -13c0 -7.33301 -2.83301 -13.333 -8.5 -18s-13.167 -7 -22.5 -7h-113v-33c0 -23.333 1.16699 -40 3.5 -50s7.83301 -17.667 16.5 -23s23.667 -10 45 -14
c15.333 -5.33301 23 -13.666 23 -24.999c0 -7.33301 -2.5 -12.833 -7.5 -16.5s-13.833 -5.5 -26.5 -5.5h-197c-14 0 -23.667 1.5 -29 4.5s-8 8.83301 -8 17.5c0 10.667 7.33301 19 22 25c20.667 4 35.5 8.5 44.5 13.5s14.667 11.833 17 20.5s3.5 23 3.5 43v43h-122
c-18 0 -27 4.66699 -27 14c0 6.66699 2.66699 12.334 8 17.001s13.333 7 24 7h117v44c0 7.33301 -1.66699 16.666 -5 27.999h-117c-18 0 -27 4.66699 -27 14c0 6.66699 2.66699 12.334 8 17.001s13.333 7 24 7h96l-169 290c-10.667 18.667 -21.334 30.834 -32.001 36.501
s-26.667 9.16699 -48 10.5c-7.33301 2.66699 -12.666 5.83398 -15.999 9.50098s-5 9.16699 -5 16.5c0 9.33301 3.5 15.833 10.5 19.5s17.5 5.16699 31.5 4.5c12 -0.666992 36.333 -1 73 -1c56 0 95.667 0.333008 119 1c28.667 0 43 -7 43 -21
c0 -12 -6.33301 -20.333 -19 -25c-21.333 -2 -36.666 -4.83301 -45.999 -8.5s-14 -9.16699 -14 -16.5c0 -6 2.33301 -12.667 7 -20l145 -246c3.33301 -6 6.66602 -9 9.99902 -9c4 0 7.33301 3 10 9l147 254c3.33301 6.66699 5 12 5 16c0 7.33301 -5.66699 12.833 -17 16.5
s-29.333 6.16699 -54 7.5c-9.33301 4.66699 -14 11.667 -14 21c0 8 2.66699 13.667 8 17s13.666 5 24.999 5c23.333 -0.666992 57 -1 101 -1c30 0 52 0.333008 66 1c20 0 30 -6.66699 30 -20z" />
    <glyph glyph-name="brokenbar" unicode="&#xa6;" horiz-adv-x="128" 
d="M39.5 317c-5 2.66699 -7.5 7 -7.5 13v384c0 6 2.5 10.167 7.5 12.5s13.167 3.5 24.5 3.5c22 0 33 -5.33301 33 -16v-384c0 -11.333 -11 -17 -33 -17c-11.333 0 -19.5 1.33301 -24.5 4zM32 -142v385c0 10.667 10.667 16 32 16c22 0 33 -5.33301 33 -16v-385
c0 -11.333 -11 -17 -33 -17c-21.333 0 -32 5.66699 -32 17z" />
    <glyph glyph-name="section" unicode="&#xa7;" horiz-adv-x="469" 
d="M181 -75c-17.333 7.33301 -34.3389 16.999 -51.0059 28.999c-9.33301 7.33301 -15.666 11 -18.999 11s-5.66602 -2 -6.99902 -6s-2.33301 -8.33301 -3 -13c-1.33301 -8.66699 -3 -15.334 -5 -20.001s-6 -7 -12 -7c-4.66699 0 -8.5 1.66699 -11.5 5
s-5.83301 9.33301 -8.5 18c-2 16 -7 42.667 -15 80l-7.5 39c-3 16 -4.83301 28 -5.5 36c-0.666992 1.33301 -1 3.33301 -1 6c0 5.33301 2 9.83301 6 13.5s8.33301 5.5 13 5.5c8.66699 0 15.334 -3.66699 20.001 -11s11 -25 19 -53c10 -34 29.333 -59.833 58 -77.5
s57.334 -26.5 86.001 -26.5c35.333 0 64 8.66699 86 26s33 39 33 65c0 27.333 -10.167 49.666 -30.5 66.999s-51.5 32.666 -93.5 45.999c-47.333 16 -85 31 -113 45s-49.667 30.333 -65 49s-23 41.334 -23 68.001c0 40.667 24.667 83.667 74 129
c-47.333 27.333 -71 67 -71 119c0 28 7.66699 52.833 23 74.5s36.333 38.5 63 50.5s56.667 18 90 18c29.333 0 53.333 -3.83301 72 -11.5s36.334 -17.5 53.001 -29.5c8.66699 -6.66699 14.667 -10 18 -10s5.66602 2 6.99902 6s2.33301 8.66699 3 14
c1.33301 8.66699 3 15.167 5 19.5s5.66699 6.5 11 6.5c4.66699 0 8.66699 -1.66699 12 -5s6.33301 -9.66602 9 -18.999c2 -17.333 7 -44.333 15 -81c6.66699 -31.333 11 -55.666 13 -72.999l1 -5c0 -6 -2.16699 -10.833 -6.5 -14.5s-8.5 -5.5 -12.5 -5.5
c-6 0 -10.667 1.33301 -14 4s-7 8.33398 -11 17.001s-9 23 -15 43c-10 34 -29.667 59.833 -59 77.5s-59.666 26.5 -90.999 26.5c-34.667 0 -62.167 -8.66699 -82.5 -26s-30.5 -39 -30.5 -65c0 -28 9.83301 -50.333 29.5 -67s51.5 -32.334 95.5 -47.001
c47.333 -16 84.833 -30.667 112.5 -44s49.334 -29.333 65.001 -48s23.5 -41.667 23.5 -69c0 -23.333 -6.83301 -45.5 -20.5 -66.5s-31.5 -42.167 -53.5 -63.5c23.333 -13.333 41 -29.166 53 -47.499s18 -42.166 18 -71.499c0 -28 -8.16699 -52.833 -24.5 -74.5
s-38.5 -38.334 -66.5 -50.001s-58.667 -17.5 -92 -17.5c-26.667 0 -48.667 3.66699 -66 11zM353.994 239.499c10 17 15.001 33.168 15.001 48.501c0 24 -10 44 -30 60s-53 31.667 -99 47c-34.667 12 -64.334 23.667 -89.001 35c-14.667 -12 -27.167 -26.5 -37.5 -43.5
s-15.5 -33.167 -15.5 -48.5c0 -24 9.66699 -43.833 29 -59.5s51 -30.834 95 -45.501c34.667 -12 66 -24.667 94 -38c15.333 12.667 28 27.5 38 44.5z" />
    <glyph glyph-name="dieresis" unicode="&#xa8;" horiz-adv-x="382" 
d="M47.5 579c-11 8.66699 -16.5 20.334 -16.5 35.001c0 13.333 5.5 24.333 16.5 33s25.833 13 44.5 13c18 0 32.5 -4.33301 43.5 -13s16.5 -19.667 16.5 -33c0 -14.667 -5.5 -26.334 -16.5 -35.001s-25.5 -13 -43.5 -13c-18.667 0 -33.5 4.33301 -44.5 13zM253.5 579
c-11 8.66699 -16.5 20.334 -16.5 35.001c0 13.333 5.5 24.333 16.5 33s25.833 13 44.5 13c18 0 32.333 -4.33301 43 -13s16 -19.667 16 -33c0 -14.667 -5.33301 -26.334 -16 -35.001s-25 -13 -43 -13c-18.667 0 -33.5 4.33301 -44.5 13z" />
    <glyph glyph-name="copyright" unicode="&#xa9;" horiz-adv-x="822" 
d="M224 34.5c-54.667 30.333 -97.334 72.833 -128.001 127.5s-46 116.667 -46 186c0 70 15.333 132.333 46 187s73.334 97.334 128.001 128.001s117 46 187 46s132.333 -15.333 187 -46s97.334 -73.334 128.001 -128.001s46 -117 46 -187
c0 -69.333 -15.333 -131.333 -46 -186s-73.334 -97.167 -128.001 -127.5s-117 -45.5 -187 -45.5s-132.333 15.167 -187 45.5zM580.5 63.5c49.667 27.667 88.334 66.167 116.001 115.5s41.5 105.666 41.5 168.999s-13.833 119.833 -41.5 169.5
s-66.334 88.334 -116.001 116.001s-106.167 41.5 -169.5 41.5s-120 -13.833 -170 -41.5s-88.833 -66.334 -116.5 -116.001s-41.5 -106.167 -41.5 -169.5s13.833 -119.666 41.5 -168.999s66.5 -87.833 116.5 -115.5s106.667 -41.5 170 -41.5s119.833 13.833 169.5 41.5z
M312 166c-29.333 18.667 -51.667 44 -67 76s-23 67.667 -23 107c0 40 8.5 76 25.5 108s40.167 57 69.5 75s61.666 27 96.999 27c26.667 0 51.667 -5.16699 75 -15.5s42 -25 56 -44s21 -40.833 21 -65.5c0 -10 -3 -18.167 -9 -24.5s-14.333 -9.5 -25 -9.5
c-19.333 0 -30 13.667 -32 41c-0.666992 24.667 -8.16699 45.334 -22.5 62.001s-36.833 25 -67.5 25c-20 0 -38.833 -6.16699 -56.5 -18.5s-31.667 -29.833 -42 -52.5s-15.5 -49.334 -15.5 -80.001c0 -53.333 11.333 -97 34 -131s56.667 -51 102 -51
c28 0 52.5 6.33301 73.5 19s38.5 29 52.5 49c2.66699 3.33301 4.83398 5.66602 6.50098 6.99902s3.83398 2 6.50098 2c5.33301 0 9.16602 -2.16699 11.499 -6.5s2.5 -9.16602 0.5 -14.499c-14.667 -32.667 -36 -59.667 -64 -81s-63 -32 -105 -32
c-38.667 0 -72.667 9.33301 -102 28z" />
    <glyph glyph-name="guillemotleft" unicode="&#xab;" horiz-adv-x="383" 
d="M142 48.5c-5.33301 3.66699 -14.166 13.168 -26.499 28.501s-27.833 35.666 -46.5 60.999c-22 28.667 -38.167 51.5 -48.5 68.5s-15.5 27.833 -15.5 32.5c0 13.333 21.333 48 64 104l47.5 61c12.333 15.333 21.166 24.833 26.499 28.5s11 5.5 17 5.5
s11.167 -2.5 15.5 -7.5s5.83301 -10.5 4.5 -16.5c-5.33301 -10 -18.333 -31 -39 -63l-19 -31c-13.333 -20.667 -24.333 -38.334 -33 -53.001s-13 -24 -13 -28c0 -3.33301 4.33301 -12.166 13 -26.499s19.667 -31.5 33 -51.5l22 -34c17.333 -26 29.333 -46 36 -60v-4
c0 -5.33301 -2 -10 -6 -14s-8.66699 -6 -14 -6c-6.66699 0 -12.667 1.83301 -18 5.5zM312 48.501c-5.33301 3.66699 -14.166 13.168 -26.499 28.501s-27.833 35.666 -46.5 60.999c-22 28.667 -38.167 51.5 -48.5 68.5s-15.5 27.833 -15.5 32.5c0 13.333 21.333 48 64 104
l47.5 61c12.333 15.333 21.166 24.833 26.499 28.5s11 5.5 17 5.5s11.167 -2.5 15.5 -7.5s5.83301 -10.5 4.5 -16.5c-5.33301 -10 -18.333 -31 -39 -63l-19 -31c-13.333 -20.667 -24.333 -38.334 -33 -53.001s-13 -24 -13 -28c0 -3.33301 4.33301 -12.166 13 -26.499
s19.667 -31.5 33 -51.5l22 -34c17.333 -26 29.333 -46 36 -60v-4c0 -5.33301 -2 -10 -6 -14s-8.66699 -6 -14 -6c-6.66699 0 -12.667 1.83301 -18 5.5z" />
    <glyph glyph-name="logicalnot" unicode="&#xac;" horiz-adv-x="523" 
d="M333 167c-1.33301 29.333 -2 61.001 -2 95.001c0 6 -1 10.5 -3 13.5s-5.66699 4.5 -11 4.5h-167h-42c-12.667 1.33301 -21.834 4.16602 -27.501 8.49902s-8.5 11.5 -8.5 21.5c0 7.33301 2.33301 13.5 7 18.5s11 7.83301 19 8.5c36.667 2.66699 84.334 4 143.001 4
c48 0 87.333 -1 118 -3c18.667 -0.666992 28.667 -11.667 30 -33l2 -78c0 -28 -0.666992 -48.667 -2 -62c-2 -15.333 -11.333 -23 -28 -23s-26 8.33301 -28 25z" />
    <glyph glyph-name="uni00AD" unicode="&#xad;" horiz-adv-x="329" 
d="M58 218c-8.66699 0 -15.167 1.33203 -19.5 3.99902s-6.5 7.33398 -6.5 14.001c0 10.667 2.66699 19.667 8 27s13.333 11 24 11h209c16 0 24 -6 24 -18c0 -10.667 -2.66699 -19.667 -8 -27s-13 -11 -23 -11h-208z" />
    <glyph glyph-name="registered" unicode="&#xae;" horiz-adv-x="576" 
d="M421 676.5c38.667 -21.667 68.833 -52 90.5 -91s32.5 -83.5 32.5 -133.5c0 -49.333 -10.833 -93.333 -32.5 -132s-52 -68.834 -91 -90.501s-83.5 -32.5 -133.5 -32.5c-49.333 0 -93.333 10.833 -132 32.5s-68.834 51.834 -90.501 90.501s-32.5 82.667 -32.5 132
c0 50 10.833 94.5 32.5 133.5s51.834 69.333 90.501 91s83 32.5 133 32.5s94.333 -10.833 133 -32.5zM402.499 260c33.667 18.667 59.834 44.667 78.501 78s28 71.333 28 114s-9.33301 80.834 -28 114.501s-44.834 60 -78.501 79s-71.834 28.5 -114.501 28.5
s-80.834 -9.5 -114.501 -28.5s-59.834 -45.333 -78.501 -79s-28 -71.834 -28 -114.501s9.33301 -80.667 28 -114s44.834 -59.333 78.501 -78s71.834 -28 114.501 -28s80.834 9.33301 114.501 28zM422.999 348.5c4.66699 -0.333008 8.33203 -1 10.999 -2s4 -3.5 4 -7.5
c0 -11.333 -13.333 -17 -40 -17c-22.667 0 -37.5 4 -44.5 12s-11.833 22.667 -14.5 44c-8 42 -26.333 63 -55 63h-21c-6 0 -10.167 -1.16699 -12.5 -3.5s-3.5 -6.83301 -3.5 -13.5v-46c0 -9.33301 1.5 -15.666 4.5 -18.999s9.83301 -6.33301 20.5 -9c6 -2.66699 9 -7 9 -13
c0 -4.66699 -1.16699 -7.83398 -3.5 -9.50098s-6.83301 -2.5 -13.5 -2.5h-80c-6.66699 0 -11.167 0.833008 -13.5 2.5s-3.5 4.83398 -3.5 9.50098c0 5.33301 3.33301 9.66602 10 12.999c10.667 2.66699 17.334 6 20.001 10s4 11 4 21v170c0 10.667 -1.33301 17.667 -4 21
s-9.66699 6.33301 -21 9c-6.66699 4 -10 8.66699 -10 14c0 7.33301 6 11 18 11h37l64 1c39.333 0 69.666 -7 90.999 -21s32 -34 32 -60c0 -18.667 -6.16699 -34.667 -18.5 -48s-28.833 -23 -49.5 -29c18.667 -9.33301 33.334 -30 44.001 -62
c3.33301 -10.667 7 -18.667 11 -24s9 -9 15 -11c4 -2 8.33301 -3.16699 13 -3.5zM288.997 467c22.667 0 39.5 4.5 50.5 13.5s16.5 21.5 16.5 37.5c0 42 -23 63 -69 63h-21c-12.667 0 -19 -7.66699 -19 -23v-71c0 -6.66699 1.16699 -11.667 3.5 -15s6.83301 -5 13.5 -5h25z
" />
    <glyph glyph-name="macron" unicode="&#xaf;" horiz-adv-x="329" 
d="M35 577.5c-2.66699 1.66699 -3.99902 4.5 -3.99902 8.5s1 8.33301 3 13c2.66699 8 5.5 13.833 8.5 17.5s7.83301 5.5 14.5 5.5l118 -1l110 1c8 0 12 -3.33301 12 -10c0 -0.666992 -1 -5 -3 -13c-2 -9.33301 -4.5 -15.833 -7.5 -19.5s-8.16699 -5.5 -15.5 -5.5
c-46 0.666992 -120 1 -222 1c-6.66699 0 -11.334 0.833008 -14.001 2.5z" />
    <glyph glyph-name="degree" unicode="&#xb0;" horiz-adv-x="342" 
d="M71 473.5c-26 25.667 -39 58.834 -39 99.501s12.833 73.667 38.5 99s59.167 38 100.5 38c40.667 0 74 -12.833 100 -38.5s39 -58.834 39 -99.501c0 -40 -13 -72.833 -39 -98.5s-59.333 -38.5 -100 -38.5s-74 12.833 -100 38.5zM242.5 502c18.333 18 27.5 41.667 27.5 71
c0 28.667 -9.33301 52 -28 70s-42.667 27 -72 27s-53.166 -9.16699 -71.499 -27.5s-27.5 -41.833 -27.5 -70.5s9.33301 -52 28 -70s42.667 -27 72 -27s53.166 9 71.499 27z" />
    <glyph glyph-name="plusminus" unicode="&#xb1;" horiz-adv-x="444" 
d="M376 99c24 0 35.999 -6.33301 35.999 -19c0 -10.667 -4 -19.5 -12 -26.5s-19.333 -10.5 -34 -10.5h-296c-12.667 0 -22.167 1.33301 -28.5 4s-9.5 7.33398 -9.5 14.001c0 10.667 4 19.667 12 27s19.667 11 35 11h124c-5.33301 6.66699 -8 16 -8 28v107
c0 7.33301 -4 11 -12 11h-111c-11.333 0 -19.666 1.66699 -24.999 5s-8 9.66602 -8 18.999c0 10.667 3 18.667 9 24s16 8 30 8h104c8.66699 0 13 4.33301 13 13v111c0 10.667 3.16699 18.5 9.5 23.5s13.5 7.5 21.5 7.5c16.667 0 25 -10.333 25 -31v-111
c0 -8.66699 3.33301 -13 10 -13h114c10.667 0 18.667 -3.16699 24 -9.5s8 -13.5 8 -21.5c0 -16.667 -10.667 -25 -32 -25h-114c-6.66699 0 -10 -3.33301 -10 -10v-113c0 -10 -1.33301 -17.667 -4 -23h129z" />
    <glyph glyph-name="acute" unicode="&#xb4;" horiz-adv-x="258" 
d="M32 534c0 7.33301 26.335 40.334 79.002 99.001c18.667 21.333 28.667 33 30 35c5.33301 8 11.666 13.167 18.999 15.5s17.666 3.5 30.999 3.5s22.5 -1.33301 27.5 -4s7.5 -7 7.5 -13c0 -8.66699 -13 -24.834 -39 -48.501s-54 -46 -84 -67s-49 -31.5 -57 -31.5
c-9.33301 0 -14 3.66699 -14 11z" />
    <glyph glyph-name="uni00B5" unicode="&#xb5;" horiz-adv-x="586" 
d="M567.5 34.5c-5 -3.66699 -12.167 -7.16797 -21.5 -10.501l-37 -11l-44 -13c-14 -4 -24.667 -6 -32 -6c-10 0 -17.167 2 -21.5 6s-6.5 11 -6.5 21v56c0 10.667 -1.33301 16 -4 16c-0.666992 0 -4.33398 -9.16699 -11.001 -27.5s-20 -35.5 -40 -51.5s-47.667 -24 -83 -24
c-24.667 0 -46.167 5 -64.5 15s-32.166 24 -41.499 42c-0.666992 3.33301 -2 5.16602 -4 5.49902s-3 -1.16699 -3 -4.5c0 -16 2 -41.333 6 -76c4 -33.333 6 -58 6 -74c0 -22 -13.667 -33 -41 -33c-16 0 -26.833 3 -32.5 9s-8.5 15.333 -8.5 28v471
c0 14 -1.66699 23.833 -5 29.5s-10.666 8.83398 -21.999 9.50098c-7.33301 0 -14 -0.333008 -20 -1s-11.333 -1 -16 -1c-6.66699 0 -11.5 0.833008 -14.5 2.5s-4.5 4.83398 -4.5 9.50098c0 6.66699 2.5 11.667 7.5 15s12.5 6.66602 22.5 9.99902
c13.333 4 23.333 7.33301 30 10c43.333 14 71 21 83 21c9.33301 0 16.166 -2 20.499 -6s6.5 -11 6.5 -21v-257c0 -48.667 8.83301 -84.667 26.5 -108s44.5 -35 80.5 -35c20.667 0 40.667 6.16699 60 18.5s35.166 31.333 47.499 57s18.5 56.834 18.5 93.501v153
c0 14 -1.5 23.833 -4.5 29.5s-10.167 8.83398 -21.5 9.50098c-7.33301 0 -14.166 -0.333008 -20.499 -1s-11.833 -1 -16.5 -1c-6.66699 0 -11.334 0.833008 -14.001 2.5s-4 4.83398 -4 9.50098c0 6.66699 2.33301 11.667 7 15s12 6.66602 22 9.99902
c5.33301 2 11 3.83301 17 5.5s12 3.5 18 5.5c40 13.333 66 20 78 20c10 0 17.167 -2 21.5 -6s6.5 -11 6.5 -21v-353c0 -13.333 1.66699 -22.833 5 -28.5s10.666 -8.83398 21.999 -9.50098c6.66699 0 12.834 0.333008 18.501 1s10.834 1 15.501 1
c13.333 0 20 -4.33301 20 -13c0 -6 -2.5 -10.833 -7.5 -14.5z" />
    <glyph glyph-name="paragraph" unicode="&#xb6;" horiz-adv-x="708" 
d="M220 -74c0 11.333 6.00195 19.665 18.002 24.998c6.66699 1.33301 14 2.5 22 3.5s16.333 2.5 25 4.5c10 2 16.667 5.33301 20 10s5 12 5 22l1 310c0 10.667 -2 17.834 -6 21.501s-12 5.5 -24 5.5c-87.333 0 -153 14.667 -197 44s-66 79 -66 149
c0 59.333 18.333 105 55 137s85.667 48 147 48c26 0 59.667 -0.666992 101 -2c45.333 -1.33301 84.666 -2 117.999 -2l145 1c15.333 0.666992 32.666 1 51.999 1c12.667 0 22.5 -2.33301 29.5 -7s10.5 -11.334 10.5 -20.001c0 -11.333 -7.66699 -19.666 -23 -24.999l-40 -8
c-14.667 -4 -22 -15.333 -22 -34l-1 -622c0 -18 7 -28 21 -30l41 -8c6.66699 -2.66699 11.334 -5.66699 14.001 -9s4 -8 4 -14c0 -14.667 -9 -23 -27 -25c-48 -2 -112.333 -3 -193 -3h-131c-38.667 0 -62.334 0.333008 -71.001 1c-18.667 2.66699 -28 11.334 -28 26.001z
M513.002 -35.001c8.66699 5.33301 12.999 16.333 12.999 33v600c0 18.667 -4.16699 31.167 -12.5 37.5s-24.166 9.5 -47.499 9.5c-26 0 -43.333 -2.83301 -52 -8.5s-13.334 -18.5 -14.001 -38.5l1 -601c0 -17.333 4 -28.333 12 -33s24.667 -7 50 -7
c24.667 0 41.334 2.66699 50.001 8z" />
    <glyph glyph-name="periodcentered" unicode="&#xb7;" horiz-adv-x="235" 
d="M68.5 192.5c-11 10.333 -16.5 23.8311 -16.5 40.498c0 20.667 6.66699 38 20 52s30 21 50 21c18 0 32.667 -5.66699 44 -17s17 -25.666 17 -42.999c0 -19.333 -7 -35.666 -21 -48.999s-31 -20 -51 -20c-17.333 0 -31.5 5.16699 -42.5 15.5z" />
    <glyph glyph-name="cedilla" unicode="&#xb8;" horiz-adv-x="262" 
d="M79.5 -179c-16.333 5.33301 -29.499 12.6641 -39.499 21.9971c-6 4.66699 -9 10 -9 16c0 2.66699 1 4.83398 3 6.50098s4.66699 2.5 8 2.5s7.66602 -1 12.999 -3c17.333 -12 40 -18 68 -18c18 0 32.5 4 43.5 12s16.5 18.667 16.5 32c0 10 -3.16699 17.833 -9.5 23.5
s-16.5 11.834 -30.5 18.501s-24.333 13 -31 19s-10 14.667 -10 26c0 8 1.66699 16.333 5 25l40 -3c-2 -5.33301 -3 -9.66602 -3 -12.999c0 -8 2.83301 -14.333 8.5 -19s14.5 -10 26.5 -16c16 -8 28.5 -16.333 37.5 -25s13.5 -21 13.5 -37c0 -22 -8.5 -40.333 -25.5 -55
s-40.167 -22 -69.5 -22c-20.667 0 -39.167 2.66699 -55.5 8z" />
    <glyph glyph-name="guillemotright" unicode="&#xbb;" horiz-adv-x="383" 
d="M38 50.5c-4.66699 5 -6 10.5 -4 16.5c6.66699 14 18.667 34 36 60l22 34c10 16 16.333 25.667 19 29c2.66699 4.66699 7.83398 13.167 15.501 25.5s11.5 20.166 11.5 23.499c0 4 -4.33301 13.333 -13 28s-19.667 32.334 -33 53.001l-19 31c-20.667 32 -33.667 53 -39 63
c-0.666992 1.33301 -1 3 -1 5c0 5.33301 2.16699 9.83301 6.5 13.5s9.16602 5.5 14.499 5.5c6 0 11.5 -1.83301 16.5 -5.5s13.833 -13.167 26.5 -28.5l48 -61c42.667 -56 64 -90.667 64 -104c0 -4.66699 -5.16699 -15.5 -15.5 -32.5s-26.5 -39.833 -48.5 -68.5l-47.5 -61
c-12.333 -15.333 -21 -24.833 -26 -28.5s-10.833 -5.5 -17.5 -5.5c-6 0 -11.333 2.5 -16 7.5zM208 50.5c-4.66699 5 -6 10.502 -4 16.502c11.333 21.333 26 45.666 44 72.999l14 21c10 16 16.333 25.667 19 29c2.66699 4.66699 7.83398 13.167 15.501 25.5
s11.5 20.166 11.5 23.499c0 4 -4.33301 13.333 -13 28s-19.667 32.334 -33 53.001c-30 46.667 -49.333 78 -58 94c-0.666992 1.33301 -1 3 -1 5c0 5.33301 2.16699 9.83301 6.5 13.5s9.16602 5.5 14.499 5.5c6 0 11.5 -1.83301 16.5 -5.5s13.833 -13.167 26.5 -28.5l48 -61
c42 -54.667 63 -89.334 63 -104.001c0 -4.66699 -5 -15.5 -15 -32.5s-26 -39.833 -48 -68.5l-47.5 -61c-12.333 -15.333 -21 -24.833 -26 -28.5s-10.833 -5.5 -17.5 -5.5c-6 0 -11.333 2.5 -16 7.5z" />
    <glyph glyph-name="questiondown" unicode="&#xbf;" horiz-adv-x="463" 
d="M295 467c12 -10.667 18 -24.334 18 -41.001c0 -17.333 -6 -31.5 -18 -42.5s-27.333 -16.5 -46 -16.5c-19.333 0 -35.166 5.66699 -47.499 17s-18.5 25.333 -18.5 42s6.16699 30.334 18.5 41.001s28.166 16 47.499 16c18.667 0 34 -5.33301 46 -16zM268 305.5
c4 -3.66699 5.99902 -9.16797 5.99902 -16.501c0 -26 -4.5 -48.667 -13.5 -68s-20 -35.5 -33 -48.5s-30.5 -28.167 -52.5 -45.5c-19.333 -16 -34.5 -29.333 -45.5 -40s-20.333 -23.667 -28 -39s-11.5 -32.666 -11.5 -51.999c0 -39.333 12.167 -70.5 36.5 -93.5
s56.166 -34.5 95.499 -34.5c28.667 0 54.334 5.83301 77.001 17.5s40.5 27.667 53.5 48s19.5 42.833 19.5 67.5c0 15.333 3.83301 27.333 11.5 36s17.834 13 30.501 13c12 0 22 -4.16699 30 -12.5s12 -19.5 12 -33.5c0 -32.667 -10.167 -63 -30.5 -91
s-48.5 -50.167 -84.5 -66.5s-76.333 -24.5 -121 -24.5c-40.667 0 -77.334 6.83301 -110.001 20.5s-58.167 33 -76.5 58s-27.5 54.167 -27.5 87.5c0 25.333 4.83301 47.5 14.5 66.5s21.667 34.833 36 47.5s33.833 27.667 58.5 45c34 24 60 45.833 78 65.5
s29.333 45.167 34 76.5c6.66699 14.667 15.334 22 26.001 22c6 0 11 -1.83301 15 -5.5z" />
    <glyph glyph-name="Agrave" unicode="&#xc0;" horiz-adv-x="735" 
d="M5 19c0 5.33301 2.66504 10.165 7.99805 14.498s11.333 7.5 18 9.5c18 2 31.5 5 40.5 9s16.167 10.167 21.5 18.5s11.333 21.5 18 39.5l198 512c2 5.33301 3 10.333 3 15c0 13.333 -7.66699 21.333 -23 24c-12.667 2.66699 -19 9.66699 -19 21c0 5.33301 2.33301 10 7 14
s12 6 22 6h54c22.667 0 39 -4.5 49 -13.5s18.333 -21.5 25 -37.5l211 -547c5.33301 -15.333 10.5 -26.5 15.5 -33.5s11.5 -12.167 19.5 -15.5s20.333 -6 37 -8c13.333 -3.33301 20 -11.666 20 -24.999c0 -15.333 -10 -23 -30 -23h-123h-60
c-18.667 0 -32.167 1.33301 -40.5 4s-12.5 8.33398 -12.5 17.001c0 9.33301 5.66699 15.333 17 18c22.667 2.66699 38.334 6.16699 47.001 10.5s13 11.166 13 20.499c0 6.66699 -2.66699 17.334 -8 32.001l-33 87c-4 10 -9 17.5 -15 22.5s-14.333 7.5 -25 7.5h-219
c-15.333 0 -25.666 -1.5 -30.999 -4.5s-10.333 -10.5 -15 -22.5l-33 -85c-6.66699 -18 -10 -30.667 -10 -38c0 -9.33301 4.33301 -16 13 -20s23.667 -6.66699 45 -8c16.667 -3.33301 25 -10.333 25 -21c0 -14 -11.333 -21 -34 -21c-15.333 0.666992 -43.333 1 -84 1
c-40 0 -67.333 -0.333008 -82 -1c-20 0 -30 7 -30 21zM444.998 264.999c14 0 21 4.66699 21 14c0 4 -0.666992 7.33301 -2 10l-84 228l-23 62c-2 7.33301 -4.66699 11 -8 11c-2.66699 0 -5.66699 -3.66699 -9 -11l-110 -292l-2 -8c0 -9.33301 9 -14 27 -14h190z
M345.498 760.499c-32.333 16.333 -62.3369 34.168 -90.0039 53.501s-41.5 33.333 -41.5 42c-0.666992 7.33301 2.16602 12.166 8.49902 14.499s18.5 3.5 36.5 3.5c10.667 0 18.834 -1 24.501 -3s10.834 -6 15.501 -12c7.33301 -6.66699 15.333 -13.5 24 -20.5
s16.334 -13.5 23.001 -19.5l51.5 -43.5c16.333 -14.333 24.833 -23.833 25.5 -28.5c0 -4 -1.16699 -6.83301 -3.5 -8.5s-6.16602 -2.5 -11.499 -2.5c-9.33301 0 -30.166 8.16699 -62.499 24.5z" />
    <glyph glyph-name="Aacute" unicode="&#xc1;" horiz-adv-x="735" 
d="M5 19c0 5.33301 2.66504 10.165 7.99805 14.498s11.333 7.5 18 9.5c18 2 31.5 5 40.5 9s16.167 10.167 21.5 18.5s11.333 21.5 18 39.5l198 512c2 5.33301 3 10.333 3 15c0 13.333 -7.66699 21.333 -23 24c-12.667 2.66699 -19 9.66699 -19 21c0 5.33301 2.33301 10 7 14
s12 6 22 6h54c22.667 0 39 -4.5 49 -13.5s18.333 -21.5 25 -37.5l211 -547c5.33301 -15.333 10.5 -26.5 15.5 -33.5s11.5 -12.167 19.5 -15.5s20.333 -6 37 -8c13.333 -3.33301 20 -11.666 20 -24.999c0 -15.333 -10 -23 -30 -23h-123h-60
c-18.667 0 -32.167 1.33301 -40.5 4s-12.5 8.33398 -12.5 17.001c0 9.33301 5.66699 15.333 17 18c22.667 2.66699 38.334 6.16699 47.001 10.5s13 11.166 13 20.499c0 6.66699 -2.66699 17.334 -8 32.001l-33 87c-4 10 -9 17.5 -15 22.5s-14.333 7.5 -25 7.5h-219
c-15.333 0 -25.666 -1.5 -30.999 -4.5s-10.333 -10.5 -15 -22.5l-33 -85c-6.66699 -18 -10 -30.667 -10 -38c0 -9.33301 4.33301 -16 13 -20s23.667 -6.66699 45 -8c16.667 -3.33301 25 -10.333 25 -21c0 -14 -11.333 -21 -34 -21c-15.333 0.666992 -43.333 1 -84 1
c-40 0 -67.333 -0.333008 -82 -1c-20 0 -30 7 -30 21zM444.998 264.999c14 0 21 4.66699 21 14c0 4 -0.666992 7.33301 -2 10l-84 228l-23 62c-2 7.33301 -4.66699 11 -8 11c-2.66699 0 -5.66699 -3.66699 -9 -11l-110 -292l-2 -8c0 -9.33301 9 -14 27 -14h190z
M299.498 738.499c-2.33301 1.66699 -3.50488 4.49805 -3.50488 8.49805c0.666992 4.66699 9.16699 14.167 25.5 28.5l51.5 43.5c6.66699 6 14.334 12.5 23.001 19.5s16.667 13.833 24 20.5c4.66699 6 9.83398 10 15.501 12s13.834 3 24.501 3c18.667 0 31 -1.16699 37 -3.5
s8.66699 -7.16602 8 -14.499c0 -8.66699 -13.833 -22.667 -41.5 -42s-57.667 -37.166 -90 -53.499s-53.166 -24.5 -62.499 -24.5c-5.33301 0 -9.16602 0.833008 -11.499 2.5z" />
    <glyph glyph-name="Acircumflex" unicode="&#xc2;" horiz-adv-x="735" 
d="M5 19c0 5.33301 2.66504 10.165 7.99805 14.498s11.333 7.5 18 9.5c18 2 31.5 5 40.5 9s16.167 10.167 21.5 18.5s11.333 21.5 18 39.5l198 512c2 5.33301 3 10.333 3 15c0 13.333 -7.66699 21.333 -23 24c-12.667 2.66699 -19 9.66699 -19 21c0 5.33301 2.33301 10 7 14
s12 6 22 6h54c22.667 0 39 -4.5 49 -13.5s18.333 -21.5 25 -37.5l211 -547c5.33301 -15.333 10.5 -26.5 15.5 -33.5s11.5 -12.167 19.5 -15.5s20.333 -6 37 -8c13.333 -3.33301 20 -11.666 20 -24.999c0 -15.333 -10 -23 -30 -23h-123h-60
c-18.667 0 -32.167 1.33301 -40.5 4s-12.5 8.33398 -12.5 17.001c0 9.33301 5.66699 15.333 17 18c22.667 2.66699 38.334 6.16699 47.001 10.5s13 11.166 13 20.499c0 6.66699 -2.66699 17.334 -8 32.001l-33 87c-4 10 -9 17.5 -15 22.5s-14.333 7.5 -25 7.5h-219
c-15.333 0 -25.666 -1.5 -30.999 -4.5s-10.333 -10.5 -15 -22.5l-33 -85c-6.66699 -18 -10 -30.667 -10 -38c0 -9.33301 4.33301 -16 13 -20s23.667 -6.66699 45 -8c16.667 -3.33301 25 -10.333 25 -21c0 -14 -11.333 -21 -34 -21c-15.333 0.666992 -43.333 1 -84 1
c-40 0 -67.333 -0.333008 -82 -1c-20 0 -30 7 -30 21zM444.998 264.999c14 0 21 4.66699 21 14c0 4 -0.666992 7.33301 -2 10l-84 228l-23 62c-2 7.33301 -4.66699 11 -8 11c-2.66699 0 -5.66699 -3.66699 -9 -11l-110 -292l-2 -8c0 -9.33301 9 -14 27 -14h190z
M210.498 735.499c-2.33301 2.33301 -3.50488 5.5 -3.50488 9.5c0 10 16.333 31.667 49 65s59.334 56.666 80.001 69.999c8 6 16 9 24 9c7.33301 0 15.666 -3 24.999 -9c20.667 -14 47.334 -37.5 80.001 -70.5s49 -54.5 49 -64.5c0 -4 -1.16699 -7.16699 -3.5 -9.5
s-5.16602 -3.5 -8.49902 -3.5c-2.66699 0 -8.5 3.33301 -17.5 10l-17.5 13l-17 13c-54 42 -84 63 -90 63c-3.33301 0 -13.666 -6.33301 -30.999 -19l-58 -44c-5.33301 -3.33301 -14.666 -10.166 -27.999 -20.499s-21.333 -15.5 -24 -15.5
c-3.33301 0 -6.16602 1.16699 -8.49902 3.5z" />
    <glyph glyph-name="Atilde" unicode="&#xc3;" horiz-adv-x="735" 
d="M5 19c0 5.33301 2.66504 10.165 7.99805 14.498s11.333 7.5 18 9.5c18 2 31.5 5 40.5 9s16.167 10.167 21.5 18.5s11.333 21.5 18 39.5l198 512c2 5.33301 3 10.333 3 15c0 13.333 -7.66699 21.333 -23 24c-12.667 2.66699 -19 9.66699 -19 21c0 5.33301 2.33301 10 7 14
s12 6 22 6h54c22.667 0 39 -4.5 49 -13.5s18.333 -21.5 25 -37.5l211 -547c5.33301 -15.333 10.5 -26.5 15.5 -33.5s11.5 -12.167 19.5 -15.5s20.333 -6 37 -8c13.333 -3.33301 20 -11.666 20 -24.999c0 -15.333 -10 -23 -30 -23h-123h-60
c-18.667 0 -32.167 1.33301 -40.5 4s-12.5 8.33398 -12.5 17.001c0 9.33301 5.66699 15.333 17 18c22.667 2.66699 38.334 6.16699 47.001 10.5s13 11.166 13 20.499c0 6.66699 -2.66699 17.334 -8 32.001l-33 87c-4 10 -9 17.5 -15 22.5s-14.333 7.5 -25 7.5h-219
c-15.333 0 -25.666 -1.5 -30.999 -4.5s-10.333 -10.5 -15 -22.5l-33 -85c-6.66699 -18 -10 -30.667 -10 -38c0 -9.33301 4.33301 -16 13 -20s23.667 -6.66699 45 -8c16.667 -3.33301 25 -10.333 25 -21c0 -14 -11.333 -21 -34 -21c-15.333 0.666992 -43.333 1 -84 1
c-40 0 -67.333 -0.333008 -82 -1c-20 0 -30 7 -30 21zM444.998 264.999c14 0 21 4.66699 21 14c0 4 -0.666992 7.33301 -2 10l-84 228l-23 62c-2 7.33301 -4.66699 11 -8 11c-2.66699 0 -5.66699 -3.66699 -9 -11l-110 -292l-2 -8c0 -9.33301 9 -14 27 -14h190z
M399.998 746.499c-12 5 -25.666 11.8311 -40.999 20.498l-19 9.5c-10 5 -19.167 8.83301 -27.5 11.5s-16.5 4 -24.5 4c-11.333 0 -20.833 -3.16699 -28.5 -9.5s-12.834 -15.166 -15.501 -26.499c-6.66699 -12.667 -15 -19 -25 -19c-5.33301 0 -9.66602 1.83301 -12.999 5.5
s-5 8.5 -5 14.5c0.666992 24.667 8.5 44.667 23.5 60s33.833 23 56.5 23c15.333 0 30.166 -2.66699 44.499 -8s29.833 -13 46.5 -23c15.333 -8 27 -13.833 35 -17.5s16.333 -5.5 25 -5.5c10.667 0 19.834 3.33301 27.501 10s13.167 15.334 16.5 26.001
c6 12.667 14.333 19 25 19c5.33301 0 9.66602 -1.83301 12.999 -5.5s5 -8.5 5 -14.5c-0.666992 -24.667 -8.5 -44.5 -23.5 -59.5s-34.167 -22.5 -57.5 -22.5c-13.333 0 -26 2.5 -38 7.5z" />
    <glyph glyph-name="Adieresis" unicode="&#xc4;" horiz-adv-x="735" 
d="M5 19c0 5.33301 2.66504 10.165 7.99805 14.498s11.333 7.5 18 9.5c18 2 31.5 5 40.5 9s16.167 10.167 21.5 18.5s11.333 21.5 18 39.5l198 512c2 5.33301 3 10.333 3 15c0 13.333 -7.66699 21.333 -23 24c-12.667 2.66699 -19 9.66699 -19 21c0 5.33301 2.33301 10 7 14
s12 6 22 6h54c22.667 0 39 -4.5 49 -13.5s18.333 -21.5 25 -37.5l211 -547c5.33301 -15.333 10.5 -26.5 15.5 -33.5s11.5 -12.167 19.5 -15.5s20.333 -6 37 -8c13.333 -3.33301 20 -11.666 20 -24.999c0 -15.333 -10 -23 -30 -23h-123h-60
c-18.667 0 -32.167 1.33301 -40.5 4s-12.5 8.33398 -12.5 17.001c0 9.33301 5.66699 15.333 17 18c22.667 2.66699 38.334 6.16699 47.001 10.5s13 11.166 13 20.499c0 6.66699 -2.66699 17.334 -8 32.001l-33 87c-4 10 -9 17.5 -15 22.5s-14.333 7.5 -25 7.5h-219
c-15.333 0 -25.666 -1.5 -30.999 -4.5s-10.333 -10.5 -15 -22.5l-33 -85c-6.66699 -18 -10 -30.667 -10 -38c0 -9.33301 4.33301 -16 13 -20s23.667 -6.66699 45 -8c16.667 -3.33301 25 -10.333 25 -21c0 -14 -11.333 -21 -34 -21c-15.333 0.666992 -43.333 1 -84 1
c-40 0 -67.333 -0.333008 -82 -1c-20 0 -30 7 -30 21zM444.998 264.999c14 0 21 4.66699 21 14c0 4 -0.666992 7.33301 -2 10l-84 228l-23 62c-2 7.33301 -4.66699 11 -8 11c-2.66699 0 -5.66699 -3.66699 -9 -11l-110 -292l-2 -8c0 -9.33301 9 -14 27 -14h190z
M215.498 747.999c-11 8.66699 -16.5 20.334 -16.5 35.001c0 13.333 5.5 24.333 16.5 33s25.833 13 44.5 13c18 0 32.5 -4.33301 43.5 -13s16.5 -19.667 16.5 -33c0 -14.667 -5.5 -26.334 -16.5 -35.001s-25.5 -13 -43.5 -13c-18.667 0 -33.5 4.33301 -44.5 13z
M421.498 747.999c-11 8.66699 -16.5 20.334 -16.5 35.001c0 13.333 5.5 24.333 16.5 33s25.833 13 44.5 13c18 0 32.333 -4.33301 43 -13s16 -19.667 16 -33c0 -14.667 -5.33301 -26.334 -16 -35.001s-25 -13 -43 -13c-18.667 0 -33.5 4.33301 -44.5 13z" />
    <glyph glyph-name="Aring" unicode="&#xc5;" horiz-adv-x="735" 
d="M5 19c0 5.33301 2.66504 10.165 7.99805 14.498s11.333 7.5 18 9.5c18 2 31.5 5 40.5 9s16.167 10.167 21.5 18.5s11.333 21.5 18 39.5l198 512c2 5.33301 3 10.333 3 15c0 13.333 -7.66699 21.333 -23 24c-12.667 2.66699 -19 9.66699 -19 21c0 5.33301 2.33301 10 7 14
s12 6 22 6h54c22.667 0 39 -4.5 49 -13.5s18.333 -21.5 25 -37.5l211 -547c5.33301 -15.333 10.5 -26.5 15.5 -33.5s11.5 -12.167 19.5 -15.5s20.333 -6 37 -8c13.333 -3.33301 20 -11.666 20 -24.999c0 -15.333 -10 -23 -30 -23h-123h-60
c-18.667 0 -32.167 1.33301 -40.5 4s-12.5 8.33398 -12.5 17.001c0 9.33301 5.66699 15.333 17 18c22.667 2.66699 38.334 6.16699 47.001 10.5s13 11.166 13 20.499c0 6.66699 -2.66699 17.334 -8 32.001l-33 87c-4 10 -9 17.5 -15 22.5s-14.333 7.5 -25 7.5h-219
c-15.333 0 -25.666 -1.5 -30.999 -4.5s-10.333 -10.5 -15 -22.5l-33 -85c-6.66699 -18 -10 -30.667 -10 -38c0 -9.33301 4.33301 -16 13 -20s23.667 -6.66699 45 -8c16.667 -3.33301 25 -10.333 25 -21c0 -14 -11.333 -21 -34 -21c-15.333 0.666992 -43.333 1 -84 1
c-40 0 -67.333 -0.333008 -82 -1c-20 0 -30 7 -30 21zM444.998 264.999c14 0 21 4.66699 21 14c0 4 -0.666992 7.33301 -2 10l-84 228l-23 62c-2 7.33301 -4.66699 11 -8 11c-2.66699 0 -5.66699 -3.66699 -9 -11l-110 -292l-2 -8c0 -9.33301 9 -14 27 -14h190z
M289.498 757.999c-17 14 -25.501 32 -25.501 54c0 22.667 8.33301 41 25 55s37 21 61 21c24.667 0 45.667 -7.16699 63 -21.5s26 -32.833 26 -55.5c0 -22 -8.66699 -39.833 -26 -53.5s-37.666 -20.5 -60.999 -20.5c-24.667 0 -45.5 7 -62.5 21zM383.997 777.999
c8.66699 8.66699 12.998 19.334 12.998 32.001c0 13.333 -4.5 24.833 -13.5 34.5s-19.833 14.5 -32.5 14.5c-13.333 0 -24.166 -4.5 -32.499 -13.5s-12.5 -19.833 -12.5 -32.5s4.5 -23.834 13.5 -33.501s19.833 -14.5 32.5 -14.5s23.334 4.33301 32.001 13z" />
    <glyph glyph-name="AE" unicode="&#xc6;" horiz-adv-x="1047" 
d="M921 -11c-5.33301 3.33301 -11.3281 5.99805 -17.9951 7.99805s-16.667 3 -30 3l-397 -1c-14 0 -23.667 1.5 -29 4.5s-8 8.83301 -8 17.5c0 9.33301 7.33301 17 22 23c20.667 4 35.334 8.16699 44.001 12.5s14.167 10 16.5 17s3.5 17.5 3.5 31.5v79
c0 12 -2.66699 20.167 -8 24.5s-14 6.5 -26 6.5h-210c-12 0 -21.167 -1.33301 -27.5 -4s-12.5 -8.33398 -18.5 -17.001l-68 -103c-7.33301 -11.333 -11 -20.333 -11 -27c0 -8 5.66699 -13.667 17 -17s30.666 -5.66602 57.999 -6.99902c6 -0.666992 11.167 -2.66699 15.5 -6
s6.5 -8 6.5 -14c0 -14 -13.667 -21 -41 -21l-74 1c-24 0 -56 -0.666992 -96 -2c-14 0 -23.667 2 -29 6s-8 9.33301 -8 16c0 7.33301 2.33301 12.833 7 16.5s11.667 6.5 21 8.5c19.333 1.33301 35 5.83301 47 13.5s24.333 21.834 37 42.501l329 519
c6.66699 11.333 10 20 10 26c0 5.33301 -1.66699 9.66602 -5 12.999s-9 7 -17 11c-3.33301 5.33301 -2.33301 10.666 3 15.999s15.666 9 30.999 11c28.667 2.66699 52.334 4 71.001 4l294 -1c13.333 0 23.166 0.833008 29.499 2.5s12.833 4.5 19.5 8.5
c6 4.66699 12.667 7 20 7c6.66699 0 12 -2.33301 16 -7s8.5 -14.334 13.5 -29.001s12.5 -39.667 22.5 -75c16 -56 24 -92 24 -108c0 -9.33301 -1.83301 -15.666 -5.5 -18.999s-9.16699 -5 -16.5 -5c-12.667 0 -22.667 8.66699 -30 26c-14.667 50 -26 84.667 -34 104
s-16.5 32.166 -25.5 38.499s-22.833 9.5 -41.5 9.5h-162c-13.333 0 -22.833 -1.16699 -28.5 -3.5s-9.66699 -7.16602 -12 -14.499s-3.5 -19 -3.5 -35v-176c0 -11.333 1.5 -19.333 4.5 -24s9.16699 -7 18.5 -7h96c10.667 0 18.167 1.66699 22.5 5s6.5 9.33301 6.5 18
c0 9.33301 -2 23.333 -6 42c-0.666992 2.66699 -1 6.33398 -1 11.001c0 13.333 6 20 18 20c8 0 14.167 -2.33301 18.5 -7s8.66602 -14.167 12.999 -28.5s11.5 -41.166 21.5 -80.499c14 -54.667 21 -89 21 -103c0 -8 -1.5 -13.333 -4.5 -16s-7.83301 -4 -14.5 -4
c-7.33301 0 -12.833 1.83301 -16.5 5.5s-6.83398 9.83398 -9.50098 18.501c-6 22.667 -10.833 38.667 -14.5 48s-8.33398 15.666 -14.001 18.999s-13.834 5 -24.501 5h-107c-11.333 0 -18.833 -3 -22.5 -9s-5.5 -15.667 -5.5 -29v-216c0 -14 1 -24 3 -30
s6.16699 -10 12.5 -12s16.5 -3 30.5 -3h204c18 0 32 3.83301 42 11.5s18.833 21.667 26.5 42s17.5 52.833 29.5 97.5c4 10.667 8 17.834 12 21.501s9.33301 5.5 16 5.5c8 0 13.833 -2 17.5 -6s5.5 -10.667 5.5 -20c0 -16.667 -8 -52 -24 -106
c-10 -34.667 -17.5 -59.5 -22.5 -74.5s-9.5 -24.833 -13.5 -29.5s-9.33301 -7 -16 -7s-13.667 2.33301 -21 7zM490.005 261.998c14 0 23.5 2.66602 28.5 7.99902s7.5 15 7.5 29v281c0 12 -1.5 21.167 -4.5 27.5s-6.83301 9.5 -11.5 9.5c-6.66699 0 -14 -6 -22 -18l-195 -308
c-5.33301 -9.33301 -8 -15.666 -8 -18.999c0 -6.66699 6.33301 -10 19 -10h186z" />
    <glyph glyph-name="Ccedilla" unicode="&#xc7;" horiz-adv-x="642" 
d="M597 226c5.33301 0 10.167 -2 14.5 -6s6.16602 -9.33301 5.49902 -16c-3.33301 -35.333 -15.5 -69.333 -36.5 -102s-50.833 -59.5 -89.5 -80.5s-85 -31.833 -139 -32.5c-0.666992 -8.66699 1.83301 -15.334 7.5 -20.001s14.834 -10.334 27.501 -17.001
c16.667 -8.66699 29.334 -17 38.001 -25s13 -20.333 13 -37c0 -22 -8.5 -40.333 -25.5 -55s-40.167 -22 -69.5 -22c-20.667 0 -39.167 2.66699 -55.5 8s-29.5 12.666 -39.5 21.999c-6 4.66699 -9 10 -9 16c0 2.66699 1 4.83398 3 6.50098s4.66699 2.5 8 2.5
c4 0 8.33301 -1 13 -3c17.333 -12 40 -18 68 -18c18 0 32.5 4 43.5 12s16.5 18.667 16.5 32c0 10 -3.16699 17.833 -9.5 23.5s-16.5 11.834 -30.5 18.501s-24.5 13 -31.5 19s-10.5 14.667 -10.5 26c0 2 0.666992 6.33301 2 13
c-52.667 6.66699 -100.167 25.834 -142.5 57.501s-75.666 73.834 -99.999 126.501s-36.5 113 -36.5 181c0 65.333 13.333 125.166 40 179.499s63.667 97.166 111 128.499s101.333 47 162 47c33.333 0 65.333 -5.16699 96 -15.5s58 -24.833 82 -43.5
c8.66699 -6.66699 20.334 -18 35.001 -34c13.333 -17.333 23 -33 29 -47c10.667 -20 16 -41.667 16 -65c0 -15.333 -4.33301 -28.333 -13 -39s-21.667 -16 -39 -16c-13.333 0 -24.833 4.33301 -34.5 13s-18.167 24 -25.5 46c0 42.667 -14.333 78.334 -43 107.001
s-66.334 43 -113.001 43c-38.667 0 -73.334 -11 -104.001 -33s-54.834 -52.667 -72.501 -92s-26.5 -84.333 -26.5 -135c0 -61.333 9.66699 -117 29 -167s47.5 -89.5 84.5 -118.5s81.167 -43.5 132.5 -43.5c54.667 0 99.667 13 135 39s57 60.333 65 103
c2.66699 8.66699 9 13 19 13z" />
    <glyph glyph-name="Egrave" unicode="&#xc8;" horiz-adv-x="638" 
d="M604 219.5c3.33301 -3.66699 5.00293 -9.83203 5.00293 -18.499c0 -16.667 -7 -52.667 -21 -108c-8 -33.333 -14.833 -57.833 -20.5 -73.5s-10.834 -25.834 -15.501 -30.501s-10.334 -7 -17.001 -7c-6 0 -10.667 0.833008 -14 2.5s-5.33301 2.83398 -6 3.50098
c-5.33301 4 -11.333 7 -18 9s-17 3 -31 3c-127.333 0 -215.333 -0.166992 -264 -0.5s-81 -0.5 -97 -0.5h-36c-14 0 -23.667 1.5 -29 4.5s-8 8.83301 -8 17.5c0 10.667 7.33301 19 22 25c20.667 4 35.5 8.5 44.5 13.5s14.833 12 17.5 21s4 23.167 4 42.5v454
c0 19.333 -1.33301 33.5 -4 42.5s-8.5 16 -17.5 21s-23.833 9.5 -44.5 13.5c-14.667 6 -22 14.333 -22 25c0 7.33301 2.5 12.833 7.5 16.5s13.833 5.5 26.5 5.5h30c13.333 0 41.833 -0.166992 85.5 -0.5s125.5 -0.5 245.5 -0.5c13.333 0 23.166 0.833008 29.499 2.5
s12.833 4.5 19.5 8.5c6 4.66699 12.667 7 20 7c6 0 11.333 -2.33301 16 -7s9.83398 -15 15.501 -31s12.5 -40.333 20.5 -73c14.667 -56 22 -92.333 22 -109c0 -8.66699 -1.66699 -14.667 -5 -18s-8.33301 -5 -15 -5c-14 0 -24 8.66699 -30 26c-15.333 50 -27 84.667 -35 104
s-16.5 32.166 -25.5 38.499s-22.833 9.5 -41.5 9.5h-161c-13.333 0 -23 -1.16699 -29 -3.5s-10.167 -7.16602 -12.5 -14.499s-3.5 -19 -3.5 -35v-173c0 -12.667 1.5 -22 4.5 -28s9.16699 -9 18.5 -9h98c13.333 0 22.666 2 27.999 6s8 12 8 24c0 3.33301 -1.33301 15 -4 35
c-1.33301 8 -0.166016 14.667 3.50098 20s9.16699 8 16.5 8s13 -2.5 17 -7.5s7.66699 -15.5 11 -31.5s7.66602 -42.333 12.999 -79c6 -40.667 9 -69 9 -85c0 -12.667 -1.66699 -21.167 -5 -25.5s-8.33301 -6.5 -15 -6.5c-14 0 -21.667 8 -23 24c-4 22 -8 38.167 -12 48.5
s-8.83301 17.166 -14.5 20.499s-13.834 5 -24.501 5h-105c-10 0 -16.5 -2.66699 -19.5 -8s-4.5 -15 -4.5 -29v-217c0 -14 1 -24 3 -30s6.16699 -10 12.5 -12s16.5 -3 30.5 -3h205c17.333 0 31 3.83301 41 11.5s19 21.667 27 42s17.667 52.833 29 97.5
c3.33301 10 7.33301 17 12 21s10.334 6 17.001 6s11.667 -1.83301 15 -5.5zM282.503 760.502c-32.333 16.333 -62.3369 34.168 -90.0039 53.501s-41.5 33.333 -41.5 42c-0.666992 7.33301 2.16602 12.166 8.49902 14.499s18.5 3.5 36.5 3.5c10.667 0 18.834 -1 24.501 -3
s10.834 -6 15.501 -12c7.33301 -6.66699 15.333 -13.5 24 -20.5s16.334 -13.5 23.001 -19.5l51.5 -43.5c16.333 -14.333 24.833 -23.833 25.5 -28.5c0 -4 -1.16699 -6.83301 -3.5 -8.5s-6.16602 -2.5 -11.499 -2.5c-9.33301 0 -30.166 8.16699 -62.499 24.5z" />
    <glyph glyph-name="Eacute" unicode="&#xc9;" horiz-adv-x="638" 
d="M604 219.5c3.33301 -3.66699 5.00293 -9.83203 5.00293 -18.499c0 -16.667 -7 -52.667 -21 -108c-8 -33.333 -14.833 -57.833 -20.5 -73.5s-10.834 -25.834 -15.501 -30.501s-10.334 -7 -17.001 -7c-6 0 -10.667 0.833008 -14 2.5s-5.33301 2.83398 -6 3.50098
c-5.33301 4 -11.333 7 -18 9s-17 3 -31 3c-127.333 0 -215.333 -0.166992 -264 -0.5s-81 -0.5 -97 -0.5h-36c-14 0 -23.667 1.5 -29 4.5s-8 8.83301 -8 17.5c0 10.667 7.33301 19 22 25c20.667 4 35.5 8.5 44.5 13.5s14.833 12 17.5 21s4 23.167 4 42.5v454
c0 19.333 -1.33301 33.5 -4 42.5s-8.5 16 -17.5 21s-23.833 9.5 -44.5 13.5c-14.667 6 -22 14.333 -22 25c0 7.33301 2.5 12.833 7.5 16.5s13.833 5.5 26.5 5.5h30c13.333 0 41.833 -0.166992 85.5 -0.5s125.5 -0.5 245.5 -0.5c13.333 0 23.166 0.833008 29.499 2.5
s12.833 4.5 19.5 8.5c6 4.66699 12.667 7 20 7c6 0 11.333 -2.33301 16 -7s9.83398 -15 15.501 -31s12.5 -40.333 20.5 -73c14.667 -56 22 -92.333 22 -109c0 -8.66699 -1.66699 -14.667 -5 -18s-8.33301 -5 -15 -5c-14 0 -24 8.66699 -30 26c-15.333 50 -27 84.667 -35 104
s-16.5 32.166 -25.5 38.499s-22.833 9.5 -41.5 9.5h-161c-13.333 0 -23 -1.16699 -29 -3.5s-10.167 -7.16602 -12.5 -14.499s-3.5 -19 -3.5 -35v-173c0 -12.667 1.5 -22 4.5 -28s9.16699 -9 18.5 -9h98c13.333 0 22.666 2 27.999 6s8 12 8 24c0 3.33301 -1.33301 15 -4 35
c-1.33301 8 -0.166016 14.667 3.50098 20s9.16699 8 16.5 8s13 -2.5 17 -7.5s7.66699 -15.5 11 -31.5s7.66602 -42.333 12.999 -79c6 -40.667 9 -69 9 -85c0 -12.667 -1.66699 -21.167 -5 -25.5s-8.33301 -6.5 -15 -6.5c-14 0 -21.667 8 -23 24c-4 22 -8 38.167 -12 48.5
s-8.83301 17.166 -14.5 20.499s-13.834 5 -24.501 5h-105c-10 0 -16.5 -2.66699 -19.5 -8s-4.5 -15 -4.5 -29v-217c0 -14 1 -24 3 -30s6.16699 -10 12.5 -12s16.5 -3 30.5 -3h205c17.333 0 31 3.83301 41 11.5s19 21.667 27 42s17.667 52.833 29 97.5
c3.33301 10 7.33301 17 12 21s10.334 6 17.001 6s11.667 -1.83301 15 -5.5zM236.503 738.502c-2.33301 1.66699 -3.50488 4.49805 -3.50488 8.49805c0.666992 4.66699 9.16699 14.167 25.5 28.5l51.5 43.5c6.66699 6 14.334 12.5 23.001 19.5s16.667 13.833 24 20.5
c4.66699 6 9.83398 10 15.501 12s13.834 3 24.501 3c18.667 0 31 -1.16699 37 -3.5s8.66699 -7.16602 8 -14.499c0 -8.66699 -13.833 -22.667 -41.5 -42s-57.667 -37.166 -90 -53.499s-53.166 -24.5 -62.499 -24.5c-5.33301 0 -9.16602 0.833008 -11.499 2.5z" />
    <glyph glyph-name="Ecircumflex" unicode="&#xca;" horiz-adv-x="638" 
d="M604 219.5c3.33301 -3.66699 5.00293 -9.83203 5.00293 -18.499c0 -16.667 -7 -52.667 -21 -108c-8 -33.333 -14.833 -57.833 -20.5 -73.5s-10.834 -25.834 -15.501 -30.501s-10.334 -7 -17.001 -7c-6 0 -10.667 0.833008 -14 2.5s-5.33301 2.83398 -6 3.50098
c-5.33301 4 -11.333 7 -18 9s-17 3 -31 3c-127.333 0 -215.333 -0.166992 -264 -0.5s-81 -0.5 -97 -0.5h-36c-14 0 -23.667 1.5 -29 4.5s-8 8.83301 -8 17.5c0 10.667 7.33301 19 22 25c20.667 4 35.5 8.5 44.5 13.5s14.833 12 17.5 21s4 23.167 4 42.5v454
c0 19.333 -1.33301 33.5 -4 42.5s-8.5 16 -17.5 21s-23.833 9.5 -44.5 13.5c-14.667 6 -22 14.333 -22 25c0 7.33301 2.5 12.833 7.5 16.5s13.833 5.5 26.5 5.5h30c13.333 0 41.833 -0.166992 85.5 -0.5s125.5 -0.5 245.5 -0.5c13.333 0 23.166 0.833008 29.499 2.5
s12.833 4.5 19.5 8.5c6 4.66699 12.667 7 20 7c6 0 11.333 -2.33301 16 -7s9.83398 -15 15.501 -31s12.5 -40.333 20.5 -73c14.667 -56 22 -92.333 22 -109c0 -8.66699 -1.66699 -14.667 -5 -18s-8.33301 -5 -15 -5c-14 0 -24 8.66699 -30 26c-15.333 50 -27 84.667 -35 104
s-16.5 32.166 -25.5 38.499s-22.833 9.5 -41.5 9.5h-161c-13.333 0 -23 -1.16699 -29 -3.5s-10.167 -7.16602 -12.5 -14.499s-3.5 -19 -3.5 -35v-173c0 -12.667 1.5 -22 4.5 -28s9.16699 -9 18.5 -9h98c13.333 0 22.666 2 27.999 6s8 12 8 24c0 3.33301 -1.33301 15 -4 35
c-1.33301 8 -0.166016 14.667 3.50098 20s9.16699 8 16.5 8s13 -2.5 17 -7.5s7.66699 -15.5 11 -31.5s7.66602 -42.333 12.999 -79c6 -40.667 9 -69 9 -85c0 -12.667 -1.66699 -21.167 -5 -25.5s-8.33301 -6.5 -15 -6.5c-14 0 -21.667 8 -23 24c-4 22 -8 38.167 -12 48.5
s-8.83301 17.166 -14.5 20.499s-13.834 5 -24.501 5h-105c-10 0 -16.5 -2.66699 -19.5 -8s-4.5 -15 -4.5 -29v-217c0 -14 1 -24 3 -30s6.16699 -10 12.5 -12s16.5 -3 30.5 -3h205c17.333 0 31 3.83301 41 11.5s19 21.667 27 42s17.667 52.833 29 97.5
c3.33301 10 7.33301 17 12 21s10.334 6 17.001 6s11.667 -1.83301 15 -5.5zM147.503 735.502c-2.33301 2.33301 -3.50488 5.5 -3.50488 9.5c0 10 16.333 31.667 49 65s59.334 56.666 80.001 69.999c8 6 16 9 24 9c7.33301 0 15.666 -3 24.999 -9
c20.667 -14 47.334 -37.5 80.001 -70.5s49 -54.5 49 -64.5c0 -4 -1.16699 -7.16699 -3.5 -9.5s-5.16602 -3.5 -8.49902 -3.5c-2.66699 0 -8.5 3.33301 -17.5 10l-17.5 13l-17 13c-54 42 -84 63 -90 63c-3.33301 0 -13.666 -6.33301 -30.999 -19l-58 -44
c-5.33301 -3.33301 -14.666 -10.166 -27.999 -20.499s-21.333 -15.5 -24 -15.5c-3.33301 0 -6.16602 1.16699 -8.49902 3.5z" />
    <glyph glyph-name="Edieresis" unicode="&#xcb;" horiz-adv-x="638" 
d="M604 219.5c3.33301 -3.66699 5.00293 -9.83203 5.00293 -18.499c0 -16.667 -7 -52.667 -21 -108c-8 -33.333 -14.833 -57.833 -20.5 -73.5s-10.834 -25.834 -15.501 -30.501s-10.334 -7 -17.001 -7c-6 0 -10.667 0.833008 -14 2.5s-5.33301 2.83398 -6 3.50098
c-5.33301 4 -11.333 7 -18 9s-17 3 -31 3c-127.333 0 -215.333 -0.166992 -264 -0.5s-81 -0.5 -97 -0.5h-36c-14 0 -23.667 1.5 -29 4.5s-8 8.83301 -8 17.5c0 10.667 7.33301 19 22 25c20.667 4 35.5 8.5 44.5 13.5s14.833 12 17.5 21s4 23.167 4 42.5v454
c0 19.333 -1.33301 33.5 -4 42.5s-8.5 16 -17.5 21s-23.833 9.5 -44.5 13.5c-14.667 6 -22 14.333 -22 25c0 7.33301 2.5 12.833 7.5 16.5s13.833 5.5 26.5 5.5h30c13.333 0 41.833 -0.166992 85.5 -0.5s125.5 -0.5 245.5 -0.5c13.333 0 23.166 0.833008 29.499 2.5
s12.833 4.5 19.5 8.5c6 4.66699 12.667 7 20 7c6 0 11.333 -2.33301 16 -7s9.83398 -15 15.501 -31s12.5 -40.333 20.5 -73c14.667 -56 22 -92.333 22 -109c0 -8.66699 -1.66699 -14.667 -5 -18s-8.33301 -5 -15 -5c-14 0 -24 8.66699 -30 26c-15.333 50 -27 84.667 -35 104
s-16.5 32.166 -25.5 38.499s-22.833 9.5 -41.5 9.5h-161c-13.333 0 -23 -1.16699 -29 -3.5s-10.167 -7.16602 -12.5 -14.499s-3.5 -19 -3.5 -35v-173c0 -12.667 1.5 -22 4.5 -28s9.16699 -9 18.5 -9h98c13.333 0 22.666 2 27.999 6s8 12 8 24c0 3.33301 -1.33301 15 -4 35
c-1.33301 8 -0.166016 14.667 3.50098 20s9.16699 8 16.5 8s13 -2.5 17 -7.5s7.66699 -15.5 11 -31.5s7.66602 -42.333 12.999 -79c6 -40.667 9 -69 9 -85c0 -12.667 -1.66699 -21.167 -5 -25.5s-8.33301 -6.5 -15 -6.5c-14 0 -21.667 8 -23 24c-4 22 -8 38.167 -12 48.5
s-8.83301 17.166 -14.5 20.499s-13.834 5 -24.501 5h-105c-10 0 -16.5 -2.66699 -19.5 -8s-4.5 -15 -4.5 -29v-217c0 -14 1 -24 3 -30s6.16699 -10 12.5 -12s16.5 -3 30.5 -3h205c17.333 0 31 3.83301 41 11.5s19 21.667 27 42s17.667 52.833 29 97.5
c3.33301 10 7.33301 17 12 21s10.334 6 17.001 6s11.667 -1.83301 15 -5.5zM152.503 748.002c-11 8.66699 -16.5 20.334 -16.5 35.001c0 13.333 5.5 24.333 16.5 33s25.833 13 44.5 13c18 0 32.5 -4.33301 43.5 -13s16.5 -19.667 16.5 -33
c0 -14.667 -5.5 -26.334 -16.5 -35.001s-25.5 -13 -43.5 -13c-18.667 0 -33.5 4.33301 -44.5 13zM358.503 748.002c-11 8.66699 -16.5 20.334 -16.5 35.001c0 13.333 5.5 24.333 16.5 33s25.833 13 44.5 13c18 0 32.333 -4.33301 43 -13s16 -19.667 16 -33
c0 -14.667 -5.33301 -26.334 -16 -35.001s-25 -13 -43 -13c-18.667 0 -33.5 4.33301 -44.5 13z" />
    <glyph glyph-name="Igrave" unicode="&#xcc;" horiz-adv-x="332" 
d="M69 -1c-14 0 -23.666 1.5 -28.999 4.5s-8 8.83301 -8 17.5c0 10.667 7.33301 19 22 25c20.667 4 35.5 8.5 44.5 13.5s14.833 12 17.5 21s4 23.167 4 42.5v454c0 19.333 -1.33301 33.5 -4 42.5s-8.5 16 -17.5 21s-23.833 9.5 -44.5 13.5c-6.66699 2 -12 5.16699 -16 9.5
s-6 9.5 -6 15.5c0 8.66699 2.66699 14.5 8 17.5s15 4.5 29 4.5c32 0 52.333 -0.333008 61 -1h28h16l89 1c14 0 23.667 -1.5 29 -4.5s8 -8.83301 8 -17.5c0 -10.667 -7.33301 -19 -22 -25c-20.667 -4 -35.5 -8.5 -44.5 -13.5s-14.833 -12 -17.5 -21s-4 -23.167 -4 -42.5v-454
c0 -19.333 1.33301 -33.5 4 -42.5s8.5 -16 17.5 -21s23.833 -9.5 44.5 -13.5c6.66699 -2 12.167 -5.16699 16.5 -9.5s6.5 -9.5 6.5 -15.5c0 -8.66699 -2.66699 -14.5 -8 -17.5s-15 -4.5 -29 -4.5c-32.667 0 -53.334 0.333008 -62.001 1h-27h-17zM152.501 760.5
c-32.333 16.333 -62.3369 34.168 -90.0039 53.501s-41.5 33.333 -41.5 42c-0.666992 7.33301 2.16602 12.166 8.49902 14.499s18.5 3.5 36.5 3.5c10.667 0 18.834 -1 24.501 -3s10.834 -6 15.501 -12c7.33301 -6.66699 15.333 -13.5 24 -20.5s16.334 -13.5 23.001 -19.5
l51.5 -43.5c16.333 -14.333 24.833 -23.833 25.5 -28.5c0 -4 -1.16699 -6.83301 -3.5 -8.5s-6.16602 -2.5 -11.499 -2.5c-9.33301 0 -30.166 8.16699 -62.499 24.5z" />
    <glyph glyph-name="Iacute" unicode="&#xcd;" horiz-adv-x="332" 
d="M69 -1c-14 0 -23.666 1.5 -28.999 4.5s-8 8.83301 -8 17.5c0 10.667 7.33301 19 22 25c20.667 4 35.5 8.5 44.5 13.5s14.833 12 17.5 21s4 23.167 4 42.5v454c0 19.333 -1.33301 33.5 -4 42.5s-8.5 16 -17.5 21s-23.833 9.5 -44.5 13.5c-6.66699 2 -12 5.16699 -16 9.5
s-6 9.5 -6 15.5c0 8.66699 2.66699 14.5 8 17.5s15 4.5 29 4.5c32 0 52.333 -0.333008 61 -1h28h16l89 1c14 0 23.667 -1.5 29 -4.5s8 -8.83301 8 -17.5c0 -10.667 -7.33301 -19 -22 -25c-20.667 -4 -35.5 -8.5 -44.5 -13.5s-14.833 -12 -17.5 -21s-4 -23.167 -4 -42.5v-454
c0 -19.333 1.33301 -33.5 4 -42.5s8.5 -16 17.5 -21s23.833 -9.5 44.5 -13.5c6.66699 -2 12.167 -5.16699 16.5 -9.5s6.5 -9.5 6.5 -15.5c0 -8.66699 -2.66699 -14.5 -8 -17.5s-15 -4.5 -29 -4.5c-32.667 0 -53.334 0.333008 -62.001 1h-27h-17zM106.501 738.5
c-2.33301 1.66699 -3.50488 4.49805 -3.50488 8.49805c0.666992 4.66699 9.16699 14.167 25.5 28.5l51.5 43.5c6.66699 6 14.334 12.5 23.001 19.5s16.667 13.833 24 20.5c4.66699 6 9.83398 10 15.501 12s13.834 3 24.501 3c18.667 0 31 -1.16699 37 -3.5
s8.66699 -7.16602 8 -14.499c0 -8.66699 -13.833 -22.667 -41.5 -42s-57.667 -37.166 -90 -53.499s-53.166 -24.5 -62.499 -24.5c-5.33301 0 -9.16602 0.833008 -11.499 2.5z" />
    <glyph glyph-name="Icircumflex" unicode="&#xce;" horiz-adv-x="332" 
d="M69 -1c-14 0 -23.666 1.5 -28.999 4.5s-8 8.83301 -8 17.5c0 10.667 7.33301 19 22 25c20.667 4 35.5 8.5 44.5 13.5s14.833 12 17.5 21s4 23.167 4 42.5v454c0 19.333 -1.33301 33.5 -4 42.5s-8.5 16 -17.5 21s-23.833 9.5 -44.5 13.5c-6.66699 2 -12 5.16699 -16 9.5
s-6 9.5 -6 15.5c0 8.66699 2.66699 14.5 8 17.5s15 4.5 29 4.5c32 0 52.333 -0.333008 61 -1h28h16l89 1c14 0 23.667 -1.5 29 -4.5s8 -8.83301 8 -17.5c0 -10.667 -7.33301 -19 -22 -25c-20.667 -4 -35.5 -8.5 -44.5 -13.5s-14.833 -12 -17.5 -21s-4 -23.167 -4 -42.5v-454
c0 -19.333 1.33301 -33.5 4 -42.5s8.5 -16 17.5 -21s23.833 -9.5 44.5 -13.5c6.66699 -2 12.167 -5.16699 16.5 -9.5s6.5 -9.5 6.5 -15.5c0 -8.66699 -2.66699 -14.5 -8 -17.5s-15 -4.5 -29 -4.5c-32.667 0 -53.334 0.333008 -62.001 1h-27h-17zM16.501 735.5
c-2.33301 2.33301 -3.50488 5.5 -3.50488 9.5c0 10 16.333 31.667 49 65s59.334 56.666 80.001 69.999c8 6 16 9 24 9c7.33301 0 15.666 -3 24.999 -9c20.667 -14 47.334 -37.5 80.001 -70.5s49 -54.5 49 -64.5c0 -4 -1.16699 -7.16699 -3.5 -9.5
s-5.16602 -3.5 -8.49902 -3.5c-2.66699 0 -8.5 3.33301 -17.5 10l-17.5 13l-17 13c-54 42 -84 63 -90 63c-3.33301 0 -13.666 -6.33301 -30.999 -19l-58 -44c-5.33301 -3.33301 -14.666 -10.166 -27.999 -20.499s-21.333 -15.5 -24 -15.5
c-3.33301 0 -6.16602 1.16699 -8.49902 3.5z" />
    <glyph glyph-name="Idieresis" unicode="&#xcf;" horiz-adv-x="332" 
d="M69 -1c-14 0 -23.666 1.5 -28.999 4.5s-8 8.83301 -8 17.5c0 10.667 7.33301 19 22 25c20.667 4 35.5 8.5 44.5 13.5s14.833 12 17.5 21s4 23.167 4 42.5v454c0 19.333 -1.33301 33.5 -4 42.5s-8.5 16 -17.5 21s-23.833 9.5 -44.5 13.5c-6.66699 2 -12 5.16699 -16 9.5
s-6 9.5 -6 15.5c0 8.66699 2.66699 14.5 8 17.5s15 4.5 29 4.5c32 0 52.333 -0.333008 61 -1h28h16l89 1c14 0 23.667 -1.5 29 -4.5s8 -8.83301 8 -17.5c0 -10.667 -7.33301 -19 -22 -25c-20.667 -4 -35.5 -8.5 -44.5 -13.5s-14.833 -12 -17.5 -21s-4 -23.167 -4 -42.5v-454
c0 -19.333 1.33301 -33.5 4 -42.5s8.5 -16 17.5 -21s23.833 -9.5 44.5 -13.5c6.66699 -2 12.167 -5.16699 16.5 -9.5s6.5 -9.5 6.5 -15.5c0 -8.66699 -2.66699 -14.5 -8 -17.5s-15 -4.5 -29 -4.5c-32.667 0 -53.334 0.333008 -62.001 1h-27h-17zM22.501 748
c-11 8.66699 -16.5 20.334 -16.5 35.001c0 13.333 5.5 24.333 16.5 33s25.833 13 44.5 13c18 0 32.5 -4.33301 43.5 -13s16.5 -19.667 16.5 -33c0 -14.667 -5.5 -26.334 -16.5 -35.001s-25.5 -13 -43.5 -13c-18.667 0 -33.5 4.33301 -44.5 13zM228.501 748
c-11 8.66699 -16.5 20.334 -16.5 35.001c0 13.333 5.5 24.333 16.5 33s25.833 13 44.5 13c18 0 32.333 -4.33301 43 -13s16 -19.667 16 -33c0 -14.667 -5.33301 -26.334 -16 -35.001s-25 -13 -43 -13c-18.667 0 -33.5 4.33301 -44.5 13z" />
    <glyph glyph-name="Eth" unicode="&#xd0;" horiz-adv-x="707" 
d="M475.5 662c63.667 -28 112.832 -69.167 147.499 -123.5s52 -119.833 52 -196.5c0 -111.333 -33.5 -196.833 -100.5 -256.5s-161.5 -89.5 -283.5 -89.5c-33.333 0 -76 0.666992 -128 2l-94 1c-14 0 -23.667 1.5 -29 4.5s-8 8.83301 -8 17.5c0 10.667 7.33301 19 22 25
c20.667 4 35.5 8.5 44.5 13.5s14.833 12 17.5 21s4 23.167 4 42.5v189c0 4 -1.16699 7.16699 -3.5 9.5s-5.16602 3.5 -8.49902 3.5h-52c-12.667 0 -19 7.33301 -19 22s6.33301 22 19 22h52c8 0 12 4.66699 12 14v194c0 20 -1.33301 34.333 -4 43s-8.33398 15.5 -17.001 20.5
s-23.667 9.5 -45 13.5c-14.667 6 -22 14.333 -22 25c0 8.66699 2.66699 14.5 8 17.5s15 4.5 29 4.5c25.333 0 59.333 0.666992 102 2l79 1c86.667 0 161.834 -14 225.501 -42zM504.998 124c46.667 52.667 70 126.332 70 220.999c0 66 -13.5 122.5 -40.5 169.5
s-64.667 82.5 -113 106.5s-104.5 36 -168.5 36c-16 0 -26.833 -2.66699 -32.5 -8s-8.5 -15.666 -8.5 -30.999v-235c0 -10 3.66699 -15 11 -15h153c12.667 0 19 -7 19 -21c0 -14.667 -6.33301 -22 -19 -22h-153c-2.66699 0 -5.16699 -0.833008 -7.5 -2.5s-3.5 -4.5 -3.5 -8.5
v-226c0 -18 6.66699 -29.667 20 -35s36.666 -8 69.999 -8c88.667 0 156.334 26.333 203.001 79z" />
    <glyph glyph-name="Ntilde" unicode="&#xd1;" horiz-adv-x="747" 
d="M64 -1c-11.333 0 -19.5039 1.66406 -24.5039 4.99707s-7.5 8.33301 -7.5 15c0 12 6.66699 19.667 20 23c23.333 2.66699 39.333 6.5 48 11.5s14.167 14.5 16.5 28.5s3.5 39.667 3.5 77v408c0 27.333 -1.16699 46.5 -3.5 57.5s-7.66602 18.833 -15.999 23.5
s-23.5 8.33398 -45.5 11.001c-15.333 4.66699 -23 12.334 -23 23.001c0 6.66699 2.33301 11.5 7 14.5s13.667 4.5 27 4.5h111c8.66699 0 15.5 -1 20.5 -3s9.16699 -5.33301 12.5 -10l360 -510c4 -6 8.66699 -9 14 -9s8 5 8 15v382c0 28 -1.16699 47.333 -3.5 58
s-7.66602 18.334 -15.999 23.001s-23.5 8.33398 -45.5 11.001c-15.333 3.33301 -23 11.333 -23 24c0 6.66699 2.33301 11.5 7 14.5s13.667 4.5 27 4.5h158c11.333 0 19.5 -1.66699 24.5 -5s7.5 -8.33301 7.5 -15c0 -12 -6.66699 -19.667 -20 -23
c-23.333 -2.66699 -39.166 -6.5 -47.499 -11.5s-13.833 -14.667 -16.5 -29s-4 -39.833 -4 -76.5v-521c0 -7.33301 -2 -12.833 -6 -16.5s-9 -5.5 -15 -5.5c-6.66699 0 -12 1.33301 -16 4s-8 6.66699 -12 12l-406 559c-3.33301 3.33301 -6.66602 5 -9.99902 5
c-4.66699 0 -7 -3.33301 -7 -10v-434c0 -28 1.16699 -47.5 3.5 -58.5s7.83301 -18.833 16.5 -23.5s23.667 -8.33398 45 -11.001c8 -2 13.833 -4.83301 17.5 -8.5s5.5 -8.5 5.5 -14.5c0 -6.66699 -2.5 -11.667 -7.5 -15s-13.833 -5 -26.5 -5zM414.996 746.497
c-12 5 -25.666 11.8311 -40.999 20.498l-19 9.5c-10 5 -19.167 8.83301 -27.5 11.5s-16.5 4 -24.5 4c-11.333 0 -20.833 -3.16699 -28.5 -9.5s-12.834 -15.166 -15.501 -26.499c-6.66699 -12.667 -15 -19 -25 -19c-5.33301 0 -9.66602 1.83301 -12.999 5.5s-5 8.5 -5 14.5
c0.666992 24.667 8.5 44.667 23.5 60s33.833 23 56.5 23c15.333 0 30.166 -2.66699 44.499 -8s29.833 -13 46.5 -23c15.333 -8 27 -13.833 35 -17.5s16.333 -5.5 25 -5.5c10.667 0 19.834 3.33301 27.501 10s13.167 15.334 16.5 26.001c6 12.667 14.333 19 25 19
c5.33301 0 9.66602 -1.83301 12.999 -5.5s5 -8.5 5 -14.5c-0.666992 -24.667 -8.5 -44.5 -23.5 -59.5s-34.167 -22.5 -57.5 -22.5c-13.333 0 -26 2.5 -38 7.5z" />
    <glyph glyph-name="Ograve" unicode="&#xd2;" horiz-adv-x="731" 
d="M195 34c-50.667 30 -90.498 72.501 -119.498 127.501s-43.5 118.5 -43.5 190.5c0 67.333 13.833 128.333 41.5 183s66.667 97.667 117 129s108.5 47 174.5 47c63.333 0 120.333 -14.833 171 -44.5s90.5 -71.834 119.5 -126.501s43.5 -117.667 43.5 -189
c0 -68 -13.833 -129.5 -41.5 -184.5s-66.834 -98.333 -117.501 -130s-109 -47.5 -175 -47.5c-62.667 0 -119.334 15 -170.001 45zM489.502 72.001c33 21.333 59.332 52.333 78.999 93s29.5 88.667 29.5 144c0 59.333 -10.5 116 -31.5 170s-50.333 97.667 -88 131
s-80.5 50 -128.5 50c-40 0 -76.667 -10.5 -110 -31.5s-59.666 -51.667 -78.999 -92s-29 -87.833 -29 -142.5c0 -60 10.5 -117.167 31.5 -171.5s50.333 -98.333 88 -132s80.5 -50.5 128.5 -50.5c40 0 76.5 10.667 109.5 32zM347.501 760.501
c-32.333 16.333 -62.3369 34.168 -90.0039 53.501s-41.5 33.333 -41.5 42c-0.666992 7.33301 2.16602 12.166 8.49902 14.499s18.5 3.5 36.5 3.5c10.667 0 18.834 -1 24.501 -3s10.834 -6 15.501 -12c7.33301 -6.66699 15.333 -13.5 24 -20.5s16.334 -13.5 23.001 -19.5
l51.5 -43.5c16.333 -14.333 24.833 -23.833 25.5 -28.5c0 -4 -1.16699 -6.83301 -3.5 -8.5s-6.16602 -2.5 -11.499 -2.5c-9.33301 0 -30.166 8.16699 -62.499 24.5z" />
    <glyph glyph-name="Oacute" unicode="&#xd3;" horiz-adv-x="731" 
d="M195 34c-50.667 30 -90.498 72.501 -119.498 127.501s-43.5 118.5 -43.5 190.5c0 67.333 13.833 128.333 41.5 183s66.667 97.667 117 129s108.5 47 174.5 47c63.333 0 120.333 -14.833 171 -44.5s90.5 -71.834 119.5 -126.501s43.5 -117.667 43.5 -189
c0 -68 -13.833 -129.5 -41.5 -184.5s-66.834 -98.333 -117.501 -130s-109 -47.5 -175 -47.5c-62.667 0 -119.334 15 -170.001 45zM489.502 72.001c33 21.333 59.332 52.333 78.999 93s29.5 88.667 29.5 144c0 59.333 -10.5 116 -31.5 170s-50.333 97.667 -88 131
s-80.5 50 -128.5 50c-40 0 -76.667 -10.5 -110 -31.5s-59.666 -51.667 -78.999 -92s-29 -87.833 -29 -142.5c0 -60 10.5 -117.167 31.5 -171.5s50.333 -98.333 88 -132s80.5 -50.5 128.5 -50.5c40 0 76.5 10.667 109.5 32zM301.501 738.501
c-2.33301 1.66699 -3.50488 4.49805 -3.50488 8.49805c0.666992 4.66699 9.16699 14.167 25.5 28.5l51.5 43.5c6.66699 6 14.334 12.5 23.001 19.5s16.667 13.833 24 20.5c4.66699 6 9.83398 10 15.501 12s13.834 3 24.501 3c18.667 0 31 -1.16699 37 -3.5
s8.66699 -7.16602 8 -14.499c0 -8.66699 -13.833 -22.667 -41.5 -42s-57.667 -37.166 -90 -53.499s-53.166 -24.5 -62.499 -24.5c-5.33301 0 -9.16602 0.833008 -11.499 2.5z" />
    <glyph glyph-name="Ocircumflex" unicode="&#xd4;" horiz-adv-x="731" 
d="M195 34c-50.667 30 -90.498 72.501 -119.498 127.501s-43.5 118.5 -43.5 190.5c0 67.333 13.833 128.333 41.5 183s66.667 97.667 117 129s108.5 47 174.5 47c63.333 0 120.333 -14.833 171 -44.5s90.5 -71.834 119.5 -126.501s43.5 -117.667 43.5 -189
c0 -68 -13.833 -129.5 -41.5 -184.5s-66.834 -98.333 -117.501 -130s-109 -47.5 -175 -47.5c-62.667 0 -119.334 15 -170.001 45zM489.502 72.001c33 21.333 59.332 52.333 78.999 93s29.5 88.667 29.5 144c0 59.333 -10.5 116 -31.5 170s-50.333 97.667 -88 131
s-80.5 50 -128.5 50c-40 0 -76.667 -10.5 -110 -31.5s-59.666 -51.667 -78.999 -92s-29 -87.833 -29 -142.5c0 -60 10.5 -117.167 31.5 -171.5s50.333 -98.333 88 -132s80.5 -50.5 128.5 -50.5c40 0 76.5 10.667 109.5 32zM212.501 735.501
c-2.33301 2.33301 -3.50488 5.5 -3.50488 9.5c0 10 16.333 31.667 49 65s59.334 56.666 80.001 69.999c8 6 16 9 24 9c7.33301 0 15.666 -3 24.999 -9c20.667 -14 47.334 -37.5 80.001 -70.5s49 -54.5 49 -64.5c0 -4 -1.16699 -7.16699 -3.5 -9.5
s-5.16602 -3.5 -8.49902 -3.5c-2.66699 0 -8.5 3.33301 -17.5 10l-17.5 13l-17 13c-54 42 -84 63 -90 63c-3.33301 0 -13.666 -6.33301 -30.999 -19l-58 -44c-5.33301 -3.33301 -14.666 -10.166 -27.999 -20.499s-21.333 -15.5 -24 -15.5
c-3.33301 0 -6.16602 1.16699 -8.49902 3.5z" />
    <glyph glyph-name="Otilde" unicode="&#xd5;" horiz-adv-x="731" 
d="M195 34c-50.667 30 -90.498 72.501 -119.498 127.501s-43.5 118.5 -43.5 190.5c0 67.333 13.833 128.333 41.5 183s66.667 97.667 117 129s108.5 47 174.5 47c63.333 0 120.333 -14.833 171 -44.5s90.5 -71.834 119.5 -126.501s43.5 -117.667 43.5 -189
c0 -68 -13.833 -129.5 -41.5 -184.5s-66.834 -98.333 -117.501 -130s-109 -47.5 -175 -47.5c-62.667 0 -119.334 15 -170.001 45zM489.502 72.001c33 21.333 59.332 52.333 78.999 93s29.5 88.667 29.5 144c0 59.333 -10.5 116 -31.5 170s-50.333 97.667 -88 131
s-80.5 50 -128.5 50c-40 0 -76.667 -10.5 -110 -31.5s-59.666 -51.667 -78.999 -92s-29 -87.833 -29 -142.5c0 -60 10.5 -117.167 31.5 -171.5s50.333 -98.333 88 -132s80.5 -50.5 128.5 -50.5c40 0 76.5 10.667 109.5 32zM402.001 746.501
c-12 5 -25.666 11.8311 -40.999 20.498l-19 9.5c-10 5 -19.167 8.83301 -27.5 11.5s-16.5 4 -24.5 4c-11.333 0 -20.833 -3.16699 -28.5 -9.5s-12.834 -15.166 -15.501 -26.499c-6.66699 -12.667 -15 -19 -25 -19c-5.33301 0 -9.66602 1.83301 -12.999 5.5s-5 8.5 -5 14.5
c0.666992 24.667 8.5 44.667 23.5 60s33.833 23 56.5 23c15.333 0 30.166 -2.66699 44.499 -8s29.833 -13 46.5 -23c15.333 -8 27 -13.833 35 -17.5s16.333 -5.5 25 -5.5c10.667 0 19.834 3.33301 27.501 10s13.167 15.334 16.5 26.001c6 12.667 14.333 19 25 19
c5.33301 0 9.66602 -1.83301 12.999 -5.5s5 -8.5 5 -14.5c-0.666992 -24.667 -8.5 -44.5 -23.5 -59.5s-34.167 -22.5 -57.5 -22.5c-13.333 0 -26 2.5 -38 7.5z" />
    <glyph glyph-name="Odieresis" unicode="&#xd6;" horiz-adv-x="731" 
d="M195 34c-50.667 30 -90.498 72.501 -119.498 127.501s-43.5 118.5 -43.5 190.5c0 67.333 13.833 128.333 41.5 183s66.667 97.667 117 129s108.5 47 174.5 47c63.333 0 120.333 -14.833 171 -44.5s90.5 -71.834 119.5 -126.501s43.5 -117.667 43.5 -189
c0 -68 -13.833 -129.5 -41.5 -184.5s-66.834 -98.333 -117.501 -130s-109 -47.5 -175 -47.5c-62.667 0 -119.334 15 -170.001 45zM489.502 72.001c33 21.333 59.332 52.333 78.999 93s29.5 88.667 29.5 144c0 59.333 -10.5 116 -31.5 170s-50.333 97.667 -88 131
s-80.5 50 -128.5 50c-40 0 -76.667 -10.5 -110 -31.5s-59.666 -51.667 -78.999 -92s-29 -87.833 -29 -142.5c0 -60 10.5 -117.167 31.5 -171.5s50.333 -98.333 88 -132s80.5 -50.5 128.5 -50.5c40 0 76.5 10.667 109.5 32zM217.501 748.001
c-11 8.66699 -16.5 20.334 -16.5 35.001c0 13.333 5.5 24.333 16.5 33s25.833 13 44.5 13c18 0 32.5 -4.33301 43.5 -13s16.5 -19.667 16.5 -33c0 -14.667 -5.5 -26.334 -16.5 -35.001s-25.5 -13 -43.5 -13c-18.667 0 -33.5 4.33301 -44.5 13zM423.501 748.001
c-11 8.66699 -16.5 20.334 -16.5 35.001c0 13.333 5.5 24.333 16.5 33s25.833 13 44.5 13c18 0 32.333 -4.33301 43 -13s16 -19.667 16 -33c0 -14.667 -5.33301 -26.334 -16 -35.001s-25 -13 -43 -13c-18.667 0 -33.5 4.33301 -44.5 13z" />
    <glyph glyph-name="multiply" unicode="&#xd7;" horiz-adv-x="344" 
d="M35 127c0 9.33301 5.00195 19 15.002 29l75 75c2.66699 2.66699 4 5.33398 4 8.00098c0 2 -1.66699 4.66699 -5 8l-78 79c-9.33301 9.33301 -14 17.333 -14 24c0 5.33301 2.66699 10.666 8 15.999c7.33301 7.33301 14.333 11 21 11c8 0 17.333 -5.33301 28 -16l74 -73
c3.33301 -3.33301 6.33301 -5 9 -5c3.33301 0 6.66602 1.66699 9.99902 5l78 78c6.66699 6.66699 14 10 22 10c9.33301 0 16.666 -3.33301 21.999 -10c6 -6 9 -11.667 9 -17c0 -6 -4.33301 -13.333 -13 -22l-79 -79c-6 -6.66699 -6.66699 -12.334 -2 -17.001l81 -80
c6.66699 -6.66699 10 -14 10 -22s-3.33301 -15.333 -10 -22c-5.33301 -5.33301 -11 -8 -17 -8c-7.33301 0 -15 4 -23 12l-81 81c-2 2 -4 3 -6 3s-4.66699 -1 -8 -3l-79 -80c-10.667 -9.33301 -18.667 -14 -24 -14s-11 3 -17 9c-6.66699 6.66699 -10 13.334 -10 20.001z" />
    <glyph glyph-name="Oslash" unicode="&#xd8;" horiz-adv-x="731" 
d="M614 601c27.333 -31.333 48.335 -68.168 63.002 -110.501s22 -88.833 22 -139.5c0 -68 -13.833 -129.5 -41.5 -184.5s-66.834 -98.333 -117.501 -130s-109 -47.5 -175 -47.5c-40.667 0 -79 6.33301 -115 19s-68.333 31 -97 55l-45 -53
c-2.66699 -2.66699 -5.66699 -4 -9 -4c-8.66699 0 -17.667 4.5 -27 13.5s-11.333 16.5 -6 22.5l50 58c-26.667 32 -47.334 69.333 -62.001 112s-22 89.334 -22 140.001c0 67.333 13.833 128.333 41.5 183s66.667 97.667 117 129s108.5 47 174.5 47
c40.667 0 79 -6.16699 115 -18.5s68.333 -30.5 97 -54.5l45 52c2 2.66699 5 4 9 4c8.66699 0 17.5 -4.5 26.5 -13.5s10.833 -16.167 5.5 -21.5zM145.002 280.498c8.66699 -37 21.333 -70.833 38 -101.5l335 389c-22 29.333 -47.333 52 -76 68s-59.334 24 -92.001 24
c-40 0 -76.667 -10.5 -110 -31.5s-59.666 -51.667 -78.999 -92s-29 -87.833 -29 -142.5c0 -38.667 4.33301 -76.5 13 -113.5zM489.501 71.998c33 21.333 59.334 52.333 79.001 93s29.5 88.667 29.5 144c0 38 -4.33301 75.5 -13 112.5s-21.334 70.833 -38.001 101.5
l-334 -391c22 -29.333 47.167 -52 75.5 -68s58.833 -24 91.5 -24c40 0 76.5 10.667 109.5 32z" />
    <glyph glyph-name="Ugrave" unicode="&#xd9;" horiz-adv-x="740" 
d="M169 53c-46.667 42.667 -69.9941 106.33 -69.9941 190.997v323c0 23.333 -1.33301 40 -4 50s-8.33398 17.667 -17.001 23s-23.334 10 -44.001 14c-14.667 5.33301 -22 14 -22 26c0 6.66699 2.66699 11.834 8 15.501s14.333 5.5 27 5.5l197 -1
c13.333 0 22.666 -1.5 27.999 -4.5s8 -8.83301 8 -17.5c0 -11.333 -7.33301 -19.333 -22 -24c-21.333 -4.66699 -36.5 -9.33398 -45.5 -14.001s-14.833 -11.5 -17.5 -20.5s-4 -23.167 -4 -42.5v-326c0 -65.333 17.167 -115.166 51.5 -149.499s84.5 -51.5 150.5 -51.5
c64 0 113.167 16.333 147.5 49s51.5 79 51.5 139v316c0 28.667 -1.5 49 -4.5 61s-8.66699 20.5 -17 25.5s-22.833 9.16699 -43.5 12.5c-15.333 6 -23 14.333 -23 25c0 8 3 13.667 9 17s15.333 5 28 5h71c31.333 0 57.666 0.333008 78.999 1c24.667 0 37 -7.33301 37 -22
c0 -10.667 -7.33301 -19 -22 -25c-20.667 -3.33301 -35.334 -7.66602 -44.001 -12.999s-14.5 -14.166 -17.5 -26.499s-4.5 -32.5 -4.5 -60.5v-307c0 -86 -22.333 -150.5 -67 -193.5s-110.334 -64.5 -197.001 -64.5c-91.333 0 -160.333 21.333 -207 64zM362.506 760.496
c-32.333 16.333 -62.3369 34.168 -90.0039 53.501s-41.5 33.333 -41.5 42c-0.666992 7.33301 2.16602 12.166 8.49902 14.499s18.5 3.5 36.5 3.5c10.667 0 18.834 -1 24.501 -3s10.834 -6 15.501 -12c7.33301 -6.66699 15.333 -13.5 24 -20.5s16.334 -13.5 23.001 -19.5
l51.5 -43.5c16.333 -14.333 24.833 -23.833 25.5 -28.5c0 -4 -1.16699 -6.83301 -3.5 -8.5s-6.16602 -2.5 -11.499 -2.5c-9.33301 0 -30.166 8.16699 -62.499 24.5z" />
    <glyph glyph-name="Uacute" unicode="&#xda;" horiz-adv-x="740" 
d="M169 53c-46.667 42.667 -69.9941 106.33 -69.9941 190.997v323c0 23.333 -1.33301 40 -4 50s-8.33398 17.667 -17.001 23s-23.334 10 -44.001 14c-14.667 5.33301 -22 14 -22 26c0 6.66699 2.66699 11.834 8 15.501s14.333 5.5 27 5.5l197 -1
c13.333 0 22.666 -1.5 27.999 -4.5s8 -8.83301 8 -17.5c0 -11.333 -7.33301 -19.333 -22 -24c-21.333 -4.66699 -36.5 -9.33398 -45.5 -14.001s-14.833 -11.5 -17.5 -20.5s-4 -23.167 -4 -42.5v-326c0 -65.333 17.167 -115.166 51.5 -149.499s84.5 -51.5 150.5 -51.5
c64 0 113.167 16.333 147.5 49s51.5 79 51.5 139v316c0 28.667 -1.5 49 -4.5 61s-8.66699 20.5 -17 25.5s-22.833 9.16699 -43.5 12.5c-15.333 6 -23 14.333 -23 25c0 8 3 13.667 9 17s15.333 5 28 5h71c31.333 0 57.666 0.333008 78.999 1c24.667 0 37 -7.33301 37 -22
c0 -10.667 -7.33301 -19 -22 -25c-20.667 -3.33301 -35.334 -7.66602 -44.001 -12.999s-14.5 -14.166 -17.5 -26.499s-4.5 -32.5 -4.5 -60.5v-307c0 -86 -22.333 -150.5 -67 -193.5s-110.334 -64.5 -197.001 -64.5c-91.333 0 -160.333 21.333 -207 64zM316.506 738.496
c-2.33301 1.66699 -3.50488 4.49805 -3.50488 8.49805c0.666992 4.66699 9.16699 14.167 25.5 28.5l51.5 43.5c6.66699 6 14.334 12.5 23.001 19.5s16.667 13.833 24 20.5c4.66699 6 9.83398 10 15.501 12s13.834 3 24.501 3c18.667 0 31 -1.16699 37 -3.5
s8.66699 -7.16602 8 -14.499c0 -8.66699 -13.833 -22.667 -41.5 -42s-57.667 -37.166 -90 -53.499s-53.166 -24.5 -62.499 -24.5c-5.33301 0 -9.16602 0.833008 -11.499 2.5z" />
    <glyph glyph-name="Ucircumflex" unicode="&#xdb;" horiz-adv-x="740" 
d="M169 53c-46.667 42.667 -69.9941 106.33 -69.9941 190.997v323c0 23.333 -1.33301 40 -4 50s-8.33398 17.667 -17.001 23s-23.334 10 -44.001 14c-14.667 5.33301 -22 14 -22 26c0 6.66699 2.66699 11.834 8 15.501s14.333 5.5 27 5.5l197 -1
c13.333 0 22.666 -1.5 27.999 -4.5s8 -8.83301 8 -17.5c0 -11.333 -7.33301 -19.333 -22 -24c-21.333 -4.66699 -36.5 -9.33398 -45.5 -14.001s-14.833 -11.5 -17.5 -20.5s-4 -23.167 -4 -42.5v-326c0 -65.333 17.167 -115.166 51.5 -149.499s84.5 -51.5 150.5 -51.5
c64 0 113.167 16.333 147.5 49s51.5 79 51.5 139v316c0 28.667 -1.5 49 -4.5 61s-8.66699 20.5 -17 25.5s-22.833 9.16699 -43.5 12.5c-15.333 6 -23 14.333 -23 25c0 8 3 13.667 9 17s15.333 5 28 5h71c31.333 0 57.666 0.333008 78.999 1c24.667 0 37 -7.33301 37 -22
c0 -10.667 -7.33301 -19 -22 -25c-20.667 -3.33301 -35.334 -7.66602 -44.001 -12.999s-14.5 -14.166 -17.5 -26.499s-4.5 -32.5 -4.5 -60.5v-307c0 -86 -22.333 -150.5 -67 -193.5s-110.334 -64.5 -197.001 -64.5c-91.333 0 -160.333 21.333 -207 64zM227.506 735.496
c-2.33301 2.33301 -3.50488 5.5 -3.50488 9.5c0 10 16.333 31.667 49 65s59.334 56.666 80.001 69.999c8 6 16 9 24 9c7.33301 0 15.666 -3 24.999 -9c20.667 -14 47.334 -37.5 80.001 -70.5s49 -54.5 49 -64.5c0 -4 -1.16699 -7.16699 -3.5 -9.5
s-5.16602 -3.5 -8.49902 -3.5c-2.66699 0 -8.5 3.33301 -17.5 10l-17.5 13l-17 13c-54 42 -84 63 -90 63c-3.33301 0 -13.666 -6.33301 -30.999 -19l-58 -44c-5.33301 -3.33301 -14.666 -10.166 -27.999 -20.499s-21.333 -15.5 -24 -15.5
c-3.33301 0 -6.16602 1.16699 -8.49902 3.5z" />
    <glyph glyph-name="Udieresis" unicode="&#xdc;" horiz-adv-x="740" 
d="M169 53c-46.667 42.667 -69.9941 106.33 -69.9941 190.997v323c0 23.333 -1.33301 40 -4 50s-8.33398 17.667 -17.001 23s-23.334 10 -44.001 14c-14.667 5.33301 -22 14 -22 26c0 6.66699 2.66699 11.834 8 15.501s14.333 5.5 27 5.5l197 -1
c13.333 0 22.666 -1.5 27.999 -4.5s8 -8.83301 8 -17.5c0 -11.333 -7.33301 -19.333 -22 -24c-21.333 -4.66699 -36.5 -9.33398 -45.5 -14.001s-14.833 -11.5 -17.5 -20.5s-4 -23.167 -4 -42.5v-326c0 -65.333 17.167 -115.166 51.5 -149.499s84.5 -51.5 150.5 -51.5
c64 0 113.167 16.333 147.5 49s51.5 79 51.5 139v316c0 28.667 -1.5 49 -4.5 61s-8.66699 20.5 -17 25.5s-22.833 9.16699 -43.5 12.5c-15.333 6 -23 14.333 -23 25c0 8 3 13.667 9 17s15.333 5 28 5h71c31.333 0 57.666 0.333008 78.999 1c24.667 0 37 -7.33301 37 -22
c0 -10.667 -7.33301 -19 -22 -25c-20.667 -3.33301 -35.334 -7.66602 -44.001 -12.999s-14.5 -14.166 -17.5 -26.499s-4.5 -32.5 -4.5 -60.5v-307c0 -86 -22.333 -150.5 -67 -193.5s-110.334 -64.5 -197.001 -64.5c-91.333 0 -160.333 21.333 -207 64zM232.506 747.996
c-11 8.66699 -16.5 20.334 -16.5 35.001c0 13.333 5.5 24.333 16.5 33s25.833 13 44.5 13c18 0 32.5 -4.33301 43.5 -13s16.5 -19.667 16.5 -33c0 -14.667 -5.5 -26.334 -16.5 -35.001s-25.5 -13 -43.5 -13c-18.667 0 -33.5 4.33301 -44.5 13zM438.506 747.996
c-11 8.66699 -16.5 20.334 -16.5 35.001c0 13.333 5.5 24.333 16.5 33s25.833 13 44.5 13c18 0 32.333 -4.33301 43 -13s16 -19.667 16 -33c0 -14.667 -5.33301 -26.334 -16 -35.001s-25 -13 -43 -13c-18.667 0 -33.5 4.33301 -44.5 13z" />
    <glyph glyph-name="Yacute" unicode="&#xdd;" horiz-adv-x="677" 
d="M217 3.5c-5.33301 3 -7.99902 8.83594 -7.99902 17.5029c0 10.667 7.33301 19 22 25c20.667 4 35.5 8.5 44.5 13.5s14.667 11.833 17 20.5s3.5 23 3.5 43v125c0 19.333 -6.66699 40.666 -20 63.999l-170 292c-10.667 19.333 -20.834 31.666 -30.501 36.999
s-25.834 9 -48.501 11c-14.667 3.33301 -22 11.666 -22 24.999c0 9.33301 3.33301 15.666 10 18.999s17.334 5 32.001 5h125h67c28.667 0 43 -7 43 -21c0 -12 -6.33301 -20.333 -19 -25c-21.333 -2 -36.666 -4.83301 -45.999 -8.5s-14 -9.16699 -14 -16.5
c0 -6 2.33301 -12.667 7 -20l145 -246c3.33301 -6 6.66602 -9 9.99902 -9c4 0 7.33301 3 10 9l147 254c3.33301 6.66699 5 12 5 16c0 7.33301 -5.66699 12.833 -17 16.5s-29.333 6.16699 -54 7.5c-9.33301 4.66699 -14 11.667 -14 21c0 8 2.66699 13.667 8 17
s13.666 5 24.999 5h59h108c20 0 30 -6.66699 30 -20s-8.66699 -22.666 -26 -27.999c-14.667 -0.666992 -25.667 -2.5 -33 -5.5s-13.166 -7.33301 -17.499 -13s-10.833 -15.834 -19.5 -30.501l-169 -287c-12 -21.333 -18 -44 -18 -68v-116c0 -23.333 1.16699 -40 3.5 -50
s7.83301 -17.667 16.5 -23s23.667 -10 45 -14c15.333 -5.33301 23 -13.666 23 -24.999c0 -7.33301 -2.5 -12.833 -7.5 -16.5s-13.833 -5.5 -26.5 -5.5h-197c-14 0 -23.667 1.5 -29 4.5zM293.501 738.503c-2.33301 1.66699 -3.50488 4.49805 -3.50488 8.49805
c0.666992 4.66699 9.16699 14.167 25.5 28.5l51.5 43.5c6.66699 6 14.334 12.5 23.001 19.5s16.667 13.833 24 20.5c4.66699 6 9.83398 10 15.501 12s13.834 3 24.501 3c18.667 0 31 -1.16699 37 -3.5s8.66699 -7.16602 8 -14.499c0 -8.66699 -13.833 -22.667 -41.5 -42
s-57.667 -37.166 -90 -53.499s-53.166 -24.5 -62.499 -24.5c-5.33301 0 -9.16602 0.833008 -11.499 2.5z" />
    <glyph glyph-name="Thorn" unicode="&#xde;" horiz-adv-x="598" 
d="M40 3.5c-5.33301 3 -8.00098 8.83105 -8.00098 17.498c0 10.667 7.33301 19 22 25c20.667 4 35.5 8.5 44.5 13.5s14.833 12 17.5 21s4 23.167 4 42.5v444c0 23.333 -1.33301 40 -4 50s-8.33398 17.667 -17.001 23s-23.667 10.333 -45 15
c-14.667 6.66699 -22 15.334 -22 26.001c0 6.66699 2.5 11.667 7.5 15s13.833 5 26.5 5h199c14 0 23.667 -1.5 29 -4.5s8 -8.83301 8 -17.5c0 -12 -7.33301 -19.667 -22 -23c-20 -2.66699 -34.5 -6.16699 -43.5 -10.5s-14.833 -10 -17.5 -17s-4 -17.167 -4 -30.5v-32
c0 -8 2 -14 6 -18s11 -6 21 -6h67c89.333 0 156.833 -15.833 202.5 -47.5s68.5 -78.5 68.5 -140.5c0 -59.333 -21.667 -104.333 -65 -135s-107.333 -46 -192 -46h-80c-20.667 0 -31 -13 -31 -39v-23c0 -18 1.33301 -30.833 4 -38.5s8.33398 -13.5 17.001 -17.5
s23.334 -7.33301 44.001 -10c15.333 -4.66699 23 -13 23 -25c0 -7.33301 -2.5 -12.666 -7.5 -15.999s-13.833 -5 -26.5 -5h-197c-14 0 -23.667 1.5 -29 4.5zM310.999 222.998c54 0 95.5 11.332 124.5 33.999s43.5 55.334 43.5 98.001c0 44 -14.667 77.833 -44 101.5
s-71.333 35.5 -126 35.5h-62c-23.333 0 -35 -11 -35 -33v-206c0 -20 11 -30 33 -30h66z" />
    <glyph glyph-name="germandbls" unicode="&#xdf;" horiz-adv-x="589" 
d="M81 -1l-33.998 -0.996094c-17.333 0 -29.666 1.66699 -36.999 5s-11 9.33301 -11 18c0 10 7 16.667 21 20c18 3.33301 30.833 8 38.5 14s12.667 15 15 27s3.5 31.333 3.5 58v48v318c0 66 17.5 116.667 52.5 152s88.167 53 159.5 53
c52.667 0 96.334 -13.833 131.001 -41.5s52 -63.834 52 -108.501c0 -31.333 -7.83301 -58.5 -23.5 -81.5s-36.834 -40.5 -63.501 -52.5c-4.66699 -2.66699 -7 -5.33398 -7 -8.00098c0 -2 2.66699 -4 8 -6c50 -12.667 91 -38.667 123 -78s48 -85.333 48 -138
c0 -46 -9.33301 -84.667 -28 -116s-42.667 -54.5 -72 -69.5s-60.333 -22.5 -93 -22.5c-40 0 -72.833 9.16699 -98.5 27.5s-40.834 41.166 -45.501 68.499c-2.66699 5.33301 -4 11 -4 17c0 4.66699 1 8.5 3 11.5s4.33301 4.5 7 4.5c4 0 7.66699 -2.66699 11 -8
c5.33301 -22 17.166 -39.333 35.499 -52s41.833 -19 70.5 -19c33.333 0 61.666 12.667 84.999 38s35 63.666 35 114.999c0 38 -8.5 71.333 -25.5 100s-39.5 50.667 -67.5 66s-58.333 23 -91 23c-13.333 0 -22.166 1.83301 -26.499 5.5s-6.5 10.5 -6.5 20.5
c0 5.33301 2 9.5 6 12.5s10.667 6.5 20 10.5c79.333 20.667 119 65 119 133c0 34 -10.167 59.667 -30.5 77s-46.5 26 -78.5 26c-37.333 0 -66 -13.333 -86 -40s-30 -62.667 -30 -108v-436c0 -14 4 -27 12 -39c4.66699 -8 7 -14.667 7 -20
c0 -8.66699 -3.83301 -14.834 -11.5 -18.501s-18.834 -5.5 -33.501 -5.5l-25 1c-8 0.666992 -19.333 0.333984 -34 -0.999023z" />
    <glyph glyph-name="agrave" unicode="&#xe0;" horiz-adv-x="539" 
d="M75.5 26c-25 24.667 -37.5 57.002 -37.5 97.002c0 43.333 18.167 78.5 54.5 105.5s88.166 41.5 155.499 43.5c27.333 0.666992 47.333 2 60 4s21 5.16699 25 9.5s5.33301 10.833 4 19.5l-3 25c-4.66699 36 -15 63 -31 81s-38.333 27 -67 27c-30 0 -54 -8.16699 -72 -24.5
s-26.667 -39.166 -26 -68.499c-1.33301 -12.667 -6 -22.334 -14 -29.001s-18.333 -10 -31 -10c-9.33301 0 -17.5 3.33301 -24.5 10s-10.5 16 -10.5 28c0 25.333 8.66699 48.666 26 69.999s41 38.166 71 50.499s63.333 18.5 100 18.5c52 0 91.5 -13.5 118.5 -40.5
s43.5 -66.833 49.5 -119.5l24 -193c3.33301 -28.667 8 -48.167 14 -58.5s14 -15.5 24 -15.5c6.66699 0 11.834 1.5 15.501 4.5s7.66699 7.66699 12 14s8.16602 9.5 11.499 9.5c9.33301 0 14 -6.33301 14 -19c0 -10 -3.33301 -20.667 -10 -32s-16.167 -20.833 -28.5 -28.5
s-26.166 -11.5 -41.499 -11.5c-24 0 -42.167 6.66699 -54.5 20s-21.5 33.333 -27.5 60c-2.66699 6 -5 9 -7 9s-9.16699 -8.5 -21.5 -25.5s-31.333 -32.5 -57 -46.5s-59.5 -21 -101.5 -21c-50.667 0 -88.5 12.333 -113.5 37zM316 79.002
c24.667 24.667 36.999 55.001 36.999 91.001c0 8 -0.333008 14 -1 18l-2 20c-1.33301 9.33301 -4.16602 15.833 -8.49902 19.5s-11.333 6 -21 7s-27.167 1.5 -52.5 1.5c-48 0 -83.333 -8.83301 -106 -26.5s-34 -40.834 -34 -69.501c0 -31.333 8.16699 -55.5 24.5 -72.5
s40.833 -25.5 73.5 -25.5c35.333 0 65.333 12.333 90 37zM224.999 554.503c-30 21 -57.998 43.332 -83.998 66.999s-39 39.834 -39 48.501c0 6 2.5 10.333 7.5 13s14.167 4 27.5 4s23.666 -1.16699 30.999 -3.5s13.666 -7.5 18.999 -15.5c1.33301 -2 11.333 -13.667 30 -35
c52.667 -58.667 79 -91.667 79 -99s-4.66699 -11 -14 -11c-8 0 -27 10.5 -57 31.5z" />
    <glyph glyph-name="aacute" unicode="&#xe1;" horiz-adv-x="539" 
d="M75.5 26c-25 24.667 -37.5 57.002 -37.5 97.002c0 43.333 18.167 78.5 54.5 105.5s88.166 41.5 155.499 43.5c27.333 0.666992 47.333 2 60 4s21 5.16699 25 9.5s5.33301 10.833 4 19.5l-3 25c-4.66699 36 -15 63 -31 81s-38.333 27 -67 27c-30 0 -54 -8.16699 -72 -24.5
s-26.667 -39.166 -26 -68.499c-1.33301 -12.667 -6 -22.334 -14 -29.001s-18.333 -10 -31 -10c-9.33301 0 -17.5 3.33301 -24.5 10s-10.5 16 -10.5 28c0 25.333 8.66699 48.666 26 69.999s41 38.166 71 50.499s63.333 18.5 100 18.5c52 0 91.5 -13.5 118.5 -40.5
s43.5 -66.833 49.5 -119.5l24 -193c3.33301 -28.667 8 -48.167 14 -58.5s14 -15.5 24 -15.5c6.66699 0 11.834 1.5 15.501 4.5s7.66699 7.66699 12 14s8.16602 9.5 11.499 9.5c9.33301 0 14 -6.33301 14 -19c0 -10 -3.33301 -20.667 -10 -32s-16.167 -20.833 -28.5 -28.5
s-26.166 -11.5 -41.499 -11.5c-24 0 -42.167 6.66699 -54.5 20s-21.5 33.333 -27.5 60c-2.66699 6 -5 9 -7 9s-9.16699 -8.5 -21.5 -25.5s-31.333 -32.5 -57 -46.5s-59.5 -21 -101.5 -21c-50.667 0 -88.5 12.333 -113.5 37zM316 79.002
c24.667 24.667 36.999 55.001 36.999 91.001c0 8 -0.333008 14 -1 18l-2 20c-1.33301 9.33301 -4.16602 15.833 -8.49902 19.5s-11.333 6 -21 7s-27.167 1.5 -52.5 1.5c-48 0 -83.333 -8.83301 -106 -26.5s-34 -40.834 -34 -69.501c0 -31.333 8.16699 -55.5 24.5 -72.5
s40.833 -25.5 73.5 -25.5c35.333 0 65.333 12.333 90 37zM193.999 534.003c0 7.33301 26.335 40.334 79.002 99.001c18.667 21.333 28.667 33 30 35c5.33301 8 11.666 13.167 18.999 15.5s17.666 3.5 30.999 3.5s22.5 -1.33301 27.5 -4s7.5 -7 7.5 -13
c0 -8.66699 -13 -24.834 -39 -48.501s-54 -46 -84 -67s-49 -31.5 -57 -31.5c-9.33301 0 -14 3.66699 -14 11z" />
    <glyph glyph-name="acircumflex" unicode="&#xe2;" horiz-adv-x="539" 
d="M75.5 26c-25 24.667 -37.5 57.002 -37.5 97.002c0 43.333 18.167 78.5 54.5 105.5s88.166 41.5 155.499 43.5c27.333 0.666992 47.333 2 60 4s21 5.16699 25 9.5s5.33301 10.833 4 19.5l-3 25c-4.66699 36 -15 63 -31 81s-38.333 27 -67 27c-30 0 -54 -8.16699 -72 -24.5
s-26.667 -39.166 -26 -68.499c-1.33301 -12.667 -6 -22.334 -14 -29.001s-18.333 -10 -31 -10c-9.33301 0 -17.5 3.33301 -24.5 10s-10.5 16 -10.5 28c0 25.333 8.66699 48.666 26 69.999s41 38.166 71 50.499s63.333 18.5 100 18.5c52 0 91.5 -13.5 118.5 -40.5
s43.5 -66.833 49.5 -119.5l24 -193c3.33301 -28.667 8 -48.167 14 -58.5s14 -15.5 24 -15.5c6.66699 0 11.834 1.5 15.501 4.5s7.66699 7.66699 12 14s8.16602 9.5 11.499 9.5c9.33301 0 14 -6.33301 14 -19c0 -10 -3.33301 -20.667 -10 -32s-16.167 -20.833 -28.5 -28.5
s-26.166 -11.5 -41.499 -11.5c-24 0 -42.167 6.66699 -54.5 20s-21.5 33.333 -27.5 60c-2.66699 6 -5 9 -7 9s-9.16699 -8.5 -21.5 -25.5s-31.333 -32.5 -57 -46.5s-59.5 -21 -101.5 -21c-50.667 0 -88.5 12.333 -113.5 37zM316 79.002
c24.667 24.667 36.999 55.001 36.999 91.001c0 8 -0.333008 14 -1 18l-2 20c-1.33301 9.33301 -4.16602 15.833 -8.49902 19.5s-11.333 6 -21 7s-27.167 1.5 -52.5 1.5c-48 0 -83.333 -8.83301 -106 -26.5s-34 -40.834 -34 -69.501c0 -31.333 8.16699 -55.5 24.5 -72.5
s40.833 -25.5 73.5 -25.5c35.333 0 65.333 12.333 90 37zM94.499 536.503c-2.33301 3.66699 -2.83301 8.16602 -1.5 13.499c5.33301 15.333 22.833 37.833 52.5 67.5s54.5 51.167 74.5 64.5c7.33301 5.33301 15.333 8 24 8c7.33301 0 15.666 -2.66699 24.999 -8
c18.667 -12 42.667 -33.167 72 -63.5s47.333 -53.166 54 -68.499c0.666992 -1.33301 1 -3 1 -5c0 -4 -1.33301 -7.33301 -4 -10s-5.66699 -4 -9 -4c-9.33301 0 -21 5.33301 -35 16l-29 26l-47 42c-15.333 13.333 -24.666 20 -27.999 20c-4 0 -31.333 -22.333 -82 -67
c-6 -6 -13.667 -13 -23 -21c-6 -4.66699 -12.333 -8.5 -19 -11.5s-11.667 -4.5 -15 -4.5c-4.66699 0 -8.16699 1.83301 -10.5 5.5z" />
    <glyph glyph-name="atilde" unicode="&#xe3;" horiz-adv-x="539" 
d="M75.5 26c-25 24.667 -37.5 57.002 -37.5 97.002c0 43.333 18.167 78.5 54.5 105.5s88.166 41.5 155.499 43.5c27.333 0.666992 47.333 2 60 4s21 5.16699 25 9.5s5.33301 10.833 4 19.5l-3 25c-4.66699 36 -15 63 -31 81s-38.333 27 -67 27c-30 0 -54 -8.16699 -72 -24.5
s-26.667 -39.166 -26 -68.499c-1.33301 -12.667 -6 -22.334 -14 -29.001s-18.333 -10 -31 -10c-9.33301 0 -17.5 3.33301 -24.5 10s-10.5 16 -10.5 28c0 25.333 8.66699 48.666 26 69.999s41 38.166 71 50.499s63.333 18.5 100 18.5c52 0 91.5 -13.5 118.5 -40.5
s43.5 -66.833 49.5 -119.5l24 -193c3.33301 -28.667 8 -48.167 14 -58.5s14 -15.5 24 -15.5c6.66699 0 11.834 1.5 15.501 4.5s7.66699 7.66699 12 14s8.16602 9.5 11.499 9.5c9.33301 0 14 -6.33301 14 -19c0 -10 -3.33301 -20.667 -10 -32s-16.167 -20.833 -28.5 -28.5
s-26.166 -11.5 -41.499 -11.5c-24 0 -42.167 6.66699 -54.5 20s-21.5 33.333 -27.5 60c-2.66699 6 -5 9 -7 9s-9.16699 -8.5 -21.5 -25.5s-31.333 -32.5 -57 -46.5s-59.5 -21 -101.5 -21c-50.667 0 -88.5 12.333 -113.5 37zM316 79.002
c24.667 24.667 36.999 55.001 36.999 91.001c0 8 -0.333008 14 -1 18l-2 20c-1.33301 9.33301 -4.16602 15.833 -8.49902 19.5s-11.333 6 -21 7s-27.167 1.5 -52.5 1.5c-48 0 -83.333 -8.83301 -106 -26.5s-34 -40.834 -34 -69.501c0 -31.333 8.16699 -55.5 24.5 -72.5
s40.833 -25.5 73.5 -25.5c35.333 0 65.333 12.333 90 37zM272.999 567.503c-12 5 -25.666 11.8311 -40.999 20.498l-19 9.5c-10 5 -19.167 8.83301 -27.5 11.5s-16.5 4 -24.5 4c-11.333 0 -20.833 -3.16699 -28.5 -9.5s-12.834 -15.166 -15.501 -26.499
c-6.66699 -12.667 -15 -19 -25 -19c-5.33301 0 -9.66602 1.83301 -12.999 5.5s-5 8.5 -5 14.5c0.666992 24.667 8.5 44.667 23.5 60s33.833 23 56.5 23c15.333 0 30.166 -2.66699 44.499 -8s29.833 -13 46.5 -23c15.333 -8 27 -13.833 35 -17.5s16.333 -5.5 25 -5.5
c10.667 0 19.834 3.33301 27.501 10s13.167 15.334 16.5 26.001c6 12.667 14.333 19 25 19c5.33301 0 9.66602 -1.83301 12.999 -5.5s5 -8.5 5 -14.5c-0.666992 -24.667 -8.5 -44.5 -23.5 -59.5s-34.167 -22.5 -57.5 -22.5c-13.333 0 -26 2.5 -38 7.5z" />
    <glyph glyph-name="adieresis" unicode="&#xe4;" horiz-adv-x="539" 
d="M75.5 26c-25 24.667 -37.5 57.002 -37.5 97.002c0 43.333 18.167 78.5 54.5 105.5s88.166 41.5 155.499 43.5c27.333 0.666992 47.333 2 60 4s21 5.16699 25 9.5s5.33301 10.833 4 19.5l-3 25c-4.66699 36 -15 63 -31 81s-38.333 27 -67 27c-30 0 -54 -8.16699 -72 -24.5
s-26.667 -39.166 -26 -68.499c-1.33301 -12.667 -6 -22.334 -14 -29.001s-18.333 -10 -31 -10c-9.33301 0 -17.5 3.33301 -24.5 10s-10.5 16 -10.5 28c0 25.333 8.66699 48.666 26 69.999s41 38.166 71 50.499s63.333 18.5 100 18.5c52 0 91.5 -13.5 118.5 -40.5
s43.5 -66.833 49.5 -119.5l24 -193c3.33301 -28.667 8 -48.167 14 -58.5s14 -15.5 24 -15.5c6.66699 0 11.834 1.5 15.501 4.5s7.66699 7.66699 12 14s8.16602 9.5 11.499 9.5c9.33301 0 14 -6.33301 14 -19c0 -10 -3.33301 -20.667 -10 -32s-16.167 -20.833 -28.5 -28.5
s-26.166 -11.5 -41.499 -11.5c-24 0 -42.167 6.66699 -54.5 20s-21.5 33.333 -27.5 60c-2.66699 6 -5 9 -7 9s-9.16699 -8.5 -21.5 -25.5s-31.333 -32.5 -57 -46.5s-59.5 -21 -101.5 -21c-50.667 0 -88.5 12.333 -113.5 37zM316 79.002
c24.667 24.667 36.999 55.001 36.999 91.001c0 8 -0.333008 14 -1 18l-2 20c-1.33301 9.33301 -4.16602 15.833 -8.49902 19.5s-11.333 6 -21 7s-27.167 1.5 -52.5 1.5c-48 0 -83.333 -8.83301 -106 -26.5s-34 -40.834 -34 -69.501c0 -31.333 8.16699 -55.5 24.5 -72.5
s40.833 -25.5 73.5 -25.5c35.333 0 65.333 12.333 90 37zM101.499 579.003c-11 8.66699 -16.5 20.334 -16.5 35.001c0 13.333 5.5 24.333 16.5 33s25.833 13 44.5 13c18 0 32.5 -4.33301 43.5 -13s16.5 -19.667 16.5 -33c0 -14.667 -5.5 -26.334 -16.5 -35.001
s-25.5 -13 -43.5 -13c-18.667 0 -33.5 4.33301 -44.5 13zM307.499 579.003c-11 8.66699 -16.5 20.334 -16.5 35.001c0 13.333 5.5 24.333 16.5 33s25.833 13 44.5 13c18 0 32.333 -4.33301 43 -13s16 -19.667 16 -33c0 -14.667 -5.33301 -26.334 -16 -35.001
s-25 -13 -43 -13c-18.667 0 -33.5 4.33301 -44.5 13z" />
    <glyph glyph-name="aring" unicode="&#xe5;" horiz-adv-x="539" 
d="M75.5 26c-25 24.667 -37.5 57.002 -37.5 97.002c0 43.333 18.167 78.5 54.5 105.5s88.166 41.5 155.499 43.5c27.333 0.666992 47.333 2 60 4s21 5.16699 25 9.5s5.33301 10.833 4 19.5l-3 25c-4.66699 36 -15 63 -31 81s-38.333 27 -67 27c-30 0 -54 -8.16699 -72 -24.5
s-26.667 -39.166 -26 -68.499c-1.33301 -12.667 -6 -22.334 -14 -29.001s-18.333 -10 -31 -10c-9.33301 0 -17.5 3.33301 -24.5 10s-10.5 16 -10.5 28c0 25.333 8.66699 48.666 26 69.999s41 38.166 71 50.499s63.333 18.5 100 18.5c52 0 91.5 -13.5 118.5 -40.5
s43.5 -66.833 49.5 -119.5l24 -193c3.33301 -28.667 8 -48.167 14 -58.5s14 -15.5 24 -15.5c6.66699 0 11.834 1.5 15.501 4.5s7.66699 7.66699 12 14s8.16602 9.5 11.499 9.5c9.33301 0 14 -6.33301 14 -19c0 -10 -3.33301 -20.667 -10 -32s-16.167 -20.833 -28.5 -28.5
s-26.166 -11.5 -41.499 -11.5c-24 0 -42.167 6.66699 -54.5 20s-21.5 33.333 -27.5 60c-2.66699 6 -5 9 -7 9s-9.16699 -8.5 -21.5 -25.5s-31.333 -32.5 -57 -46.5s-59.5 -21 -101.5 -21c-50.667 0 -88.5 12.333 -113.5 37zM316 79.002
c24.667 24.667 36.999 55.001 36.999 91.001c0 8 -0.333008 14 -1 18l-2 20c-1.33301 9.33301 -4.16602 15.833 -8.49902 19.5s-11.333 6 -21 7s-27.167 1.5 -52.5 1.5c-48 0 -83.333 -8.83301 -106 -26.5s-34 -40.834 -34 -69.501c0 -31.333 8.16699 -55.5 24.5 -72.5
s40.833 -25.5 73.5 -25.5c35.333 0 65.333 12.333 90 37zM182.999 548.503c-17.333 15 -26.001 34.167 -26.001 57.5c0 24 8.33301 43.333 25 58s37 22 61 22s44.833 -7.5 62.5 -22.5s26.5 -34.5 26.5 -58.5c0 -23.333 -8.66699 -42.333 -26 -57s-37.666 -22 -60.999 -22
c-24 0 -44.667 7.5 -62 22.5zM276.998 570.003c8.66699 8.66699 12.998 19.667 12.998 33c0 14 -4.5 26.333 -13.5 37s-19.833 16 -32.5 16c-13.333 0 -24.166 -4.66699 -32.499 -14s-12.5 -21 -12.5 -35c0 -13.333 4.5 -25 13.5 -35s19.833 -15 32.5 -15
s23.334 4.33301 32.001 13z" />
    <glyph glyph-name="ae" unicode="&#xe6;" horiz-adv-x="795" 
d="M76 27c-25.333 25.333 -38.002 59.001 -38.002 101.001c0 40.667 18.167 73.834 54.5 99.501s87.5 39.167 153.5 40.5c28 0 48.333 0.666992 61 2s21.5 3.66602 26.5 6.99902s6.83301 9 5.5 17l-5 36c-5.33301 42 -14.333 71.667 -27 89s-35 26 -67 26
c-30.667 0 -55.834 -9 -75.501 -27s-30.167 -42.333 -31.5 -73c-4 -24 -18.333 -36 -43 -36c-8.66699 0 -16 3 -22 9s-9 14.667 -9 26c0 25.333 8.5 48.666 25.5 69.999s40.167 38.166 69.5 50.499s61.666 18.5 96.999 18.5c78 0 127.333 -36.333 148 -109
c17.333 33.333 42 59.666 74 78.999s66.333 29 103 29c37.333 0 70.333 -7.83301 99 -23.5s51 -35.834 67 -60.501s24 -50.334 24 -77.001c0 -21.333 -5.16699 -36.166 -15.5 -44.499s-27.166 -14.166 -50.499 -17.499l-241 -36
c-5.33301 -0.666992 -9.16602 -2.16699 -11.499 -4.5s-3.5 -6.16602 -3.5 -11.499c0 -24 6 -48 18 -72s29.5 -44 52.5 -60s50.5 -24 82.5 -24c32.667 0 61.334 7.16699 86.001 21.5s45.334 32.5 62.001 54.5c5.33301 6 10 9 14 9c7.33301 0 12.166 -2.66699 14.499 -8
s2.5 -10.666 0.5 -15.999c-16.667 -36 -42.167 -65.5 -76.5 -88.5s-75.833 -34.5 -124.5 -34.5c-43.333 0 -81.166 10 -113.499 30s-57.833 47.333 -76.5 82c-16 -29.333 -39 -55.333 -69 -78s-71.333 -34 -124 -34c-50.667 0 -88.667 12.667 -114 38zM650.998 298.001
c12 2 20.333 5.00098 25 9.00098s7 10.333 7 19c0 17.333 -4.83301 34.666 -14.5 51.999s-23.5 31.666 -41.5 42.999s-39 17 -63 17c-21.333 0 -41.833 -6.16699 -61.5 -18.5s-35.667 -29.666 -48 -51.999s-18.5 -47.5 -18.5 -75.5c0 -9.33301 0.833008 -15.833 2.5 -19.5
s4.5 -5.5 8.5 -5.5s7 0.333008 9 1zM292.998 52.502c20.667 12.333 36.498 29.166 47.498 50.499s15.167 45 12.5 71l-6 41c-2 8 -5.16699 13.333 -9.5 16s-12.666 4.16699 -24.999 4.5s-27.5 0.5 -45.5 0.5c-48 0 -83.167 -8.33301 -105.5 -25s-33.5 -38.667 -33.5 -66
c0 -35.333 8 -62.666 24 -81.999s40.333 -29 73 -29c24.667 0 47.334 6.16699 68.001 18.5z" />
    <glyph glyph-name="ccedilla" unicode="&#xe7;" horiz-adv-x="493" 
d="M459 128.5c2.66699 -5 2.99707 -10.4971 0.99707 -16.4971c-16 -35.333 -39.333 -64 -70 -86s-68.667 -34.333 -114 -37c-0.666992 -8.66699 1.66602 -15.334 6.99902 -20.001s14.333 -10.334 27 -17.001c16 -8 28.5 -16.333 37.5 -25s13.5 -21 13.5 -37
c0 -22 -8.5 -40.333 -25.5 -55s-40.167 -22 -69.5 -22c-20.667 0 -39.167 2.66699 -55.5 8s-29.5 12.666 -39.5 21.999c-6 4.66699 -9 10 -9 16c0 2.66699 1 4.83398 3 6.50098s4.66699 2.5 8 2.5c4 0 8.33301 -1 13 -3c17.333 -12 40 -18 68 -18c18 0 32.5 4 43.5 12
s16.5 18.667 16.5 32c0 10 -3.5 18 -10.5 24s-16.833 12 -29.5 18c-14 6.66699 -24.333 13 -31 19s-10 14.667 -10 26c0 5.33301 0.333008 9.33301 1 12c-41.333 4 -77.333 17.333 -108 40s-54 52 -70 88s-24 75.333 -24 118c0 47.333 10 89.666 30 126.999
s47.167 66.5 81.5 87.5s72.5 31.5 114.5 31.5c31.333 0 61.5 -6.16699 90.5 -18.5s52.333 -29.5 70 -51.5s26.5 -46.667 26.5 -74c0 -11.333 -3 -20.833 -9 -28.5s-14.667 -11.5 -26 -11.5c-24.667 0 -40.667 14 -48 42c-2 28.667 -11.667 52.167 -29 70.5
s-43.666 27.5 -78.999 27.5c-23.333 0 -45 -7 -65 -21s-36.167 -34 -48.5 -60s-18.5 -56.333 -18.5 -91c0 -62 14.167 -113.333 42.5 -154s68.5 -61 120.5 -61c30.667 0 58.334 6.83301 83.001 20.5s45.334 31.5 62.001 53.5c4.66699 7.33301 9.66699 11 15 11
c6.66699 0 11.334 -2.5 14.001 -7.5z" />
    <glyph glyph-name="egrave" unicode="&#xe8;" horiz-adv-x="481" 
d="M136.5 23c-34.333 22.667 -60.3369 53.1641 -78.0039 91.4971s-26.5 80.833 -26.5 127.5s10.5 88.334 31.5 125.001s49 65 84 85s72.833 30 113.5 30c37.333 0 70.5 -7.83301 99.5 -23.5s51.5 -35.834 67.5 -60.501s24 -50.334 24 -77.001
c0 -21.333 -5.16699 -36.166 -15.5 -44.499s-27.5 -14.166 -51.5 -17.499l-240 -36c-5.33301 -0.666992 -9.16602 -2.16699 -11.499 -4.5s-3.5 -6.16602 -3.5 -11.499c0 -24 6 -48 18 -72s29.5 -44 52.5 -60s50.5 -24 82.5 -24c32.667 0 61.334 7.16699 86.001 21.5
s45.334 32.5 62.001 54.5c4.66699 6 9.33398 9 14.001 9c7.33301 0 12.166 -2.66699 14.499 -8s2.5 -10.666 0.5 -15.999c-16.667 -36 -42.167 -65.5 -76.5 -88.5s-75.833 -34.5 -124.5 -34.5c-47.333 0 -88.166 11.333 -122.499 34zM335.996 297.997
c12.667 2 21.334 5.00098 26.001 9.00098s7 10.333 7 19c0 17.333 -4.83301 34.666 -14.5 51.999s-23.667 31.666 -42 42.999s-39.5 17 -63.5 17c-20.667 0 -40.834 -6.16699 -60.501 -18.5s-35.667 -29.666 -48 -51.999s-18.5 -47.5 -18.5 -75.5
c0 -9.33301 0.833008 -15.833 2.5 -19.5s4.5 -5.5 8.5 -5.5s7 0.333008 9 1zM235.996 554.498c-30 21 -57.998 43.332 -83.998 66.999s-39 39.834 -39 48.501c0 6 2.5 10.333 7.5 13s14.167 4 27.5 4s23.666 -1.16699 30.999 -3.5s13.666 -7.5 18.999 -15.5
c1.33301 -2 11.333 -13.667 30 -35c52.667 -58.667 79 -91.667 79 -99s-4.66699 -11 -14 -11c-8 0 -27 10.5 -57 31.5z" />
    <glyph glyph-name="eacute" unicode="&#xe9;" horiz-adv-x="481" 
d="M136.5 23c-34.333 22.667 -60.3369 53.1641 -78.0039 91.4971s-26.5 80.833 -26.5 127.5s10.5 88.334 31.5 125.001s49 65 84 85s72.833 30 113.5 30c37.333 0 70.5 -7.83301 99.5 -23.5s51.5 -35.834 67.5 -60.501s24 -50.334 24 -77.001
c0 -21.333 -5.16699 -36.166 -15.5 -44.499s-27.5 -14.166 -51.5 -17.499l-240 -36c-5.33301 -0.666992 -9.16602 -2.16699 -11.499 -4.5s-3.5 -6.16602 -3.5 -11.499c0 -24 6 -48 18 -72s29.5 -44 52.5 -60s50.5 -24 82.5 -24c32.667 0 61.334 7.16699 86.001 21.5
s45.334 32.5 62.001 54.5c4.66699 6 9.33398 9 14.001 9c7.33301 0 12.166 -2.66699 14.499 -8s2.5 -10.666 0.5 -15.999c-16.667 -36 -42.167 -65.5 -76.5 -88.5s-75.833 -34.5 -124.5 -34.5c-47.333 0 -88.166 11.333 -122.499 34zM335.996 297.997
c12.667 2 21.334 5.00098 26.001 9.00098s7 10.333 7 19c0 17.333 -4.83301 34.666 -14.5 51.999s-23.667 31.666 -42 42.999s-39.5 17 -63.5 17c-20.667 0 -40.834 -6.16699 -60.501 -18.5s-35.667 -29.666 -48 -51.999s-18.5 -47.5 -18.5 -75.5
c0 -9.33301 0.833008 -15.833 2.5 -19.5s4.5 -5.5 8.5 -5.5s7 0.333008 9 1zM204.996 533.998c0 7.33301 26.335 40.334 79.002 99.001c18.667 21.333 28.667 33 30 35c5.33301 8 11.666 13.167 18.999 15.5s17.666 3.5 30.999 3.5s22.5 -1.33301 27.5 -4s7.5 -7 7.5 -13
c0 -8.66699 -13 -24.834 -39 -48.501s-54 -46 -84 -67s-49 -31.5 -57 -31.5c-9.33301 0 -14 3.66699 -14 11z" />
    <glyph glyph-name="ecircumflex" unicode="&#xea;" horiz-adv-x="481" 
d="M136.5 23c-34.333 22.667 -60.3369 53.1641 -78.0039 91.4971s-26.5 80.833 -26.5 127.5s10.5 88.334 31.5 125.001s49 65 84 85s72.833 30 113.5 30c37.333 0 70.5 -7.83301 99.5 -23.5s51.5 -35.834 67.5 -60.501s24 -50.334 24 -77.001
c0 -21.333 -5.16699 -36.166 -15.5 -44.499s-27.5 -14.166 -51.5 -17.499l-240 -36c-5.33301 -0.666992 -9.16602 -2.16699 -11.499 -4.5s-3.5 -6.16602 -3.5 -11.499c0 -24 6 -48 18 -72s29.5 -44 52.5 -60s50.5 -24 82.5 -24c32.667 0 61.334 7.16699 86.001 21.5
s45.334 32.5 62.001 54.5c4.66699 6 9.33398 9 14.001 9c7.33301 0 12.166 -2.66699 14.499 -8s2.5 -10.666 0.5 -15.999c-16.667 -36 -42.167 -65.5 -76.5 -88.5s-75.833 -34.5 -124.5 -34.5c-47.333 0 -88.166 11.333 -122.499 34zM335.996 297.997
c12.667 2 21.334 5.00098 26.001 9.00098s7 10.333 7 19c0 17.333 -4.83301 34.666 -14.5 51.999s-23.667 31.666 -42 42.999s-39.5 17 -63.5 17c-20.667 0 -40.834 -6.16699 -60.501 -18.5s-35.667 -29.666 -48 -51.999s-18.5 -47.5 -18.5 -75.5
c0 -9.33301 0.833008 -15.833 2.5 -19.5s4.5 -5.5 8.5 -5.5s7 0.333008 9 1zM106.496 536.498c-2.33301 3.66699 -2.83301 8.16602 -1.5 13.499c5.33301 15.333 22.833 37.833 52.5 67.5s54.5 51.167 74.5 64.5c7.33301 5.33301 15.333 8 24 8
c7.33301 0 15.666 -2.66699 24.999 -8c18.667 -12 42.667 -33.167 72 -63.5s47.333 -53.166 54 -68.499c0.666992 -1.33301 1 -3 1 -5c0 -4 -1.33301 -7.33301 -4 -10s-5.66699 -4 -9 -4c-9.33301 0 -21 5.33301 -35 16l-29 26l-47 42c-15.333 13.333 -24.666 20 -27.999 20
c-4 0 -31.333 -22.333 -82 -67c-6 -6 -13.667 -13 -23 -21c-6 -4.66699 -12.333 -8.5 -19 -11.5s-11.667 -4.5 -15 -4.5c-4.66699 0 -8.16699 1.83301 -10.5 5.5z" />
    </font>
</defs>
</svg>
