<?xml version="1.0" standalone="no"?>
<!DOCTYPE svg PUBLIC "-//W3C//DTD SVG 1.1//EN" "http://www.w3.org/Graphics/SVG/1.1/DTD/svg11.dtd" >
<svg>
<metadata>
Created by FontForge 20090914 at Wed Jan 18 09:37:09 2023
 By www-data
Copyright &#194;&#169; 2020 by Francesco Canovaro, Andrea Tartarelli. All rights reserved.
</metadata>
<defs>
<font id="BogartTrial-Medium" horiz-adv-x="746" >
  <font-face 
    font-family="Bogart Trial Medium"
    font-weight="500"
    font-stretch="normal"
    units-per-em="1000"
    panose-1="0 0 6 0 0 0 0 0 0 0"
    ascent="800"
    descent="-200"
    x-height="480.003"
    cap-height="701"
    bbox="-707 -381.001 1646 1057"
    underline-thickness="63"
    underline-position="-138"
    unicode-range="U+0020-U+FB06"
  />
<missing-glyph horiz-adv-x="509" 
 />
    <glyph glyph-name="f_f" unicode="ff" horiz-adv-x="649" 
d="M660.5 689c31 -22 46.498 -50.334 46.498 -85.001c0 -10.667 -3.5 -20 -10.5 -28s-16.833 -12 -29.5 -12c-24.667 0 -40.667 14 -48 42c-2 20 -9.16699 35.833 -21.5 47.5s-29.833 17.5 -52.5 17.5c-23.333 0 -42.166 -7.16699 -56.499 -21.5s-21.5 -32.5 -21.5 -54.5
c0 -15.333 2.5 -29.833 7.5 -43.5s11.833 -29.5 20.5 -47.5c2 -3.33301 6.33301 -12.666 13 -27.999h111c6.66699 0 11.667 -1 15 -3s5 -6.33301 5 -13c0 -9.33301 -2.5 -17.333 -7.5 -24s-10.833 -10 -17.5 -10h-70c-18.667 0 -28 -8.66699 -28 -26v-271
c0 -21.333 1 -36.833 3 -46.5s6.66699 -17.5 14 -23.5s20 -11 38 -15c12.667 -3.33301 19 -10.666 19 -21.999c0 -9.33301 -4.83301 -16.166 -14.5 -20.499s-28.834 -6.5 -57.501 -6.5h-107c-28.667 0 -48.334 2.16699 -59.001 6.5s-16 11.166 -16 20.499
c0 11.333 5.66699 18.666 17 21.999c17.333 3.33301 29.833 8.16602 37.5 14.499s12.5 14.333 14.5 24s3 24.834 3 45.501v273c0 8.66699 -2.5 15 -7.5 19s-10.833 6 -17.5 6h-139c-18.667 0 -28 -8.66699 -28 -26v-271c0 -20.667 0.833008 -35.334 2.5 -44.001
s5.83398 -15.667 12.501 -21s18 -10.666 34 -15.999c6.66699 -4.66699 11.667 -8.83398 15 -12.501s5 -8.16699 5 -13.5c0 -9.33301 -4.66699 -16.166 -14 -20.499s-27 -6.5 -53 -6.5h-108c-28.667 0 -48.334 2.16699 -59.001 6.5s-16 11.166 -16 20.499
c0 10 6 17.333 18 22c17.333 3.33301 29.833 8.16602 37.5 14.499s12.334 14.333 14.001 24s2.5 24.834 2.5 45.501v273c0 8.66699 -2.5 15 -7.5 19s-10.5 6 -16.5 6h-47c-4.66699 0 -8.5 1.66699 -11.5 5s-4.5 7.66602 -4.5 12.999c0 9.33301 2.5 17 7.5 23
s10.167 9 15.5 9h61c-2 9.33301 -5 19.333 -9 30c-5.33301 16 -9.66602 30.667 -12.999 44s-5 28 -5 44c0 36.667 13 67.167 39 91.5s60.333 36.5 103 36.5c38.667 0 72.5 -9.66699 101.5 -29s43.5 -44.666 43.5 -75.999c0 -10 -3 -18.667 -9 -26s-15 -11 -27 -11
c-18.667 0 -31.667 13 -39 39c-3.33301 18 -10.833 31.167 -22.5 39.5s-25.5 12.5 -41.5 12.5c-19.333 0 -34.666 -6.5 -45.999 -19.5s-17 -29.167 -17 -48.5c0 -20.667 3.83301 -40.167 11.5 -58.5s19.167 -41.166 34.5 -68.499h196l-7 27
c-5.33301 18 -9.33301 33.5 -12 46.5s-4 27.833 -4 44.5c0 36.667 14.833 67.167 44.5 91.5s69.5 36.5 119.5 36.5c46 0 84.5 -11 115.5 -33z" />
    <glyph glyph-name="f_f_i" unicode="ffi" horiz-adv-x="919" 
d="M903 22c0 -9.33301 -4.83301 -16.1641 -14.5 -20.4971s-28.834 -6.5 -57.501 -6.5l-54 1l-54 -1c-28 0 -46.5 2.16699 -55.5 6.5s-13.5 11.166 -13.5 20.499c0 8.66699 6 16 18 22c15.333 4 26.333 9.16699 33 15.5s10.834 14.333 12.501 24s2.5 24.5 2.5 44.5v237
c0 19.333 -3.5 34.333 -10.5 45s-20.167 16 -39.5 16h-126c-18.667 0 -28 -8.66699 -28 -26v-271c0 -20.667 1 -35.834 3 -45.501s6.66699 -17.667 14 -24s20 -11.5 38 -15.5c12.667 -4.66699 19 -12 19 -22c0 -9.33301 -4.83301 -16.166 -14.5 -20.499
s-28.834 -6.5 -57.501 -6.5h-107c-28.667 0 -48.334 2.16699 -59.001 6.5s-16 11.166 -16 20.499c0 10 5.66699 17.333 17 22c17.333 4 29.833 9.16699 37.5 15.5s12.5 14.166 14.5 23.499s3 24.333 3 45v273c0 8.66699 -2.5 15 -7.5 19s-10.833 6 -17.5 6h-139
c-18.667 0 -28 -8.66699 -28 -26v-271c0 -20.667 0.833008 -35.334 2.5 -44.001s5.83398 -15.667 12.501 -21s18 -10.666 34 -15.999c6.66699 -4.66699 11.667 -8.83398 15 -12.501s5 -8.16699 5 -13.5c0 -9.33301 -4.66699 -16.166 -14 -20.499s-27 -6.5 -53 -6.5h-108
c-28.667 0 -48.334 2.16699 -59.001 6.5s-16 11.166 -16 20.499c0 10 6 17.333 18 22c17.333 3.33301 29.833 8.16602 37.5 14.499s12.334 14.333 14.001 24s2.5 24.834 2.5 45.501v273c0 8.66699 -2.5 15 -7.5 19s-10.5 6 -16.5 6h-47c-4.66699 0 -8.5 1.66699 -11.5 5
s-4.5 7.66602 -4.5 12.999c0 9.33301 2.5 17 7.5 23s10.167 9 15.5 9h61c-2 9.33301 -5 19.333 -9 30c-5.33301 16 -9.66602 30.667 -12.999 44s-5 28 -5 44c0 36.667 13 67.167 39 91.5s60.333 36.5 103 36.5c38.667 0 72.5 -9.66699 101.5 -29s43.5 -44.666 43.5 -75.999
c0 -10 -3 -18.667 -9 -26s-15 -11 -27 -11c-18.667 0 -31.667 13 -39 39c-3.33301 18 -10.833 31.167 -22.5 39.5s-25.5 12.5 -41.5 12.5c-19.333 0 -34.666 -6.5 -45.999 -19.5s-17 -29.167 -17 -48.5c0 -20.667 3.83301 -40.167 11.5 -58.5s19.167 -41.166 34.5 -68.499
h196l-7 27c-5.33301 18 -9.33301 33.5 -12 46.5s-4 27.833 -4 44.5c0 37.333 14.667 68 44 92s69 36 119 36c28 0 54.5 -4.83301 79.5 -14.5s45.167 -23.334 60.5 -41.001s23 -37.834 23 -60.501c0 -10.667 -3.16699 -19.5 -9.5 -26.5s-15.5 -10.5 -27.5 -10.5
s-21.667 3.16699 -29 9.5s-13 16.166 -17 29.499c-2.66699 20.667 -11.167 36.334 -25.5 47.001s-32.5 16 -54.5 16c-23.333 0 -42 -7 -56 -21s-21 -32.333 -21 -55c0 -15.333 2.5 -29.833 7.5 -43.5s11.833 -29.5 20.5 -47.5c2 -3.33301 6.33301 -12.666 13 -27.999h185
c19.333 0 41.666 2 66.999 6c18.667 2.66699 31 4 37 4c12 0 20.333 -2.16699 25 -6.5s7 -12.166 7 -23.499v-327c0 -20.667 1 -35.834 3 -45.501s6.66699 -17.667 14 -24s20 -11.5 38 -15.5c12.667 -5.33301 19 -12.666 19 -21.999z" />
    <glyph glyph-name="f_f_l" unicode="ffl" horiz-adv-x="941" 
d="M621.5 691c25.667 -20.667 38.498 -47.998 38.498 -81.998c0 -10.667 -2.83301 -19.5 -8.5 -26.5s-14.834 -10.5 -27.501 -10.5c-12 0 -21 3.16699 -27 9.5s-11 16.166 -15 29.499c-3.33301 20.667 -9.66602 35.834 -18.999 45.501s-22.333 14.5 -39 14.5
c-21.333 0 -37.333 -6.33301 -48 -19s-16 -29.667 -16 -51c0 -16.667 2.83301 -32.167 8.5 -46.5s13.834 -31.5 24.501 -51.5c6 -8.66699 11 -17.667 15 -27h111c6.66699 0 11.667 -1 15 -3s5 -6.33301 5 -13c0 -9.33301 -2.5 -17.333 -7.5 -24s-10.833 -10 -17.5 -10h-70
c-18.667 0 -28 -8.66699 -28 -26v-271c0 -20.667 1 -35.834 3 -45.501s6.66699 -17.667 14 -24s20 -11.5 38 -15.5c12.667 -5.33301 19 -12.666 19 -21.999s-4.83301 -16.166 -14.5 -20.499s-28.834 -6.5 -57.501 -6.5h-107c-28.667 0 -48.334 2.16699 -59.001 6.5
s-16 11.166 -16 20.499c0 10 5.66699 17.333 17 22c17.333 3.33301 29.833 8.16602 37.5 14.499s12.5 14.333 14.5 24s3 24.834 3 45.501v273c0 8.66699 -2.5 15 -7.5 19s-10.833 6 -17.5 6h-139c-18.667 0 -28 -8.66699 -28 -26v-271
c0 -20.667 0.833008 -35.334 2.5 -44.001s5.83398 -15.667 12.501 -21s18 -10.666 34 -15.999c6.66699 -4.66699 11.667 -8.83398 15 -12.501s5 -8.16699 5 -13.5c0 -9.33301 -4.66699 -16.166 -14 -20.499s-27 -6.5 -53 -6.5h-108c-28.667 0 -48.334 2.16699 -59.001 6.5
s-16 11.166 -16 20.499c0 10 6 17.333 18 22c17.333 3.33301 29.833 8.16602 37.5 14.499s12.334 14.333 14.001 24s2.5 24.834 2.5 45.501v273c0 8.66699 -2.5 15 -7.5 19s-10.5 6 -16.5 6h-47c-4.66699 0 -8.5 1.66699 -11.5 5s-4.5 7.66602 -4.5 12.999
c0 9.33301 2.5 17 7.5 23s10.167 9 15.5 9h61c-2 9.33301 -5 19.333 -9 30c-5.33301 16 -9.66602 30.667 -12.999 44s-5 28 -5 44c0 36.667 13 67.167 39 91.5s60.333 36.5 103 36.5c38.667 0 72.5 -9.66699 101.5 -29s43.5 -44.666 43.5 -75.999c0 -10 -3 -18.667 -9 -26
s-15 -11 -27 -11c-18.667 0 -31.667 13 -39 39c-3.33301 18 -10.833 31.167 -22.5 39.5s-25.5 12.5 -41.5 12.5c-19.333 0 -34.666 -6.5 -45.999 -19.5s-17 -29.167 -17 -48.5c0 -20.667 3.83301 -40.167 11.5 -58.5s19.167 -41.166 34.5 -68.499h196
c-1.33301 6 -4.33301 14.667 -9 26c-6 15.333 -10.833 30.166 -14.5 44.499s-5.5 30.166 -5.5 47.499c0 37.333 13 68 39 92s61.333 36 106 36c42 0 75.833 -10.333 101.5 -31zM924.998 22.002c0 -9.33301 -4.83301 -16.165 -14.5 -20.498s-29.167 -6.5 -58.5 -6.5l-53 1
l-54 -1c-28.667 0 -48.334 2.16699 -59.001 6.5s-16 11.166 -16 20.499c0 10 6 17.333 18 22c17.333 4 29.833 9.16699 37.5 15.5s12.334 14.166 14.001 23.499s2.5 24.333 2.5 45v460c0 15.333 -1.16699 26 -3.5 32s-8.5 9.33301 -18.5 10
c-13.333 0.666992 -23 2.16699 -29 4.5s-9 6.83301 -9 13.5c0 10.667 11.333 20.334 34 29.001l29 10c14 4.66699 27.667 9 41 13s24.333 6 33 6c11.333 0 19.5 -2.33301 24.5 -7s7.5 -12.334 7.5 -23.001v-547c0 -20.667 1 -35.834 3 -45.501s6.66699 -17.667 14 -24
s20 -11.5 38 -15.5c12.667 -5.33301 19 -12.666 19 -21.999z" />
    <glyph glyph-name="f_i" unicode="fi" horiz-adv-x="619" 
d="M603 22c0 -9.33301 -4.83105 -16.1631 -14.498 -20.4961s-28.834 -6.5 -57.501 -6.5l-54 1l-54 -1c-28 0 -46.5 2.16699 -55.5 6.5s-13.5 11.166 -13.5 20.499s6 16.666 18 21.999c15.333 4 26.333 9.16699 33 15.5s10.834 14.333 12.501 24s2.5 24.5 2.5 44.5v237
c0 19.333 -3.5 34.333 -10.5 45s-20.167 16 -39.5 16h-126c-18.667 0 -28 -8.66699 -28 -26v-271c0 -20.667 1 -35.834 3 -45.501s6.66699 -17.667 14 -24s20 -11.5 38 -15.5c12.667 -5.33301 19 -12.666 19 -21.999s-4.83301 -16.166 -14.5 -20.499
s-28.834 -6.5 -57.501 -6.5h-108c-28.667 0 -48.334 2.16699 -59.001 6.5s-16 11.166 -16 20.499c0 10 6 17.333 18 22c17.333 4 29.833 9.16699 37.5 15.5s12.334 14.166 14.001 23.499s2.5 24.333 2.5 45v273c0 8.66699 -2.5 15 -7.5 19s-10.5 6 -16.5 6h-47
c-4.66699 0 -8.5 1.66699 -11.5 5s-4.5 7.66602 -4.5 12.999c0 9.33301 2.5 17 7.5 23s10.167 9 15.5 9h61l-7 27c-5.33301 18 -9.33301 33.5 -12 46.5s-4 27.833 -4 44.5c0 37.333 14.667 68 44 92s69 36 119 36c28 0 54.5 -4.83301 79.5 -14.5
s45.167 -23.334 60.5 -41.001s23 -37.834 23 -60.501c0 -10 -3.16699 -18.667 -9.5 -26s-15.5 -11 -27.5 -11c-12.667 0 -22.5 3.16699 -29.5 9.5s-12.5 16.166 -16.5 29.499c-2.66699 20.667 -11.167 36.334 -25.5 47.001s-32.5 16 -54.5 16c-23.333 0 -42 -7 -56 -21
s-21 -32.333 -21 -55c0 -15.333 2.33301 -29.833 7 -43.5s11.667 -29.5 21 -47.5c2 -3.33301 6.33301 -12.666 13 -27.999h185c19.333 0 41.666 2 66.999 6c18.667 2.66699 31 4 37 4c12 0 20.333 -2.16699 25 -6.5s7 -12.166 7 -23.499v-327c0 -20.667 1 -35.834 3 -45.501
s6.66699 -17.667 14 -24s20 -11.5 38 -15.5c12.667 -5.33301 19 -12.666 19 -21.999z" />
    <glyph glyph-name="f_l" unicode="fl" horiz-adv-x="640" 
d="M110 -5c-28.667 0 -48.333 2.16895 -59 6.50195s-16 11.166 -16 20.499c0 10 6 17.333 18 22c17.333 3.33301 29.833 8.16602 37.5 14.499s12.334 14.333 14.001 24s2.5 24.834 2.5 45.501v273c0 8.66699 -2.5 15 -7.5 19s-10.5 6 -16.5 6h-47
c-4.66699 0 -8.5 1.66699 -11.5 5s-4.5 7.66602 -4.5 12.999c0 9.33301 2.5 17 7.5 23s10.167 9 15.5 9h61c-1.33301 6 -4.33301 14.667 -9 26c-6 15.333 -10.833 30.166 -14.5 44.499s-5.5 30.166 -5.5 47.499c0 37.333 13 68 39 92s61.333 36 106 36
c42 0 75.833 -10.333 101.5 -31s38.5 -48 38.5 -82c0 -10.667 -2.83301 -19.5 -8.5 -26.5s-14.834 -10.5 -27.501 -10.5c-12 0 -21 3 -27 9s-11.333 16 -16 30c-3.33301 20.667 -9.5 35.834 -18.5 45.501s-21.833 14.5 -38.5 14.5c-21.333 0 -37.333 -6.33301 -48 -19
s-16 -29.667 -16 -51c0 -16.667 2.83301 -32.167 8.5 -46.5s13.834 -31.5 24.501 -51.5c6 -8.66699 11 -17.667 15 -27h111c6.66699 0 11.667 -1 15 -3s5 -6.33301 5 -13c0 -9.33301 -2.5 -17.333 -7.5 -24s-10.833 -10 -17.5 -10h-70c-18.667 0 -28 -8.66699 -28 -26v-271
c0 -20.667 1 -35.834 3 -45.501s6.66699 -17.667 14 -24s20 -11.5 38 -15.5c12.667 -5.33301 19 -12.666 19 -21.999s-4.83301 -16.166 -14.5 -20.499s-28.834 -6.5 -57.501 -6.5h-108zM386.001 1.50195c-10.667 4.33301 -16.001 11.1689 -16.001 20.502
c0 10 6 17.333 18 22c17.333 4 29.833 9.16699 37.5 15.5s12.334 14.166 14.001 23.499s2.5 24.333 2.5 45v460c0 15.333 -1.16699 26 -3.5 32s-8.5 9.33301 -18.5 10c-13.333 0.666992 -23 2.16699 -29 4.5s-9 6.83301 -9 13.5c0 11.333 11.333 21 34 29l29 10
c14 4.66699 27.667 9 41 13s24.333 6 33 6c11.333 0 19.5 -2.33301 24.5 -7s7.5 -12.334 7.5 -23.001v-547c0 -20.667 0.833008 -35.834 2.5 -45.501s6.33398 -17.667 14.001 -24s20.167 -11.5 37.5 -15.5c13.333 -4.66699 20 -12 20 -22
c0 -9.33301 -4.83301 -16.166 -14.5 -20.499s-29.167 -6.5 -58.5 -6.5l-53 1l-54 -1c-28.667 0 -48.334 2.16699 -59.001 6.5z" />
    <glyph glyph-name=".notdef" horiz-adv-x="509" 
 />
    <glyph glyph-name="space" unicode=" " horiz-adv-x="293" 
 />
    <glyph glyph-name="exclam" unicode="!" horiz-adv-x="249" 
d="M97 214l-15 141.001c-5.33301 44 -10.166 89.167 -14.499 135.5s-7.5 89.5 -9.5 129.5c-0.666992 28 4.5 50.5 15.5 67.5s27.833 25.5 50.5 25.5c23.333 0 40.666 -8.5 51.999 -25.5s16.666 -39.5 15.999 -67.5c-3.33301 -62.667 -11 -146.334 -23 -251.001
c-8 -68 -13.667 -119.667 -17 -155c-5.33301 -16.667 -14.666 -25 -27.999 -25c-12.667 0 -21.667 8.33301 -27 25zM72 8.50098c-13.333 13 -20 29.5 -20 49.5c0 21.333 6.66699 38.833 20 52.5s30.333 20.5 51 20.5c21.333 0 39 -6.83301 53 -20.5s21 -31.167 21 -52.5
c0 -20 -7 -36.5 -21 -49.5s-31.667 -19.5 -53 -19.5c-20.667 0 -37.667 6.5 -51 19.5z" />
    <glyph glyph-name="quotedbl" unicode="&#x22;" horiz-adv-x="283" 
d="M40 521c-7.33301 79.333 -11 129.333 -11 150c0 12.667 2.83301 21.667 8.5 27s15.167 8 28.5 8c24.667 0 37 -11.667 37 -35c0 -20.667 -3.66699 -70.667 -11 -150l-5 -50c-0.666992 -4 -3 -7.33301 -7 -10s-8.66699 -4 -14 -4s-10 1.16699 -14 3.5
s-6.33301 5.83301 -7 10.5zM190 521c-7.33301 79.333 -11 129.333 -11 150c0 12.667 2.83301 21.667 8.5 27s15.167 8 28.5 8c24.667 0 37 -11.667 37 -35c0 -20.667 -3.66699 -70.667 -11 -150l-5 -50c-0.666992 -4 -3 -7.33301 -7 -10s-8.66699 -4 -14 -4
s-10 1.16699 -14 3.5s-6.33301 5.83301 -7 10.5z" />
    <glyph glyph-name="numbersign" unicode="#" horiz-adv-x="666" 
d="M103 9c0 2 0.663086 5.66602 1.99609 10.999l47 182c0.666992 1.33301 1 3 1 5c0 6 -3.66699 9 -11 9h-82c-11.333 0 -19.333 1.5 -24 4.5s-7 8.16699 -7 15.5c0 14.667 3.5 26.334 10.5 35.001s17.167 13 30.5 13h86c6 0 10.333 1.16699 13 3.5s5 6.16602 7 11.499
l28 108c0.666992 1.33301 1 3.33301 1 6c0 3.33301 -1.16699 6 -3.5 8s-5.16602 3 -8.49902 3h-86c-11.333 0 -19.333 1.5 -24 4.5s-7 8.16699 -7 15.5c0 32 13.667 48 41 48h90c12 0 19 5 21 15l46 175c2.66699 10 7 17.167 13 21.5s15.333 6.5 28 6.5
c10.667 0 18 -1.5 22 -4.5s6 -7.83301 6 -14.5c0 -2.66699 -0.666992 -8 -2 -16l-43 -168c-0.666992 -1.33301 -1 -3 -1 -5c0 -6.66699 4 -10 12 -10h125c6 0 10.167 1.33301 12.5 4s4.16602 6.66699 5.49902 12l45 174c2.66699 10 7 17.167 13 21.5s15.667 6.5 29 6.5
c10.667 0 18 -1.5 22 -4.5s6 -7.83301 6 -14.5c0 -2.66699 -0.666992 -8 -2 -16l-44 -165v-5c0 -8.66699 2.66699 -13 8 -13h79c10 0 17.333 -1.5 22 -4.5s7 -8.5 7 -16.5c0 -14.667 -3.33301 -26.167 -10 -34.5s-16 -12.5 -28 -12.5h-84
c-5.33301 0 -9.33301 -1.33301 -12 -4s-4.66699 -6.66699 -6 -12l-28 -108l-1 -5c0 -3.33301 1.33301 -6 4 -8s5.66699 -3 9 -3h80c19.333 0 29 -7 29 -21c0 -14.667 -3.33301 -26.167 -10 -34.5s-16 -12.5 -28 -12.5h-82c-8.66699 0 -15 -1.33301 -19 -4
s-6.66699 -7.33398 -8 -14.001l-46 -181c-2.66699 -10 -7 -17 -13 -21s-15.667 -6 -29 -6c-18.667 0 -28 6.33301 -28 19c0 2 0.666992 5.66699 2 11l46 178l1 5c0 4 -1.16699 7.16699 -3.5 9.5s-5.16602 3.5 -8.49902 3.5h-121c-7.33301 0 -12.666 -1.16699 -15.999 -3.5
s-5.66602 -6.16602 -6.99902 -11.499l-47 -184c-2 -9.33301 -6.16699 -16.166 -12.5 -20.499s-16.166 -6.5 -29.499 -6.5c-18.667 0 -28 6.33301 -28 19zM377.996 283.999c12 0 19 5.33301 21 16l29 107c0.666992 1.33301 1 3.33301 1 6c0 3.33301 -1 6 -3 8s-4 3 -6 3h-125
c-12.667 0 -20 -5 -22 -15l-28 -109c-0.666992 -1.33301 -1 -3 -1 -5c0 -3.33301 1 -6 3 -8s4.66699 -3 8 -3h123z" />
    <glyph glyph-name="dollar" unicode="$" horiz-adv-x="584" 
d="M274 -11c-44 2 -84.8359 11.1699 -122.503 27.5029s-68 39.166 -91 68.499s-34.5 63.666 -34.5 102.999c0 16 4 28.833 12 38.5s19 14.5 33 14.5c13.333 0 25.166 -4.16699 35.499 -12.5s16.833 -21.5 19.5 -39.5c2 -42.667 16.333 -76.5 43 -101.5
s62.334 -37.5 107.001 -37.5c42 0 75.667 11 101 33s38 51.667 38 89s-13.167 67.5 -39.5 90.5s-67.5 42.833 -123.5 59.5c-74.667 23.333 -127.167 51.5 -157.5 84.5s-45.5 75.833 -45.5 128.5c0 32 8.83301 61 26.5 87s43.334 47 77.001 63s74.167 24.667 121.5 26v94
c0 4 2 7.16699 6 9.5s9 3.5 15 3.5c5.33301 0 10 -1.16699 14 -3.5s6 -5.5 6 -9.5v-96c38.667 -4 74.334 -14.333 107.001 -31s58.834 -39 78.501 -67s29.5 -60 29.5 -96c0 -14.667 -3.83301 -26.334 -11.5 -35.001s-18.5 -13 -32.5 -13c-12 0 -22.667 3.33301 -32 10
s-15.666 18.334 -18.999 35.001c-3.33301 42.667 -17.333 76.5 -42 101.5s-58.334 37.5 -101.001 37.5c-34.667 0 -64 -9.16699 -88 -27.5s-36 -42.5 -36 -72.5c0 -32.667 12 -59.5 36 -80.5s64 -39.5 120 -55.5c82 -22.667 140.5 -51.834 175.5 -87.501
s52.5 -79.5 52.5 -131.5c0 -58.667 -21.5 -106.667 -64.5 -144s-100.5 -58.333 -172.5 -63v-111c0 -4 -2 -7.33301 -6 -10s-8.66699 -4 -14 -4c-6 0 -11 1.33301 -15 4s-6 6 -6 10v111z" />
    <glyph glyph-name="percent" unicode="%" horiz-adv-x="925" 
 />
    <glyph glyph-name="ampersand" unicode="&#x26;" horiz-adv-x="659" 
d="M155 19.5c-43.333 20.333 -76.165 47.9961 -98.498 82.9961s-33.5 74.167 -33.5 117.5c0 32 8 62 24 90s37.333 51.833 64 71.5s55.334 33.167 86.001 40.5c6.66699 2 10 4.33301 10 7s-2.66699 5 -8 7c-23.333 8.66699 -43.5 22.834 -60.5 42.501
s-25.5 43.167 -25.5 70.5c0 29.333 7.83301 56.166 23.5 80.499s38.5 43.5 68.5 57.5s65.333 21 106 21c52.667 0 95.667 -11.167 129 -33.5s52.666 -50.166 57.999 -83.499c1.33301 -12 -1 -22.833 -7 -32.5s-15.333 -14.5 -28 -14.5c-10.667 0 -19.667 3 -27 9
s-14.666 18 -21.999 36c-8 20 -19.833 35.167 -35.5 45.5s-36.5 15.5 -62.5 15.5c-30.667 0 -56 -8.66699 -76 -26s-30 -40.333 -30 -69c0 -19.333 5 -36.5 15 -51.5s22.333 -26.667 37 -35s29 -12.833 43 -13.5c11.333 0.666992 19.166 -0.166016 23.499 -2.49902
s6.5 -6.83301 6.5 -13.5c0 -9.33301 -1.66699 -16.333 -5 -21s-11.333 -8.66699 -24 -12c-50 -12 -88.667 -34 -116 -66s-41 -71.667 -41 -119c0 -32.667 7.16699 -62 21.5 -88s34.833 -46.5 61.5 -61.5s57.667 -22.5 93 -22.5c64 0 111.5 20.167 142.5 60.5
s46.5 92.5 46.5 156.5c0 24.667 -3.5 41.334 -10.5 50.001s-20.5 13 -40.5 13c-39.333 0 -58.333 -17 -57 -51c-1.33301 -12.667 -9 -19 -23 -19c-4.66699 0 -8.16699 1.5 -10.5 4.5s-3.83301 8.16699 -4.5 15.5c-0.666992 4 -1 10.333 -1 19c0 30 8.16699 56.167 24.5 78.5
s43.166 33.5 80.499 33.5c13.333 0 33.333 -1.33301 60 -4c22 -3.33301 42.333 -5 61 -5c19.333 0 33.333 4.33301 42 13s13 19.667 13 33c4 16 12 24 24 24c6 0 10.667 -4.16699 14 -12.5s5 -18.166 5 -29.499c-0.666992 -29.333 -8.16699 -51.5 -22.5 -66.5
s-34.166 -23.5 -59.499 -25.5c-16 -2 -24 -5 -24 -9c0 -0.666992 2.66699 -6.66699 8 -18s8 -29.333 8 -54c0 -50 -11.333 -95.167 -34 -135.5s-55.834 -72.333 -99.501 -96s-95.834 -35.5 -156.501 -35.5s-112.667 10.167 -156 30.5z" />
    <glyph glyph-name="quotesingle" unicode="'" horiz-adv-x="206" 
d="M84 521c-7.33301 79.333 -11 129.333 -11 150c0 12.667 2.83301 21.667 8.5 27s15.167 8 28.5 8c24.667 0 37 -11.667 37 -35c0 -20.667 -3.66699 -70.667 -11 -150l-5 -50c-0.666992 -4 -3 -7.33301 -7 -10s-8.66699 -4 -14 -4s-10 1.16699 -14 3.5
s-6.33301 5.83301 -7 10.5z" />
    <glyph glyph-name="parenleft" unicode="(" horiz-adv-x="347" 
d="M337 -151c-3.33301 -3.33301 -7.99902 -5.00293 -13.999 -5.00293c-2.66699 0 -8.66699 1.33301 -18 4c-84 43.333 -151 105 -201 185s-75 168.667 -75 266c0 98 25 187 75 267s117 141.667 201 185c9.33301 2.66699 15.333 4 18 4c6 0 10.667 -1.66699 14 -5
s5 -7.66602 5 -12.999c0 -4 -1.33301 -7.66699 -4 -11s-5.83398 -6.5 -9.50098 -9.5s-7.16699 -6.16699 -10.5 -9.5c-54.667 -41.333 -98 -98.166 -130 -170.499s-48 -151.5 -48 -237.5s16 -165 48 -237s75.333 -129 130 -171c2.66699 -2.66699 6.5 -6 11.5 -10
s8.33301 -7.33301 10 -10s2.5 -5.66699 2.5 -9c0 -5.33301 -1.66699 -9.66602 -5 -12.999z" />
    <glyph glyph-name="parenright" unicode=")" horiz-adv-x="347" 
d="M9.5 -127c3 3.33301 6.33301 6.50293 10 9.50293s6.83398 5.83301 9.50098 8.5c54.667 42 98 99 130 171s48 151 48 237s-16 165.167 -48 237.5s-75.333 129.166 -130 170.499c-3.33301 3.33301 -7.33301 7 -12 11s-7.83398 7.33301 -9.50098 10s-2.5 5.66699 -2.5 9
c0 5.33301 1.66699 9.66602 5 12.999s8 5 14 5c2.66699 0 8.66699 -1.33301 18 -4c84 -43.333 151 -105 201 -185s75 -169 75 -267c0 -97.333 -25 -186 -75 -266s-117 -141.667 -201 -185c-9.33301 -2.66699 -15.333 -4 -18 -4c-6 0 -10.667 1.66699 -14 5
s-5 7.66602 -5 12.999c0 4 1.5 7.66699 4.5 11z" />
    <glyph glyph-name="asterisk" unicode="*" horiz-adv-x="365" 
d="M65 443c0 5.33301 2.6709 11.334 8.00391 18.001c19.333 20 40.666 40.333 63.999 61c6.66699 5.33301 10 9.33301 10 12s-2.33301 4.33398 -7 5.00098c-30.667 4.66699 -61 14 -91 28c-13.333 3.33301 -20 10.333 -20 21c0 4 1 9 3 15
c4.66699 14.667 12.334 22 23.001 22c2 0 5.66699 -0.666992 11 -2c20.667 -8.66699 47 -22 79 -40c6.66699 -4.66699 11.334 -7 14.001 -7c1.33301 0 2.16602 1.16699 2.49902 3.5s0.166016 4.83301 -0.500977 7.5c-5.33301 34 -8 65.667 -8 95c0 18.667 10 28 30 28
c10 0 17.333 -2.16699 22 -6.5s7 -11.5 7 -21.5c0 -34.667 -2.66699 -66.334 -8 -95.001c-0.666992 -1.33301 -1 -3.33301 -1 -6s1 -4 3 -4c3.33301 0 8.33301 2 15 6c21.333 14 47.333 27.333 78 40c5.33301 1.33301 9 2 11 2c11.333 0 19 -7.33301 23 -22
c2 -4.66699 3 -9.33398 3 -14.001c0 -10.667 -6.66699 -18 -20 -22c-31.333 -13.333 -60.333 -22 -87 -26c-6.66699 -0.666992 -10 -3 -10 -7c0 -3.33301 2 -6.66602 6 -9.99902c18 -14 40.333 -35 67 -63c5.33301 -6.66699 8 -12.667 8 -18
c0 -7.33301 -4.66699 -14.666 -14 -21.999c-8.66699 -5.33301 -15.334 -8 -20.001 -8c-6 0 -12.667 4 -20 12c-12.667 13.333 -31 38 -55 74c-2.66699 4.66699 -5.33398 7 -8.00098 7s-5.33398 -2.33301 -8.00098 -7c-25.333 -36.667 -43.666 -61.334 -54.999 -74.001
c-7.33301 -8 -14.333 -12 -21 -12c-4.66699 0 -11.334 2.66699 -20.001 8c-9.33301 7.33301 -14 14.666 -14 21.999z" />
    <glyph glyph-name="plus" unicode="+" horiz-adv-x="435" 
d="M196 76c-7.33301 6.66699 -11 17.999 -11 33.999v99c0 8.66699 -4.66699 13 -14 13h-105c-12.667 0 -22 2 -28 6s-9 11.667 -9 23c0 12.667 3.5 22 10.5 28s18.167 9 33.5 9h97c10 0 15 4.66699 15 14v106c0 12 3.66699 20.833 11 26.5s16 8.5 26 8.5
c11.333 0 19 -3.16699 23 -9.5s6 -14.833 6 -25.5v-106c0 -4 1 -7.33301 3 -10s4.66699 -4 8 -4h109c12 0 20.833 -3.66699 26.5 -11s8.5 -15.666 8.5 -24.999c0 -20 -11.667 -30 -35 -30h-109c-7.33301 0 -11 -3.66699 -11 -11v-108c0 -12 -2 -21.167 -6 -27.5
s-11.667 -9.5 -23 -9.5c-10 0 -18.667 3.33301 -26 10z" />
    <glyph glyph-name="comma" unicode="," horiz-adv-x="212" 
d="M39.5 -104.5c-3.66699 3.66699 -5.5 7.8291 -5.5 12.4961c0 6.66699 4 11.667 12 15c14.667 6.66699 27.5 14.834 38.5 24.501s16.5 20.5 16.5 32.5c0 10 -6.66699 16 -20 18c-14.667 2.66699 -27 9.33398 -37 20.001s-15 25.334 -15 44.001
c0 20 7.16699 36.833 21.5 50.5s32.5 20.5 54.5 20.5c24.667 0 43.834 -8.16699 57.501 -24.5s20.5 -39.166 20.5 -68.499c0 -32 -7.33301 -59.333 -22 -82s-32.334 -39.667 -53.001 -51s-39 -17 -55 -17c-5.33301 0 -9.83301 1.83301 -13.5 5.5z" />
    <glyph glyph-name="hyphen" unicode="-" horiz-adv-x="327" 
d="M57 214c-9.33301 0 -16.332 1.5 -20.999 4.5s-7 8.16699 -7 15.5c0 13.333 3.16699 24.333 9.5 33s15.166 13 26.499 13h207c17.333 0 26 -6.66699 26 -20s-3 -24.333 -9 -33s-14.667 -13 -26 -13h-206z" />
    <glyph glyph-name="period" unicode="." horiz-adv-x="245" 
d="M67 7c-12 12 -18 27.333 -18 46c0 22.667 7.5 41.667 22.5 57s33.5 23 55.5 23c20.667 0 37.334 -6.33301 50.001 -19s19 -29 19 -49c0 -22 -7.83301 -40.167 -23.5 -54.5s-34.834 -21.5 -57.501 -21.5c-20 0 -36 6 -48 18z" />
    <glyph glyph-name="slash" unicode="/" horiz-adv-x="536" 
d="M129 -133c-8 -18 -15.667 -30.332 -23 -36.999s-20.333 -10 -39 -10c-25.333 0 -38 7 -38 21c0 6 3 15.667 9 29l370 801c6 13.333 10.833 22.833 14.5 28.5s9 10 16 13s17.167 4.5 30.5 4.5c25.333 0 38 -7 38 -21c0 -4.66699 -3 -14.334 -9 -29.001z" />
    <glyph glyph-name="zero" unicode="0" horiz-adv-x="635" 
d="M462.5 28.5c44.333 26.333 79.333 61.835 105 106.502s38.5 93.334 38.5 146.001c0 53.333 -13.333 102 -40 146s-62 78.833 -106 104.5s-91.333 38.5 -142 38.5c-54 0 -103.167 -13.333 -147.5 -40s-79 -62.334 -104 -107.001s-37.5 -92.667 -37.5 -144
c0 -50.667 12.833 -98.334 38.5 -143.001s60.5 -80.334 104.5 -107.001s92.333 -40 145 -40s101.167 13.167 145.5 39.5zM142 475.002c24 20.667 51.166 36.833 81.499 48.5s61.833 17.5 94.5 17.5c32 0 62.833 -6 92.5 -18s55.834 -28 78.501 -48h-347zM510.999 454.001
c44 -52.667 66 -111.001 66 -175.001c0 -30.667 -5.16699 -60.167 -15.5 -88.5s-24.833 -54.166 -43.5 -77.499h-346zM121.999 104c-20.667 24 -36.666 50.999 -47.999 80.999s-17 61.333 -17 94c1.33301 64.667 20.666 120.334 57.999 167.001h346zM143 83.999h349
c-24.667 -20 -51.834 -35.833 -81.501 -47.5s-60.5 -17.5 -92.5 -17.5c-63.333 0 -121.666 21.667 -174.999 65z" />
    <glyph glyph-name="one" unicode="1" horiz-adv-x="635" 
d="M462.5 28.5c44.333 26.333 79.333 61.835 105 106.502s38.5 93.334 38.5 146.001c0 53.333 -13.333 102 -40 146s-62 78.833 -106 104.5s-91.333 38.5 -142 38.5c-54 0 -103.167 -13.333 -147.5 -40s-79 -62.334 -104 -107.001s-37.5 -92.667 -37.5 -144
c0 -50.667 12.833 -98.334 38.5 -143.001s60.5 -80.334 104.5 -107.001s92.333 -40 145 -40s101.167 13.167 145.5 39.5zM142 475.002c24 20.667 51.166 36.833 81.499 48.5s61.833 17.5 94.5 17.5c32 0 62.833 -6 92.5 -18s55.834 -28 78.501 -48h-347zM510.999 454.001
c44 -52.667 66 -111.001 66 -175.001c0 -30.667 -5.16699 -60.167 -15.5 -88.5s-24.833 -54.166 -43.5 -77.499h-346zM121.999 104c-20.667 24 -36.666 50.999 -47.999 80.999s-17 61.333 -17 94c1.33301 64.667 20.666 120.334 57.999 167.001h346zM143 83.999h349
c-24.667 -20 -51.834 -35.833 -81.501 -47.5s-60.5 -17.5 -92.5 -17.5c-63.333 0 -121.666 21.667 -174.999 65z" />
    <glyph glyph-name="two" unicode="2" horiz-adv-x="635" 
d="M462.5 28.5c44.333 26.333 79.333 61.835 105 106.502s38.5 93.334 38.5 146.001c0 53.333 -13.333 102 -40 146s-62 78.833 -106 104.5s-91.333 38.5 -142 38.5c-54 0 -103.167 -13.333 -147.5 -40s-79 -62.334 -104 -107.001s-37.5 -92.667 -37.5 -144
c0 -50.667 12.833 -98.334 38.5 -143.001s60.5 -80.334 104.5 -107.001s92.333 -40 145 -40s101.167 13.167 145.5 39.5zM142 475.002c24 20.667 51.166 36.833 81.499 48.5s61.833 17.5 94.5 17.5c32 0 62.833 -6 92.5 -18s55.834 -28 78.501 -48h-347zM510.999 454.001
c44 -52.667 66 -111.001 66 -175.001c0 -30.667 -5.16699 -60.167 -15.5 -88.5s-24.833 -54.166 -43.5 -77.499h-346zM121.999 104c-20.667 24 -36.666 50.999 -47.999 80.999s-17 61.333 -17 94c1.33301 64.667 20.666 120.334 57.999 167.001h346zM143 83.999h349
c-24.667 -20 -51.834 -35.833 -81.501 -47.5s-60.5 -17.5 -92.5 -17.5c-63.333 0 -121.666 21.667 -174.999 65z" />
    <glyph glyph-name="three" unicode="3" horiz-adv-x="635" 
d="M462.5 28.5c44.333 26.333 79.333 61.835 105 106.502s38.5 93.334 38.5 146.001c0 53.333 -13.333 102 -40 146s-62 78.833 -106 104.5s-91.333 38.5 -142 38.5c-54 0 -103.167 -13.333 -147.5 -40s-79 -62.334 -104 -107.001s-37.5 -92.667 -37.5 -144
c0 -50.667 12.833 -98.334 38.5 -143.001s60.5 -80.334 104.5 -107.001s92.333 -40 145 -40s101.167 13.167 145.5 39.5zM142 475.002c24 20.667 51.166 36.833 81.499 48.5s61.833 17.5 94.5 17.5c32 0 62.833 -6 92.5 -18s55.834 -28 78.501 -48h-347zM510.999 454.001
c44 -52.667 66 -111.001 66 -175.001c0 -30.667 -5.16699 -60.167 -15.5 -88.5s-24.833 -54.166 -43.5 -77.499h-346zM121.999 104c-20.667 24 -36.666 50.999 -47.999 80.999s-17 61.333 -17 94c1.33301 64.667 20.666 120.334 57.999 167.001h346zM143 83.999h349
c-24.667 -20 -51.834 -35.833 -81.501 -47.5s-60.5 -17.5 -92.5 -17.5c-63.333 0 -121.666 21.667 -174.999 65z" />
    <glyph glyph-name="four" unicode="4" horiz-adv-x="635" 
d="M462.5 28.5c44.333 26.333 79.333 61.835 105 106.502s38.5 93.334 38.5 146.001c0 53.333 -13.333 102 -40 146s-62 78.833 -106 104.5s-91.333 38.5 -142 38.5c-54 0 -103.167 -13.333 -147.5 -40s-79 -62.334 -104 -107.001s-37.5 -92.667 -37.5 -144
c0 -50.667 12.833 -98.334 38.5 -143.001s60.5 -80.334 104.5 -107.001s92.333 -40 145 -40s101.167 13.167 145.5 39.5zM142 475.002c24 20.667 51.166 36.833 81.499 48.5s61.833 17.5 94.5 17.5c32 0 62.833 -6 92.5 -18s55.834 -28 78.501 -48h-347zM510.999 454.001
c44 -52.667 66 -111.001 66 -175.001c0 -30.667 -5.16699 -60.167 -15.5 -88.5s-24.833 -54.166 -43.5 -77.499h-346zM121.999 104c-20.667 24 -36.666 50.999 -47.999 80.999s-17 61.333 -17 94c1.33301 64.667 20.666 120.334 57.999 167.001h346zM143 83.999h349
c-24.667 -20 -51.834 -35.833 -81.501 -47.5s-60.5 -17.5 -92.5 -17.5c-63.333 0 -121.666 21.667 -174.999 65z" />
    <glyph glyph-name="five" unicode="5" horiz-adv-x="635" 
d="M462.5 28.5c44.333 26.333 79.333 61.835 105 106.502s38.5 93.334 38.5 146.001c0 53.333 -13.333 102 -40 146s-62 78.833 -106 104.5s-91.333 38.5 -142 38.5c-54 0 -103.167 -13.333 -147.5 -40s-79 -62.334 -104 -107.001s-37.5 -92.667 -37.5 -144
c0 -50.667 12.833 -98.334 38.5 -143.001s60.5 -80.334 104.5 -107.001s92.333 -40 145 -40s101.167 13.167 145.5 39.5zM142 475.002c24 20.667 51.166 36.833 81.499 48.5s61.833 17.5 94.5 17.5c32 0 62.833 -6 92.5 -18s55.834 -28 78.501 -48h-347zM510.999 454.001
c44 -52.667 66 -111.001 66 -175.001c0 -30.667 -5.16699 -60.167 -15.5 -88.5s-24.833 -54.166 -43.5 -77.499h-346zM121.999 104c-20.667 24 -36.666 50.999 -47.999 80.999s-17 61.333 -17 94c1.33301 64.667 20.666 120.334 57.999 167.001h346zM143 83.999h349
c-24.667 -20 -51.834 -35.833 -81.501 -47.5s-60.5 -17.5 -92.5 -17.5c-63.333 0 -121.666 21.667 -174.999 65z" />
    <glyph glyph-name="six" unicode="6" horiz-adv-x="635" 
d="M462.5 28.5c44.333 26.333 79.333 61.835 105 106.502s38.5 93.334 38.5 146.001c0 53.333 -13.333 102 -40 146s-62 78.833 -106 104.5s-91.333 38.5 -142 38.5c-54 0 -103.167 -13.333 -147.5 -40s-79 -62.334 -104 -107.001s-37.5 -92.667 -37.5 -144
c0 -50.667 12.833 -98.334 38.5 -143.001s60.5 -80.334 104.5 -107.001s92.333 -40 145 -40s101.167 13.167 145.5 39.5zM142 475.002c24 20.667 51.166 36.833 81.499 48.5s61.833 17.5 94.5 17.5c32 0 62.833 -6 92.5 -18s55.834 -28 78.501 -48h-347zM510.999 454.001
c44 -52.667 66 -111.001 66 -175.001c0 -30.667 -5.16699 -60.167 -15.5 -88.5s-24.833 -54.166 -43.5 -77.499h-346zM121.999 104c-20.667 24 -36.666 50.999 -47.999 80.999s-17 61.333 -17 94c1.33301 64.667 20.666 120.334 57.999 167.001h346zM143 83.999h349
c-24.667 -20 -51.834 -35.833 -81.501 -47.5s-60.5 -17.5 -92.5 -17.5c-63.333 0 -121.666 21.667 -174.999 65z" />
    <glyph glyph-name="seven" unicode="7" horiz-adv-x="635" 
d="M462.5 28.5c44.333 26.333 79.333 61.835 105 106.502s38.5 93.334 38.5 146.001c0 53.333 -13.333 102 -40 146s-62 78.833 -106 104.5s-91.333 38.5 -142 38.5c-54 0 -103.167 -13.333 -147.5 -40s-79 -62.334 -104 -107.001s-37.5 -92.667 -37.5 -144
c0 -50.667 12.833 -98.334 38.5 -143.001s60.5 -80.334 104.5 -107.001s92.333 -40 145 -40s101.167 13.167 145.5 39.5zM142 475.002c24 20.667 51.166 36.833 81.499 48.5s61.833 17.5 94.5 17.5c32 0 62.833 -6 92.5 -18s55.834 -28 78.501 -48h-347zM510.999 454.001
c44 -52.667 66 -111.001 66 -175.001c0 -30.667 -5.16699 -60.167 -15.5 -88.5s-24.833 -54.166 -43.5 -77.499h-346zM121.999 104c-20.667 24 -36.666 50.999 -47.999 80.999s-17 61.333 -17 94c1.33301 64.667 20.666 120.334 57.999 167.001h346zM143 83.999h349
c-24.667 -20 -51.834 -35.833 -81.501 -47.5s-60.5 -17.5 -92.5 -17.5c-63.333 0 -121.666 21.667 -174.999 65z" />
    <glyph glyph-name="eight" unicode="8" horiz-adv-x="635" 
d="M462.5 28.5c44.333 26.333 79.333 61.835 105 106.502s38.5 93.334 38.5 146.001c0 53.333 -13.333 102 -40 146s-62 78.833 -106 104.5s-91.333 38.5 -142 38.5c-54 0 -103.167 -13.333 -147.5 -40s-79 -62.334 -104 -107.001s-37.5 -92.667 -37.5 -144
c0 -50.667 12.833 -98.334 38.5 -143.001s60.5 -80.334 104.5 -107.001s92.333 -40 145 -40s101.167 13.167 145.5 39.5zM142 475.002c24 20.667 51.166 36.833 81.499 48.5s61.833 17.5 94.5 17.5c32 0 62.833 -6 92.5 -18s55.834 -28 78.501 -48h-347zM510.999 454.001
c44 -52.667 66 -111.001 66 -175.001c0 -30.667 -5.16699 -60.167 -15.5 -88.5s-24.833 -54.166 -43.5 -77.499h-346zM121.999 104c-20.667 24 -36.666 50.999 -47.999 80.999s-17 61.333 -17 94c1.33301 64.667 20.666 120.334 57.999 167.001h346zM143 83.999h349
c-24.667 -20 -51.834 -35.833 -81.501 -47.5s-60.5 -17.5 -92.5 -17.5c-63.333 0 -121.666 21.667 -174.999 65z" />
    <glyph glyph-name="nine" unicode="9" horiz-adv-x="635" 
d="M462.5 28.5c44.333 26.333 79.333 61.835 105 106.502s38.5 93.334 38.5 146.001c0 53.333 -13.333 102 -40 146s-62 78.833 -106 104.5s-91.333 38.5 -142 38.5c-54 0 -103.167 -13.333 -147.5 -40s-79 -62.334 -104 -107.001s-37.5 -92.667 -37.5 -144
c0 -50.667 12.833 -98.334 38.5 -143.001s60.5 -80.334 104.5 -107.001s92.333 -40 145 -40s101.167 13.167 145.5 39.5zM142 475.002c24 20.667 51.166 36.833 81.499 48.5s61.833 17.5 94.5 17.5c32 0 62.833 -6 92.5 -18s55.834 -28 78.501 -48h-347zM510.999 454.001
c44 -52.667 66 -111.001 66 -175.001c0 -30.667 -5.16699 -60.167 -15.5 -88.5s-24.833 -54.166 -43.5 -77.499h-346zM121.999 104c-20.667 24 -36.666 50.999 -47.999 80.999s-17 61.333 -17 94c1.33301 64.667 20.666 120.334 57.999 167.001h346zM143 83.999h349
c-24.667 -20 -51.834 -35.833 -81.501 -47.5s-60.5 -17.5 -92.5 -17.5c-63.333 0 -121.666 21.667 -174.999 65z" />
    <glyph glyph-name="colon" unicode=":" horiz-adv-x="245" 
d="M67 7c-12 12 -18 27.333 -18 46c0 22.667 7.5 41.667 22.5 57s33.5 23 55.5 23c20.667 0 37.334 -6.33301 50.001 -19s19 -29 19 -49c0 -22 -7.83301 -40.167 -23.5 -54.5s-34.834 -21.5 -57.501 -21.5c-20 0 -36 6 -48 18zM67 361c-12 12 -18 27.333 -18 46
c0 22.667 7.5 41.667 22.5 57s33.5 23 55.5 23c20.667 0 37.334 -6.33301 50.001 -19s19 -29 19 -49c0 -22 -7.83301 -40.167 -23.5 -54.5s-34.834 -21.5 -57.501 -21.5c-20 0 -36 6 -48 18z" />
    <glyph glyph-name="semicolon" unicode=";" horiz-adv-x="247" 
d="M67 360c-12 12 -18 27.667 -18 47c0 22.667 7.5 41.667 22.5 57s33.5 23 55.5 23c20.667 0 37.334 -6.33301 50.001 -19s19 -29 19 -49c0 -22 -7.83301 -40.333 -23.5 -55s-34.834 -22 -57.501 -22c-20 0 -36 6 -48 18zM61 -96c-3.33301 3.33301 -5 7.33398 -5 12.001
c0 6 3.66699 11 11 15c14 5.33301 26.167 12.666 36.5 21.999s15.5 20 15.5 32c0 9.33301 -6.33301 15 -19 17c-14 2.66699 -25.667 9 -35 19s-14 24 -14 42c0 19.333 6.83301 35.5 20.5 48.5s30.834 19.5 51.501 19.5c23.333 0 41.666 -7.83301 54.999 -23.5
s20 -37.5 20 -65.5c0 -30 -7 -55.833 -21 -77.5s-30.833 -38 -50.5 -49s-37.5 -16.5 -53.5 -16.5c-4.66699 0 -8.66699 1.66699 -12 5z" />
    <glyph glyph-name="less" unicode="&#x3c;" horiz-adv-x="473" 
d="M420 60c-2.66699 0 -7.99902 0.666992 -15.999 2c-40.667 8.66699 -90.334 24.334 -149.001 47.001s-110.334 45 -155.001 67c-26 12 -44.333 24.167 -55 36.5s-16 25.833 -16 40.5c0 15.333 5.5 29 16.5 41s29.167 24 54.5 36c46.667 22.667 99 45.167 157 67.5
s107 38.166 147 47.499c6.66699 1.33301 11.334 2 14.001 2c17.333 0 26 -9.66699 26 -29c0 -12 -2.83301 -21 -8.5 -27s-15.834 -11.667 -30.501 -17c-24 -7.33301 -67.333 -23.666 -130 -48.999s-106.667 -44.333 -132 -57c-2 -0.666992 -4.66699 -2 -8 -4
s-5.5 -3.83301 -6.5 -5.5s-1.5 -3.83398 -1.5 -6.50098c0 -4 5.33301 -9 16 -15l139 -58c58.667 -24 99.667 -39.667 123 -47c14.667 -5.33301 24.834 -11 30.501 -17s8.5 -15 8.5 -27c0 -18.667 -8 -28 -24 -28z" />
    <glyph glyph-name="equal" unicode="=" horiz-adv-x="450" 
d="M71 288c-14 0 -24.499 1.5 -31.499 4.5s-10.5 8.16699 -10.5 15.5c0 13.333 4.66699 24.333 14 33s22.666 13 39.999 13h297c27.333 0 41 -6.66699 41 -20s-4.66699 -24.333 -14 -33s-22.333 -13 -39 -13h-297zM71.001 146c-14 0 -24.499 1.5 -31.499 4.5
s-10.5 8.16699 -10.5 15.5c0 13.333 4.66699 24.333 14 33s22.666 13 39.999 13h297c27.333 0 41 -6.66699 41 -20s-4.66699 -24.333 -14 -33s-22.333 -13 -39 -13h-297z" />
    <glyph glyph-name="greater" unicode="&#x3e;" horiz-adv-x="473" 
d="M37.5 115c5.66699 6 15.835 11.666 30.502 16.999c23.333 7.33301 64.333 23 123 47l139 58c10.667 6 16 11 16 15c0 3.33301 -0.666992 5.83301 -2 7.5s-3.5 3.33398 -6.5 5.00098s-5.5 2.83398 -7.5 3.50098c-25.333 12.667 -69.333 31.667 -132 57
s-106 41.666 -130 48.999c-14.667 5.33301 -24.834 11 -30.501 17s-8.5 15 -8.5 27c0 19.333 8.66699 29 26 29c2.66699 0 7.33398 -0.666992 14.001 -2c40 -9.33301 89 -25.166 147 -47.499s110.333 -44.833 157 -67.5c25.333 -12 43.5 -24 54.5 -36s16.5 -25.667 16.5 -41
c0 -14.667 -5.33301 -28.167 -16 -40.5s-29 -24.5 -55 -36.5c-44.667 -22 -96.334 -44.333 -155.001 -67s-108.334 -38.334 -149.001 -47.001c-8 -1.33301 -13.333 -2 -16 -2c-16 0 -24 9.33301 -24 28c0 12 2.83301 21 8.5 27z" />
    <glyph glyph-name="question" unicode="?" horiz-adv-x="500" 
d="M209 216c0 38 7.83203 69.167 23.499 93.5s38.5 49.833 68.5 76.5c26.667 24.667 46.334 46.334 59.001 65.001s19 41.667 19 69c0 41.333 -10.833 73.666 -32.5 96.999s-50.167 35 -85.5 35c-38.667 0 -70.5 -12.5 -95.5 -37.5s-37.5 -56.167 -37.5 -93.5
c0 -20 -4.66699 -35.333 -14 -46s-21.666 -16 -36.999 -16c-14.667 0 -26.834 5.16699 -36.501 15.5s-14.5 24.166 -14.5 41.499c0 35.333 10.167 67.833 30.5 97.5s48.5 53.334 84.5 71.001s76.667 26.5 122 26.5c64 0 116.5 -16.167 157.5 -48.5s61.5 -75.833 61.5 -130.5
c0 -27.333 -4.83301 -51 -14.5 -71s-21.667 -37 -36 -51s-33.5 -30.333 -57.5 -49c-32 -24 -56.833 -46.333 -74.5 -67s-29.5 -46.667 -35.5 -78c-8.66699 -18 -19 -27 -31 -27c-16 0 -24 9 -24 27zM185.999 8.5c-13.333 13 -20 29.5 -20 49.5
c0 21.333 6.66699 38.833 20 52.5s30.333 20.5 51 20.5c21.333 0 39 -6.83301 53 -20.5s21 -31.167 21 -52.5c0 -20 -7 -36.5 -21 -49.5s-31.667 -19.5 -53 -19.5c-20.667 0 -37.667 6.5 -51 19.5z" />
    <glyph glyph-name="at" unicode="@" horiz-adv-x="705" 
d="M400 71c-12.667 -24 -28.833 -42.835 -48.5 -56.502s-42.167 -20.5 -67.5 -20.5c-32 0 -58.167 11 -78.5 33s-30.5 51.333 -30.5 88s7.5 71.834 22.5 105.501s36 60.834 63 81.501s57.833 31 92.5 31c22.667 0 42 -4.83301 58 -14.5s27.667 -23.167 35 -40.5l6 28
c1.33301 9.33301 8.33301 16.166 21 20.499s26.667 6.5 42 6.5c12 0 16.667 -5 14 -15l-49 -212c-3.33301 -14.667 -5 -26 -5 -34c0 -10.667 2.5 -18.667 7.5 -24s13.833 -8 26.5 -8c22 0 43 8.83301 63 26.5s36.167 41.334 48.5 71.001s18.5 62.167 18.5 97.5
c0 38 -10.167 73.333 -30.5 106s-49.833 59 -88.5 79s-84 30 -136 30c-62 0 -117.167 -14.167 -165.5 -42.5s-85.666 -66.5 -111.999 -114.5s-39.5 -100 -39.5 -156c0 -50.667 11.667 -96.167 35 -136.5s55.666 -71.833 96.999 -94.5s88 -34 140 -34
c48.667 0 90.834 7.33301 126.501 22s65.5 33 89.5 55c6 5.33301 12.667 8 20 8c6.66699 0 11.834 -1.16699 15.501 -3.5s5.5 -5.5 5.5 -9.5c0 -2 -1.33301 -5 -4 -9c-26 -28 -61.333 -51.5 -106 -70.5s-94 -28.5 -148 -28.5c-59.333 0 -112.333 12.5 -159 37.5
s-83.334 59.833 -110.001 104.5s-40 95.667 -40 153c0 64.667 14.833 124.167 44.5 178.5s71.667 97.333 126 129s117.166 47.5 188.499 47.5c54 0 103 -10.833 147 -32.5s78.5 -51.5 103.5 -89.5s37.5 -80.333 37.5 -127c0 -46 -9.16699 -87.5 -27.5 -124.5
s-42.5 -66 -72.5 -87s-61.667 -31.5 -95 -31.5c-56 0 -83 25.667 -81 77zM375.001 72.498c15.333 18.333 27.333 40.833 36 67.5s13 51 13 73c0 21.333 -5.83301 39.5 -17.5 54.5s-26.5 22.5 -44.5 22.5c-20.667 0 -38.834 -8 -54.501 -24s-27.667 -36.167 -36 -60.5
s-12.5 -48.5 -12.5 -72.5c0 -24.667 5.83301 -45.5 17.5 -62.5s26.834 -25.5 45.501 -25.5c20 0 37.667 9.16699 53 27.5z" />
    <glyph glyph-name="A" unicode="A" 
d="M5 23c0 6 3.00391 11.5 9.00391 16.5s13 8.83301 21 11.5c23.333 3.33301 39.666 9.5 48.999 18.5s18.666 26.167 27.999 51.5l190 491c2 5.33301 3 10.333 3 15c0 14.667 -7.66699 24 -23 28c-12.667 4.66699 -19 13 -19 25c0 6 2.5 11.333 7.5 16s13.167 7 24.5 7h62
c28 0 48 -5.33301 60 -16s22 -26 30 -46l204 -528c8 -20.667 15.833 -34.5 23.5 -41.5s22.167 -12.167 43.5 -15.5c15.333 -5.33301 23 -15.333 23 -30c0 -18 -13.667 -27 -41 -27l-88 1l-90 -1c-23.333 0 -39.833 1.5 -49.5 4.5s-14.5 9.83301 -14.5 20.5
c0 9.33301 5.66699 16 17 20c20 4 34 8.16699 42 12.5s12 11.166 12 20.499c0 6.66699 -2.66699 17 -8 31l-27 74c-8.66699 21.333 -22.667 32 -42 32h-207c-14.667 0 -24.834 -1.66699 -30.501 -5s-10.834 -10.666 -15.501 -21.999l-27 -72c-6 -16 -9 -28.667 -9 -38
s3.83301 -16.333 11.5 -21s20.5 -8 38.5 -10c18 -3.33301 27 -11.333 27 -24c0 -15.333 -13 -23 -39 -23h-162c-22.667 -0.666992 -34 7.33301 -34 24zM434.004 269c16 0 24 5 24 15c0 2 -0.666992 5 -2 9l-98 270c-2 7.33301 -5.33301 11 -10 11
c-4 0 -7.33301 -3.66699 -10 -11l-58 -157l-43 -115l-2 -8c0 -9.33301 9.66699 -14 29 -14h170z" />
    <glyph glyph-name="B" unicode="B" horiz-adv-x="657" 
d="M40.5 5c-6.33301 3.33301 -9.50098 9.99805 -9.50098 19.998c0 6 2.33301 11.5 7 16.5s10.334 8.83301 17.001 11.5c18.667 5.33301 32.167 10.833 40.5 16.5s13.833 12.834 16.5 21.501s4 21.667 4 39v439c0 18.667 -1.5 32.334 -4.5 41.001s-8.5 15.5 -16.5 20.5
s-21.667 10.5 -41 16.5c-6.66699 2.66699 -12.167 6.5 -16.5 11.5s-6.5 10.5 -6.5 16.5c0 10 3 16.667 9 20s17 5 33 5l125 2l141 2c78.667 0 137 -14.333 175 -43s57 -66 57 -112c0 -40.667 -8.5 -72 -25.5 -94s-37.5 -39.333 -61.5 -52c-4.66699 -2 -7 -4.33301 -7 -7
c0 -3.33301 2.66699 -6 8 -8c37.333 -10 70.666 -30 99.999 -60s44 -71 44 -123c0 -65.333 -24.167 -116.5 -72.5 -153.5s-120.166 -55.5 -215.499 -55.5c-36 0 -88 0.666992 -156 2c-57.333 1.33301 -94.333 2 -111 2c-16 0 -27.167 1.66699 -33.5 5zM325.999 409.998
c38.667 0 69.833 11.168 93.5 33.501s35.5 53.166 35.5 92.499c0 36.667 -11.5 65.5 -34.5 86.5s-53.167 31.5 -90.5 31.5h-72c-12.667 0 -21.5 -3 -26.5 -9s-7.5 -16.333 -7.5 -31v-170c0 -13.333 2 -22.333 6 -27s13 -7 27 -7h69zM331.998 53.999
c50.667 0 91.999 13.832 123.999 41.499s48 67.167 48 118.5c0 47.333 -14.5 83.5 -43.5 108.5s-68.833 37.5 -119.5 37.5h-73c-16 0 -27.333 -2.66699 -34 -8s-10 -13.666 -10 -24.999v-215c0 -19.333 3.83301 -33.833 11.5 -43.5s19.834 -14.5 36.501 -14.5h60z" />
    <glyph glyph-name="C" unicode="C" horiz-adv-x="650" 
d="M189 35c-49.333 30.667 -88.334 74 -117.001 130s-43 120 -43 192c0 66 13.667 126 41 180s65.166 96.5 113.499 127.5s102.833 46.5 163.5 46.5c33.333 0 65.5 -4.83301 96.5 -14.5s58.833 -23.5 83.5 -41.5c8.66699 -6.66699 20.334 -17.334 35.001 -32.001
c13.333 -15.333 24 -30.666 32 -45.999c12 -20 18 -43 18 -69c0 -18 -5 -33 -15 -45s-25 -18 -45 -18c-15.333 0 -28.833 4.83301 -40.5 14.5s-22.5 27.834 -32.5 54.501c-2 39.333 -16.167 72 -42.5 98s-60.5 39 -102.5 39c-34.667 0 -65.667 -10 -93 -30
s-48.666 -48 -63.999 -84s-23 -77 -23 -123c0 -60.667 9 -115.667 27 -165s44.667 -88.333 80 -117s78.333 -43 129 -43c52 0 94.667 12.167 128 36.5s54.333 55.833 63 94.5c2 4.66699 5 8.16699 9 10.5s8 3.5 12 3.5c6.66699 0 12.5 -2.33301 17.5 -7s7.16699 -11 6.5 -19
c-2.66699 -35.333 -14.834 -69.833 -36.501 -103.5s-52.667 -61.334 -93 -83.001s-88.166 -32.5 -143.499 -32.5c-60 0 -114.667 15.333 -164 46z" />
    <glyph glyph-name="D" unicode="D" horiz-adv-x="722" 
d="M177 -2c-49.333 1.33301 -83.667 1.99805 -103 1.99805c-16 0 -27.167 1.66699 -33.5 5s-9.5 10 -9.5 20c0 6 2.33301 11.5 7 16.5s10.334 8.83301 17.001 11.5c19.333 6 33 11.833 41 17.5s13.333 13.334 16 23.001s4 24.167 4 43.5v426
c0 19.333 -1.33301 33.833 -4 43.5s-8 17.334 -16 23.001s-21.667 11.5 -41 17.5c-6.66699 2.66699 -12.334 6.5 -17.001 11.5s-7 10.5 -7 16.5c0 10 3.16699 16.667 9.5 20s17.5 5 33.5 5c40.667 0 78 1 112 3c37.333 1.33301 64.333 2 81 2c85.333 0 160 -14 224 -42
s113.5 -69.333 148.5 -124s52.5 -120.667 52.5 -198c0 -112 -34.333 -197.667 -103 -257s-164.667 -89 -288 -89c-42.667 0 -84 1 -124 3zM503.499 129.998c43 51.333 64.5 123.332 64.5 215.999c0 64 -12.5 118.833 -37.5 164.5s-60 80.334 -105 104.001
s-96.833 35.5 -155.5 35.5c-15.333 0 -25.833 -2.66699 -31.5 -8s-8.5 -15.666 -8.5 -30.999v-513c0 -18.667 6.33301 -30.834 19 -36.501s35 -8.5 67 -8.5c82 0 144.5 25.667 187.5 77z" />
    <glyph glyph-name="E" unicode="E" horiz-adv-x="645" 
d="M612 221.5c4 -4.33301 6 -11.8369 6 -22.5039c0 -9.33301 -2 -23.666 -6 -42.999s-9 -41 -15 -65c-8 -32 -15 -55.833 -21 -71.5s-11.667 -26 -17 -31s-12 -7.5 -20 -7.5c-7.33301 0 -14.666 2.33301 -21.999 7c-6.66699 4 -13.667 7 -21 9s-18.333 3 -33 3h-389
c-16 0 -27.167 1.66699 -33.5 5s-9.5 10 -9.5 20c0 6 2.33301 11.5 7 16.5s10.334 8.83301 17.001 11.5c19.333 6 33 11.833 41 17.5s13.333 13.334 16 23.001s4 24.167 4 43.5v426c0 19.333 -1.33301 33.833 -4 43.5s-8 17.334 -16 23.001s-21.667 11.5 -41 17.5
c-16 6.66699 -24 16 -24 28c0 8.66699 2.83301 15.167 8.5 19.5s15.834 6.5 30.501 6.5h29c14 0 43 -0.166992 87 -0.5s124 -0.5 240 -0.5c14.667 0 25.667 1 33 3s14.333 5 21 9c8 4.66699 15.667 7 23 7s13.5 -2.5 18.5 -7.5s10.667 -15.333 17 -31s13.5 -39.5 21.5 -71.5
c14 -54 21 -90 21 -108c0 -10.667 -2 -18.167 -6 -22.5s-10 -6.5 -18 -6.5c-14.667 0 -26.334 9.66699 -35.001 29c-16 48 -28 81 -36 99s-16.833 30.167 -26.5 36.5s-24.167 9.5 -43.5 9.5h-141c-12.667 0 -22 -1.16699 -28 -3.5s-10.167 -7.16602 -12.5 -14.499
s-3.5 -19 -3.5 -35v-162c0 -12.667 1.33301 -22.167 4 -28.5s8.33398 -9.5 17.001 -9.5h87c13.333 0 22.666 2.16699 27.999 6.5s8 12.833 8 25.5c0 11.333 -0.666992 20.666 -2 27.999c-0.666992 9.33301 1.16602 16.833 5.49902 22.5s10.5 8.5 18.5 8.5
c8.66699 0 15.167 -2.83301 19.5 -8.5s8.16602 -16.5 11.499 -32.5s7 -42 11 -78c4 -34 6 -59.333 6 -76c0 -16 -2 -27 -6 -33s-10.333 -9 -19 -9c-7.33301 0 -13.166 2.5 -17.499 7.5s-6.83301 11.5 -7.5 19.5c-3.33301 20 -7 34.833 -11 44.5s-8.83301 16 -14.5 19
s-13.834 4.5 -24.501 4.5h-91c-10 0 -16.333 -2.66699 -19 -8s-4 -15 -4 -29v-206c0 -19.333 2.66699 -31.666 8 -36.999s17.666 -8 36.999 -8h183c18.667 0 33.334 4 44.001 12s20.167 21.833 28.5 41.5s17.833 50.167 28.5 91.5c6.66699 19.333 17.667 29 33 29
c8.66699 0 15 -2.16699 19 -6.5z" />
    <glyph glyph-name="F" unicode="F" horiz-adv-x="594" 
d="M40.5 5c-6.33301 3.33301 -9.51074 9.99902 -9.51074 19.999c0 6 2.33301 11.5 7 16.5s10.334 8.83301 17.001 11.5c19.333 6 33 11.833 41 17.5s13.333 13.334 16 23.001s4 24.167 4 43.5v426c0 20 -1.16699 34.667 -3.5 44s-7.66602 16.833 -15.999 22.5
s-22.166 11.5 -41.499 17.5c-6.66699 2 -12.334 5.66699 -17.001 11s-7 11 -7 17c0 10 3.16699 16.667 9.5 20s17.5 5 33.5 5h341c14.667 0 25.834 1 33.501 3s14.834 5 21.501 9c8 4.66699 16 7 24 7s14.333 -2.5 19 -7.5s9.66699 -15 15 -30s13 -39.833 23 -74.5
c14.667 -50 22 -85 22 -105c0 -11.333 -2 -19.166 -6 -23.499s-10.333 -6.5 -19 -6.5c-7.33301 0 -14.166 3 -20.499 9s-11.5 14 -15.5 24c-14.667 48 -25.667 80.667 -33 98s-15.666 28.833 -24.999 34.5s-23.666 8.5 -42.999 8.5h-135
c-19.333 0 -31.666 -3.33301 -36.999 -10s-8 -20.667 -8 -42v-179c0 -11.333 1.5 -19.5 4.5 -24.5s8.83301 -7.5 17.5 -7.5h79c12.667 0 21.334 1.66699 26.001 5s7 9.66602 7 18.999c0 6 -1.66699 18 -5 36c-0.666992 3.33301 -1 8 -1 14c0 14 8 21 24 21
c6.66699 0 12.334 -2.66699 17.001 -8s9.66699 -16 15 -32s12.666 -41.333 21.999 -76c14 -52.667 21 -86.667 21 -102c0 -9.33301 -1.66699 -15.666 -5 -18.999s-9 -5 -17 -5c-8.66699 0 -15.167 2.16699 -19.5 6.5s-8.16602 11.166 -11.499 20.499
c-7.33301 26.667 -14.666 44.167 -21.999 52.5s-18.333 12.5 -33 12.5h-87c-13.333 0 -22 -3.16699 -26 -9.5s-6 -17.166 -6 -32.499v-149c0 -18.667 1.66699 -32.334 5 -41.001s10.333 -15.667 21 -21s28.667 -11 54 -17c20.667 -6.66699 31 -17.667 31 -33
c0 -9.33301 -4.16699 -15.833 -12.5 -19.5s-22.5 -5.5 -42.5 -5.5h-213c-16 0 -27.167 1.66699 -33.5 5z" />
    <glyph glyph-name="G" unicode="G" horiz-adv-x="704" 
d="M195.5 37c-51.667 32 -92.332 76.168 -121.999 132.501s-44.5 119.5 -44.5 189.5c0 68.667 14.833 129.667 44.5 183s69.167 94.833 118.5 124.5s102.333 44.5 159 44.5c35.333 0 69.833 -5.5 103.5 -16.5s62.834 -26.5 87.501 -46.5
c13.333 -12 22.666 -21.333 27.999 -28c14 -14.667 24.333 -30 31 -46c11.333 -24 17 -46 17 -66c0 -18 -5.16699 -33.167 -15.5 -45.5s-25.5 -18.5 -45.5 -18.5c-16.667 0 -30.834 4.66699 -42.501 14s-21.5 27.666 -29.5 54.999c-2 40.667 -16.167 73.834 -42.5 99.501
s-60.5 38.5 -102.5 38.5c-36 0 -68.167 -10.167 -96.5 -30.5s-50.333 -48.5 -66 -84.5s-23.5 -76.333 -23.5 -121c0 -60.667 10.333 -117.834 31 -171.501s49.167 -96.667 85.5 -129s76.833 -48.5 121.5 -48.5s78.334 8.5 101.001 25.5s34 37.5 34 61.5v38
c0 26 -1.66699 44 -5 54s-9 16.5 -17 19.5s-24.667 6.83301 -50 11.5c-7.33301 3.33301 -13.5 7.83301 -18.5 13.5s-7.5 11.834 -7.5 18.501c0 8.66699 3.16699 14.834 9.5 18.501s16.833 5.5 31.5 5.5h66h118c14.667 0 25.167 -1.83301 31.5 -5.5s9.5 -9.83398 9.5 -18.501
c0 -6.66699 -2.16699 -12.5 -6.5 -17.5s-9.5 -8.5 -15.5 -10.5c-2.66699 -0.666992 -10 -2.66699 -22 -6s-19.333 -11.333 -22 -24s-4 -32.667 -4 -60v-44c0 -38 -13.333 -70 -40 -96c-16 -12.667 -28.667 -21.334 -38 -26.001c-44.667 -23.333 -103.667 -35 -177 -35
c-64.667 0 -122.834 16 -174.501 48z" />
    <glyph glyph-name="H" unicode="H" horiz-adv-x="795" 
d="M40.5 5c-6.33301 3.33301 -9.49902 10.001 -9.49902 20.001c0 6 2.33301 11.5 7 16.5s10.334 8.83301 17.001 11.5c19.333 6 33 11.833 41 17.5s13.333 13.334 16 23.001s4 24.167 4 43.5v426c0 19.333 -1.33301 33.833 -4 43.5s-8 17.334 -16 23.001
s-21.667 11.5 -41 17.5c-6.66699 2 -12.334 5.66699 -17.001 11s-7 11 -7 17c0 10 3.16699 16.667 9.5 20s17.5 5 33.5 5h199c16 0 27 -1.66699 33 -5s9 -10 9 -20c0 -6 -2.33301 -11.5 -7 -16.5s-10.334 -8.83301 -17.001 -11.5c-19.333 -6 -33 -11.833 -41 -17.5
s-13.333 -13.334 -16 -23.001s-4 -24.167 -4 -43.5v-123c0 -18.667 3 -31.334 9 -38.001s16.667 -10 32 -10h253c16 0 26.833 3.33301 32.5 10s8.5 19.667 8.5 39v122c0 19.333 -1.33301 33.833 -4 43.5s-8.16699 17.334 -16.5 23.001s-22.166 11.5 -41.499 17.5
c-6.66699 2 -12.334 5.66699 -17.001 11s-7 11 -7 17c0 10 3.16699 16.667 9.5 20s17.5 5 33.5 5h199c16.667 0 28 -1.66699 34 -5s9 -10 9 -20c0 -6 -2.33301 -11.5 -7 -16.5s-10.334 -8.83301 -17.001 -11.5c-19.333 -6 -33 -11.833 -41 -17.5
s-13.333 -13.334 -16 -23.001s-4 -24.167 -4 -43.5v-426c0 -19.333 1.33301 -33.833 4 -43.5s8.16699 -17.334 16.5 -23.001s22.166 -11.5 41.499 -17.5c6.66699 -2 12.334 -5.66699 17.001 -11s7 -11 7 -17c0 -10 -3.16699 -16.667 -9.5 -20s-17.5 -5 -33.5 -5h-199
c-16 0 -27.167 1.66699 -33.5 5s-9.5 10 -9.5 20c0 6 2.33301 11.5 7 16.5s10.334 8.83301 17.001 11.5c19.333 6 33 11.833 41 17.5s13.333 13.334 16 23.001s4 24.167 4 43.5v143c0 20 -3 33.167 -9 39.5s-16.667 9.5 -32 9.5h-253c-16 0 -26.833 -3 -32.5 -9
s-8.5 -19.333 -8.5 -40v-143c0 -19.333 1.33301 -33.833 4 -43.5s8.16699 -17.334 16.5 -23.001s22.166 -11.5 41.499 -17.5c6.66699 -2 12.334 -5.66699 17.001 -11s7 -11 7 -17c0 -10 -3.16699 -16.667 -9.5 -20s-17.5 -5 -33.5 -5h-199c-16 0 -27.167 1.66699 -33.5 5z
" />
    <glyph glyph-name="I" unicode="I" horiz-adv-x="347" 
d="M74 0c-16 0 -27.167 1.66699 -33.5 5s-9.5 10 -9.5 20c0 6 2.33301 11.5 7 16.5s10.334 8.83301 17.001 11.5c19.333 6 33 11.833 41 17.5s13.333 13.334 16 23.001s4 24.167 4 43.5v426c0 19.333 -1.33301 33.833 -4 43.5s-8 17.334 -16 23.001s-21.667 11.5 -41 17.5
c-6.66699 2 -12.334 5.66699 -17.001 11s-7 11 -7 17c0 10 3.16699 16.667 9.5 20s17.5 5 33.5 5h91h16h92c16 0 27.167 -1.66699 33.5 -5s9.5 -10 9.5 -20c0 -6 -2.33301 -11.5 -7 -16.5s-10.334 -8.83301 -17.001 -11.5c-19.333 -6 -33 -11.833 -41 -17.5
s-13.333 -13.334 -16 -23.001s-4 -24.167 -4 -43.5v-426c0 -19.333 1.33301 -33.833 4 -43.5s8 -17.334 16 -23.001s21.667 -11.5 41 -17.5c6.66699 -2 12.334 -5.66699 17.001 -11s7 -11 7 -17c0 -10 -3 -16.667 -9 -20s-17 -5 -33 -5h-92h-16h-92z" />
    <glyph glyph-name="J" unicode="J" horiz-adv-x="532" 
d="M71.5 45c-33 37.333 -49.501 82.666 -49.501 135.999c0 19.333 5.33301 35 16 47s24.667 18 42 18c18 0 31.833 -6.33301 41.5 -19s13.5 -28.667 11.5 -48c-0.666992 -6 -1 -14.667 -1 -26c0 -69.333 31 -104 93 -104c76 0 114 54.333 114 163l-2 84
c-2 104 -3 165.667 -3 185v77c0 19.333 -1.5 33.833 -4.5 43.5s-9.66699 17.334 -20 23.001s-26.833 11.167 -49.5 16.5c-19.333 6.66699 -29 18 -29 34c0 9.33301 3.83301 15.833 11.5 19.5s20.834 5.5 39.501 5.5h201c14 0 23.667 -1.66699 29 -5s8 -10 8 -20
c0 -6 -2 -11.5 -6 -16.5s-9 -8.83301 -15 -11.5c-15.333 -6 -26.5 -11.833 -33.5 -17.5s-11.5 -13.334 -13.5 -23.001s-3 -24.167 -3 -43.5v-322c0 -81.333 -18.667 -143.666 -56 -186.999s-93 -65 -167 -65c-70 0 -121.5 18.667 -154.5 56z" />
    <glyph glyph-name="K" unicode="K" 
d="M40.5 5c-6.33301 3.33301 -9.50195 10 -9.50195 20c0 6 2.33301 11.5 7 16.5s10.334 8.83301 17.001 11.5c19.333 6 33 11.833 41 17.5s13.333 13.334 16 23.001s4 24.167 4 43.5v426c0 20 -1.16699 34.667 -3.5 44s-7.66602 16.833 -15.999 22.5
s-22.166 11.5 -41.499 17.5c-6.66699 2 -12.334 5.66699 -17.001 11s-7 11 -7 17c0 10 3.16699 16.667 9.5 20s17.5 5 33.5 5h198c14 0 23.667 -1.66699 29 -5s8 -10 8 -20c0 -6 -2 -11.5 -6 -16.5s-9 -8.83301 -15 -11.5c-18 -6 -30.833 -11.833 -38.5 -17.5
s-12.667 -13.167 -15 -22.5s-3.5 -24 -3.5 -44v-164c0 -12.667 3 -19 9 -19c4 0 9.33301 3.33301 16 10l204 196c14 14 21 25.333 21 34c0 6.66699 -3.66699 12.334 -11 17.001s-18.666 9.33398 -33.999 14.001c-11.333 6.66699 -17 15.334 -17 26.001
c0 10 4.83301 16.833 14.5 20.5s25.167 5.5 46.5 5.5h151c18 0 31.833 -2 41.5 -6s14.5 -11.333 14.5 -22c0 -9.33301 -2.83301 -16.333 -8.5 -21s-13.834 -8 -24.501 -10c-25.333 -2 -44.833 -5.83301 -58.5 -11.5s-30.5 -18.834 -50.5 -39.501l-110 -108
c-5.33301 -6.66699 -8 -14 -8 -22c0 -7.33301 2.33301 -15 7 -23l198 -335c11.333 -18.667 22.333 -31.5 33 -38.5s26.334 -11.833 47.001 -14.5c8 -1.33301 14 -4.33301 18 -9s6 -10.334 6 -17.001c0 -10 -3.66699 -16.833 -11 -20.5s-18.666 -5.5 -33.999 -5.5h-192
c-12 0 -21.333 1.66699 -28 5s-10 10 -10 20c0 12.667 8.33301 21.334 25 26.001c12.667 1.33301 21.667 3.66602 27 6.99902s8 7.66602 8 12.999c0 7.33301 -5.33301 19.666 -16 36.999l-149 239c-7.33301 14 -15.333 21 -24 21c-6.66699 0 -14.334 -4.33301 -23.001 -13
l-57 -56c-6.66699 -6 -11.834 -13.167 -15.501 -21.5s-5.5 -18.833 -5.5 -31.5v-109c0 -20 1.16699 -34.667 3.5 -44s7.5 -16.833 15.5 -22.5s21.333 -11.5 40 -17.5c6 -2 11.333 -5.66699 16 -11s7 -11 7 -17c0 -10 -3 -16.667 -9 -20s-16.333 -5 -31 -5h-199
c-16 0 -27.167 1.66699 -33.5 5z" />
    <glyph glyph-name="L" unicode="L" horiz-adv-x="601" 
d="M485 -12c-8 4 -15.8271 7 -23.4941 9s-19.5 3 -35.5 3h-260h-92c-16 0 -27.167 1.66699 -33.5 5s-9.5 10 -9.5 20c0 6 2.33301 11.5 7 16.5s10.334 8.83301 17.001 11.5c19.333 6 33.166 11.833 41.499 17.5s13.666 13.167 15.999 22.5s3.5 24 3.5 44v426
c0 19.333 -1.33301 33.833 -4 43.5s-8 17.334 -16 23.001s-21.667 11.5 -41 17.5c-6.66699 2 -12.334 5.66699 -17.001 11s-7 11 -7 17c0 10 3.16699 16.667 9.5 20s17.5 5 33.5 5h208c19.333 0 32.666 -1.66699 39.999 -5s11 -10 11 -20c0 -6 -2.83301 -11.5 -8.5 -16.5
s-12.5 -8.83301 -20.5 -11.5c-22.667 -6 -39 -11.833 -49 -17.5s-16.5 -13.334 -19.5 -23.001s-4.5 -24.167 -4.5 -43.5v-456c0 -21.333 3.16699 -35 9.5 -41s18.166 -9 35.499 -9h147c18 0 32.5 3.83301 43.5 11.5s21.167 21.5 30.5 41.5s19.333 49.667 30 89
c7.33301 19.333 18.666 29 33.999 29c8.66699 0 15 -2.5 19 -7.5s6 -13.167 6 -24.5c0 -21.333 -7.33301 -57 -22 -107c-9.33301 -32 -17 -55.5 -23 -70.5s-11.333 -25 -16 -30s-10.334 -7.5 -17.001 -7.5c-7.33301 0 -15 2.33301 -23 7z" />
    <glyph glyph-name="M" unicode="M" horiz-adv-x="921" 
d="M36.5 6.5c-7.66699 4.33301 -11.4961 10.832 -11.4961 19.499c0 6.66699 2.5 12.167 7.5 16.5s11.167 7.16602 18.5 8.49902c18.667 2.66699 32.5 6.33398 41.5 11.001s15.5 12.334 19.5 23.001s7 27.334 9 50.001l40 450l1 16c0 18 -4.16699 30.5 -12.5 37.5
s-24.5 12.5 -48.5 16.5c-14 4.66699 -21 13 -21 25c0 8.66699 3.16699 14.5 9.5 17.5s14.833 4.5 25.5 4.5l54 -1c12 -0.666992 28.333 -1 49 -1c14 0 24.333 -1.5 31 -4.5s11 -7.83301 13 -14.5l5 -25c2.66699 -10 6 -20 10 -30l180 -444c3.33301 -7.33301 7 -11 11 -11
s7.33301 3.66699 10 11l171 445c4 12.667 6.33301 21.334 7 26.001l2 27c1.33301 6.66699 4.66602 11.667 9.99902 15s15 5 29 5c20.667 0 36.334 0.166992 47.001 0.5s19 0.5 25 0.5c7.33301 0.666992 19.666 1 36.999 1c27.333 0 41 -8.33301 41 -25
c0 -6 -2.16699 -11.333 -6.5 -16s-9.83301 -8 -16.5 -10c-18.667 -2.66699 -31.834 -5.83398 -39.501 -9.50098s-12.834 -9.66699 -15.501 -18s-3.33398 -21.833 -2.00098 -40.5l33 -456c1.33301 -19.333 3.83301 -33.833 7.5 -43.5s10 -16.834 19 -21.501
s22.833 -8 41.5 -10c18.667 -4.66699 28 -13 28 -25c0 -9.33301 -3.66699 -16.166 -11 -20.499s-15 -6.5 -23 -6.5c-98.667 0 -171.667 -0.333008 -219 -1c-28.667 0 -43 9 -43 27c0 6 2.5 11.167 7.5 15.5s10.833 7.16602 17.5 8.49902
c18.667 2.66699 32.334 5.83398 41.001 9.50098s14.5 10 17.5 19s3.83301 23.167 2.5 42.5l-20 371c0 3.33301 -0.666992 6 -2 8s-3 3 -5 3c-2.66699 0 -6.33398 -5.33301 -11.001 -16l-187 -461c-6 -16.667 -14 -25 -24 -25c-9.33301 0 -17.666 8 -24.999 24l-194 462
c-2 4.66699 -4 8.5 -6 11.5s-4 4.5 -6 4.5c-4.66699 0 -7.33398 -3.66699 -8.00098 -11l-24 -378c-1.33301 -18 0 -31.167 4 -39.5s10.5 -13.833 19.5 -16.5s23.833 -5.33398 44.5 -8.00098c16 -2.66699 24 -11 24 -25c0 -8 -3.33301 -14.333 -10 -19s-17 -7 -31 -7
c-32.667 0.666992 -86 1 -160 1c-11.333 0 -20.833 2.16699 -28.5 6.5z" />
    <glyph glyph-name="N" unicode="N" horiz-adv-x="751" 
d="M69 -1c-14.667 0 -24.6699 1.83691 -30.0029 5.50391s-8 9.5 -8 17.5c0 12.667 7.33301 21.667 22 27c22 3.33301 37 7.83301 45 13.5s13.167 16.167 15.5 31.5s3.5 43 3.5 83v378c0 27.333 -1.16699 46.833 -3.5 58.5s-7.5 20.167 -15.5 25.5s-22 9.66602 -42 12.999
c-8.66699 2.66699 -15 6 -19 10s-6 9.66699 -6 17c0 8 2.83301 13.667 8.5 17s15.834 5 30.501 5l117 -1c10 0 17.667 -1 23 -3s9.66602 -5.33301 12.999 -10l343 -470c4.66699 -6.66699 10 -10 16 -10c2.66699 0 5 1.33301 7 4s3 6.66699 3 12v331
c0 28 -1.16699 47.667 -3.5 59s-7.5 19.666 -15.5 24.999s-22 9.66602 -42 12.999c-16.667 5.33301 -25 14.666 -25 27.999c0 8 2.83301 13.667 8.5 17s15.834 5 30.501 5h150c14.667 0 24.834 -1.83301 30.501 -5.5s8.5 -9.5 8.5 -17.5c0 -12 -7.66699 -21 -23 -27
c-21.333 -3.33301 -36.166 -7.83301 -44.499 -13.5s-13.666 -16.334 -15.999 -32.001s-3.5 -43.5 -3.5 -83.5v-499c0 -8 -2 -14.333 -6 -19s-9.33301 -7 -16 -7c-11.333 0 -21.333 5.66699 -30 17l-403 532c-3.33301 4 -7 6 -11 6c-5.33301 0 -8 -4 -8 -12v-394
c0 -28 1.16699 -47.833 3.5 -59.5s7.5 -20.167 15.5 -25.5s22 -9.66602 42 -12.999c16.667 -5.33301 25 -14.333 25 -27c0 -8 -2.83301 -13.833 -8.5 -17.5s-15.834 -5.5 -30.501 -5.5z" />
    <glyph glyph-name="O" unicode="O" horiz-adv-x="742" 
d="M195.5 33.5c-51.667 29.667 -92.334 72 -122.001 127s-44.5 118.833 -44.5 191.5c0 67.333 14.167 128.333 42.5 183s68.5 97.667 120.5 129s111.667 47 179 47c65.333 0 123.833 -14.833 175.5 -44.5s92.334 -71.667 122.001 -126s44.5 -117.5 44.5 -189.5
c0 -68.667 -14.167 -130.5 -42.5 -185.5s-68.5 -98.167 -120.5 -129.5s-111.667 -47 -179 -47c-65.333 0 -123.833 14.833 -175.5 44.5zM490 77.5c30 19 53.833 47.1641 71.5 84.4971s26.5 82 26.5 134c0 58.667 -10 115.334 -30 170.001s-48 99.167 -84 133.5
s-77 51.5 -123 51.5c-36 0 -69 -9.5 -99 -28.5s-53.833 -47 -71.5 -84s-26.5 -80.833 -26.5 -131.5c0 -59.333 10 -116.666 30 -171.999s48 -100.166 84 -134.499s76.667 -51.5 122 -51.5c36.667 0 70 9.5 100 28.5z" />
    <glyph glyph-name="P" unicode="P" horiz-adv-x="635" 
d="M40.5 5c-6.33301 3.33301 -9.49805 10.0029 -9.49805 20.0029c0 6 2.33301 11.5 7 16.5s10.334 8.83301 17.001 11.5c19.333 6 33.166 12 41.499 18s13.666 13.667 15.999 23s3.5 23.666 3.5 42.999v418c0 27.333 -1.16699 46.666 -3.5 57.999s-7.5 19.666 -15.5 24.999
s-22 9.66602 -42 12.999c-16 5.33301 -24 14.333 -24 27c0 8 2.66699 13.833 8 17.5s15.666 5.5 30.999 5.5c34.667 0 82 0.666992 142 2c52 1.33301 87.333 2 106 2c96.667 0 170.834 -19.333 222.501 -58s77.5 -92.667 77.5 -162c0 -67.333 -24.167 -119.333 -72.5 -156
s-119.166 -55 -212.499 -55h-67c-16 0 -26 -2.33301 -30 -7s-6 -15 -6 -31v-91c0 -22 1.66699 -38 5 -48s10.166 -17.667 20.499 -23s27.833 -10.666 52.5 -15.999c19.333 -6.66699 29 -17.667 29 -33c0 -8.66699 -3.83301 -15 -11.5 -19s-20.834 -6.33301 -39.501 -7
l-212 1c-16 0 -27.167 1.66699 -33.5 5zM328.002 329.003c54.667 0 95.834 12.832 123.501 38.499s41.5 60.167 41.5 103.5c0 56 -16.833 99.167 -50.5 129.5s-79.834 45.5 -138.501 45.5h-34c-15.333 0 -25.833 -3.16699 -31.5 -9.5s-8.5 -18.5 -8.5 -36.5v-238
c0 -11.333 2.33301 -19.666 7 -24.999s14.667 -8 30 -8h61z" />
    <glyph glyph-name="Q" unicode="Q" horiz-adv-x="742" 
d="M965 -65c0 -10.667 -5.16699 -21.667 -15.5 -33s-26.166 -21 -47.499 -29s-48 -12 -80 -12c-37.333 0 -72.5 6.33301 -105.5 19s-72.833 31.667 -119.5 57c-36.667 20 -66.667 34.667 -90 44s-46 14 -68 14c-22 -4 -44.667 -6 -68 -6
c-65.333 0 -123.833 14.833 -175.5 44.5s-92.334 72 -122.001 127s-44.5 118.833 -44.5 191.5c0 67.333 14.167 128.333 42.5 183s68.5 97.667 120.5 129s111.667 47 179 47c65.333 0 123.833 -14.833 175.5 -44.5s92.334 -71.667 122.001 -126s44.5 -117.5 44.5 -189.5
c0 -71.333 -15.5 -135.5 -46.5 -192.5s-73.833 -100.167 -128.5 -129.5c20.667 -6.66699 42 -15.334 64 -26.001s35.333 -17 40 -19c40 -19.333 72.833 -33.666 98.5 -42.999s51.5 -14 77.5 -14c16.667 0 30.667 1.83301 42 5.5s25.666 9.16699 42.999 16.5
c14.667 8 26 12 34 12s15 -2.66699 21 -8c4.66699 -4 7 -10 7 -18zM184 235c20 -55.333 48 -100.169 84 -134.502s76.667 -51.5 122 -51.5c36.667 0 70 9.5 100 28.5s53.833 47.167 71.5 84.5s26.5 82 26.5 134c0 58.667 -10 115.334 -30 170.001s-48 99.167 -84 133.5
s-77 51.5 -123 51.5c-36 0 -69 -9.5 -99 -28.5s-53.833 -47 -71.5 -84s-26.5 -80.833 -26.5 -131.5c0 -59.333 10 -116.666 30 -171.999z" />
    <glyph glyph-name="R" unicode="R" horiz-adv-x="721" 
d="M39 5c-5.33301 3.33301 -7.99805 10.002 -7.99805 20.002c0 6 2.33301 11.5 7 16.5s10.334 8.83301 17.001 11.5c19.333 6 33.166 12 41.499 18s13.666 13.667 15.999 23s3.5 23.666 3.5 42.999v418c0 22.667 -1.33301 39.334 -4 50.001s-8.16699 18.834 -16.5 24.501
s-21.833 11.167 -40.5 16.5c-16 8.66699 -24 19.334 -24 32.001c0 8 2.66699 13.833 8 17.5s15.666 5.5 30.999 5.5c30 0 81.667 0.666992 155 2l110 2c94 0 164.667 -17.333 212 -52s71 -85 71 -151c0 -88 -50.667 -148 -152 -180
c-3.33301 -1.33301 -5.16602 -3.33301 -5.49902 -6s1.16699 -4.33398 4.5 -5.00098c34 -14 58.833 -32.833 74.5 -56.5s30.834 -58.834 45.501 -105.501c11.333 -34.667 21.666 -59.834 30.999 -75.501s22 -23.5 38 -23.5c10 0 17.667 1.5 23 4.5s10.333 7.16699 15 12.5
s8.66699 8 12 8c8 0 12 -5.33301 12 -16c0 -18 -10.667 -33.833 -32 -47.5s-48.333 -20.5 -81 -20.5c-32 0 -56.833 5.83301 -74.5 17.5s-30.5 26.834 -38.5 45.501s-15 44 -21 76c-10.667 54 -27.667 95.333 -51 124s-55 43 -95 43h-55c-14.667 0 -24.667 -2.66699 -30 -8
s-8 -16.333 -8 -33v-111c0 -23.333 1.33301 -40.333 4 -51s8 -18.834 16 -24.501s21.667 -11.167 41 -16.5c16 -6.66699 24 -16.334 24 -29.001c0 -8 -2.83301 -14.167 -8.5 -18.5s-15.834 -6.5 -30.501 -6.5l-205 1c-16 0 -26.667 1.66699 -32 5zM331.002 351.002
c54.667 0 95.333 12.1689 122 36.502s40 56.166 40 95.499c0 51.333 -14.5 91.333 -43.5 120s-71.833 43 -128.5 43h-51c-15.333 0 -25.833 -3.16699 -31.5 -9.5s-8.5 -18.5 -8.5 -36.5v-204c0 -16.667 2.66699 -28.334 8 -35.001s16.333 -10 33 -10h60z" />
    <glyph glyph-name="S" unicode="S" horiz-adv-x="584" 
d="M159 14.5c-40.667 17 -72.666 40.833 -95.999 71.5c-14 18.667 -23.333 35.667 -28 51c-6 15.333 -9 32.333 -9 51c0 16 4 28.833 12 38.5s19 14.5 33 14.5c13.333 0 25.166 -4.16699 35.499 -12.5s16.833 -21.5 19.5 -39.5c2 -42.667 16.333 -76.5 43 -101.5
s62.334 -37.5 107.001 -37.5c42 0 75.667 11 101 33s38 51.667 38 89s-13.167 67.5 -39.5 90.5s-67.5 42.833 -123.5 59.5c-74.667 23.333 -127.167 51.5 -157.5 84.5s-45.5 75.833 -45.5 128.5c0 32.667 9.33301 62.5 28 89.5s45.5 48.167 80.5 63.5s76.167 23 123.5 23
c42.667 0 83.334 -8.33301 122.001 -25s68.667 -40 90 -70c11.333 -13.333 20 -28 26 -44c7.33301 -18 11 -37 11 -57c0 -14.667 -3.83301 -26.334 -11.5 -35.001s-18.5 -13 -32.5 -13c-12 0 -22.667 3.33301 -32 10s-15.666 18.334 -18.999 35.001
c-3.33301 42.667 -17.333 76.5 -42 101.5s-58.334 37.5 -101.001 37.5c-34.667 0 -64 -9.16699 -88 -27.5s-36 -42.5 -36 -72.5c0 -32.667 12 -59.5 36 -80.5s64 -39.5 120 -55.5c82 -22.667 140.5 -51.834 175.5 -87.501s52.5 -79.5 52.5 -131.5
c0 -41.333 -10.833 -77.666 -32.5 -108.999s-52.334 -55.5 -92.001 -72.5s-85.834 -25.5 -138.501 -25.5c-46 0 -89.333 8.5 -130 25.5z" />
    <glyph glyph-name="T" unicode="T" horiz-adv-x="654" 
d="M170 5c-8 3.33301 -12.001 10 -12.001 20c0 6 3 11.5 9 16.5s13.333 8.83301 22 11.5c24.667 6 42.5 11.833 53.5 17.5s18.167 13.334 21.5 23.001s5 24.167 5 43.5v458c0 20 -2.33301 33.5 -7 40.5s-14.334 10.5 -29.001 10.5h-58c-15.333 0 -27.166 -3.5 -35.499 -10.5
s-15.833 -19 -22.5 -36s-16.334 -45.833 -29.001 -86.5c-7.33301 -18.667 -14.166 -31.667 -20.499 -39s-14.5 -11 -24.5 -11c-9.33301 0 -16 2.66699 -20 8s-6 13.333 -6 24s1.83301 24.5 5.5 41.5s9.83398 40.833 18.501 71.5c11.333 41.333 21 70.166 29 86.499
s17.333 24.5 28 24.5c6.66699 0 14.667 -2.33301 24 -7c9.33301 -4 17.833 -7 25.5 -9s17.5 -3 29.5 -3h295c15.333 0 27.333 1.16699 36 3.5s17 5.5 25 9.5c9.33301 4 16.666 6 21.999 6c9.33301 0 17.833 -7.16699 25.5 -21.5s17.834 -44.166 30.501 -89.499
c17.333 -59.333 26 -98 26 -116c0 -19.333 -8.66699 -29 -26 -29c-9.33301 0 -17.5 3.83301 -24.5 11.5s-14.167 20.5 -21.5 38.5c-12 40.667 -21.333 69.5 -28 86.5s-14 29 -22 36s-19.333 10.5 -34 10.5h-59c-16 0 -26.167 -3.5 -30.5 -10.5s-6.5 -20.5 -6.5 -40.5v-454
c0 -22 1.66699 -37.833 5 -47.5s10.333 -17.334 21 -23.001s28.667 -11.5 54 -17.5c10.667 -4 18.5 -8.16699 23.5 -12.5s7.5 -9.83301 7.5 -16.5c0 -8 -3.66699 -14.167 -11 -18.5s-20.333 -6.5 -39 -6.5l-233 1c-20.667 0 -35 1.66699 -43 5z" />
    <glyph glyph-name="U" unicode="U" horiz-adv-x="748" 
d="M169 55c-48 44 -72 109.995 -72 197.995v302c0 22 -1.33301 38.333 -4 49s-8.16699 19 -16.5 25s-21.833 12 -40.5 18c-16 6.66699 -24 16.334 -24 29.001c0 8.66699 3 15 9 19s16.333 6 31 6l202 -1c16 0 27.167 -1.83301 33.5 -5.5s9.5 -10.5 9.5 -20.5
c0 -6 -2.33301 -11.5 -7 -16.5s-10.334 -8.83301 -17.001 -11.5c-19.333 -5.33301 -33.166 -11 -41.499 -17s-13.833 -13.667 -16.5 -23s-4 -23.666 -4 -42.999v-303c0 -64 16.333 -113 49 -147s80.667 -51 144 -51c62 0 109.333 15.833 142 47.5s49 76.834 49 135.501v298
c0 27.333 -1.5 47.333 -4.5 60s-8.5 21.834 -16.5 27.501s-21.333 10.834 -40 15.501c-16 6.66699 -24 16 -24 28c0 9.33301 3.33301 16 10 20s17.667 6 33 6h140c28.667 0 43 -8.33301 43 -25c0 -6 -2.33301 -11.5 -7 -16.5s-10.334 -9.16699 -17.001 -12.5
c-18 -4 -31.167 -9 -39.5 -15s-14.166 -15.5 -17.499 -28.5s-5 -32.833 -5 -59.5v-289c0 -176.667 -89 -265 -267 -265c-94.667 0 -166 22 -214 66z" />
    <glyph glyph-name="V" unicode="V" horiz-adv-x="741" 
d="M369 -4c-28.667 0 -49.333 16.6709 -62 50.0039l-205 531c-6.66699 17.333 -13.167 30.166 -19.5 38.499s-13.333 14.166 -21 17.499s-18.834 6.66602 -33.501 9.99902c-15.333 4.66699 -23 14 -23 28c0 12 5.33301 19.833 16 23.5s30 5.5 58 5.5h159
c26.667 0 44.167 -2 52.5 -6s12.5 -11 12.5 -21c0 -12.667 -9 -22 -27 -28c-21.333 -2.66699 -36 -5.66699 -44 -9s-12 -9.33301 -12 -18c0 -6.66699 2.66699 -17.334 8 -32.001l158 -430c4 -11.333 8.33301 -17 13 -17c4 0 8 5.33301 12 16l162 441
c3.33301 8.66699 5 16.667 5 24c0 8 -3.83301 13.333 -11.5 16s-23.834 5.33398 -48.501 8.00098c-17.333 4.66699 -26 14 -26 28c0 10 3.83301 17.333 11.5 22s19.834 7 36.501 7c19.333 -0.666992 45 -1 77 -1c32.667 0 59 0.333008 79 1c12.667 0 22.5 -2.33301 29.5 -7
s10.5 -11.334 10.5 -20.001s-2.16699 -15.167 -6.5 -19.5s-11.166 -7.83301 -20.499 -10.5c-20 -2.66699 -34.833 -7.5 -44.5 -14.5s-18.5 -21.5 -26.5 -43.5l-208 -540c-6 -15.333 -14.167 -27.5 -24.5 -36.5s-21.5 -13.5 -33.5 -13.5h-3z" />
    <glyph glyph-name="W" unicode="W" horiz-adv-x="1068" 
d="M337 -4c-29.333 0 -50.333 16.667 -63 50l-171 524c-6 19.333 -11.833 33.666 -17.5 42.999s-12.667 16 -21 20s-20.166 7 -35.499 9c-8 3.33301 -14 7.16602 -18 11.499s-6 10.166 -6 17.499c0 12 5.33301 19.833 16 23.5s29.667 5.5 57 5.5h161
c22 0 36.833 -2.16699 44.5 -6.5s11.5 -11.5 11.5 -21.5c0 -5.33301 -1.83301 -10.166 -5.5 -14.499s-8.16699 -7.16602 -13.5 -8.49902c-20.667 -2.66699 -34.834 -6.16699 -42.501 -10.5s-11.5 -11.5 -11.5 -21.5c0 -8 2.66699 -21 8 -39l127 -431
c2.66699 -9.33301 6 -14 10 -14c4.66699 0 8.33398 4.33301 11.001 13l119 358c4.66699 13.333 7 26.666 7 39.999c0 12 -2.33301 27.333 -7 46c-4.66699 17.333 -11.834 29.5 -21.501 36.5s-25.167 12.167 -46.5 15.5c-7.33301 2.66699 -12.666 6.33398 -15.999 11.001
s-5 11 -5 19c0 18.667 14.667 28 44 28h184c16.667 0 28.834 -2.16699 36.501 -6.5s11.5 -11.166 11.5 -20.499c0 -6.66699 -1.83301 -12.5 -5.5 -17.5s-8.83398 -8.16699 -15.501 -9.5c-18.667 -2 -32.167 -4 -40.5 -6s-14.166 -5 -17.499 -9
c-2.66699 -2.66699 -4 -6.66699 -4 -12c0 -4 2.33301 -14.333 7 -31l127 -443c3.33301 -7.33301 7 -11 11 -11c4.66699 0 8 3.66699 10 11l98 300l49 150c3.33301 10 5 17.333 5 22c0 8 -5 14 -15 18s-29.333 8 -58 12c-13.333 3.33301 -20 11.666 -20 24.999
c0 10.667 3.66699 18 11 22s19.666 6 36.999 6h159c27.333 0 41 -9 41 -27c0 -14 -8.66699 -23.333 -26 -28c-18.667 -2.66699 -32.5 -5.66699 -41.5 -9s-16 -8.66602 -21 -15.999s-10.167 -19 -15.5 -35l-178 -539c-12 -33.333 -32 -50 -60 -50h-3
c-14.667 0 -27.834 4.16699 -39.501 12.5s-19.5 20.5 -23.5 36.5l-92 323l-17 58c-2.66699 8.66699 -5.66699 13 -9 13c-4 0 -7.33301 -4.33301 -10 -13l-43 -127c-12 -37.333 -40.667 -122 -86 -254c-6 -16 -14.167 -28.167 -24.5 -36.5s-21.5 -12.5 -33.5 -12.5h-3z" />
    <glyph glyph-name="X" unicode="X" horiz-adv-x="749" 
d="M20 21c0 17.333 10.6689 28.3369 32.002 33.0039c19.333 2.66699 33.666 7 42.999 13s21.333 19 36 39l167 231c5.33301 7.33301 8 15 8 23c0 7.33301 -2 13.333 -6 18l-149 214c-12.667 18.667 -23.667 31 -33 37s-25.333 11 -48 15c-14 3.33301 -21 13 -21 29
c0 11.333 4.16699 18.833 12.5 22.5s22.166 5.5 41.499 5.5c20 -0.666992 52.333 -1 97 -1c46 0 79.333 0.333008 100 1c17.333 0 29.5 -2 36.5 -6s10.5 -10.667 10.5 -20c0 -14 -7 -23 -21 -27c-19.333 -2.66699 -33.166 -5.83398 -41.499 -9.50098s-12.5 -8.5 -12.5 -14.5
c0 -4.66699 2.33301 -10.334 7 -17.001l109 -158c6 -7.33301 11.333 -11 16 -11c5.33301 0 10.666 3.66699 15.999 11l105 152c6.66699 9.33301 10 17.666 10 24.999c0 6.66699 -4 12 -12 16s-21.333 7 -40 9c-8 2 -14.333 5.5 -19 10.5s-7 10.5 -7 16.5
c0 8.66699 3.83301 14.834 11.5 18.501s18.834 5.5 33.501 5.5c38.667 -1.33301 64 -2 76 -2c18 0 31.667 0.333008 41 1l47 1c22 0 33 -8 33 -24c0 -18 -10.333 -29.333 -31 -34c-18.667 -2 -32.834 -6 -42.501 -12s-22.167 -19.333 -37.5 -40l-138 -193
c-4.66699 -6.66699 -7 -13 -7 -19c0 -6.66699 1.66699 -12 5 -16l166 -240c13.333 -19.333 24 -33.166 32 -41.499s16.167 -14.166 24.5 -17.499s20.833 -7 37.5 -11c7.33301 -2 12.666 -5.16699 15.999 -9.5s5 -10.833 5 -19.5c0 -10 -3.66699 -17.167 -11 -21.5
s-21.666 -6.5 -42.999 -6.5l-85 1l-113 -1c-14.667 0 -25.5 1.83301 -32.5 5.5s-10.5 10.167 -10.5 19.5c0 16 9.33301 25.333 28 28c14 1.33301 24.333 3.66602 31 6.99902s10 8.33301 10 15c0 9.33301 -6.33301 22.666 -19 39.999l-121 174c-6 9.33301 -12 14 -18 14
c-4.66699 0 -9.66699 -3.66699 -15 -11l-136 -191c-7.33301 -11.333 -11 -20 -11 -26c0 -6.66699 3.83301 -11.834 11.5 -15.501s20.167 -6.83398 37.5 -9.50098c8.66699 -2.66699 15.167 -6.33398 19.5 -11.001s6.5 -9.66699 6.5 -15
c0 -9.33301 -3.66699 -15.666 -11 -18.999s-19 -5 -35 -5h-105h-50c-24.667 0 -37 8 -37 24z" />
    <glyph glyph-name="Y" unicode="Y" horiz-adv-x="683" 
d="M212.5 5c-6.33301 3.33301 -9.49512 10 -9.49512 20c0 6 2.33301 11.5 7 16.5s10.334 8.83301 17.001 11.5c19.333 6 33.166 11.833 41.499 17.5s13.833 13.334 16.5 23.001s4 24.167 4 43.5v105c0 21.333 -8 46 -24 74l-160 277c-10.667 18.667 -20.834 31 -30.501 37
s-24.834 10.333 -45.501 13c-8 2.66699 -14 6.16699 -18 10.5s-6 10.833 -6 19.5c0 10.667 4 18 12 22s21 6 39 6h125h68c20 0 33.833 -2.16699 41.5 -6.5s11.5 -10.5 11.5 -18.5c0 -13.333 -7 -23 -21 -29c-18.667 -3.33301 -32.334 -7 -41.001 -11s-13 -9.33301 -13 -16
c0 -5.33301 2.66699 -12.333 8 -21l128 -220c4 -6 8 -9 12 -9c4.66699 0 8.33398 3.33301 11.001 10l131 228c3.33301 5.33301 5 10.666 5 15.999c0 8 -5 14 -15 18s-26 7.33301 -48 10c-10 5.33301 -15 13 -15 23c0 9.33301 3.16699 15.833 9.5 19.5s16.5 5.5 30.5 5.5h157
c24.667 0 37 -7.33301 37 -22s-10.333 -25.667 -31 -33c-13.333 -1.33301 -23.333 -3.83301 -30 -7.5s-12.167 -8.33398 -16.5 -14.001s-10.833 -16.167 -19.5 -31.5l-159 -270c-12.667 -23.333 -19 -49.666 -19 -78.999v-98c0 -22.667 1.16699 -39.167 3.5 -49.5
s7.66602 -18.5 15.999 -24.5s22.166 -12 41.499 -18c16 -6.66699 24 -16 24 -28c0 -8.66699 -2.83301 -15.167 -8.5 -19.5s-15.834 -6.5 -30.501 -6.5l-203 1c-16 0 -27.167 1.66699 -33.5 5z" />
    <glyph glyph-name="Z" unicode="Z" horiz-adv-x="624" 
d="M498 -13c-18.667 4 -35.6689 7.16699 -51.002 9.5s-33.666 3.5 -54.999 3.5h-334c-22.667 0 -34 8 -34 24c0 10.667 5 22.667 15 36l387 560c4 7.33301 6 12.666 6 15.999c0 6.66699 -5 10 -15 10h-208c-16 0 -28.667 -3.5 -38 -10.5s-18.166 -20 -26.499 -39
s-19.5 -50.5 -33.5 -94.5c-4 -10.667 -8.5 -18.334 -13.5 -23.001s-11.833 -7 -20.5 -7c-16.667 0 -25 11.333 -25 34c0 23.333 7.33301 57.333 22 102c10.667 34.667 18.667 59.334 24 74.001s10.333 24.5 15 29.5s10.334 7.5 17.001 7.5c5.33301 0 13.333 -2 24 -6
c20 -8.66699 42.333 -13 67 -13h353c6 0 11 -1.16699 15 -3.5s6.66699 -5.16602 8 -8.49902c1.33301 -4 2 -6.66699 2 -8c0 -6 -2.33301 -12.667 -7 -20l-402 -566c-8.66699 -12.667 -13 -22 -13 -28c0 -7.33301 5.66699 -11 17 -11h251c14.667 0 26.5 3.66699 35.5 11
s17.833 20.833 26.5 40.5s20.334 51.167 35.001 94.5c4.66699 10 9.5 17.167 14.5 21.5s11.5 6.5 19.5 6.5c15.333 0 23 -12.333 23 -37c0 -23.333 -7.33301 -57.333 -22 -102c-10.667 -34 -18.834 -58.167 -24.501 -72.5s-10.334 -23.833 -14.001 -28.5s-8.5 -7 -14.5 -7
c-4 0 -12.667 1.66699 -26 5z" />
    <glyph glyph-name="bracketleft" unicode="[" horiz-adv-x="292" 
d="M85 -153c-22 0 -36.5 3.66699 -43.5 11s-10.5 19.333 -10.5 36v799c0 16.667 3.5 28.667 10.5 36s21.5 11 43.5 11h180c7.33301 0 12.833 -1.83301 16.5 -5.5s5.5 -10.5 5.5 -20.5c0 -16.667 -7.33301 -25 -22 -25h-99c-19.333 0 -29 -8.66699 -29 -26v-738
c0 -8.66699 2.16699 -15.167 6.5 -19.5s11.833 -6.5 22.5 -6.5h97c16 0 24 -8.66699 24 -26c0 -10 -1.83301 -16.833 -5.5 -20.5s-9.16699 -5.5 -16.5 -5.5h-180z" />
    <glyph glyph-name="backslash" unicode="\" horiz-adv-x="536" 
d="M38 667c-6 14.667 -9 24.333 -9 29c0 14 12.667 21 38 21c13.333 0 23.5 -1.5 30.5 -4.5s12.333 -7.33301 16 -13s8.5 -15.167 14.5 -28.5l370 -801c6 -13.333 9 -23 9 -29c0 -14 -12.667 -21 -38 -21c-18.667 0 -31.667 3.33301 -39 10s-15 19 -23 37z" />
    <glyph glyph-name="bracketright" unicode="]" horiz-adv-x="293" 
d="M28 -153c-8 0 -13.833 1.83301 -17.5 5.5s-5.5 10.5 -5.5 20.5c0 17.333 8.33301 26 25 26h96c11.333 0 19.166 2.16699 23.499 6.5s6.5 10.833 6.5 19.5v738c0 8 -2.16699 14.333 -6.5 19s-12.166 7 -23.499 7h-98c-15.333 0 -23 8.33301 -23 25
c0 10 1.83301 16.833 5.5 20.5s9.16699 5.5 16.5 5.5h180c22.667 0 37.5 -3.66699 44.5 -11s10.5 -19.333 10.5 -36v-799c0 -16.667 -3.5 -28.667 -10.5 -36s-21.833 -11 -44.5 -11h-179z" />
    <glyph glyph-name="asciicircum" unicode="^" horiz-adv-x="373" 
d="M34.5 527.5c-3 3 -4.50098 6.83203 -4.50098 11.499c0 12.667 15.333 34.834 46 66.501s57.667 55.167 81 70.5c9.33301 6.66699 19.333 10 30 10s20.667 -3.33301 30 -10c20.667 -14 45.334 -35.833 74.001 -65.5s45.667 -51.834 51 -66.501l1 -5
c0 -4.66699 -1.5 -8.5 -4.5 -11.5s-6.5 -4.5 -10.5 -4.5c-10.667 0 -24 6.33301 -40 19c-16.667 12.667 -31.667 25 -45 37c-12.667 10.667 -24.667 20.334 -36 29.001s-18.333 13 -21 13s-12.667 -6.83301 -30 -20.5l-37 -29.5l-35 -29c-16 -12.667 -28.667 -19 -38 -19
c-4.66699 0 -8.5 1.5 -11.5 4.5z" />
    <glyph glyph-name="underscore" unicode="_" horiz-adv-x="498" 
d="M28 -146c-18.667 0 -27.999 6.33301 -27.999 19c0 9.33301 2.66699 16.833 8 22.5s13 8.5 23 8.5h440c18 0 27 -6 27 -18c0 -9.33301 -2.83301 -17 -8.5 -23s-12.834 -9 -21.501 -9h-440z" />
    <glyph glyph-name="grave" unicode="`" horiz-adv-x="259" 
d="M153 555.5c-30.667 20.333 -58.999 42.334 -84.999 66.001s-39 40.5 -39 50.5c0 7.33301 3 12.5 9 15.5s17 4.5 33 4.5s28.667 -1.5 38 -4.5s17 -9.16699 23 -18.5c9.33301 -12.667 18.666 -24.334 27.999 -35.001c46.667 -56 70 -88 70 -96
c0 -8.66699 -5.66699 -13 -17 -13c-9.33301 0 -29.333 10.167 -60 30.5z" />
    <glyph glyph-name="a" unicode="a" horiz-adv-x="552" 
d="M71.5 27c-25.667 25.333 -38.4961 57.9971 -38.4961 97.9971c0 44.667 19 80.667 57 108s90.333 42.333 157 45c26 1.33301 45.167 3 57.5 5s20.333 5.33301 24 10s4.83398 11.667 3.50098 21l-2 23c-4.66699 32.667 -14.167 57.334 -28.5 74.001s-34.833 25 -61.5 25
s-48.5 -7.5 -65.5 -22.5s-25.5 -35.833 -25.5 -62.5c-5.33301 -29.333 -23 -44 -53 -44c-10 0 -19 3.66699 -27 11s-12 17.333 -12 30c0 25.333 9.16699 48.833 27.5 70.5s43.166 38.667 74.499 51s66.333 18.5 105 18.5c55.333 0 96.666 -13.667 123.999 -41
s44.333 -68 51 -122l23 -189c3.33301 -26.667 8 -44.5 14 -53.5s13.667 -13.5 23 -13.5c6 0 10.833 1.33301 14.5 4s7.5 6.66699 11.5 12s8 8 12 8c4.66699 0 8.5 -1.66699 11.5 -5s4.5 -8.66602 4.5 -15.999c0 -11.333 -3.83301 -23.166 -11.5 -35.499
s-18.334 -22.666 -32.001 -30.999s-28.834 -12.5 -45.501 -12.5c-25.333 0 -44.833 6.5 -58.5 19.5s-23.834 32.5 -30.501 58.5c-1.33301 6 -3.66602 9 -6.99902 9c-2 0 -9 -8.33301 -21 -25s-30.833 -31.834 -56.5 -45.501s-59.834 -20.5 -102.501 -20.5
c-52 0 -90.833 12.667 -116.5 38zM316.004 86.4971c22 23 33 51.5 33 85.5c0 8.66699 -0.333008 15 -1 19l-2 16c-1.33301 10 -4 17 -8 21s-10.5 6.5 -19.5 7.5s-24.833 1.5 -47.5 1.5c-44 0 -76.167 -8.5 -96.5 -25.5s-30.5 -39.167 -30.5 -66.5c0 -30 7.66699 -53 23 -69
s38 -24 68 -24c32 0 59 11.5 81 34.5z" />
    <glyph glyph-name="b" unicode="b" horiz-adv-x="571" 
d="M217.5 5.5c-21.667 11 -40.167 24.5039 -55.5 40.5039c-8.66699 8.66699 -15 13 -19 13c-3.33301 0 -6.5 -2 -9.5 -6s-6.83301 -10 -11.5 -18c-6.66699 -11.333 -12.667 -20.166 -18 -26.499s-12 -9.5 -20 -9.5c-13.333 0 -18.666 8.66699 -15.999 26
c5.33301 39.333 8 89.333 8 150v413c0 14 -1.66699 24.333 -5 31s-10.333 10.334 -21 11.001c-4.66699 0 -12.167 -0.166992 -22.5 -0.5s-18 0.666992 -23 3s-7.5 6.16602 -7.5 11.499c0 7.33301 2.83301 13.166 8.5 17.499s14.167 8.16602 25.5 11.499
c7.33301 2 14 4.33301 20 7c20 6.66699 39.5 12.667 58.5 18s33.5 8 43.5 8c11.333 0 19.5 -2.33301 24.5 -7s7.5 -12.334 7.5 -23.001v-277c0 -6 0.333008 -10.667 1 -14s2 -5 4 -5c0.666992 0 6.66699 9.5 18 28.5s29.666 37 54.999 54s56.333 25.5 93 25.5
c34.667 0 66 -9.33301 94 -28s50.333 -45.834 67 -81.501s25 -77.834 25 -126.501c0 -50 -10 -95 -30 -135s-48 -71.333 -84 -94s-76.667 -34 -122 -34c-37.333 0 -66.833 5.5 -88.5 16.5zM395.5 84.5039c22.333 29.667 33.5 71.166 33.5 124.499
c0 62.667 -10.5 111.834 -31.5 147.501s-50.167 53.5 -87.5 53.5c-38 0 -68.333 -14.833 -91 -44.5s-34 -67.167 -34 -112.5v-15c0 -66 11 -115.5 33 -148.5s52 -49.5 90 -49.5c36 0 65.167 14.833 87.5 44.5z" />
    <glyph glyph-name="c" unicode="c" horiz-adv-x="501" 
d="M141 21.5c-36 21.667 -63.665 51.499 -82.998 89.499s-29 80.333 -29 127c0 47.333 10.5 90 31.5 128s49.333 67.5 85 88.5s74.5 31.5 116.5 31.5c32.667 0 64 -6.16699 94 -18.5s54.167 -29.666 72.5 -51.999s27.5 -47.166 27.5 -74.499
c0 -12.667 -3.33301 -23.334 -10 -32.001s-16.334 -13 -29.001 -13c-15.333 0 -27.333 4 -36 12s-15.334 20 -20.001 36c-8.66699 61.333 -42.667 92 -102 92c-20.667 0 -40.167 -6.5 -58.5 -19.5s-32.833 -31.5 -43.5 -55.5s-16 -52.333 -16 -85c0 -62 13.5 -113 40.5 -153
s65.833 -60 116.5 -60c29.333 0 56 6.5 80 19.5s43.667 29.5 59 49.5c6 7.33301 11.333 11 16 11c6 0 10.5 -1.83301 13.5 -5.5s4.5 -8.16699 4.5 -13.5c0 -3.33301 -0.333008 -6 -1 -8c-14.667 -37.333 -39.167 -67.833 -73.5 -91.5s-77.5 -35.5 -129.5 -35.5
c-48 0 -90 10.833 -126 32.5z" />
    <glyph glyph-name="d" unicode="d" horiz-adv-x="585" 
d="M117.5 19.5c-28.333 20.333 -50.165 49.1709 -65.498 86.5039s-23 80 -23 128c0 47.333 8.83301 90.166 26.5 128.499s43 68.666 76 90.999s71.167 33.5 114.5 33.5c30.667 0 54.667 -4.66699 72 -14s31.166 -19.166 41.499 -29.499s16.5 -15.5 18.5 -15.5
c4 0 6.5 4.5 7.5 13.5s1.5 24.167 1.5 45.5v101c0 14.667 -1.66699 25.167 -5 31.5s-10.666 9.83301 -21.999 10.5c-4.66699 0 -12 -0.166992 -22 -0.5s-17.5 0.666992 -22.5 3s-7.5 6.16602 -7.5 11.499c0 7.33301 2.83301 13.166 8.5 17.499s13.834 8.16602 24.501 11.499
c5.33301 1.33301 13.333 4 24 8c5.33301 2 16 5.33301 32 10s29.5 8.33398 40.5 11.001s19.833 4 26.5 4c11.333 0 19.5 -2.33301 24.5 -7s7.5 -12.334 7.5 -23.001v-564c0 -14.667 1.66699 -25.334 5 -32.001s10.333 -10 21 -10l26 1c8.66699 0 15.167 -1.16699 19.5 -3.5
s6.5 -6.5 6.5 -12.5c0 -7.33301 -2.83301 -12.833 -8.5 -16.5s-13.834 -7.5 -24.501 -11.5l-35 -11c-16.667 -5.33301 -33.167 -10.333 -49.5 -15s-28.833 -7 -37.5 -7c-11.333 0 -19.5 2.33301 -24.5 7s-7.5 12.334 -7.5 23.001v42c-0.666992 20 -2.33398 30 -5.00098 30
c-0.666992 0 -6.83398 -9.5 -18.501 -28.5s-30.167 -36.833 -55.5 -53.5s-56.333 -25 -93 -25s-69.167 10.167 -97.5 30.5zM353.501 103.505c22.333 27 33.499 61.499 33.499 103.499v33c0 62 -10.667 110.167 -32 144.5s-52 51.5 -92 51.5
c-21.333 0 -41.166 -6.16699 -59.499 -18.5s-33 -30.666 -44 -54.999s-16.5 -53.5 -16.5 -87.5c0 -66 11.5 -117.833 34.5 -155.5s54.167 -56.5 93.5 -56.5c32.667 0 60.167 13.5 82.5 40.5z" />
    <glyph glyph-name="e" unicode="e" horiz-adv-x="491" 
d="M138.5 23.5c-35.667 23 -62.832 53.666 -81.499 91.999s-28 80.833 -28 127.5c0 48 10.833 90.333 32.5 127s50.834 65.167 87.501 85.5s76 30.5 118 30.5c39.333 0 73.833 -8.16699 103.5 -24.5s52.667 -37.166 69 -62.499s24.5 -51 24.5 -77
c0 -22.667 -5.5 -38.5 -16.5 -47.5s-29.167 -15.5 -54.5 -19.5l-227 -33c-5.33301 -1.33301 -9.33301 -3 -12 -5s-4 -5.66699 -4 -11c0 -21.333 5.66699 -43.166 17 -65.499s28.166 -40.833 50.499 -55.5s48.5 -22 78.5 -22c32 0 60 6.66699 84 20s43.333 30.333 58 51
c5.33301 6 10.333 9 15 9c6 0 10.667 -1.83301 14 -5.5s5 -8.16699 5 -13.5c0 -2.66699 -0.666992 -5.33398 -2 -8.00098c-15.333 -36.667 -40.333 -67 -75 -91s-78 -36 -130 -36c-48.667 0 -90.834 11.5 -126.501 34.5zM330.002 299.999c12 2 20.334 5 25.001 9
s7 10.333 7 19c0 16.667 -4.5 33.334 -13.5 50.001s-21.833 30.5 -38.5 41.5s-35.667 16.5 -57 16.5c-19.333 0 -37.833 -5.66699 -55.5 -17s-31.834 -27.333 -42.501 -48s-16 -44.334 -16 -71.001c0 -13.333 1.5 -21.5 4.5 -24.5s8.83301 -3.83301 17.5 -2.5z" />
    <glyph glyph-name="f" unicode="f" horiz-adv-x="348" 
d="M110 -5c-28.667 0 -48.334 2.16699 -59.001 6.5s-16 11.166 -16 20.499c0 5.33301 1.66699 10 5 14s7.66602 6.66699 12.999 8c17.333 3.33301 29.833 8.16602 37.5 14.499s12.334 14.333 14.001 24s2.5 24.834 2.5 45.501v273c0 8.66699 -2.5 15 -7.5 19
s-10.5 6 -16.5 6h-47c-4.66699 0 -8.5 1.66699 -11.5 5s-4.5 7.66602 -4.5 12.999c0 9.33301 2.5 17 7.5 23s10.167 9 15.5 9h61l-7 27c-5.33301 18 -9.33301 33.5 -12 46.5s-4 27.833 -4 44.5c0 36.667 14.833 67.167 44.5 91.5s69.5 36.5 119.5 36.5
c46 0 84.5 -11 115.5 -33s46.5 -50.333 46.5 -85c0 -10.667 -3.5 -20 -10.5 -28s-16.833 -12 -29.5 -12c-13.333 0 -23.666 3.5 -30.999 10.5s-13 17.5 -17 31.5c-2 20 -9.16699 35.833 -21.5 47.5s-29.833 17.5 -52.5 17.5c-23.333 0 -42.166 -7.16699 -56.499 -21.5
s-21.5 -32.5 -21.5 -54.5c0 -15.333 2.33301 -29.833 7 -43.5s11.667 -29.5 21 -47.5c2 -3.33301 6.33301 -12.666 13 -27.999h111c6.66699 0 11.667 -1 15 -3s5 -6.33301 5 -13c0 -9.33301 -2.5 -17.333 -7.5 -24s-10.833 -10 -17.5 -10h-70
c-18.667 0 -28 -8.66699 -28 -26v-271c0 -21.333 1 -36.833 3 -46.5s6.66699 -17.5 14 -23.5s20 -11 38 -15c12.667 -4 19 -11.333 19 -22c0 -9.33301 -4.83301 -16.166 -14.5 -20.499s-28.834 -6.5 -57.501 -6.5h-108z" />
    <glyph glyph-name="g" unicode="g" horiz-adv-x="526" 
d="M476 476c-16 -18 -37.332 -30.3311 -63.999 -36.998c24 -18 42.667 -40 56 -66s20 -54.667 20 -86c0 -42 -10.667 -78.833 -32 -110.5s-51.333 -55.167 -90 -70.5c40.667 -10 72.334 -26 95.001 -48s34 -49.667 34 -83c0 -50 -22 -89.5 -66 -118.5s-102 -43.5 -174 -43.5
c-31.333 0 -61.666 3.5 -90.999 10.5s-55 17.5 -77 31.5c-20.667 12 -36.834 26.667 -48.501 44s-17.5 37 -17.5 59c0 16 5 28.5 15 37.5s22.333 13.5 37 13.5c15.333 0 29.333 -4.5 42 -13.5s21.667 -21.833 27 -38.5c2.66699 -25.333 12.667 -46 30 -62
c23.333 -20.667 55.666 -31 96.999 -31c35.333 0.666992 64.333 9.83398 87 27.501s34 41.5 34 71.5c0 35.333 -13.333 64.666 -40 87.999s-62 35.333 -106 36c-41.333 0 -79 8.33301 -113 25s-60.833 40 -80.5 70s-29.5 65 -29.5 105c0 37.333 9.83301 71.166 29.5 101.499
s47.167 54.333 82.5 72s76 26.5 122 26.5c30 0 59.667 -4.33301 89 -13c2.66699 -0.666992 6.66699 -1 12 -1c16.667 0 28.667 5.66699 36 17s11 28.666 11 51.999c0 14.667 4.66699 25.834 14 33.501s20.666 11.5 33.999 11.5s24.833 -4.33301 34.5 -13
s14.5 -19.334 14.5 -32.001c0 -26 -8 -48 -24 -66zM345.001 172.502c20.667 23 31 53.167 31 90.5c0 50 -12.167 91.167 -36.5 123.5s-55.833 48.5 -94.5 48.5c-32 0 -58.833 -11.833 -80.5 -35.5s-32.5 -53.5 -32.5 -89.5c0 -51.333 12.167 -92.833 36.5 -124.5
s55.833 -47.5 94.5 -47.5c34 0 61.333 11.5 82 34.5z" />
    <glyph glyph-name="h" unicode="h" horiz-adv-x="633" 
d="M38 3.5c-10.667 4.33301 -15.998 11.168 -15.998 20.501c0 10 6 17.333 18 22c17.333 4 29.833 9.16699 37.5 15.5s12.334 14.166 14.001 23.499s2.5 24.333 2.5 45v458c0 14.667 -1.5 25.167 -4.5 31.5s-10.167 9.83301 -21.5 10.5l-22 -1
c-10 0 -17.5 1.16699 -22.5 3.5s-7.5 6.5 -7.5 12.5c0 7.33301 2.83301 12.833 8.5 16.5s13.834 7.5 24.501 11.5l35 11c16.667 5.33301 33.167 10.333 49.5 15s28.833 7 37.5 7c11.333 0 19.5 -2.33301 24.5 -7s7.5 -12.334 7.5 -23.001v-266c0 -16.667 1.33301 -25 4 -25
c1.33301 0 7 9.16699 17 27.5s27 35.5 51 51.5s55.333 24 94 24c43.333 0 79.333 -14 108 -42s46 -71 52 -129l20 -178c3.33301 -26.667 6.5 -45.167 9.5 -55.5s7.66699 -17.666 14 -21.999s18.166 -8.5 35.499 -12.5c13.333 -5.33301 20 -14 20 -26
c0 -8.66699 -4 -15 -12 -19s-24.333 -6 -49 -6l-67 1l-65 -1c-21.333 0 -36.333 1.83301 -45 5.5s-13 10.167 -13 19.5c0 12.667 6.66699 20.667 20 24c19.333 4.66699 32.166 10 38.499 16s9.5 17.333 9.5 34c0 5.33301 -1.33301 21.333 -4 48l-18 154
c-4.66699 38.667 -15 66.834 -31 84.501s-39.667 26.5 -71 26.5c-18.667 0 -37 -5.33301 -55 -16s-33 -27.834 -45 -51.501s-18 -53.5 -18 -89.5v-122c0 -20.667 1 -35.834 3 -45.501s6.66699 -17.5 14 -23.5s20 -11 38 -15c12.667 -6 19 -13.667 19 -23
s-4.83301 -16.166 -14.5 -20.499s-28.834 -6.5 -57.501 -6.5l-54 1l-54 -1c-28.667 0 -48.334 2.16699 -59.001 6.5z" />
    <glyph glyph-name="i" unicode="i" horiz-adv-x="296" 
d="M41 1.5c-10.667 4.33301 -15.999 11.166 -15.999 20.499c0 10 6 17.333 18 22c17.333 4 29.833 9.16699 37.5 15.5s12.334 14.166 14.001 23.499s2.5 24.333 2.5 45v237c0 14.667 -1.66699 25.334 -5 32.001s-10.333 10 -21 10l-24 -1
c-9.33301 0 -16.333 1.16699 -21 3.5s-7 6.5 -7 12.5c0 7.33301 2.66699 12.833 8 16.5s13.666 7.83398 24.999 12.501l29 9c47.333 15.333 78.333 23 93 23c11.333 0 19.5 -2.33301 24.5 -7s7.5 -12.334 7.5 -23.001v-324c0 -20.667 1 -35.834 3 -45.501
s6.66699 -17.667 14 -24s20 -11.5 38 -15.5c12.667 -5.33301 19 -12.666 19 -21.999s-4.83301 -16.166 -14.5 -20.499s-29.167 -6.5 -58.5 -6.5l-53 1l-54 -1c-28.667 0 -48.334 2.16699 -59.001 6.5zM81.001 573c-14 10.667 -21 24.667 -21 42c0 16.667 7 30.167 21 40.5
s32.667 15.5 56 15.5c22 0 39.833 -5.16699 53.5 -15.5s20.5 -23.833 20.5 -40.5c0 -17.333 -6.83301 -31.333 -20.5 -42s-31.5 -16 -53.5 -16c-23.333 0 -42 5.33301 -56 16z" />
    <glyph glyph-name="j" unicode="j" horiz-adv-x="266" 
d="M5 -177c-9.33301 0 -16.832 2.66895 -22.499 8.00195s-8.5 11.666 -8.5 18.999c0 6 2.16699 11.833 6.5 17.5s10.5 9.83398 18.5 12.501c60.667 18.667 91 74.667 91 168v317c0 14.667 -1.5 25.167 -4.5 31.5s-10.167 9.83301 -21.5 10.5
c-18 -0.666992 -31.167 -0.166992 -39.5 1.5s-12.5 6.16699 -12.5 13.5s2.66699 12.833 8 16.5s13.666 7.83398 24.999 12.501l29 9c47.333 15.333 78.333 23 93 23c11.333 0 19.5 -2.33301 24.5 -7s7.5 -12.334 7.5 -23.001v-379c0 -76.667 -17 -134.834 -51 -174.501
s-78.667 -64.834 -134 -75.501c-2 -0.666992 -5 -1 -9 -1zM73.001 573.002c-14 10.667 -21 24.667 -21 42c0 16.667 7 30.167 21 40.5s32.667 15.5 56 15.5c22 0 39.833 -5.16699 53.5 -15.5s20.5 -23.833 20.5 -40.5c0 -17.333 -6.83301 -31.333 -20.5 -42
s-31.5 -16 -53.5 -16c-23.333 0 -42 5.33301 -56 16z" />
    <glyph glyph-name="k" unicode="k" horiz-adv-x="606" 
d="M32.5 3c-8.33301 4 -12.501 10.3389 -12.501 19.0059c0 11.333 6.33301 18.666 19 21.999c18 4 30.833 9 38.5 15s12.5 13.833 14.5 23.5s3 25.167 3 46.5v459c0 14.667 -1.66699 25.334 -5 32.001s-10.666 10 -21.999 10l-24 -1c-18 0 -27.333 5 -28 15
c0 7.33301 2.66699 13 8 17s14 8.33301 26 13l29 9c47.333 15.333 78.333 23 93 23c11.333 0 19.5 -2.33301 24.5 -7s7.5 -12.334 7.5 -23.001v-391c0 -13.333 3.66699 -20 11 -20c4.66699 0 10 3.33301 16 10l128 128c8 8 12 15.333 12 22c0 4 -2.33301 6.66699 -7 8
s-15 2.33301 -31 3c-4.66699 0.666992 -8.5 2.66699 -11.5 6s-4.5 8 -4.5 14c0 14 13 21 39 21h149c12.667 0 22.167 -1.5 28.5 -4.5s9.5 -9.5 9.5 -19.5c0 -16 -8.33301 -24.667 -25 -26c-23.333 -0.666992 -41.666 -4 -54.999 -10s-26 -15 -38 -27l-56 -56
c-8.66699 -8.66699 -13 -16.334 -13 -23.001c0 -4.66699 2.33301 -10.667 7 -18l135 -192c14.667 -20 26.167 -33 34.5 -39s20.166 -10 35.499 -12c7.33301 -2 13.666 -5.16699 18.999 -9.5s8 -9.83301 8 -16.5c0 -8.66699 -4 -15.334 -12 -20.001s-18.333 -7 -31 -7l-71 1
l-71 -1c-20 0 -34 2 -42 6s-12 10.333 -12 19c0 4.66699 1.83301 8.16699 5.5 10.5s8.83398 4.83301 15.501 7.5c7.33301 2.66699 13 5.5 17 8.5s6 6.83301 6 11.5c0 5.33301 -3 12.333 -9 21l-98 137c-6.66699 10 -13.667 15 -21 15
c-4.66699 0 -10.334 -2.66699 -17.001 -8l-38 -38c-6 -4.66699 -9.66699 -10.334 -11 -17.001s-2 -19.334 -2 -38.001v-24c0 -13.333 1 -23.5 3 -30.5s7 -13.167 15 -18.5s20.667 -10 38 -14c13.333 -4.66699 20 -12.334 20 -23.001c0 -8.66699 -3.66699 -15 -11 -19
s-20.333 -6 -39 -6l-79 1l-77 -1c-19.333 0 -33.166 2 -41.499 6z" />
    <glyph glyph-name="l" unicode="l" horiz-adv-x="293" 
d="M38 1.5c-10.667 4.33301 -15.998 11.167 -15.998 20.5c0 10 6 17.333 18 22c17.333 4 29.833 9.16699 37.5 15.5s12.334 14.166 14.001 23.499s2.5 24.333 2.5 45v460c0 14.667 -1.5 25.167 -4.5 31.5s-10.167 9.83301 -21.5 10.5l-24 -1
c-9.33301 0 -16.333 1.16699 -21 3.5s-7 6.5 -7 12.5c0 7.33301 2.66699 12.833 8 16.5s13.666 7.83398 24.999 12.501l29 9c47.333 15.333 78.333 23 93 23c11.333 0 19.5 -2.33301 24.5 -7s7.5 -12.334 7.5 -23.001v-547c0 -20.667 1 -35.834 3 -45.501
s6.66699 -17.667 14 -24s20 -11.5 38 -15.5c12.667 -5.33301 19 -12.666 19 -21.999s-4.83301 -16.166 -14.5 -20.499s-28.834 -6.5 -57.501 -6.5l-54 1l-54 -1c-28.667 0 -48.334 2.16699 -59.001 6.5z" />
    <glyph glyph-name="m" unicode="m" horiz-adv-x="913" 
d="M40.5 3c-10.333 4 -15.501 10.334 -15.501 19.001c0 10.667 6.33301 18 19 22c17.333 4 29.666 9.16699 36.999 15.5s11.833 14.166 13.5 23.499s2.5 24.666 2.5 45.999v234c0 15.333 -1.5 26.166 -4.5 32.499s-10.5 9.83301 -22.5 10.5l-27 -1
c-8.66699 0 -14.834 1 -18.501 3s-5.5 6.33301 -5.5 13c0 7.33301 2.5 13 7.5 17s12.833 8 23.5 12c5.33301 1.33301 17 5 35 11c17.333 5.33301 34.333 10.166 51 14.499s29.667 6.5 39 6.5c11.333 0 19.333 -2.33301 24 -7s7 -12.334 7 -23.001v-36
c0 -10.667 0.333008 -18.5 1 -23.5s2 -7.5 4 -7.5c0.666992 0 9.83398 17.167 27.501 51.5s60.834 51.5 129.501 51.5c62 0 105.333 -31 130 -93c2.66699 -6.66699 5.66699 -10 9 -10c1.33301 0 7 9.33301 17 28s26 35.834 48 51.501s51.333 23.5 88 23.5
c40 0 73.333 -14 100 -42s43.334 -71 50.001 -129l20 -178c2.66699 -26.667 5.5 -45.167 8.5 -55.5s7.66699 -17.666 14 -21.999s18.166 -8.5 35.499 -12.5c13.333 -6 20 -14.667 20 -26c0 -8 -3.66699 -14.167 -11 -18.5s-21 -6.5 -41 -6.5l-67 1l-65 -1
c-26 0 -43.667 1.83301 -53 5.5s-14 10.167 -14 19.5c0 12 6.66699 20 20 24c19.333 4.66699 32.166 9.83398 38.499 15.501s9.5 17.167 9.5 34.5c0 5.33301 -1.33301 21.333 -4 48l-17 152c-9.33301 75.333 -38.666 113 -87.999 113
c-16.667 0 -32.834 -5.16699 -48.501 -15.5s-28.5 -26.333 -38.5 -48s-15 -48.834 -15 -81.501v-135c0 -21.333 0.833008 -37 2.5 -47s6 -18.667 13 -26s18.833 -13 35.5 -17c8.66699 -4 13 -10.333 13 -19c0 -16 -12.667 -24 -38 -24l-79 1l-77 -1
c-14.667 0 -25.167 2 -31.5 6s-9.5 10.333 -9.5 19c0 11.333 5 18.666 15 21.999c15.333 3.33301 26.333 8.5 33 15.5s10.667 15.333 12 25s2 24.834 2 45.501v148c0 48 -8 82 -24 102s-38.333 30 -67 30c-16 0 -32.333 -5.33301 -49 -16s-30.667 -27.667 -42 -51
s-17 -53 -17 -89v-124c0 -20.667 0.833008 -36 2.5 -46s5.83398 -18.167 12.501 -24.5s17.667 -11.166 33 -14.499c4.66699 -2 8.5 -5.16699 11.5 -9.5s4.5 -9.16602 4.5 -14.499c0 -8 -4 -14 -12 -18s-25 -6 -51 -6l-55 1l-52 -1c-29.333 0 -49.166 2 -59.499 6z" />
    <glyph glyph-name="n" unicode="n" horiz-adv-x="636" 
d="M40.5 4c-10.333 4 -15.498 10.667 -15.498 20c0 10 6 17.333 18 22c17.333 4 29.833 9.16699 37.5 15.5s12.334 14.166 14.001 23.499s2.5 24.333 2.5 45v235c0 14.667 -1.5 25.167 -4.5 31.5s-10.167 9.83301 -21.5 10.5l-24 -1c-9.33301 0 -16.333 1.16699 -21 3.5
s-7 6.5 -7 12.5c0 7.33301 2.66699 12.833 8 16.5s13.666 7.83398 24.999 12.501l29 9c47.333 15.333 78.333 23 93 23c11.333 0 19.5 -2.33301 24.5 -7s7.5 -12.334 7.5 -23.001v-57c0 -7.33301 1.33301 -11 4 -11c1.33301 0 6.83301 9.16699 16.5 27.5
s26.667 35.5 51 51.5s55.833 24 94.5 24c94 0 148 -61.333 162 -184l18 -164c3.33301 -27.333 6.16602 -46 8.49902 -56s7 -17.333 14 -22s19.167 -9 36.5 -13c13.333 -5.33301 20 -14 20 -26c0 -8 -3.66699 -14.167 -11 -18.5s-21 -6.5 -41 -6.5l-67 1l-65 -1
c-26 0 -43.667 1.83301 -53 5.5s-14 10.167 -14 19.5c0 12.667 6.66699 20.667 20 24c19.333 4 32.166 8.83301 38.499 14.5s9.5 17.167 9.5 34.5c0 5.33301 -1.33301 22 -4 50l-17 138c-4.66699 44 -15 76 -31 96s-40.333 30 -73 30
c-18.667 0 -36.834 -5.66699 -54.501 -17s-32.5 -28.666 -44.5 -51.999s-18 -52.666 -18 -87.999v-122c0 -20.667 1 -35.834 3 -45.501s6.66699 -17.5 14 -23.5s20 -11 38 -15c12.667 -6 19 -13.667 19 -23s-4.83301 -16 -14.5 -20s-29.167 -6 -58.5 -6h-107
c-29.333 0 -49.166 2 -59.499 6z" />
    <glyph glyph-name="o" unicode="o" horiz-adv-x="568" 
d="M152.5 21c-39 21.333 -69.334 50.833 -91.001 88.5s-32.5 80.5 -32.5 128.5s10.833 91 32.5 129s51.834 67.667 90.501 89s83 32 133 32c49.333 0 93.333 -10.667 132 -32s68.667 -51 90 -89s32 -81 32 -129s-10.667 -91 -32 -129s-51.333 -67.5 -90 -88.5
s-82.667 -31.5 -132 -31.5s-93.5 10.667 -132.5 32zM387.999 84c24 28.667 36 67.001 36 115.001c0 37.333 -6.16699 74.166 -18.5 110.499s-30 66.333 -53 90s-49.167 35.5 -78.5 35.5c-38.667 0 -70 -14.333 -94 -43s-36 -67 -36 -115
c0 -37.333 6.16699 -74.333 18.5 -111s30 -66.667 53 -90s49.167 -35 78.5 -35c38.667 0 70 14.333 94 43z" />
    <glyph glyph-name="p" unicode="p" horiz-adv-x="590" 
d="M38 -174c-10.667 4 -16.002 10.6709 -16.002 20.0039c0 10 6 17.333 18 22c17.333 4 29.833 9.16699 37.5 15.5s12.334 14.166 14.001 23.499s2.5 24.666 2.5 45.999v411c0 14.667 -1.66699 25.334 -5 32.001s-10.333 10 -21 10l-24 -1
c-9.33301 0 -16.333 1.16699 -21 3.5s-7 6.5 -7 12.5c0 7.33301 2.83301 13 8.5 17s13.834 8 24.501 12c34 11.333 60 19.5 78 24.5s32.667 7.5 44 7.5c12 0 20.333 -2.16699 25 -6.5s7 -11.833 7 -22.5v-54c0 -12.667 1.66699 -19 5 -19
c0.666992 0 6.83398 9.5 18.501 28.5s30.167 37 55.5 54s56.333 25.5 93 25.5c34 0 65.167 -9.33301 93.5 -28s50.666 -45.834 66.999 -81.501s24.5 -77.834 24.5 -126.501c0 -50 -9.66699 -95 -29 -135s-46.166 -71.333 -80.499 -94s-72.5 -34 -114.5 -34
c-42.667 0 -78.334 14.333 -107.001 43c-2.66699 2 -6 5 -10 9s-6.66699 6 -8 6c-5.33301 0 -8 -7.33301 -8 -22v-77c0 -19.333 1 -33.333 3 -42s6.66699 -16 14 -22s20 -11 38 -15c12.667 -6.66699 19 -14.334 19 -23.001c0 -9.33301 -4.66699 -16 -14 -20
s-28.666 -6 -57.999 -6h-108c-28.667 0 -48.334 2 -59.001 6zM413.498 83.5039c22.333 29 33.5029 68.5 33.5029 118.5c0 40 -5.16699 76 -15.5 108s-24.833 57.167 -43.5 75.5s-40.334 27.5 -65.001 27.5c-38.667 0 -68.334 -14.5 -89.001 -43.5s-31 -68.167 -31 -117.5
v-22c0 -62.667 11.333 -110 34 -142s52.667 -48 90 -48c35.333 0 64.166 14.5 86.499 43.5z" />
    <glyph glyph-name="q" unicode="q" horiz-adv-x="566" 
d="M330 -174c-10.667 4 -16.002 10.6729 -16.002 20.0059c0 10 6 17.333 18 22c17.333 4 29.833 9.16699 37.5 15.5s12.334 14.166 14.001 23.499s2.5 24.666 2.5 45.999v129c0 4 -0.166992 7.33301 -0.5 10s-1.5 4 -3.5 4c-0.666992 0 -7 -9.5 -19 -28.5
s-30.667 -36.833 -56 -53.5s-56 -25 -92 -25c-36.667 0 -69.167 10.167 -97.5 30.5s-50.166 49.166 -65.499 86.499s-23 80 -23 128s8.83301 91.167 26.5 129.5s43.834 68.666 78.501 90.999s75.667 33.5 123 33.5c40 0 71.167 -5.5 93.5 -16.5s41.833 -24.833 58.5 -41.5
c8.66699 -8.66699 15 -13 19 -13c2.66699 0 5.66699 2.16699 9 6.5s6.16602 8.33301 8.49902 12l5.5 8.5c14.667 26 26.667 39 36 39c6 0 10.5 -2 13.5 -6s4.16699 -10 3.5 -18c-6 -36 -9 -88.667 -9 -158v-348c0 -20.667 1 -35.834 3 -45.501s6.66699 -17.5 14 -23.5
s20 -11 38 -15c12.667 -6.66699 19 -14.334 19 -23.001c0 -9.33301 -4.66699 -16 -14 -20s-28.666 -6 -57.999 -6h-108c-28.667 0 -48.334 2 -59.001 6zM327.498 80.5059c17.667 11.667 31.998 28.333 42.998 50s16.5 46.5 16.5 74.5v35c0 60 -10.667 107.667 -32 143
s-51.666 53 -90.999 53c-21.333 0 -41.166 -6.16699 -59.499 -18.5s-33.166 -30.5 -44.499 -54.5s-17 -53.333 -17 -88c0 -65.333 11.667 -117 35 -155s54.666 -57 93.999 -57c19.333 0 37.833 5.83301 55.5 17.5z" />
    <glyph glyph-name="r" unicode="r" horiz-adv-x="471" 
d="M41 1.5c-10.667 4.33301 -15.998 11.168 -15.998 20.501c0 10 6 17.333 18 22c17.333 4 29.833 9.16699 37.5 15.5s12.334 14.166 14.001 23.499s2.5 24.333 2.5 45v236c0 14.667 -1.66699 25.334 -5 32.001s-10.333 10 -21 10h-22
c-10.667 0 -18.334 1.16699 -23.001 3.5s-7 6.16602 -7 11.499c0 7.33301 2.83301 13 8.5 17s13.834 8 24.501 12c34 11.333 60 19.5 78 24.5s32.667 7.5 44 7.5c12 0 20.333 -2.16699 25 -6.5s7 -11.833 7 -22.5v-52c0 -10.667 1.33301 -16 4 -16
c0.666992 0 5.83398 9.16699 15.501 27.5s25 35.5 46 51.5s47.833 24 80.5 24c33.333 0 59.166 -10.333 77.499 -31s27.5 -49 27.5 -85c0 -21.333 -5.33301 -39.833 -16 -55.5s-26 -23.5 -46 -23.5c-12.667 0 -23.5 4.16699 -32.5 12.5s-12.5 20.166 -10.5 35.499
c2.66699 8 4 16 4 24c0 12 -3.66699 22.167 -11 30.5s-20 12.5 -38 12.5c-16.667 0 -32.834 -6.5 -48.501 -19.5s-28.334 -31.333 -38.001 -55s-14.5 -51.167 -14.5 -82.5v-122c0 -20.667 1 -35.834 3 -45.501s6.66699 -17.667 14 -24s20 -11.5 38 -15.5
c12.667 -5.33301 19 -12.666 19 -21.999s-4.83301 -16.166 -14.5 -20.499s-29.167 -6.5 -58.5 -6.5l-53 1l-54 -1c-28.667 0 -48.334 2.16699 -59.001 6.5z" />
    <glyph glyph-name="s" unicode="s" horiz-adv-x="480" 
d="M125 15c-21.333 10 -39 23.666 -53 40.999c-17.333 18.667 -26 41.667 -26 69c0 12.667 3.5 23 10.5 31s16.5 12 28.5 12c21.333 0 37 -13.667 47 -41c2.66699 -23.333 12.667 -43 30 -59s41 -24 71 -24c33.333 0 59.166 6.66699 77.499 20s27.5 31.333 27.5 54
c0 23.333 -9.16699 42.333 -27.5 57s-49.5 27.334 -93.5 38.001c-57.333 15.333 -97.5 34.5 -120.5 57.5s-34.5 53.833 -34.5 92.5c0 24 7.83301 45.5 23.5 64.5s36.834 33.833 63.501 44.5s55.667 16 87 16c40.667 0 77.334 -7.66699 110.001 -23
c23.333 -10 42.333 -23 57 -39c19.333 -21.333 29 -45.333 29 -72c0 -11.333 -3.33301 -20.833 -10 -28.5s-15.667 -11.5 -27 -11.5c-22 0 -37.667 12.667 -47 38c-2 22.667 -11.5 41.667 -28.5 57s-40.167 23 -69.5 23c-22.667 0 -41.834 -5.33301 -57.501 -16
s-23.5 -24.667 -23.5 -42c0 -21.333 8 -39 24 -53s45 -25.667 87 -35c61.333 -14 105 -33.333 131 -58s39 -55.667 39 -93c0 -46.667 -18.833 -82.667 -56.5 -108s-88.167 -38 -151.5 -38c-43.333 0 -82.333 8.66699 -117 26z" />
    <glyph glyph-name="t" unicode="t" horiz-adv-x="403" 
d="M82 150l-0.00195312 255c0 14 -7 21 -21 21h-15c-6.66699 0 -11.667 2.16699 -15 6.5s-5 9.5 -5 15.5c0 10.667 5 23.667 15 39l11 17c21.333 36 41 62.667 59 80c20.667 17.333 41 26 61 26c8 0 13.333 -2.33301 16 -7s4 -12 4 -22v-67
c0 -16.667 0.833008 -27.167 2.5 -31.5s5.83398 -6.5 12.501 -6.5h133c8 0 13.5 -1 16.5 -3s4.5 -7.33301 4.5 -16c0 -10 -2.83301 -17.667 -8.5 -23s-13.167 -8 -22.5 -8h-116c-15.333 0 -23 -7.33301 -23 -22v-237c0 -34 7 -59.5 21 -76.5s33.333 -25.5 58 -25.5
c14.667 0 30.334 4.33301 47.001 13s31 22 43 40c4 6 9.33301 9 16 9c6 0 10.5 -2.33301 13.5 -7s3.5 -10 1.5 -16c-26 -76 -80 -114 -162 -114c-98 0 -147 53.333 -147 160z" />
    <glyph glyph-name="u" unicode="u" horiz-adv-x="608" 
d="M126 36c-29.333 30.667 -44.0059 78.333 -44.0059 143v185c0 14.667 -1.66699 25.334 -5 32.001s-10.666 10 -21.999 10h-21c-10.667 0 -18.5 1 -23.5 3s-7.5 5.66699 -7.5 11c0 8 2.83301 14.167 8.5 18.5s14.167 8.16602 25.5 11.499c34 11.333 60 19.5 78 24.5
s32.667 7.5 44 7.5s19.5 -2.16699 24.5 -6.5s7.5 -11.833 7.5 -22.5v-257c0 -45.333 8.5 -78.333 25.5 -99s42.167 -31 75.5 -31c20 0 39 5.83301 57 17.5s32.667 29.5 44 53.5s17 53.333 17 88v139c0 14.667 -1.66699 25.334 -5 32.001s-10.666 10 -21.999 10h-21.5
c-10.333 0 -18 1 -23 3s-7.5 5.66699 -7.5 11c0 8 2.83301 14.167 8.5 18.5s13.834 8.16602 24.501 11.499c4.66699 1.33301 17.167 5.33301 37.5 12s37.666 11.667 51.999 15s25.5 5 33.5 5c11.333 0 19.5 -2.16699 24.5 -6.5s7.5 -11.833 7.5 -22.5v-341
c0 -14.667 1.5 -25.167 4.5 -31.5s10.167 -9.83301 21.5 -10.5l24 1c9.33301 0 16.333 -1.16699 21 -3.5s7 -6.5 7 -12.5c0 -7.33301 -2.66699 -12.833 -8 -16.5s-13.666 -7.83398 -24.999 -12.501l-29 -9c-47.333 -15.333 -78.333 -23 -93 -23
c-11.333 0 -19.5 2.33301 -24.5 7s-7.5 12.334 -7.5 23.001v52c0 10.667 -1.66699 16 -5 16c-1.33301 0 -6.66602 -9 -15.999 -27s-26.166 -35 -50.499 -51s-56.166 -24 -95.499 -24c-48.667 0 -87.667 15.333 -117 46z" />
    <glyph glyph-name="v" unicode="v" horiz-adv-x="507" 
d="M255 -3c-15.333 0 -26.832 2.16602 -34.499 6.49902s-14.167 12.833 -19.5 25.5l-30 83l-22 64c-26 80 -50.333 147.667 -73 203c-6.66699 17.333 -13.167 28.833 -19.5 34.5s-17.166 10.167 -32.499 13.5c-6.66699 2.66699 -11.834 5.83398 -15.501 9.50098
s-5.5 8.83398 -5.5 15.501c0 11.333 4.66699 18.666 14 21.999s25.333 5 48 5l71 -1l67 1c26 0 43 -2 51 -6s12 -10.667 12 -20c0 -12 -7.66699 -20.333 -23 -25c-19.333 -2 -33 -5.16699 -41 -9.5s-12 -10.833 -12 -19.5c0 -4 1 -9 3 -15l41 -121l53 -152
c2 -5.33301 5 -8 9 -8c3.33301 0 7 2.66699 11 8c62.667 70.667 95.667 134 99 190c1.33301 22.667 -0.333984 41.167 -5.00098 55.5s-14.334 26.166 -29.001 35.499c-16 16.667 -24 34.334 -24 53.001c0 15.333 6.66699 27 20 35c9.33301 5.33301 19 8 29 8
c14 0 27 -5 39 -15c8 -6 15.333 -15 22 -27c13.333 -22.667 20 -53.334 20 -92.001c0 -46.667 -14.333 -97.167 -43 -151.5s-64.667 -107.166 -108 -158.499c-13.333 -17.333 -24.666 -29.5 -33.999 -36.5s-20.333 -10.5 -33 -10.5h-5z" />
    <glyph glyph-name="w" unicode="w" horiz-adv-x="782" 
d="M753 361c0 -45.333 -12.9961 -93.6689 -38.9961 -145.002s-60.333 -108.666 -103 -171.999c-11.333 -18 -21.666 -30.333 -30.999 -37s-20.666 -10 -33.999 -10h-5c-12.667 0 -22.5 2.33301 -29.5 7s-12.833 13 -17.5 25c-23.333 63.333 -45.333 119 -66 167
c-4 9.33301 -8 10.666 -12 3.99902l-3 -6c-16 -46 -43.667 -96 -83 -150c-12.667 -18 -23.5 -30.333 -32.5 -37s-19.833 -10 -32.5 -10h-5c-15.333 0 -26.833 2.16699 -34.5 6.5s-14.167 12.833 -19.5 25.5c-26.667 66 -54.334 139.667 -83.001 221l-47 129
c-6 17.333 -12.333 28.833 -19 34.5s-17.667 10.167 -33 13.5c-6.66699 2.66699 -11.834 5.83398 -15.501 9.50098s-5.5 8.83398 -5.5 15.501c0 11.333 4.66699 18.666 14 21.999s25.333 5 48 5l67 -1l63 1c26 0 43 -2 51 -6s12 -10.667 12 -20
c0 -4.66699 -1.66699 -9.16699 -5 -13.5s-7.66602 -7.16602 -12.999 -8.49902c-19.333 -3.33301 -32.666 -7 -39.999 -11s-11 -9.33301 -11 -16c0 -2.66699 1.33301 -9.33398 4 -20.001c35.333 -107.333 68.333 -198.333 99 -273c2 -4.66699 4.33301 -7 7 -7
c3.33301 0 6.66602 2.33301 9.99902 7c27.333 40.667 48.5 76.167 63.5 106.5s22.833 60.833 23.5 91.5c0.666992 3.33301 1 8 1 14c0 30.667 -11.667 55 -35 73c-8 6.66699 -13.667 14.334 -17 23.001s-4.33301 17 -3 25c1.33301 13.333 7.66602 23.833 18.999 31.5
s25.666 11.167 42.999 10.5c24.667 -3.33301 44 -15 58 -35s19.667 -46.333 17 -79c-1.33301 -10 -3.33301 -21.333 -6 -34c0 -2.66699 0.333008 -4.33398 1 -5.00098c44.667 -98 76 -172 94 -222c2 -4.66699 4.66699 -7 8 -7c2.66699 0 5.66699 2.33301 9 7l18 26
c25.333 37.333 44.166 67.833 56.499 91.5s19.166 48.5 20.499 74.5c1.33301 22 -0.833984 40.333 -6.50098 55s-16.167 27.334 -31.5 38.001c-10.667 8.66699 -17 18 -19 28c-2 5.33301 -3 10 -3 14c0 3.33301 0.666992 7 2 11c1.33301 14 9 25 23 33
c4.66699 1.33301 11 2 19 2s14 -0.666992 18 -2c18 -2 33 -10 45 -24c17.333 -24 26 -56.333 26 -97z" />
    <glyph glyph-name="x" unicode="x" horiz-adv-x="571" 
d="M16 21c0 6 1.99805 10.5049 5.99805 13.5049s10 6.16699 18 9.5c14.667 2 26.834 6.66699 36.501 14s21.834 21 36.501 41l96 130c4.66699 8 7 15 7 21c0 7.33301 -2 13.333 -6 18l-86 121c-10.667 16 -19.167 26 -25.5 30s-18.166 7 -35.499 9
c-8.66699 2.66699 -14.5 5.83398 -17.5 9.50098s-4.5 9.16699 -4.5 16.5c0 9.33301 3.5 15.833 10.5 19.5s17.833 5.5 32.5 5.5l84 -1l84 1c28 0 42 -7.66699 42 -23c0 -8.66699 -5.66699 -15.667 -17 -21c-20.667 -2.66699 -31 -8.33398 -31 -17.001
c0 -5.33301 5 -15.333 15 -30l53 -74c3.33301 -4 6.33301 -6 9 -6c3.33301 0 6 1.66699 8 5l62 88c6 9.33301 9 15.666 9 18.999c0 4.66699 -2.66699 8.16699 -8 10.5s-14 4.16602 -26 5.49902c-10.667 4.66699 -16 11.334 -16 20.001c0 9.33301 3.33301 15.666 10 18.999
s17.334 5 32.001 5c13.333 -0.666992 35.333 -1 66 -1c21.333 0 36.333 0.333008 45 1c26 0 39 -8 39 -24c0 -10 -7.66699 -17.667 -23 -23c-25.333 -4 -45 -15.667 -59 -35l-92 -126c-4 -4.66699 -6 -10.334 -6 -17.001s2 -13 6 -19l101 -142
c13.333 -18.667 23.666 -30.5 30.999 -35.5s18.333 -8.5 33 -10.5c6.66699 -2 11.5 -4.83301 14.5 -8.5s4.5 -9.16699 4.5 -16.5c0 -9.33301 -4.33301 -16 -13 -20s-24.334 -6 -47.001 -6l-69 1l-70 -1c-35.333 0 -53 8 -53 24c0 10 4.66699 16.667 14 20
c23.333 3.33301 35 9.66602 35 18.999c0 5.33301 -4 13.666 -12 24.999l-73 102c-2.66699 4.66699 -5.66699 7 -9 7c-4 0 -8.33301 -3.33301 -13 -10l-76 -105c-6.66699 -9.33301 -10 -17 -10 -23c0 -4.66699 2.5 -8 7.5 -10s13.5 -4 25.5 -6c11.333 -3.33301 17 -10 17 -20
c0 -15.333 -13.667 -23 -41 -23l-49 1l-58 -1c-29.333 0 -44 8 -44 24z" />
    <glyph glyph-name="y" unicode="y" horiz-adv-x="507" 
d="M5 -159c-18 15.333 -26.999 35.9971 -26.999 61.9971c0 14.667 4.66699 27 14 37s20.666 15 33.999 15c11.333 0 20.833 -3 28.5 -9s13.167 -14.333 16.5 -25c2 -14 5.83301 -26 11.5 -36s12.834 -15 21.501 -15c23.333 0 59 28.667 107 86c4.66699 6 7 11.333 7 16
c0 7.33301 -4.33301 21 -13 41c-4.66699 12 -26 72.667 -64 182c-28.667 84.667 -50 145.334 -64 182.001c-6.66699 17.333 -13.5 29.333 -20.5 36s-17.833 11.334 -32.5 14.001c-6.66699 2 -12 5.33301 -16 10s-6 10 -6 16c0 10 4.16699 16.833 12.5 20.5
s22.5 5.5 42.5 5.5l77 -1l77 1c22 0 36.5 -2 43.5 -6s10.5 -10.667 10.5 -20c0 -10.667 -5.66699 -18 -17 -22c-20.667 -4 -35.5 -8.66699 -44.5 -14s-13.5 -12.333 -13.5 -21c0 -6 1.33301 -12 4 -18c9.33301 -25.333 24 -68 44 -128c24.667 -73.333 41.667 -122 51 -146
c2.66699 -6.66699 6 -10 10 -10s7.66699 3 11 9c29.333 46 52 84.5 68 115.5s25 59.5 27 85.5c1.33301 12 2 20 2 24c0 16.667 -3 29.5 -9 38.5s-14.333 16.833 -25 23.5c-18.667 16.667 -28 34.667 -28 54c0 14 6 25.333 18 34c9.33301 6 20.666 9 33.999 9
c14 0 26.333 -4.33301 37 -13c9.33301 -6.66699 17.333 -16 24 -28c13.333 -26.667 20 -56.667 20 -90c0 -51.333 -26.333 -123.666 -79 -216.999c-30.667 -52 -60 -96.667 -88 -134c-42.667 -56.667 -83.5 -102 -122.5 -136s-75.833 -51 -110.5 -51
c-30.667 0 -55 7.66699 -73 23z" />
    <glyph glyph-name="z" unicode="z" horiz-adv-x="498" 
d="M384 -6c-3.33301 0.666992 -12.8281 1.83594 -28.4951 3.50293s-33.834 2.5 -54.501 2.5h-233c-20 0 -30 6.66699 -30 20c0 9.33301 4.33301 19.666 13 30.999l269 356c2 3.33301 3 6 3 8c0 6 -3 9 -9 9h-150c-10.667 0 -18.834 -1.83301 -24.501 -5.5
s-10.834 -11 -15.501 -22s-10.334 -28.833 -17.001 -53.5c-4.66699 -10.667 -9.33398 -18.167 -14.001 -22.5s-11 -6.5 -19 -6.5c-6.66699 0 -11.834 2 -15.501 6s-5.5 12 -5.5 24c0 14.667 2.66699 34 8 58c5.33301 26.667 9.83301 45.5 13.5 56.5s7.5 18.333 11.5 22
s10 5.5 18 5.5c4.66699 0 11.667 -1 21 -3c26.667 -4.66699 56.334 -7 89.001 -7h232c8 0 14 -1.83301 18 -5.5s6 -7.83398 6 -12.501c0 -6.66699 -3.66699 -15.667 -11 -27l-270 -361c-2.66699 -4 -4 -7 -4 -9c0 -5.33301 3.66699 -8 11 -8h153c12 0 21 2 27 6
s11.5 12.167 16.5 24.5s11.167 32.5 18.5 60.5c4 10 8.5 17 13.5 21s11.5 6 19.5 6c6 0 10.833 -2 14.5 -6s5.5 -12 5.5 -24s-3 -32.667 -9 -62c-6 -28 -11 -47.833 -15 -59.5s-8.16699 -19.334 -12.5 -23.001s-10.5 -5.5 -18.5 -5.5c-6.66699 0 -15 1 -25 3z" />
    <glyph glyph-name="braceleft" unicode="{" horiz-adv-x="331" 
d="M132 -113.5c-24.667 25 -36.999 62.5049 -36.999 112.505c0 24 1.33301 55.333 4 94c2.66699 36 4 63 4 81c0 22 -1.66699 39.167 -5 51.5s-10.333 22.5 -21 30.5s-27.334 14.333 -50.001 19c-14.667 4.66699 -22 11.667 -22 21c0 4.66699 1.66699 8.66699 5 12
s9 6.66602 17 9.99902c22.667 4.66699 39.334 11 50.001 19s17.667 18.167 21 30.5s5 29.166 5 50.499c0 17.333 -1.33301 44.666 -4 81.999c-2.66699 38.667 -4 70 -4 94c0 50 12.333 87.333 37 112s67.667 37 129 37c43.333 0 65 -9.33301 65 -28
c0 -7.33301 -3.5 -12 -10.5 -14s-18.833 -3 -35.5 -3c-31.333 0 -53.166 -8.83301 -65.499 -26.5s-18.5 -44.167 -18.5 -79.5c0 -19.333 1.33301 -47 4 -83c0.666992 -8 1.33398 -20.333 2.00098 -37s1 -31.334 1 -44.001c0 -35.333 -5.33301 -63.333 -16 -84
s-32 -35.667 -64 -45c-2.66699 -0.666992 -3.83398 -1.66699 -3.50098 -3s1.5 -2.33301 3.5 -3c32 -9.33301 53.333 -24.5 64 -45.5s16 -48.833 16 -83.5c0 -12.667 -0.333008 -27.334 -1 -44.001s-1.33398 -29 -2.00098 -37c-2.66699 -36 -4 -63.667 -4 -83
c0 -35.333 6.16699 -61.833 18.5 -79.5s34.166 -26.5 65.499 -26.5c17.333 0 29.333 -1 36 -3s10 -6.66699 10 -14c0 -18.667 -21.667 -28 -65 -28c-61.333 0 -104.333 12.5 -129 37.5z" />
    <glyph glyph-name="bar" unicode="|" horiz-adv-x="137" 
d="M38 -159.5c-6 3 -9 8.16699 -9 15.5v855c0 7.33301 3 12.5 9 15.5s16 4.5 30 4.5c13.333 0 23.166 -1.66699 29.499 -5s9.5 -8.33301 9.5 -15v-855c0 -6.66699 -3.16699 -11.667 -9.5 -15s-16.166 -5 -29.499 -5c-14 0 -24 1.5 -30 4.5z" />
    <glyph glyph-name="braceright" unicode="}" horiz-adv-x="332" 
d="M5 -123c0 7.33301 3.33301 11.9951 10 13.9951s18.667 3 36 3c31.333 0 53.333 8.83301 66 26.5s19 44.167 19 79.5c0 19.333 -1.33301 47 -4 83c-0.666992 8 -1.33398 20.333 -2.00098 37s-1 31.334 -1 44.001c0 35.333 5.16699 63.333 15.5 84s31.5 35.667 63.5 45
c2.66699 0.666992 4 1.66699 4 3s-1.33301 2.33301 -4 3c-32 9.33301 -53.167 24.333 -63.5 45s-15.5 48.667 -15.5 84c0 12.667 0.333008 27.334 1 44.001s1.33398 29 2.00098 37c2.66699 36 4 63.667 4 83c0 35.333 -6.33301 61.833 -19 79.5s-34.667 26.5 -66 26.5
c-16.667 0 -28.5 1 -35.5 3s-10.5 6.66699 -10.5 14c0 18.667 21.667 28 65 28c61.333 0 104.333 -12.333 129 -37s37 -62 37 -112c0 -24 -1.33301 -55.333 -4 -94c-2.66699 -37.333 -4 -64.666 -4 -81.999c0 -21.333 1.66699 -38.166 5 -50.499s10.333 -22.5 21 -30.5
s27.334 -14.333 50.001 -19c8 -3.33301 13.667 -6.66602 17 -9.99902s5 -7.33301 5 -12c0 -9.33301 -7.33301 -16.333 -22 -21c-22.667 -4.66699 -39.334 -11 -50.001 -19s-17.667 -18.167 -21 -30.5s-5 -29.5 -5 -51.5c0 -18 1.33301 -45 4 -81
c2.66699 -38.667 4 -70 4 -94c0 -50 -12.333 -87.5 -37 -112.5s-67.667 -37.5 -129 -37.5c-43.333 0 -65 9.33301 -65 28z" />
    <glyph glyph-name="asciitilde" unicode="~" horiz-adv-x="413" 
d="M34 215c-4 4.66699 -5.66797 10.667 -5.00098 18c1.33301 36 11.666 64.167 30.999 84.5s45.333 30.5 78 30.5c13.333 0 26.333 -3.16699 39 -9.5s28.334 -16.166 47.001 -29.499c16.667 -11.333 29 -19 37 -23s16 -6 24 -6c32.667 0 51.667 17 57 51
c2.66699 14 10 21 22 21c14 0 20.667 -8.66699 20 -26c-2 -36 -12.167 -64 -30.5 -84s-43.5 -30 -75.5 -30c-16.667 0 -32.167 3.33301 -46.5 10s-30.5 17 -48.5 31c-12.667 9.33301 -23.167 16.166 -31.5 20.499s-16.166 6.5 -23.499 6.5
c-32.667 0 -51.667 -17.333 -57 -52c-2 -13.333 -9 -20 -21 -20c-6.66699 0 -12 2.33301 -16 7z" />
    <glyph glyph-name="uni00A0" unicode="&#xa0;" horiz-adv-x="476" 
 />
    <glyph glyph-name="exclamdown" unicode="&#xa1;" horiz-adv-x="249" 
d="M176 470c14 -12 21 -27.333 21 -46c0 -19.333 -7 -35.333 -21 -48s-31.667 -19 -53 -19c-20.667 0 -37.667 6.33301 -51 19s-20 28.667 -20 48c0 18.667 6.66699 34 20 46s30.333 18 51 18c21.333 0 39 -6 53 -18zM140.5 298.5
c5 -4.33301 8.83203 -10.168 11.499 -17.501c4 -36 9.66699 -84 17 -144c12 -94.667 19.667 -171 23 -229c0.666992 -26 -4.66602 -46.833 -15.999 -62.5s-28.666 -23.5 -51.999 -23.5c-22.667 0 -39.5 7.83301 -50.5 23.5s-16.167 36.5 -15.5 62.5
c2 36.667 5.16699 76.334 9.5 119.001s9.16602 84 14.499 124l15 130c6 16 15 24 27 24c6 0 11.5 -2.16699 16.5 -6.5z" />
    <glyph glyph-name="cent" unicode="&#xa2;" horiz-adv-x="501" 
d="M466.5 137.5c3 -3.66699 4.50098 -8.16504 4.50098 -13.498c0 -3.33301 -0.333008 -6 -1 -8c-14 -36 -37.167 -65.667 -69.5 -89s-72.833 -36 -121.5 -38v-40c0 -2.66699 -1.66699 -4.83398 -5 -6.50098s-7.33301 -2.5 -12 -2.5s-8.66699 0.833008 -12 2.5
s-5 3.83398 -5 6.50098v41c-44 3.33301 -82.333 16.166 -115 38.499s-57.667 51.666 -75 87.999s-26 76.833 -26 121.5c0 45.333 9.66699 86.333 29 123s45.5 65.834 78.5 87.501s69.167 33.834 108.5 36.501v57c0 2.66699 1.83301 4.66699 5.5 6s7.5 2 11.5 2
c4.66699 0 8.66699 -0.666992 12 -2s5 -3.33301 5 -6v-57c30.667 -2 59.5 -9.33301 86.5 -22s48.833 -29.667 65.5 -51s25 -45 25 -71c0 -12.667 -3.33301 -23.334 -10 -32.001s-16.334 -13 -29.001 -13c-15.333 0 -27.333 4 -36 12s-15.334 20 -20.001 36
c-7.33301 53.333 -34.666 83.666 -81.999 90.999v-371c4 -0.666992 10.333 -1 19 -1c29.333 0 56 6.5 80 19.5s43.667 29.5 59 49.5c6 7.33301 11.333 11 16 11c6 0 10.5 -1.83301 13.5 -5.5zM167.501 146.502c17.667 -36.333 43.5 -61.166 77.5 -74.499v363
c-29.333 -4 -54 -20.333 -74 -49s-30 -65.334 -30 -110.001c0 -50 8.83301 -93.167 26.5 -129.5z" />
    <glyph glyph-name="sterling" unicode="&#xa3;" horiz-adv-x="578" 
d="M562 183c0 -56.667 -14.668 -103.168 -44.001 -139.501s-69 -54.5 -119 -54.5c-26.667 0 -53.667 3.83301 -81 11.5s-65.333 19.834 -114 36.501c-3.33301 2.66699 -7 4 -11 4c-3.33301 0 -6.33301 -1.66699 -9 -5c-11.333 -13.333 -22.5 -23.666 -33.5 -30.999
s-24.167 -11 -39.5 -11c-18 0 -33.333 6 -46 18s-19 26.667 -19 44c0 18 4.83301 32 14.5 42s23.167 15 40.5 15c11.333 0 22.333 -1 33 -3h4c6.66699 0 11.334 3.33301 14.001 10c10 20 18 43.667 24 71s9 55 9 83v17h-69c-21.333 0 -32 5 -32 15
c0 9.33301 3.66699 17.166 11 23.499s17.666 9.5 30.999 9.5h52c-4.66699 24 -10.667 48.333 -18 73c-7.33301 28.667 -12.833 52 -16.5 70s-5.5 36 -5.5 54c0 32.667 8 62.334 24 89.001s38.5 47.667 67.5 63s62.833 23 101.5 23c39.333 0 73.833 -7.5 103.5 -22.5
s52.5 -36 68.5 -63s24 -57.5 24 -91.5c0 -16.667 -4.5 -29.667 -13.5 -39s-20.5 -14 -34.5 -14c-13.333 0 -24.333 4.5 -33 13.5s-13 20.833 -13 35.5c0 38 -8.16699 67.667 -24.5 89s-41.5 32 -75.5 32c-33.333 0 -59.833 -10.5 -79.5 -31.5s-29.5 -47.167 -29.5 -78.5
c0 -16 1.83301 -32 5.5 -48s9.5 -35.667 17.5 -59c11.333 -37.333 19.333 -69 24 -95h85c20.667 0 31 -5 31 -15c0 -9.33301 -3.66699 -17.166 -11 -23.499s-17.333 -9.5 -30 -9.5h-70v-17c0 -27.333 -4.83301 -56.5 -14.5 -87.5s-20.5 -57.833 -32.5 -80.5
c-1.33301 -2.66699 -2 -4.66699 -2 -6c0 -6.66699 3 -10.334 9 -11.001c12 -1.33301 24.833 -3.33301 38.5 -6s23.167 -4.33398 28.5 -5.00098c42.667 -8 74.334 -12 95.001 -12c74.667 0 117.334 39.667 128.001 119c2 7.33301 4.16699 12.833 6.5 16.5
s6.16602 5.5 11.499 5.5c12 0 18 -8 18 -24z" />
    <glyph glyph-name="currency" unicode="&#xa4;" horiz-adv-x="538" 
d="M42.5 132.5c-9 8.33301 -13.4971 16.832 -13.4971 25.499c0 11.333 5 21.333 15 30l50 47c7.33301 7.33301 11 14 11 20c0 5.33301 -1.33301 11 -4 17c-12 26.667 -18 55 -18 85c0 16 1.66699 30.333 5 43s8.66602 28 15.999 46c3.33301 8 5 13.667 5 17
c0 4.66699 -3.33301 10 -10 16l-53 49c-9.33301 8 -14 17.667 -14 29c0 8.66699 4.66699 17.667 14 27s18.333 14 27 14c4.66699 0 9 -0.833008 13 -2.5s8.66699 -5.16699 14 -10.5l54 -56c5.33301 -5.33301 10.666 -8 15.999 -8c3.33301 0 9 1.33301 17 4
c14.667 7.33301 28.667 12.5 42 15.5s28.333 4.5 45 4.5c16 0 30.5 -1.33301 43.5 -4s26.833 -7.33398 41.5 -14.001c8 -3.33301 13.333 -5 16 -5c5.33301 0 11.333 4 18 12l48 52c8 8.66699 17 13 27 13c8.66699 0 17.667 -4.5 27 -13.5s14 -17.833 14 -26.5
c0 -9.33301 -4.66699 -18.666 -14 -27.999l-53 -50c-6.66699 -6.66699 -10 -12.667 -10 -18c0 -2 1.33301 -7 4 -15c7.33301 -13.333 12.5 -26.5 15.5 -39.5s4.5 -27.5 4.5 -43.5c0 -17.333 -1.66699 -33 -5 -47s-9.33301 -28.667 -18 -44c-3.33301 -8 -5 -13.667 -5 -17
c0 -5.33301 3.66699 -11 11 -17l53 -50c9.33301 -8 14 -17.333 14 -28c0 -9.33301 -4.5 -18.333 -13.5 -27s-17.833 -13 -26.5 -13c-5.33301 0 -10 0.833008 -14 2.5s-8.33301 5.16699 -13 10.5l-54 55c-6 5.33301 -12.667 8 -20 8c-4.66699 0 -9 -1 -13 -3
c-15.333 -8 -29.833 -13.5 -43.5 -16.5s-28.5 -4.5 -44.5 -4.5s-30.333 1.33301 -43 4s-26.667 7.33398 -42 14.001c-5.33301 2.66699 -10.333 4 -15 4c-5.33301 0 -11.333 -3.66699 -18 -11l-48 -51c-8.66699 -9.33301 -18.334 -14 -29.001 -14
c-8.66699 0 -17.5 4.16699 -26.5 12.5zM353.503 274.999c22.333 22.667 33.499 52.001 33.499 88.001c0 34.667 -10.5 62.667 -31.5 84s-48.5 32 -82.5 32c-35.333 0 -64.166 -11.167 -86.499 -33.5s-33.5 -51.5 -33.5 -87.5c0 -34.667 10.5 -62.834 31.5 -84.501
s48.167 -32.5 81.5 -32.5c36 0 65.167 11.333 87.5 34z" />
    <glyph glyph-name="yen" unicode="&#xa5;" horiz-adv-x="683" 
d="M678 678c0 -14.667 -10.3301 -25.667 -30.9971 -33c-13.333 -1.33301 -23.333 -3.83301 -30 -7.5s-12.167 -8.33398 -16.5 -14.001s-10.833 -16.167 -19.5 -31.5l-159 -270l-3 -5h93c18.667 0 28 -5 28 -15c0 -8 -3.16699 -14.833 -9.5 -20.5s-15.166 -8.5 -26.499 -8.5
h-98c-2 -10 -3 -20 -3 -30v-36h109c18.667 0 28 -5 28 -15c0 -8 -3.16699 -14.833 -9.5 -20.5s-15.166 -8.5 -26.499 -8.5h-101v-18c0 -22.667 1.16699 -39.167 3.5 -49.5s7.66602 -18.5 15.999 -24.5s22.166 -12 41.499 -18c16 -6.66699 24 -16 24 -28
c0 -8.66699 -2.83301 -15.167 -8.5 -19.5s-15.834 -6.5 -30.501 -6.5l-203 1c-16 0 -27.167 1.66699 -33.5 5s-9.5 10 -9.5 20c0 6 2.33301 11.5 7 16.5s10.334 8.83301 17.001 11.5c19.333 6 33.166 11.833 41.499 17.5s13.833 13.334 16.5 23.001s4 24.167 4 43.5v26h-116
c-19.333 0 -29 4.66699 -29 14c0 8.66699 3.16699 15.834 9.5 21.501s15.166 8.5 26.499 8.5h109v35c0 8.66699 -1.66699 19 -5 31h-111c-19.333 0 -29 4.66699 -29 14c0 8.66699 3.16699 15.834 9.5 21.501s15.166 8.5 26.499 8.5h84l-159 276c-10 18 -20.333 30 -31 36
s-26 10.333 -46 13c-8 3.33301 -13.833 7.16602 -17.5 11.499s-5.5 10.833 -5.5 19.5c0 10.667 4 18 12 22s21 6 39 6c11.333 -0.666992 35.333 -1 72 -1c56.667 0 97 0.333008 121 1c20 0 33.833 -2.16699 41.5 -6.5s11.5 -10.5 11.5 -18.5c0 -13.333 -7 -23 -21 -29
c-18.667 -3.33301 -32.334 -7 -41.001 -11s-13 -9.33301 -13 -16c0 -5.33301 2.66699 -12.333 8 -21l128 -220c4 -6 8 -9 12 -9c4.66699 0 8.33398 3.33301 11.001 10l131 228c3.33301 5.33301 5 10.666 5 15.999c0 8 -5 14 -15 18s-26 7.33301 -48 10
c-10 5.33301 -15 13 -15 23c0 9.33301 3.16699 15.833 9.5 19.5s16.5 5.5 30.5 5.5h157c24.667 0 37 -7.33301 37 -22z" />
    <glyph glyph-name="brokenbar" unicode="&#xa6;" horiz-adv-x="137" 
d="M38 319.5c-6 3 -8.99902 7.83301 -8.99902 14.5v377c0 7.33301 3 12.5 9 15.5s16 4.5 30 4.5c13.333 0 23.166 -1.66699 29.499 -5s9.5 -8.33301 9.5 -15v-377c0 -6.66699 -3 -11.5 -9 -14.5s-16 -4.5 -30 -4.5s-24 1.5 -30 4.5zM38.001 -153.5c-6 3 -9 7.83301 -9 14.5
v378c0 6.66699 3 11.5 9 14.5s16 4.5 30 4.5s24 -1.5 30 -4.5s9 -7.83301 9 -14.5v-378c0 -6.66699 -3 -11.5 -9 -14.5s-16 -4.5 -30 -4.5s-24 1.5 -30 4.5z" />
    <glyph glyph-name="section" unicode="&#xa7;" horiz-adv-x="484" 
d="M192 -79c-16.667 6.66699 -32.999 15.3301 -48.999 25.9971c-9.33301 7.33301 -16.333 11 -21 11c-6 0 -10.333 -6.33301 -13 -19c-2 -8 -4.16699 -14 -6.5 -18s-6.5 -6 -12.5 -6c-5.33301 0 -9.83301 1.83301 -13.5 5.5s-7.16699 10.5 -10.5 20.5
c-1.33301 10.667 -5.66602 33 -12.999 67c-9.33301 42.667 -14.666 71 -15.999 85c-2 8 -0.333008 14.833 5 20.5s11 8.5 17 8.5c10 0 17.667 -3.66699 23 -11s12.666 -25 21.999 -53c10.667 -32.667 29.667 -57.5 57 -74.5s54.666 -25.5 81.999 -25.5
c32.667 0 59.334 7.83301 80.001 23.5s31 35.834 31 60.501c0 25.333 -10.167 46.333 -30.5 63s-49.833 31.334 -88.5 44.001c-48.667 16.667 -87.167 31.834 -115.5 45.501s-50.5 30 -66.5 49s-24 42.5 -24 70.5c0 25.333 6.83301 48 20.5 68s31.834 40.667 54.501 62
c-46 27.333 -69 67.333 -69 120c0 28.667 8 54.167 24 76.5s37.833 39.666 65.5 51.999s58.5 18.5 92.5 18.5c27.333 0 50 -3.5 68 -10.5s35 -15.833 51 -26.5c10 -6.66699 17 -10 21 -10c3.33301 0 5.83301 1.16699 7.5 3.5s3 5.16602 4 8.49902s1.5 5.33301 1.5 6
c1.33301 7.33301 3.33301 13.166 6 17.499s7 6.5 13 6.5c5.33301 0 9.83301 -1.66699 13.5 -5s7.16699 -10.333 10.5 -21l15 -80c8 -36.667 12.667 -60.334 14 -71.001c2 -8 0.333008 -14.833 -5 -20.5s-11 -8.5 -17 -8.5c-6.66699 0 -12.167 1.33301 -16.5 4
s-8.5 8.33398 -12.5 17.001s-9.33301 22.667 -16 42c-11.333 33.333 -30.833 58.5 -58.5 75.5s-56.5 25.5 -86.5 25.5c-32 0 -57.5 -8 -76.5 -24s-28.5 -36.333 -28.5 -61c0 -26 9.33301 -46.667 28 -62s49 -30.333 91 -45c49.333 -17.333 87.666 -32.5 114.999 -45.5
s49.333 -29 66 -48s25 -42.5 25 -70.5c0 -24 -6.83301 -46.167 -20.5 -66.5s-32.167 -42.166 -55.5 -65.499c22.667 -13.333 40 -29.166 52 -47.499s18 -42.166 18 -71.499c0 -28.667 -8.33301 -54.167 -25 -76.5s-39.334 -39.5 -68.001 -51.5s-60.334 -18 -95.001 -18
c-26 0 -47.333 3.33301 -64 10zM358.501 240.996c9 15.333 13.501 30 13.501 44c0 22.667 -9.33301 41.5 -28 56.5s-48.334 29.167 -89.001 42.5c-42 16 -73.667 29 -95 39c-14 -10 -25.5 -23.167 -34.5 -39.5s-13.5 -31.833 -13.5 -46.5c0 -22 8.66699 -40.167 26 -54.5
s45 -27.833 83 -40.5c29.333 -11.333 63.333 -25.333 102 -42c14.667 12 26.5 25.667 35.5 41z" />
    <glyph glyph-name="dieresis" unicode="&#xa8;" horiz-adv-x="401" 
d="M48 579.5c-12.667 9.66699 -19 22.167 -19 37.5s6.33301 27.5 19 36.5s29.334 13.5 50.001 13.5c20 0 36.167 -4.66699 48.5 -14s18.5 -21.333 18.5 -36c0 -15.333 -6.16699 -27.833 -18.5 -37.5s-28.5 -14.5 -48.5 -14.5c-20.667 0 -37.334 4.83301 -50.001 14.5z
M263 579.5c-12.667 9.66699 -19 22.167 -19 37.5s6.33301 27.5 19 36.5s29.334 13.5 50.001 13.5c20 0 36 -4.5 48 -13.5s18 -21.167 18 -36.5s-6 -27.833 -18 -37.5s-28 -14.5 -48 -14.5c-20.667 0 -37.334 4.83301 -50.001 14.5z" />
    <glyph glyph-name="copyright" unicode="&#xa9;" horiz-adv-x="819" 
d="M223 34.5c-54.667 30.333 -97.334 72.833 -128.001 127.5s-46 117 -46 187s15.333 132.333 46 187s73.334 97.167 128.001 127.5s117 45.5 187 45.5s132.333 -15.167 187 -45.5s97.334 -72.833 128.001 -127.5s46 -117 46 -187s-15.333 -132.333 -46 -187
s-73.334 -97.167 -128.001 -127.5s-117 -45.5 -187 -45.5s-132.333 15.167 -187 45.5zM577.5 67c49 27.333 87.332 65.5 114.999 114.5s41.5 104.833 41.5 167.5s-13.667 118.5 -41 167.5s-65.666 87.167 -114.999 114.5s-105.333 41 -168 41s-118.667 -13.667 -168 -41
s-87.666 -65.5 -114.999 -114.5s-41 -104.833 -41 -167.5s13.667 -118.5 41 -167.5s65.666 -87.167 114.999 -114.5s105.333 -41 168 -41s118.5 13.667 167.5 41zM310.999 165.5c-29.333 18.333 -51.9971 43.5 -67.9971 75.5s-24 67.667 -24 107c0 40.667 8.66699 77 26 109
s40.833 57 70.5 75s62.167 27 97.5 27c42.667 0 79 -11.5 109 -34.5s45 -53.167 45 -90.5c0 -11.333 -3.33301 -20.833 -10 -28.5s-16.334 -11.5 -29.001 -11.5c-22.667 0 -35.334 16 -38.001 48c-1.33301 24 -8.33301 43.667 -21 59s-32.334 23 -59.001 23
c-28 0 -52 -12.667 -72 -38s-30 -59.333 -30 -102c0 -51.333 10.667 -93.5 32 -126.5s53.666 -49.5 96.999 -49.5c27.333 0 51 6 71 18s36.667 27 50 45c4.66699 5.33301 9 8 13 8c6 0 10.167 -2.33301 12.5 -7s2.83301 -10 1.5 -16c-14 -33.333 -35 -61.333 -63 -84
s-64 -34 -108 -34c-39.333 0 -73.666 9.16699 -102.999 27.5z" />
    <glyph glyph-name="guillemotleft" unicode="&#xab;" horiz-adv-x="400" 
d="M145 46c-6 4 -14 12 -24 24s-26.667 33.333 -50 64c-22.667 29.333 -39.334 53 -50.001 71s-16 29.333 -16 34c0 16.667 22 53.334 66 110.001c22.667 30 39.334 51.333 50.001 64s19 20.834 25 24.501s12.333 5.5 19 5.5c7.33301 0 13.833 -2.66699 19.5 -8
s7.5 -11.333 5.5 -18c-5.33301 -12 -12.666 -25.833 -21.999 -41.5l-34 -55.5c-29.333 -44.667 -44 -71.334 -44 -80.001c0 -4 2.83301 -10.833 8.5 -20.5s13.167 -21.834 22.5 -36.501l13 -20l34 -55.5c9.33301 -15.667 16.666 -29.5 21.999 -41.5
c2 -6.66699 0.166992 -12.667 -5.5 -18s-12.167 -8 -19.5 -8s-14 2 -20 6zM324 46c-6 4 -14 12 -24 24s-26.667 33.333 -50 64c-22.667 29.333 -39.334 53 -50.001 71s-16 29.333 -16 34c0 16.667 22 53.334 66 110.001c22.667 30 39.334 51.333 50.001 64
s19 20.834 25 24.501s12.333 5.5 19 5.5c7.33301 0 13.833 -2.66699 19.5 -8s7.5 -11.333 5.5 -18c-5.33301 -12 -12.666 -25.833 -21.999 -41.5l-34 -55.5c-29.333 -44.667 -44 -71.334 -44 -80.001c0 -4 2.83301 -10.833 8.5 -20.5s13.167 -21.834 22.5 -36.501l13 -20
l34 -55.5c9.33301 -15.667 16.666 -29.5 21.999 -41.5c2 -6.66699 0.166992 -12.667 -5.5 -18s-12.167 -8 -19.5 -8s-14 2 -20 6z" />
    <glyph glyph-name="logicalnot" unicode="&#xac;" horiz-adv-x="517" 
d="M333 163c-2 22 -3.00098 53.667 -3.00098 95c0 6 -1 10.333 -3 13s-5.66699 4 -11 4c-58.667 0 -97.667 -0.333008 -117 -1h-47c-20.667 0 -35.667 0.333008 -45 1c-14.667 0.666992 -25.334 3.66699 -32.001 9s-10 14 -10 26c0 8.66699 2.66699 16.167 8 22.5
s12.333 9.83301 21 10.5c46.667 3.33301 96 5 148 5c40.667 0 82.334 -1.33301 125.001 -4c20 -2 30.667 -14 32 -36c2 -36 3 -63.333 3 -82c0 -30 -0.666992 -52 -2 -66c-3.33301 -18 -14.666 -27 -33.999 -27c-18.667 0 -29.667 10 -33 30z" />
    <glyph glyph-name="uni00AD" unicode="&#xad;" horiz-adv-x="327" 
d="M57 214c-9.33301 0 -16.332 1.5 -20.999 4.5s-7 8.16699 -7 15.5c0 13.333 3.16699 24.333 9.5 33s15.166 13 26.499 13h207c17.333 0 26 -6.66699 26 -20s-3 -24.333 -9 -33s-14.667 -13 -26 -13h-206z" />
    <glyph glyph-name="registered" unicode="&#xae;" horiz-adv-x="575" 
d="M422 676c39.333 -22 69.833 -52.5 91.5 -91.5s32.5 -83.833 32.5 -134.5c0 -50 -11 -94.5 -33 -133.5s-52.667 -69.333 -92 -91s-84 -32.5 -134 -32.5s-94.5 10.833 -133.5 32.5s-69.5 52 -91.5 91s-33 83.5 -33 133.5c0 50.667 11 95.5 33 134.5s52.667 69.5 92 91.5
s84 33 134 33s94.667 -11 134 -33zM401 259.5c33.333 18.333 59.333 44.167 78 77.5s28 71 28 113c0 42.667 -9.33301 80.667 -28 114s-44.5 59.333 -77.5 78s-70.833 28 -113.5 28s-80.5 -9.33301 -113.5 -28s-58.833 -44.667 -77.5 -78s-28 -71.333 -28 -114
c0 -42 9.33301 -79.5 28 -112.5s44.5 -58.833 77.5 -77.5s70.5 -28 112.5 -28c42.667 0 80.667 9.16699 114 27.5zM427 348.501c4.66699 -1 7.99805 -2.00098 9.99805 -3.00098s3 -3.83301 3 -8.5c0 -10.667 -13.667 -16 -41 -16c-17.333 0 -30.166 1.83301 -38.499 5.5
s-14.166 9.16699 -17.499 16.5s-5.66602 18.666 -6.99902 33.999c-6.66699 41.333 -23.667 62 -51 62h-17c-6.66699 0 -11 -1.16699 -13 -3.5s-3 -7.16602 -3 -14.499v-40c0 -8.66699 1.33301 -15 4 -19s9 -7.66699 19 -11c6.66699 -3.33301 10 -8 10 -14
c0 -5.33301 -1.33301 -8.83301 -4 -10.5s-7.66699 -2.5 -15 -2.5h-82c-8 0 -13.333 0.833008 -16 2.5s-4 5.16699 -4 10.5c0 6 3.66699 10.667 11 14c9.33301 2.66699 15.333 6.33398 18 11.001s4 12.334 4 23.001v158c0 11.333 -1.33301 19 -4 23s-9 7.66699 -19 11
c-4 2 -6.83301 4 -8.5 6s-2.5 5 -2.5 9c0 8 6.66699 12 20 12h39l64 1c40 0 71 -7 93 -21s33 -34.333 33 -61c0 -18 -6.16699 -33.333 -18.5 -46s-28.5 -22.334 -48.5 -29.001c18 -10 33 -30 45 -60c3.33301 -10 6.66602 -17.5 9.99902 -22.5s8 -8.83301 14 -11.5
c4 -2.66699 8.33301 -4.5 13 -5.5zM289.998 467c20 0 35 4.16699 45 12.5s15 19.833 15 34.5c0 19.333 -5 34.5 -15 45.5s-25.333 16.5 -46 16.5h-18c-5.33301 0 -9.83301 -1.66699 -13.5 -5s-5.5 -9 -5.5 -17v-66c0 -14 5.66699 -21 17 -21h21z" />
    <glyph glyph-name="macron" unicode="&#xaf;" horiz-adv-x="332" 
d="M33.5 575.5c-3 1.66699 -4.49707 4.83203 -4.49707 9.49902c0 4 1 9.33301 3 16c3.33301 10 6.66602 17 9.99902 21s9 6 17 6c50.667 -0.666992 127.334 -1 230.001 -1c9.33301 0 14 -3.66699 14 -11c0 -3.33301 -0.333008 -6.16602 -1 -8.49902
s-1.33398 -4.5 -2.00098 -6.5c-2.66699 -11.333 -5.83398 -19 -9.50098 -23s-9.83398 -6 -18.501 -6c-48 0.666992 -122 1 -222 1c-8 0 -13.5 0.833008 -16.5 2.5z" />
    <glyph glyph-name="degree" unicode="&#xb0;" horiz-adv-x="344" 
d="M69 467.5c-26.667 26.333 -40 60.498 -40 102.498c0 41.333 13.333 75 40 101s61 39 103 39c41.333 0 75.333 -13.167 102 -39.5s40 -60.166 40 -101.499s-13.333 -75.166 -40 -101.499s-60.667 -39.5 -102 -39.5c-42 0 -76.333 13.167 -103 39.5zM241.5 500.498
c17.667 17.667 26.5 40.833 26.5 69.5c0 28 -9 50.667 -27 68s-41.333 26 -70 26s-51.834 -8.66699 -69.501 -26s-26.5 -40.333 -26.5 -69c0 -28 9 -50.833 27 -68.5s41.333 -26.5 70 -26.5s51.834 8.83301 69.501 26.5z" />
    <glyph glyph-name="plusminus" unicode="&#xb1;" horiz-adv-x="450" 
d="M380 106c27.333 0 41.001 -6.66895 41.001 -20.002s-4.66699 -24.333 -14 -33s-22.333 -13 -39 -13h-297c-14 0 -24.5 1.5 -31.5 4.5s-10.5 8.16699 -10.5 15.5c0 13.333 4.66699 24.333 14 33s22.666 13 39.999 13h115c-3.33301 6.66699 -5 15.334 -5 26.001v99
c0 8.66699 -4.66699 13 -14 13h-105c-12 0 -21.167 1.83301 -27.5 5.5s-9.5 11.167 -9.5 22.5c0 12.667 3.5 22.167 10.5 28.5s18.5 9.5 34.5 9.5h96c10 0 15 4.66699 15 14v106c0 12 3.66699 20.833 11 26.5s16 8.5 26 8.5c12 0 20 -3.16699 24 -9.5s6 -14.833 6 -25.5
v-106c0 -9.33301 3.33301 -14 10 -14h109c12 0 20.833 -3.66699 26.5 -11s8.5 -15.666 8.5 -24.999c0 -20 -11.667 -30 -35 -30h-109c-6.66699 0 -10 -3.66699 -10 -11v-108c0 -6 -0.666992 -12.333 -2 -19h122z" />
    <glyph glyph-name="acute" unicode="&#xb4;" horiz-adv-x="259" 
d="M29 538c0 8 23.335 39.999 70.002 95.999c9.33301 10.667 18.666 22.334 27.999 35.001c6 9.33301 13.667 15.5 23 18.5s22 4.5 38 4.5c15.333 0 26.166 -1.5 32.499 -4.5s9.5 -8.16699 9.5 -15.5c0 -10 -13 -26.833 -39 -50.5s-54.333 -45.667 -85 -66
s-50.667 -30.5 -60 -30.5c-11.333 0 -17 4.33301 -17 13z" />
    <glyph glyph-name="uni00B5" unicode="&#xb5;" horiz-adv-x="603" 
d="M584.5 38.5c-5.66699 -3.66699 -13.832 -7.50098 -24.499 -11.501l-19 -6c-51.333 -18 -86 -27 -104 -27c-11.333 0 -19.333 2.33301 -24 7s-7 12.334 -7 23.001v52c0 4.66699 -0.5 8.5 -1.5 11.5s-2.16699 4.5 -3.5 4.5s-5 -9.16699 -11 -27.5s-18.333 -35.333 -37 -51
s-45 -23.5 -79 -23.5c-23.333 0 -43.666 4.83301 -60.999 14.5s-30 22.834 -38 39.501c-1.33301 3.33301 -3 5 -5 5s-3 -1.33301 -3 -4c0 -16 2.66699 -41.333 8 -76c5.33301 -32 8 -56 8 -72c0 -12.667 -4 -22.167 -12 -28.5s-21 -9.5 -39 -9.5
c-20 0 -33.333 3.66699 -40 11s-10 18.333 -10 33v461c0 15.333 -2.33301 26.166 -7 32.499s-14.334 9.5 -29.001 9.5c-16.667 0 -28 0.666992 -34 2s-9 5.66602 -9 12.999s2.66699 12.833 8 16.5s14 7.83398 26 12.501l29 9c47.333 15.333 78.333 23 93 23
c11.333 0 19.5 -2.16699 24.5 -6.5s7.5 -11.833 7.5 -22.5v-257c0 -46 8 -79.667 24 -101s40.333 -32 73 -32c19.333 0 38.166 6.16699 56.499 18.5s33.166 30.666 44.499 54.999s17 53.833 17 88.5v139c0 15.333 -2.16699 26.166 -6.5 32.499s-14.166 9.5 -29.499 9.5
c-17.333 0 -28.833 0.666992 -34.5 2s-8.5 5.66602 -8.5 12.999s2.66699 12.833 8 16.5s13.666 7.83398 24.999 12.501l28 9c47.333 15.333 79 23 95 23c11.333 0 19.333 -2.16699 24 -6.5s7 -11.833 7 -22.5v-341c0 -15.333 2.33301 -26.166 7 -32.499s14.667 -9.5 30 -9.5
c16.667 0 27.834 -0.666992 33.501 -2s8.5 -5.66602 8.5 -12.999s-2.83301 -12.833 -8.5 -16.5z" />
    <glyph glyph-name="paragraph" unicode="&#xb6;" horiz-adv-x="731" 
d="M219 -75c0 13.333 6.66797 22.9971 20.001 28.9971c23.333 5.33301 38 9 44 11c8.66699 2.66699 14.667 6.33398 18 11.001s5 11.667 5 21l1 296c0 10 -2 16.833 -6 20.5s-11.333 5.5 -22 5.5c-88 0 -153.667 15.333 -197 46s-65 81.334 -65 152.001
c0 60 18.5 106.667 55.5 140s86.5 50 148.5 50c28 0 63.333 -0.666992 106 -2c34 -2 73.667 -3 119 -3l142 1c18 0.666992 40.333 1 67 1c14 0 25 -2.83301 33 -8.5s12 -13.167 12 -22.5c0 -12.667 -8 -22.667 -24 -30c-3.33301 -0.666992 -16 -4 -38 -10
c-6.66699 -2.66699 -11.667 -6.66699 -15 -12s-5 -13 -5 -23l-1 -603c0 -17.333 6.33301 -28 19 -32l39 -9c7.33301 -3.33301 12.5 -7 15.5 -11s4.5 -9.33301 4.5 -16c0 -17.333 -10.667 -27.666 -32 -30.999c-66.667 -2 -134.334 -3 -203.001 -3h-111
c-54 0 -86.333 0.666992 -97 2c-22 4 -33 14 -33 30zM526.501 -29.0029c8.33301 6 12.5 18.332 12.5 36.999l1 575c0 20 -4.16699 33.667 -12.5 41s-23.833 11 -46.5 11c-26 0 -43.167 -3.16699 -51.5 -9.5s-12.5 -20.5 -12.5 -42.5l1 -576
c0 -13.333 1.66699 -23.166 5 -29.499s9 -10.5 17 -12.5s20.667 -3 38 -3c24 0 40.167 3 48.5 9z" />
    <glyph glyph-name="periodcentered" unicode="&#xb7;" horiz-adv-x="245" 
d="M67 189c-12 12 -18 27.333 -18 46c0 22.667 7.5 41.667 22.5 57s33.5 23 55.5 23c20.667 0 37.334 -6.33301 50.001 -19s19 -29 19 -49c0 -22 -7.83301 -40.167 -23.5 -54.5s-34.834 -21.5 -57.501 -21.5c-20 0 -36 6 -48 18z" />
    <glyph glyph-name="cedilla" unicode="&#xb8;" horiz-adv-x="256" 
d="M77.5 -178.5c-15.667 5 -28.4971 11.832 -38.4971 20.499c-6.66699 6.66699 -10 12.667 -10 18c0 6.66699 4 10 12 10c3.33301 0 7.66602 -1 12.999 -3c18 -10.667 38 -16 60 -16c17.333 0 31.166 3.83301 41.499 11.5s15.5 18.167 15.5 31.5
c0 10 -3.16699 17.667 -9.5 23s-15.5 11 -27.5 17c-12.667 6.66699 -22.167 13 -28.5 19s-9.5 14.333 -9.5 25c0 7.33301 2 16 6 26l45 -3c-2 -5.33301 -3 -9.66602 -3 -12.999c0 -7.33301 2.66699 -13.333 8 -18s13.666 -10 24.999 -16c16 -8 28.167 -16.333 36.5 -25
s12.5 -21 12.5 -37c0 -22 -8.5 -40.5 -25.5 -55.5s-40.5 -22.5 -70.5 -22.5c-19.333 0 -36.833 2.5 -52.5 7.5z" />
    <glyph glyph-name="guillemotright" unicode="&#xbb;" horiz-adv-x="400" 
d="M37.5 48c-5.66699 5.33301 -7.83105 11.334 -6.49805 18.001c6.66699 14 20.667 38.333 42 73l15 24l20 32c7.33301 10.667 13.166 20 17.499 28s6.5 13.667 6.5 17c0 4 -4.16699 13.333 -12.5 28s-18.833 32 -31.5 52l-15 24c-21.333 34.667 -35.333 59 -42 73
c-1.33301 6.66699 0.833984 12.667 6.50098 18s11.834 8 18.501 8s13 -1.83301 19 -5.5s14.5 -11.834 25.5 -24.501s27.833 -34 50.5 -64c43.333 -57.333 65 -94 65 -110c0 -4.66699 -5.33301 -16 -16 -34s-27 -41.667 -49 -71c-18.667 -24.667 -34.334 -44.667 -47.001 -60
s-21.834 -24.833 -27.501 -28.5s-12.5 -5.5 -20.5 -5.5c-6.66699 0 -12.834 2.66699 -18.501 8zM216.503 48.001c-5.66699 5.33301 -7.83496 11.332 -6.50195 17.999c6 13.333 18.333 35.333 37 66l19 31l13 20c9.33301 14.667 16.833 26.834 22.5 36.501s8.5 16.5 8.5 20.5
c0 8.66699 -14.667 35.334 -44 80.001l-19 31c-18.667 30.667 -31 52.667 -37 66c-1.33301 6.66699 0.833984 12.667 6.50098 18s11.834 8 18.501 8s13 -1.83301 19 -5.5s14.5 -11.834 25.5 -24.501s27.833 -34 50.5 -64c43.333 -57.333 65 -94 65 -110
c0 -4.66699 -5.33301 -16 -16 -34s-27 -41.667 -49 -71c-23.333 -30.667 -40.166 -52.167 -50.499 -64.5s-18.5 -20.333 -24.5 -24s-12.667 -5.5 -20 -5.5c-6.66699 0 -12.834 2.66699 -18.501 8z" />
    <glyph glyph-name="questiondown" unicode="&#xbf;" horiz-adv-x="462" 
d="M299 470c13.333 -12 20 -27.001 20 -45.001c0 -19.333 -6.66699 -35.333 -20 -48s-30.333 -19 -51 -19c-21.333 0 -39 6.33301 -53 19s-21 28.667 -21 48c0 18.667 7 33.834 21 45.501s31.667 17.5 53 17.5c20.667 0 37.667 -6 51 -18zM276 279.999
c0 -35.333 -7.83203 -64.0039 -23.499 -86.0039s-38.5 -45.333 -68.5 -70c-26.667 -22.667 -46.334 -42.5 -59.001 -59.5s-19 -38.167 -19 -63.5c0 -38 10.833 -67.667 32.5 -89s50.167 -32 85.5 -32c38.667 0 70.5 11.5 95.5 34.5s37.5 51.5 37.5 85.5
c0 18.667 4.66699 32.834 14 42.501s21.666 14.5 36.999 14.5c14.667 0 26.834 -4.66699 36.501 -14s14.5 -22 14.5 -38c0 -32 -10.167 -61.667 -30.5 -89s-48.5 -49.166 -84.5 -65.499s-76.667 -24.5 -122 -24.5c-42 0 -79.5 6.66699 -112.5 20s-59 32.333 -78 57
s-28.5 53.667 -28.5 87c0 24.667 4.83301 46.334 14.5 65.001s21.5 34.334 35.5 47.001s33.333 27.667 58 45c32 22 56.833 42.5 74.5 61.5s29.5 42.833 35.5 71.5c8.66699 16.667 19 25 31 25c16 0 24 -8.33301 24 -25z" />
    <glyph glyph-name="Agrave" unicode="&#xc0;" 
d="M5 23c0 6 3.00391 11.5 9.00391 16.5s13 8.83301 21 11.5c23.333 3.33301 39.666 9.5 48.999 18.5s18.666 26.167 27.999 51.5l190 491c2 5.33301 3 10.333 3 15c0 14.667 -7.66699 24 -23 28c-12.667 4.66699 -19 13 -19 25c0 6 2.5 11.333 7.5 16s13.167 7 24.5 7h62
c28 0 48 -5.33301 60 -16s22 -26 30 -46l204 -528c8 -20.667 15.833 -34.5 23.5 -41.5s22.167 -12.167 43.5 -15.5c15.333 -5.33301 23 -15.333 23 -30c0 -18 -13.667 -27 -41 -27l-88 1l-90 -1c-23.333 0 -39.833 1.5 -49.5 4.5s-14.5 9.83301 -14.5 20.5
c0 9.33301 5.66699 16 17 20c20 4 34 8.16699 42 12.5s12 11.166 12 20.499c0 6.66699 -2.66699 17 -8 31l-27 74c-8.66699 21.333 -22.667 32 -42 32h-207c-14.667 0 -24.834 -1.66699 -30.501 -5s-10.834 -10.666 -15.501 -21.999l-27 -72c-6 -16 -9 -28.667 -9 -38
s3.83301 -16.333 11.5 -21s20.5 -8 38.5 -10c18 -3.33301 27 -11.333 27 -24c0 -15.333 -13 -23 -39 -23h-162c-22.667 -0.666992 -34 7.33301 -34 24zM434.004 269c16 0 24 5 24 15c0 2 -0.666992 5 -2 9l-98 270c-2 7.33301 -5.33301 11 -10 11
c-4 0 -7.33301 -3.66699 -10 -11l-58 -157l-43 -115l-2 -8c0 -9.33301 9.66699 -14 29 -14h170zM349.004 757.5c-32.667 16.333 -63 34.168 -91 53.501s-42.333 34 -43 44c0 8 3 13.5 9 16.5s17.667 4.83301 35 5.5c17.333 0 30 -1 38 -3s15 -7.33301 21 -16
c6 -6.66699 21 -20.667 45 -42c43.333 -38 65.333 -60.667 66 -68c0 -9.33301 -5.66699 -14 -17 -14c-9.33301 -0.666992 -30.333 7.16602 -63 23.499z" />
    <glyph glyph-name="Aacute" unicode="&#xc1;" 
d="M5 23c0 6 3.00391 11.5 9.00391 16.5s13 8.83301 21 11.5c23.333 3.33301 39.666 9.5 48.999 18.5s18.666 26.167 27.999 51.5l190 491c2 5.33301 3 10.333 3 15c0 14.667 -7.66699 24 -23 28c-12.667 4.66699 -19 13 -19 25c0 6 2.5 11.333 7.5 16s13.167 7 24.5 7h62
c28 0 48 -5.33301 60 -16s22 -26 30 -46l204 -528c8 -20.667 15.833 -34.5 23.5 -41.5s22.167 -12.167 43.5 -15.5c15.333 -5.33301 23 -15.333 23 -30c0 -18 -13.667 -27 -41 -27l-88 1l-90 -1c-23.333 0 -39.833 1.5 -49.5 4.5s-14.5 9.83301 -14.5 20.5
c0 9.33301 5.66699 16 17 20c20 4 34 8.16699 42 12.5s12 11.166 12 20.499c0 6.66699 -2.66699 17 -8 31l-27 74c-8.66699 21.333 -22.667 32 -42 32h-207c-14.667 0 -24.834 -1.66699 -30.501 -5s-10.834 -10.666 -15.501 -21.999l-27 -72c-6 -16 -9 -28.667 -9 -38
s3.83301 -16.333 11.5 -21s20.5 -8 38.5 -10c18 -3.33301 27 -11.333 27 -24c0 -15.333 -13 -23 -39 -23h-162c-22.667 -0.666992 -34 7.33301 -34 24zM434.004 269c16 0 24 5 24 15c0 2 -0.666992 5 -2 9l-98 270c-2 7.33301 -5.33301 11 -10 11
c-4 0 -7.33301 -3.66699 -10 -11l-58 -157l-43 -115l-2 -8c0 -9.33301 9.66699 -14 29 -14h170zM295.004 748c0.666992 4.66699 6.83301 12.665 18.5 23.998s28.167 26.333 49.5 45c24 21.333 38.667 35 44 41c6 8.66699 12.833 14 20.5 16s20.5 3 38.5 3
c16.667 -0.666992 28 -2.5 34 -5.5s9 -8.5 9 -16.5c0 -10 -14 -24.667 -42 -44s-58.333 -37.166 -91 -53.499s-54 -24.166 -64 -23.499c-11.333 0 -17 4.66699 -17 14z" />
    <glyph glyph-name="Acircumflex" unicode="&#xc2;" 
d="M5 23c0 6 3.00391 11.5 9.00391 16.5s13 8.83301 21 11.5c23.333 3.33301 39.666 9.5 48.999 18.5s18.666 26.167 27.999 51.5l190 491c2 5.33301 3 10.333 3 15c0 14.667 -7.66699 24 -23 28c-12.667 4.66699 -19 13 -19 25c0 6 2.5 11.333 7.5 16s13.167 7 24.5 7h62
c28 0 48 -5.33301 60 -16s22 -26 30 -46l204 -528c8 -20.667 15.833 -34.5 23.5 -41.5s22.167 -12.167 43.5 -15.5c15.333 -5.33301 23 -15.333 23 -30c0 -18 -13.667 -27 -41 -27l-88 1l-90 -1c-23.333 0 -39.833 1.5 -49.5 4.5s-14.5 9.83301 -14.5 20.5
c0 9.33301 5.66699 16 17 20c20 4 34 8.16699 42 12.5s12 11.166 12 20.499c0 6.66699 -2.66699 17 -8 31l-27 74c-8.66699 21.333 -22.667 32 -42 32h-207c-14.667 0 -24.834 -1.66699 -30.501 -5s-10.834 -10.666 -15.501 -21.999l-27 -72c-6 -16 -9 -28.667 -9 -38
s3.83301 -16.333 11.5 -21s20.5 -8 38.5 -10c18 -3.33301 27 -11.333 27 -24c0 -15.333 -13 -23 -39 -23h-162c-22.667 -0.666992 -34 7.33301 -34 24zM434.004 269c16 0 24 5 24 15c0 2 -0.666992 5 -2 9l-98 270c-2 7.33301 -5.33301 11 -10 11
c-4 0 -7.33301 -3.66699 -10 -11l-58 -157l-43 -115l-2 -8c0 -9.33301 9.66699 -14 29 -14h170zM209.504 735.5c-3 3 -4.5 6.83301 -4.5 11.5c0 10.667 15.667 31.834 47 63.501s58.333 54.834 81 69.501c11.333 8 21.333 12 30 12s18.667 -4 30 -12
c22.667 -14.667 49.667 -37.834 81 -69.501s47 -52.834 47 -63.501c0 -4.66699 -1.5 -8.5 -4.5 -11.5s-6.5 -4.5 -10.5 -4.5c-4.66699 0 -14.167 5.33301 -28.5 16s-22.5 16.667 -24.5 18c-22 16 -41.667 29.667 -59 41s-28 17 -32 17c-3.33301 0 -13.5 -5.66699 -30.5 -17
l-58.5 -41c-30.667 -22.667 -48 -34 -52 -34c-4.66699 0 -8.5 1.5 -11.5 4.5z" />
    <glyph glyph-name="Atilde" unicode="&#xc3;" 
d="M5 23c0 6 3.00391 11.5 9.00391 16.5s13 8.83301 21 11.5c23.333 3.33301 39.666 9.5 48.999 18.5s18.666 26.167 27.999 51.5l190 491c2 5.33301 3 10.333 3 15c0 14.667 -7.66699 24 -23 28c-12.667 4.66699 -19 13 -19 25c0 6 2.5 11.333 7.5 16s13.167 7 24.5 7h62
c28 0 48 -5.33301 60 -16s22 -26 30 -46l204 -528c8 -20.667 15.833 -34.5 23.5 -41.5s22.167 -12.167 43.5 -15.5c15.333 -5.33301 23 -15.333 23 -30c0 -18 -13.667 -27 -41 -27l-88 1l-90 -1c-23.333 0 -39.833 1.5 -49.5 4.5s-14.5 9.83301 -14.5 20.5
c0 9.33301 5.66699 16 17 20c20 4 34 8.16699 42 12.5s12 11.166 12 20.499c0 6.66699 -2.66699 17 -8 31l-27 74c-8.66699 21.333 -22.667 32 -42 32h-207c-14.667 0 -24.834 -1.66699 -30.501 -5s-10.834 -10.666 -15.501 -21.999l-27 -72c-6 -16 -9 -28.667 -9 -38
s3.83301 -16.333 11.5 -21s20.5 -8 38.5 -10c18 -3.33301 27 -11.333 27 -24c0 -15.333 -13 -23 -39 -23h-162c-22.667 -0.666992 -34 7.33301 -34 24zM434.004 269c16 0 24 5 24 15c0 2 -0.666992 5 -2 9l-98 270c-2 7.33301 -5.33301 11 -10 11
c-4 0 -7.33301 -3.66699 -10 -11l-58 -157l-43 -115l-2 -8c0 -9.33301 9.66699 -14 29 -14h170zM401.004 746c-12.667 4.66699 -27.3311 11.665 -43.998 20.998c-15.333 8 -28.333 14.167 -39 18.5s-21 6.5 -31 6.5s-18.333 -3 -25 -9s-11.667 -14 -15 -24
c-8 -14 -18 -21 -30 -21c-6 0 -11.167 2.16699 -15.5 6.5s-6.5 9.83301 -6.5 16.5c0.666992 26.667 8.83398 47.834 24.501 63.501s35.167 23.5 58.5 23.5c16 0 31 -2.66699 45 -8s30.667 -13 50 -23c12.667 -7.33301 23.5 -12.833 32.5 -16.5s17.5 -5.5 25.5 -5.5
c10 0 18.5 2.83301 25.5 8.5s12.167 13.5 15.5 23.5c8 14.667 18 22 30 22c6.66699 0 12 -2.16699 16 -6.5s6 -9.83301 6 -16.5c-0.666992 -27.333 -8.83398 -48.666 -24.501 -63.999s-35.834 -23 -60.501 -23c-12.667 0 -25.334 2.33301 -38.001 7z" />
    <glyph glyph-name="Adieresis" unicode="&#xc4;" 
d="M5 23c0 6 3.00391 11.5 9.00391 16.5s13 8.83301 21 11.5c23.333 3.33301 39.666 9.5 48.999 18.5s18.666 26.167 27.999 51.5l190 491c2 5.33301 3 10.333 3 15c0 14.667 -7.66699 24 -23 28c-12.667 4.66699 -19 13 -19 25c0 6 2.5 11.333 7.5 16s13.167 7 24.5 7h62
c28 0 48 -5.33301 60 -16s22 -26 30 -46l204 -528c8 -20.667 15.833 -34.5 23.5 -41.5s22.167 -12.167 43.5 -15.5c15.333 -5.33301 23 -15.333 23 -30c0 -18 -13.667 -27 -41 -27l-88 1l-90 -1c-23.333 0 -39.833 1.5 -49.5 4.5s-14.5 9.83301 -14.5 20.5
c0 9.33301 5.66699 16 17 20c20 4 34 8.16699 42 12.5s12 11.166 12 20.499c0 6.66699 -2.66699 17 -8 31l-27 74c-8.66699 21.333 -22.667 32 -42 32h-207c-14.667 0 -24.834 -1.66699 -30.501 -5s-10.834 -10.666 -15.501 -21.999l-27 -72c-6 -16 -9 -28.667 -9 -38
s3.83301 -16.333 11.5 -21s20.5 -8 38.5 -10c18 -3.33301 27 -11.333 27 -24c0 -15.333 -13 -23 -39 -23h-162c-22.667 -0.666992 -34 7.33301 -34 24zM434.004 269c16 0 24 5 24 15c0 2 -0.666992 5 -2 9l-98 270c-2 7.33301 -5.33301 11 -10 11
c-4 0 -7.33301 -3.66699 -10 -11l-58 -157l-43 -115l-2 -8c0 -9.33301 9.66699 -14 29 -14h170zM209.004 748.5c-12.667 9.66699 -19 22.167 -19 37.5s6.33301 27.5 19 36.5s29.334 13.5 50.001 13.5c20 0 36.167 -4.66699 48.5 -14s18.5 -21.333 18.5 -36
c0 -15.333 -6.16699 -27.833 -18.5 -37.5s-28.5 -14.5 -48.5 -14.5c-20.667 0 -37.334 4.83301 -50.001 14.5zM424.004 748.5c-12.667 9.66699 -19 22.167 -19 37.5s6.33301 27.5 19 36.5s29.334 13.5 50.001 13.5c20 0 36 -4.5 48 -13.5s18 -21.167 18 -36.5
s-6 -27.833 -18 -37.5s-28 -14.5 -48 -14.5c-20.667 0 -37.334 4.83301 -50.001 14.5z" />
    <glyph glyph-name="Aring" unicode="&#xc5;" 
d="M5 23c0 6 3.00391 11.5 9.00391 16.5s13 8.83301 21 11.5c23.333 3.33301 39.666 9.5 48.999 18.5s18.666 26.167 27.999 51.5l190 491c2 5.33301 3 10.333 3 15c0 14.667 -7.66699 24 -23 28c-12.667 4.66699 -19 13 -19 25c0 6 2.5 11.333 7.5 16s13.167 7 24.5 7h62
c28 0 48 -5.33301 60 -16s22 -26 30 -46l204 -528c8 -20.667 15.833 -34.5 23.5 -41.5s22.167 -12.167 43.5 -15.5c15.333 -5.33301 23 -15.333 23 -30c0 -18 -13.667 -27 -41 -27l-88 1l-90 -1c-23.333 0 -39.833 1.5 -49.5 4.5s-14.5 9.83301 -14.5 20.5
c0 9.33301 5.66699 16 17 20c20 4 34 8.16699 42 12.5s12 11.166 12 20.499c0 6.66699 -2.66699 17 -8 31l-27 74c-8.66699 21.333 -22.667 32 -42 32h-207c-14.667 0 -24.834 -1.66699 -30.501 -5s-10.834 -10.666 -15.501 -21.999l-27 -72c-6 -16 -9 -28.667 -9 -38
s3.83301 -16.333 11.5 -21s20.5 -8 38.5 -10c18 -3.33301 27 -11.333 27 -24c0 -15.333 -13 -23 -39 -23h-162c-22.667 -0.666992 -34 7.33301 -34 24zM434.004 269c16 0 24 5 24 15c0 2 -0.666992 5 -2 9l-98 270c-2 7.33301 -5.33301 11 -10 11
c-4 0 -7.33301 -3.66699 -10 -11l-58 -157l-43 -115l-2 -8c0 -9.33301 9.66699 -14 29 -14h170zM289.004 756.5c-18 13.667 -27.001 32.168 -27.001 55.501s8.83301 41.666 26.5 54.999s38.834 20 63.501 20c25.333 0 47.333 -7 66 -21s28 -32.667 28 -56
c0 -22.667 -9 -40.667 -27 -54s-39.333 -20 -64 -20c-26 0 -48 6.83301 -66 20.5zM384.503 779.501c7.66699 7.66699 11.5 17.166 11.5 28.499c0 12.667 -4.16699 23.834 -12.5 33.501s-18.5 14.5 -30.5 14.5s-21.833 -4.16699 -29.5 -12.5s-11.5 -18.5 -11.5 -30.5
s4.16699 -22.5 12.5 -31.5s18.5 -13.5 30.5 -13.5s21.833 3.83301 29.5 11.5z" />
    <glyph glyph-name="AE" unicode="&#xc6;" horiz-adv-x="1050" 
d="M918 -12c-6.66699 4 -13.6621 6.99902 -20.9951 8.99902s-18.333 3 -33 3h-389c-16 0 -27 1.66699 -33 5s-9 10 -9 20c0 6 2.16699 10.833 6.5 14.5s10.166 7.5 17.499 11.5c18.667 5.33301 32 10.666 40 15.999s13.167 11.333 15.5 18s3.5 16.334 3.5 29.001v65
c0 11.333 -2.66699 19.166 -8 23.499s-14 6.5 -26 6.5h-200c-12 0 -21.167 -1.16699 -27.5 -3.5s-12.5 -7.83301 -18.5 -16.5l-58 -89c-7.33301 -11.333 -11 -20.666 -11 -27.999s5.33301 -13.166 16 -17.499s28 -7.16602 52 -8.49902c16 -2.66699 24 -10.334 24 -23.001
c0 -9.33301 -4.16699 -15.666 -12.5 -18.999s-20.833 -5 -37.5 -5h-109h-50c-17.333 0 -29.166 2.16699 -35.499 6.5s-9.5 10.166 -9.5 17.499c0 8.66699 2.83301 15.167 8.5 19.5s13.834 7.5 24.501 9.5c18.667 2.66699 33.5 8 44.5 16s23.167 22.667 36.5 44l173 276
l139 224c6.66699 10.667 10 19.667 10 27c0 5.33301 -1.66699 10.166 -5 14.499s-8 8.83301 -14 13.5c-2 7.33301 0.666992 14.166 8 20.499s20.666 10.166 39.999 11.499l51 2l37 -1h270c14.667 0 25.667 1 33 3s14.333 5 21 9c7.33301 4.66699 15 7 23 7
c7.33301 0 13.166 -2.5 17.499 -7.5s9.33301 -14.833 15 -29.5s13.5 -39 23.5 -73c16 -50 24 -85.667 24 -107c0 -11.333 -2.16699 -19.166 -6.5 -23.499s-10.833 -6.5 -19.5 -6.5c-14.667 0 -26.334 9.66699 -35.001 29c-16 48 -28 81 -36 99s-16.833 30.167 -26.5 36.5
s-24.167 9.5 -43.5 9.5h-142c-12.667 0 -22 -1.16699 -28 -3.5s-10.167 -7.16602 -12.5 -14.499s-3.5 -19 -3.5 -35v-166c0 -10.667 1.5 -18.334 4.5 -23.001s8.83301 -7 17.5 -7h84c10.667 0 18 1.66699 22 5s6 9.33301 6 18c0 6.66699 -1.66699 19 -5 37
c-0.666992 3.33301 -1 7.66602 -1 12.999c0 14.667 6.66699 22 20 22c9.33301 0 16.5 -2.5 21.5 -7.5s9.83301 -14.667 14.5 -29s12 -40.833 22 -79.5c14.667 -55.333 22 -89.666 22 -102.999c0 -8 -1.83301 -13.667 -5.5 -17s-9.5 -5 -17.5 -5
c-8.66699 0 -15.167 2 -19.5 6s-8.16602 10.667 -11.499 20c-5.33301 20.667 -9.83301 35 -13.5 43s-8.16699 13.667 -13.5 17s-13.333 5 -24 5h-94c-11.333 0 -19 -3 -23 -9s-6 -15.667 -6 -29v-205c0 -19.333 2.66699 -31.666 8 -36.999s17.666 -8 36.999 -8h184
c18 0 32.333 4 43 12s20.167 21.833 28.5 41.5s17.833 50.167 28.5 91.5c4.66699 11.333 9.66699 19 15 23s11.666 6 18.999 6c9.33301 0 16.166 -2.33301 20.499 -7s6.5 -12.667 6.5 -24c0 -19.333 -8 -54.666 -24 -105.999c-10 -33.333 -17.833 -57.5 -23.5 -72.5
s-10.834 -25 -15.501 -30s-10.667 -7.5 -18 -7.5c-8 0 -15.667 2.33301 -23 7zM482.005 263.999c13.333 0 22.667 2.83301 28 8.5s8 15.167 8 28.5v264c0 12.667 -1.5 22.5 -4.5 29.5s-7.16699 10.5 -12.5 10.5c-6.66699 0 -14 -6.33301 -22 -19l-144 -232l-39 -63
c-4 -6.66699 -6 -12 -6 -16c0 -7.33301 6.33301 -11 19 -11h173z" />
    <glyph glyph-name="Ccedilla" unicode="&#xc7;" horiz-adv-x="650" 
d="M590 230.5c4 2.33301 7.99902 3.49805 11.999 3.49805c6.66699 0 12.5 -2.33301 17.5 -7s7.16699 -11 6.5 -19c-2.66699 -35.333 -14.667 -69.666 -36 -102.999s-51.666 -60.833 -90.999 -82.5s-86.333 -32.834 -141 -33.501c0 -8 2.83301 -14.5 8.5 -19.5
s13.834 -10.167 24.501 -15.5c16 -8 28.167 -16.333 36.5 -25s12.5 -21 12.5 -37c0 -22 -8.5 -40.5 -25.5 -55.5s-40.5 -22.5 -70.5 -22.5c-19.333 0 -36.833 2.5 -52.5 7.5s-28.5 11.833 -38.5 20.5c-6.66699 6.66699 -10 12.667 -10 18c0 6.66699 4 10 12 10
c4 0 8.33301 -1 13 -3c18 -10.667 38 -16 60 -16c17.333 0 31.166 3.83301 41.499 11.5s15.5 18.167 15.5 31.5c0 10 -3.16699 17.667 -9.5 23s-15.5 11 -27.5 17c-12.667 6.66699 -22.167 13 -28.5 19s-9.5 14.333 -9.5 25c0 2.66699 0.666992 7.33398 2 14.001
c-54 6.66699 -102.333 26 -145 58s-76.334 74.5 -101.001 127.5s-37 112.833 -37 179.5c0 66 13.667 126 41 180s65.166 96.5 113.499 127.5s102.833 46.5 163.5 46.5c33.333 0 65.5 -4.83301 96.5 -14.5s58.833 -23.5 83.5 -41.5
c8.66699 -6.66699 20.334 -17.334 35.001 -32.001c13.333 -15.333 24 -30.666 32 -45.999c12 -20 18 -43 18 -69c0 -18 -5 -33 -15 -45s-25 -18 -45 -18c-15.333 0 -28.833 4.83301 -40.5 14.5s-22.5 27.834 -32.5 54.501c-2 39.333 -16.167 72 -42.5 98s-60.5 39 -102.5 39
c-34.667 0 -65.667 -10 -93 -30s-48.666 -48 -63.999 -84s-23 -77 -23 -123c0 -60.667 9 -115.667 27 -165s44.667 -88.333 80 -117s78.333 -43 129 -43c52 0 94.667 12.167 128 36.5s54.333 55.833 63 94.5c2 4.66699 5 8.16699 9 10.5z" />
    <glyph glyph-name="Egrave" unicode="&#xc8;" horiz-adv-x="645" 
d="M612 221.5c4 -4.33301 6 -11.8369 6 -22.5039c0 -9.33301 -2 -23.666 -6 -42.999s-9 -41 -15 -65c-8 -32 -15 -55.833 -21 -71.5s-11.667 -26 -17 -31s-12 -7.5 -20 -7.5c-7.33301 0 -14.666 2.33301 -21.999 7c-6.66699 4 -13.667 7 -21 9s-18.333 3 -33 3h-389
c-16 0 -27.167 1.66699 -33.5 5s-9.5 10 -9.5 20c0 6 2.33301 11.5 7 16.5s10.334 8.83301 17.001 11.5c19.333 6 33 11.833 41 17.5s13.333 13.334 16 23.001s4 24.167 4 43.5v426c0 19.333 -1.33301 33.833 -4 43.5s-8 17.334 -16 23.001s-21.667 11.5 -41 17.5
c-16 6.66699 -24 16 -24 28c0 8.66699 2.83301 15.167 8.5 19.5s15.834 6.5 30.501 6.5h29c14 0 43 -0.166992 87 -0.5s124 -0.5 240 -0.5c14.667 0 25.667 1 33 3s14.333 5 21 9c8 4.66699 15.667 7 23 7s13.5 -2.5 18.5 -7.5s10.667 -15.333 17 -31s13.5 -39.5 21.5 -71.5
c14 -54 21 -90 21 -108c0 -10.667 -2 -18.167 -6 -22.5s-10 -6.5 -18 -6.5c-14.667 0 -26.334 9.66699 -35.001 29c-16 48 -28 81 -36 99s-16.833 30.167 -26.5 36.5s-24.167 9.5 -43.5 9.5h-141c-12.667 0 -22 -1.16699 -28 -3.5s-10.167 -7.16602 -12.5 -14.499
s-3.5 -19 -3.5 -35v-162c0 -12.667 1.33301 -22.167 4 -28.5s8.33398 -9.5 17.001 -9.5h87c13.333 0 22.666 2.16699 27.999 6.5s8 12.833 8 25.5c0 11.333 -0.666992 20.666 -2 27.999c-0.666992 9.33301 1.16602 16.833 5.49902 22.5s10.5 8.5 18.5 8.5
c8.66699 0 15.167 -2.83301 19.5 -8.5s8.16602 -16.5 11.499 -32.5s7 -42 11 -78c4 -34 6 -59.333 6 -76c0 -16 -2 -27 -6 -33s-10.333 -9 -19 -9c-7.33301 0 -13.166 2.5 -17.499 7.5s-6.83301 11.5 -7.5 19.5c-3.33301 20 -7 34.833 -11 44.5s-8.83301 16 -14.5 19
s-13.834 4.5 -24.501 4.5h-91c-10 0 -16.333 -2.66699 -19 -8s-4 -15 -4 -29v-206c0 -19.333 2.66699 -31.666 8 -36.999s17.666 -8 36.999 -8h183c18.667 0 33.334 4 44.001 12s20.167 21.833 28.5 41.5s17.833 50.167 28.5 91.5c6.66699 19.333 17.667 29 33 29
c8.66699 0 15 -2.16699 19 -6.5zM284 757.496c-32.667 16.333 -63 34.168 -91 53.501s-42.333 34 -43 44c0 8 3 13.5 9 16.5s17.667 4.83301 35 5.5c17.333 0 30 -1 38 -3s15 -7.33301 21 -16c6 -6.66699 21 -20.667 45 -42c43.333 -38 65.333 -60.667 66 -68
c0 -9.33301 -5.66699 -14 -17 -14c-9.33301 -0.666992 -30.333 7.16602 -63 23.499z" />
    <glyph glyph-name="Eacute" unicode="&#xc9;" horiz-adv-x="645" 
d="M612 221.5c4 -4.33301 6 -11.8369 6 -22.5039c0 -9.33301 -2 -23.666 -6 -42.999s-9 -41 -15 -65c-8 -32 -15 -55.833 -21 -71.5s-11.667 -26 -17 -31s-12 -7.5 -20 -7.5c-7.33301 0 -14.666 2.33301 -21.999 7c-6.66699 4 -13.667 7 -21 9s-18.333 3 -33 3h-389
c-16 0 -27.167 1.66699 -33.5 5s-9.5 10 -9.5 20c0 6 2.33301 11.5 7 16.5s10.334 8.83301 17.001 11.5c19.333 6 33 11.833 41 17.5s13.333 13.334 16 23.001s4 24.167 4 43.5v426c0 19.333 -1.33301 33.833 -4 43.5s-8 17.334 -16 23.001s-21.667 11.5 -41 17.5
c-16 6.66699 -24 16 -24 28c0 8.66699 2.83301 15.167 8.5 19.5s15.834 6.5 30.501 6.5h29c14 0 43 -0.166992 87 -0.5s124 -0.5 240 -0.5c14.667 0 25.667 1 33 3s14.333 5 21 9c8 4.66699 15.667 7 23 7s13.5 -2.5 18.5 -7.5s10.667 -15.333 17 -31s13.5 -39.5 21.5 -71.5
c14 -54 21 -90 21 -108c0 -10.667 -2 -18.167 -6 -22.5s-10 -6.5 -18 -6.5c-14.667 0 -26.334 9.66699 -35.001 29c-16 48 -28 81 -36 99s-16.833 30.167 -26.5 36.5s-24.167 9.5 -43.5 9.5h-141c-12.667 0 -22 -1.16699 -28 -3.5s-10.167 -7.16602 -12.5 -14.499
s-3.5 -19 -3.5 -35v-162c0 -12.667 1.33301 -22.167 4 -28.5s8.33398 -9.5 17.001 -9.5h87c13.333 0 22.666 2.16699 27.999 6.5s8 12.833 8 25.5c0 11.333 -0.666992 20.666 -2 27.999c-0.666992 9.33301 1.16602 16.833 5.49902 22.5s10.5 8.5 18.5 8.5
c8.66699 0 15.167 -2.83301 19.5 -8.5s8.16602 -16.5 11.499 -32.5s7 -42 11 -78c4 -34 6 -59.333 6 -76c0 -16 -2 -27 -6 -33s-10.333 -9 -19 -9c-7.33301 0 -13.166 2.5 -17.499 7.5s-6.83301 11.5 -7.5 19.5c-3.33301 20 -7 34.833 -11 44.5s-8.83301 16 -14.5 19
s-13.834 4.5 -24.501 4.5h-91c-10 0 -16.333 -2.66699 -19 -8s-4 -15 -4 -29v-206c0 -19.333 2.66699 -31.666 8 -36.999s17.666 -8 36.999 -8h183c18.667 0 33.334 4 44.001 12s20.167 21.833 28.5 41.5s17.833 50.167 28.5 91.5c6.66699 19.333 17.667 29 33 29
c8.66699 0 15 -2.16699 19 -6.5zM230 747.996c0.666992 4.66699 6.83301 12.665 18.5 23.998s28.167 26.333 49.5 45c24 21.333 38.667 35 44 41c6 8.66699 12.833 14 20.5 16s20.5 3 38.5 3c16.667 -0.666992 28 -2.5 34 -5.5s9 -8.5 9 -16.5c0 -10 -14 -24.667 -42 -44
s-58.333 -37.166 -91 -53.499s-54 -24.166 -64 -23.499c-11.333 0 -17 4.66699 -17 14z" />
    <glyph glyph-name="Ecircumflex" unicode="&#xca;" horiz-adv-x="645" 
d="M612 221.5c4 -4.33301 6 -11.8369 6 -22.5039c0 -9.33301 -2 -23.666 -6 -42.999s-9 -41 -15 -65c-8 -32 -15 -55.833 -21 -71.5s-11.667 -26 -17 -31s-12 -7.5 -20 -7.5c-7.33301 0 -14.666 2.33301 -21.999 7c-6.66699 4 -13.667 7 -21 9s-18.333 3 -33 3h-389
c-16 0 -27.167 1.66699 -33.5 5s-9.5 10 -9.5 20c0 6 2.33301 11.5 7 16.5s10.334 8.83301 17.001 11.5c19.333 6 33 11.833 41 17.5s13.333 13.334 16 23.001s4 24.167 4 43.5v426c0 19.333 -1.33301 33.833 -4 43.5s-8 17.334 -16 23.001s-21.667 11.5 -41 17.5
c-16 6.66699 -24 16 -24 28c0 8.66699 2.83301 15.167 8.5 19.5s15.834 6.5 30.501 6.5h29c14 0 43 -0.166992 87 -0.5s124 -0.5 240 -0.5c14.667 0 25.667 1 33 3s14.333 5 21 9c8 4.66699 15.667 7 23 7s13.5 -2.5 18.5 -7.5s10.667 -15.333 17 -31s13.5 -39.5 21.5 -71.5
c14 -54 21 -90 21 -108c0 -10.667 -2 -18.167 -6 -22.5s-10 -6.5 -18 -6.5c-14.667 0 -26.334 9.66699 -35.001 29c-16 48 -28 81 -36 99s-16.833 30.167 -26.5 36.5s-24.167 9.5 -43.5 9.5h-141c-12.667 0 -22 -1.16699 -28 -3.5s-10.167 -7.16602 -12.5 -14.499
s-3.5 -19 -3.5 -35v-162c0 -12.667 1.33301 -22.167 4 -28.5s8.33398 -9.5 17.001 -9.5h87c13.333 0 22.666 2.16699 27.999 6.5s8 12.833 8 25.5c0 11.333 -0.666992 20.666 -2 27.999c-0.666992 9.33301 1.16602 16.833 5.49902 22.5s10.5 8.5 18.5 8.5
c8.66699 0 15.167 -2.83301 19.5 -8.5s8.16602 -16.5 11.499 -32.5s7 -42 11 -78c4 -34 6 -59.333 6 -76c0 -16 -2 -27 -6 -33s-10.333 -9 -19 -9c-7.33301 0 -13.166 2.5 -17.499 7.5s-6.83301 11.5 -7.5 19.5c-3.33301 20 -7 34.833 -11 44.5s-8.83301 16 -14.5 19
s-13.834 4.5 -24.501 4.5h-91c-10 0 -16.333 -2.66699 -19 -8s-4 -15 -4 -29v-206c0 -19.333 2.66699 -31.666 8 -36.999s17.666 -8 36.999 -8h183c18.667 0 33.334 4 44.001 12s20.167 21.833 28.5 41.5s17.833 50.167 28.5 91.5c6.66699 19.333 17.667 29 33 29
c8.66699 0 15 -2.16699 19 -6.5zM144.5 735.496c-3 3 -4.5 6.83301 -4.5 11.5c0 10.667 15.667 31.834 47 63.501s58.333 54.834 81 69.501c11.333 8 21.333 12 30 12s18.667 -4 30 -12c22.667 -14.667 49.667 -37.834 81 -69.501s47 -52.834 47 -63.501
c0 -4.66699 -1.5 -8.5 -4.5 -11.5s-6.5 -4.5 -10.5 -4.5c-4.66699 0 -14.167 5.33301 -28.5 16s-22.5 16.667 -24.5 18c-22 16 -41.667 29.667 -59 41s-28 17 -32 17c-3.33301 0 -13.5 -5.66699 -30.5 -17l-58.5 -41c-30.667 -22.667 -48 -34 -52 -34
c-4.66699 0 -8.5 1.5 -11.5 4.5z" />
    <glyph glyph-name="Edieresis" unicode="&#xcb;" horiz-adv-x="645" 
d="M612 221.5c4 -4.33301 6 -11.8369 6 -22.5039c0 -9.33301 -2 -23.666 -6 -42.999s-9 -41 -15 -65c-8 -32 -15 -55.833 -21 -71.5s-11.667 -26 -17 -31s-12 -7.5 -20 -7.5c-7.33301 0 -14.666 2.33301 -21.999 7c-6.66699 4 -13.667 7 -21 9s-18.333 3 -33 3h-389
c-16 0 -27.167 1.66699 -33.5 5s-9.5 10 -9.5 20c0 6 2.33301 11.5 7 16.5s10.334 8.83301 17.001 11.5c19.333 6 33 11.833 41 17.5s13.333 13.334 16 23.001s4 24.167 4 43.5v426c0 19.333 -1.33301 33.833 -4 43.5s-8 17.334 -16 23.001s-21.667 11.5 -41 17.5
c-16 6.66699 -24 16 -24 28c0 8.66699 2.83301 15.167 8.5 19.5s15.834 6.5 30.501 6.5h29c14 0 43 -0.166992 87 -0.5s124 -0.5 240 -0.5c14.667 0 25.667 1 33 3s14.333 5 21 9c8 4.66699 15.667 7 23 7s13.5 -2.5 18.5 -7.5s10.667 -15.333 17 -31s13.5 -39.5 21.5 -71.5
c14 -54 21 -90 21 -108c0 -10.667 -2 -18.167 -6 -22.5s-10 -6.5 -18 -6.5c-14.667 0 -26.334 9.66699 -35.001 29c-16 48 -28 81 -36 99s-16.833 30.167 -26.5 36.5s-24.167 9.5 -43.5 9.5h-141c-12.667 0 -22 -1.16699 -28 -3.5s-10.167 -7.16602 -12.5 -14.499
s-3.5 -19 -3.5 -35v-162c0 -12.667 1.33301 -22.167 4 -28.5s8.33398 -9.5 17.001 -9.5h87c13.333 0 22.666 2.16699 27.999 6.5s8 12.833 8 25.5c0 11.333 -0.666992 20.666 -2 27.999c-0.666992 9.33301 1.16602 16.833 5.49902 22.5s10.5 8.5 18.5 8.5
c8.66699 0 15.167 -2.83301 19.5 -8.5s8.16602 -16.5 11.499 -32.5s7 -42 11 -78c4 -34 6 -59.333 6 -76c0 -16 -2 -27 -6 -33s-10.333 -9 -19 -9c-7.33301 0 -13.166 2.5 -17.499 7.5s-6.83301 11.5 -7.5 19.5c-3.33301 20 -7 34.833 -11 44.5s-8.83301 16 -14.5 19
s-13.834 4.5 -24.501 4.5h-91c-10 0 -16.333 -2.66699 -19 -8s-4 -15 -4 -29v-206c0 -19.333 2.66699 -31.666 8 -36.999s17.666 -8 36.999 -8h183c18.667 0 33.334 4 44.001 12s20.167 21.833 28.5 41.5s17.833 50.167 28.5 91.5c6.66699 19.333 17.667 29 33 29
c8.66699 0 15 -2.16699 19 -6.5zM144 748.496c-12.667 9.66699 -19 22.167 -19 37.5s6.33301 27.5 19 36.5s29.334 13.5 50.001 13.5c20 0 36.167 -4.66699 48.5 -14s18.5 -21.333 18.5 -36c0 -15.333 -6.16699 -27.833 -18.5 -37.5s-28.5 -14.5 -48.5 -14.5
c-20.667 0 -37.334 4.83301 -50.001 14.5zM359 748.496c-12.667 9.66699 -19 22.167 -19 37.5s6.33301 27.5 19 36.5s29.334 13.5 50.001 13.5c20 0 36 -4.5 48 -13.5s18 -21.167 18 -36.5s-6 -27.833 -18 -37.5s-28 -14.5 -48 -14.5
c-20.667 0 -37.334 4.83301 -50.001 14.5z" />
    <glyph glyph-name="Igrave" unicode="&#xcc;" horiz-adv-x="347" 
d="M74 0c-16 0 -27.167 1.66699 -33.5 5s-9.5 10 -9.5 20c0 6 2.33301 11.5 7 16.5s10.334 8.83301 17.001 11.5c19.333 6 33 11.833 41 17.5s13.333 13.334 16 23.001s4 24.167 4 43.5v426c0 19.333 -1.33301 33.833 -4 43.5s-8 17.334 -16 23.001s-21.667 11.5 -41 17.5
c-6.66699 2 -12.334 5.66699 -17.001 11s-7 11 -7 17c0 10 3.16699 16.667 9.5 20s17.5 5 33.5 5h91h16h92c16 0 27.167 -1.66699 33.5 -5s9.5 -10 9.5 -20c0 -6 -2.33301 -11.5 -7 -16.5s-10.334 -8.83301 -17.001 -11.5c-19.333 -6 -33 -11.833 -41 -17.5
s-13.333 -13.334 -16 -23.001s-4 -24.167 -4 -43.5v-426c0 -19.333 1.33301 -33.833 4 -43.5s8 -17.334 16 -23.001s21.667 -11.5 41 -17.5c6.66699 -2 12.334 -5.66699 17.001 -11s7 -11 7 -17c0 -10 -3 -16.667 -9 -20s-17 -5 -33 -5h-92h-16h-92zM161 757.5
c-32.667 16.333 -63 34.168 -91 53.501s-42.333 34 -43 44c0 8 3 13.5 9 16.5s17.667 4.83301 35 5.5c17.333 0 30 -1 38 -3s15 -7.33301 21 -16c6 -6.66699 21 -20.667 45 -42c43.333 -38 65.333 -60.667 66 -68c0 -9.33301 -5.66699 -14 -17 -14
c-9.33301 -0.666992 -30.333 7.16602 -63 23.499z" />
    <glyph glyph-name="Iacute" unicode="&#xcd;" horiz-adv-x="347" 
d="M74 0c-16 0 -27.167 1.66699 -33.5 5s-9.5 10 -9.5 20c0 6 2.33301 11.5 7 16.5s10.334 8.83301 17.001 11.5c19.333 6 33 11.833 41 17.5s13.333 13.334 16 23.001s4 24.167 4 43.5v426c0 19.333 -1.33301 33.833 -4 43.5s-8 17.334 -16 23.001s-21.667 11.5 -41 17.5
c-6.66699 2 -12.334 5.66699 -17.001 11s-7 11 -7 17c0 10 3.16699 16.667 9.5 20s17.5 5 33.5 5h91h16h92c16 0 27.167 -1.66699 33.5 -5s9.5 -10 9.5 -20c0 -6 -2.33301 -11.5 -7 -16.5s-10.334 -8.83301 -17.001 -11.5c-19.333 -6 -33 -11.833 -41 -17.5
s-13.333 -13.334 -16 -23.001s-4 -24.167 -4 -43.5v-426c0 -19.333 1.33301 -33.833 4 -43.5s8 -17.334 16 -23.001s21.667 -11.5 41 -17.5c6.66699 -2 12.334 -5.66699 17.001 -11s7 -11 7 -17c0 -10 -3 -16.667 -9 -20s-17 -5 -33 -5h-92h-16h-92zM107 748
c0.666992 4.66699 6.83301 12.665 18.5 23.998s28.167 26.333 49.5 45c24 21.333 38.667 35 44 41c6 8.66699 12.833 14 20.5 16s20.5 3 38.5 3c16.667 -0.666992 28 -2.5 34 -5.5s9 -8.5 9 -16.5c0 -10 -14 -24.667 -42 -44s-58.333 -37.166 -91 -53.499
s-54 -24.166 -64 -23.499c-11.333 0 -17 4.66699 -17 14z" />
    <glyph glyph-name="Icircumflex" unicode="&#xce;" horiz-adv-x="347" 
d="M74 0c-16 0 -27.167 1.66699 -33.5 5s-9.5 10 -9.5 20c0 6 2.33301 11.5 7 16.5s10.334 8.83301 17.001 11.5c19.333 6 33 11.833 41 17.5s13.333 13.334 16 23.001s4 24.167 4 43.5v426c0 19.333 -1.33301 33.833 -4 43.5s-8 17.334 -16 23.001s-21.667 11.5 -41 17.5
c-6.66699 2 -12.334 5.66699 -17.001 11s-7 11 -7 17c0 10 3.16699 16.667 9.5 20s17.5 5 33.5 5h91h16h92c16 0 27.167 -1.66699 33.5 -5s9.5 -10 9.5 -20c0 -6 -2.33301 -11.5 -7 -16.5s-10.334 -8.83301 -17.001 -11.5c-19.333 -6 -33 -11.833 -41 -17.5
s-13.333 -13.334 -16 -23.001s-4 -24.167 -4 -43.5v-426c0 -19.333 1.33301 -33.833 4 -43.5s8 -17.334 16 -23.001s21.667 -11.5 41 -17.5c6.66699 -2 12.334 -5.66699 17.001 -11s7 -11 7 -17c0 -10 -3 -16.667 -9 -20s-17 -5 -33 -5h-92h-16h-92zM20.5 735.5
c-3 3 -4.5 6.83301 -4.5 11.5c0 10.667 15.667 31.834 47 63.501s58.333 54.834 81 69.501c11.333 8 21.333 12 30 12s18.667 -4 30 -12c22.667 -14.667 49.667 -37.834 81 -69.501s47 -52.834 47 -63.501c0 -4.66699 -1.5 -8.5 -4.5 -11.5s-6.5 -4.5 -10.5 -4.5
c-4.66699 0 -14.167 5.33301 -28.5 16s-22.5 16.667 -24.5 18c-22 16 -41.667 29.667 -59 41s-28 17 -32 17c-3.33301 0 -13.5 -5.66699 -30.5 -17l-58.5 -41c-30.667 -22.667 -48 -34 -52 -34c-4.66699 0 -8.5 1.5 -11.5 4.5z" />
    <glyph glyph-name="Idieresis" unicode="&#xcf;" horiz-adv-x="347" 
d="M74 0c-16 0 -27.167 1.66699 -33.5 5s-9.5 10 -9.5 20c0 6 2.33301 11.5 7 16.5s10.334 8.83301 17.001 11.5c19.333 6 33 11.833 41 17.5s13.333 13.334 16 23.001s4 24.167 4 43.5v426c0 19.333 -1.33301 33.833 -4 43.5s-8 17.334 -16 23.001s-21.667 11.5 -41 17.5
c-6.66699 2 -12.334 5.66699 -17.001 11s-7 11 -7 17c0 10 3.16699 16.667 9.5 20s17.5 5 33.5 5h91h16h92c16 0 27.167 -1.66699 33.5 -5s9.5 -10 9.5 -20c0 -6 -2.33301 -11.5 -7 -16.5s-10.334 -8.83301 -17.001 -11.5c-19.333 -6 -33 -11.833 -41 -17.5
s-13.333 -13.334 -16 -23.001s-4 -24.167 -4 -43.5v-426c0 -19.333 1.33301 -33.833 4 -43.5s8 -17.334 16 -23.001s21.667 -11.5 41 -17.5c6.66699 -2 12.334 -5.66699 17.001 -11s7 -11 7 -17c0 -10 -3 -16.667 -9 -20s-17 -5 -33 -5h-92h-16h-92zM20 748.5
c-12.667 9.66699 -19 22.167 -19 37.5s6.33301 27.5 19 36.5s29.334 13.5 50.001 13.5c20 0 36.167 -4.66699 48.5 -14s18.5 -21.333 18.5 -36c0 -15.333 -6.16699 -27.833 -18.5 -37.5s-28.5 -14.5 -48.5 -14.5c-20.667 0 -37.334 4.83301 -50.001 14.5zM235 748.5
c-12.667 9.66699 -19 22.167 -19 37.5s6.33301 27.5 19 36.5s29.334 13.5 50.001 13.5c20 0 36 -4.5 48 -13.5s18 -21.167 18 -36.5s-6 -27.833 -18 -37.5s-28 -14.5 -48 -14.5c-20.667 0 -37.334 4.83301 -50.001 14.5z" />
    <glyph glyph-name="Eth" unicode="&#xd0;" horiz-adv-x="722" 
d="M491 663c64 -28 113.498 -69.335 148.498 -124.002s52.5 -120.667 52.5 -198c0 -112 -34.333 -197.667 -103 -257s-164.667 -89 -288 -89c-42.667 0 -84 1 -124 3c-49.333 1.33301 -83.666 2 -102.999 2c-16 0 -27.167 1.66699 -33.5 5s-9.5 10 -9.5 20
c0 6 2.33301 11.5 7 16.5s10.334 8.83301 17.001 11.5c19.333 6 33 11.833 41 17.5s13.333 13.334 16 23.001s4 24.167 4 43.5v170c0 4 -1.16699 7.33301 -3.5 10s-5.16602 4 -8.49902 4h-45c-14 0 -21 8.33301 -21 25c0 17.333 7 26 21 26h45c8 0 12 5.33301 12 16v175
c0 19.333 -1.33301 33.833 -4 43.5s-8 17.334 -16 23.001s-21.667 11.5 -41 17.5c-6.66699 2.66699 -12.334 6.5 -17.001 11.5s-7 10.5 -7 16.5c0 10 3.16699 16.667 9.5 20s17.5 5 33.5 5c40.667 0 78 1 112 3c37.333 1.33301 64.333 2 81 2c85.333 0 160 -14 224 -42z
M503.498 129.998c43 51.333 64.5 123.332 64.5 215.999c0 64 -12.5 118.833 -37.5 164.5s-60 80.334 -105 104.001s-96.833 35.5 -155.5 35.5c-15.333 0 -25.833 -2.66699 -31.5 -8s-8.5 -15.666 -8.5 -30.999v-223c0 -11.333 4.33301 -17 13 -17h139
c14 0 21 -8.33301 21 -25s-7 -25 -21 -25h-139c-8.66699 0 -13 -4.33301 -13 -13v-210c0 -18.667 6.33301 -30.834 19 -36.501s35 -8.5 67 -8.5c82 0 144.5 25.667 187.5 77z" />
    <glyph glyph-name="Ntilde" unicode="&#xd1;" horiz-adv-x="751" 
d="M69 -1c-14.667 0 -24.6699 1.83691 -30.0029 5.50391s-8 9.5 -8 17.5c0 12.667 7.33301 21.667 22 27c22 3.33301 37 7.83301 45 13.5s13.167 16.167 15.5 31.5s3.5 43 3.5 83v378c0 27.333 -1.16699 46.833 -3.5 58.5s-7.5 20.167 -15.5 25.5s-22 9.66602 -42 12.999
c-8.66699 2.66699 -15 6 -19 10s-6 9.66699 -6 17c0 8 2.83301 13.667 8.5 17s15.834 5 30.501 5l117 -1c10 0 17.667 -1 23 -3s9.66602 -5.33301 12.999 -10l343 -470c4.66699 -6.66699 10 -10 16 -10c2.66699 0 5 1.33301 7 4s3 6.66699 3 12v331
c0 28 -1.16699 47.667 -3.5 59s-7.5 19.666 -15.5 24.999s-22 9.66602 -42 12.999c-16.667 5.33301 -25 14.666 -25 27.999c0 8 2.83301 13.667 8.5 17s15.834 5 30.501 5h150c14.667 0 24.834 -1.83301 30.501 -5.5s8.5 -9.5 8.5 -17.5c0 -12 -7.66699 -21 -23 -27
c-21.333 -3.33301 -36.166 -7.83301 -44.499 -13.5s-13.666 -16.334 -15.999 -32.001s-3.5 -43.5 -3.5 -83.5v-499c0 -8 -2 -14.333 -6 -19s-9.33301 -7 -16 -7c-11.333 0 -21.333 5.66699 -30 17l-403 532c-3.33301 4 -7 6 -11 6c-5.33301 0 -8 -4 -8 -12v-394
c0 -28 1.16699 -47.833 3.5 -59.5s7.5 -20.167 15.5 -25.5s22 -9.66602 42 -12.999c16.667 -5.33301 25 -14.333 25 -27c0 -8 -2.83301 -13.833 -8.5 -17.5s-15.834 -5.5 -30.501 -5.5zM415.997 746.004c-12.667 4.66699 -27.3311 11.665 -43.998 20.998
c-15.333 8 -28.333 14.167 -39 18.5s-21 6.5 -31 6.5s-18.333 -3 -25 -9s-11.667 -14 -15 -24c-8 -14 -18 -21 -30 -21c-6 0 -11.167 2.16699 -15.5 6.5s-6.5 9.83301 -6.5 16.5c0.666992 26.667 8.83398 47.834 24.501 63.501s35.167 23.5 58.5 23.5
c16 0 31 -2.66699 45 -8s30.667 -13 50 -23c12.667 -7.33301 23.5 -12.833 32.5 -16.5s17.5 -5.5 25.5 -5.5c10 0 18.5 2.83301 25.5 8.5s12.167 13.5 15.5 23.5c8 14.667 18 22 30 22c6.66699 0 12 -2.16699 16 -6.5s6 -9.83301 6 -16.5
c-0.666992 -27.333 -8.83398 -48.666 -24.501 -63.999s-35.834 -23 -60.501 -23c-12.667 0 -25.334 2.33301 -38.001 7z" />
    <glyph glyph-name="Ograve" unicode="&#xd2;" horiz-adv-x="742" 
d="M195.5 33.5c-51.667 29.667 -92.334 72 -122.001 127s-44.5 118.833 -44.5 191.5c0 67.333 14.167 128.333 42.5 183s68.5 97.667 120.5 129s111.667 47 179 47c65.333 0 123.833 -14.833 175.5 -44.5s92.334 -71.667 122.001 -126s44.5 -117.5 44.5 -189.5
c0 -68.667 -14.167 -130.5 -42.5 -185.5s-68.5 -98.167 -120.5 -129.5s-111.667 -47 -179 -47c-65.333 0 -123.833 14.833 -175.5 44.5zM490 77.5c30 19 53.833 47.1641 71.5 84.4971s26.5 82 26.5 134c0 58.667 -10 115.334 -30 170.001s-48 99.167 -84 133.5
s-77 51.5 -123 51.5c-36 0 -69 -9.5 -99 -28.5s-53.833 -47 -71.5 -84s-26.5 -80.833 -26.5 -131.5c0 -59.333 10 -116.666 30 -171.999s48 -100.166 84 -134.499s76.667 -51.5 122 -51.5c36.667 0 70 9.5 100 28.5zM353 757.497c-32.667 16.333 -63 34.168 -91 53.501
s-42.333 34 -43 44c0 8 3 13.5 9 16.5s17.667 4.83301 35 5.5c17.333 0 30 -1 38 -3s15 -7.33301 21 -16c6 -6.66699 21 -20.667 45 -42c43.333 -38 65.333 -60.667 66 -68c0 -9.33301 -5.66699 -14 -17 -14c-9.33301 -0.666992 -30.333 7.16602 -63 23.499z" />
    <glyph glyph-name="Oacute" unicode="&#xd3;" horiz-adv-x="742" 
d="M195.5 33.5c-51.667 29.667 -92.334 72 -122.001 127s-44.5 118.833 -44.5 191.5c0 67.333 14.167 128.333 42.5 183s68.5 97.667 120.5 129s111.667 47 179 47c65.333 0 123.833 -14.833 175.5 -44.5s92.334 -71.667 122.001 -126s44.5 -117.5 44.5 -189.5
c0 -68.667 -14.167 -130.5 -42.5 -185.5s-68.5 -98.167 -120.5 -129.5s-111.667 -47 -179 -47c-65.333 0 -123.833 14.833 -175.5 44.5zM490 77.5c30 19 53.833 47.1641 71.5 84.4971s26.5 82 26.5 134c0 58.667 -10 115.334 -30 170.001s-48 99.167 -84 133.5
s-77 51.5 -123 51.5c-36 0 -69 -9.5 -99 -28.5s-53.833 -47 -71.5 -84s-26.5 -80.833 -26.5 -131.5c0 -59.333 10 -116.666 30 -171.999s48 -100.166 84 -134.499s76.667 -51.5 122 -51.5c36.667 0 70 9.5 100 28.5zM299 747.997
c0.666992 4.66699 6.83301 12.665 18.5 23.998s28.167 26.333 49.5 45c24 21.333 38.667 35 44 41c6 8.66699 12.833 14 20.5 16s20.5 3 38.5 3c16.667 -0.666992 28 -2.5 34 -5.5s9 -8.5 9 -16.5c0 -10 -14 -24.667 -42 -44s-58.333 -37.166 -91 -53.499
s-54 -24.166 -64 -23.499c-11.333 0 -17 4.66699 -17 14z" />
    <glyph glyph-name="Ocircumflex" unicode="&#xd4;" horiz-adv-x="742" 
d="M195.5 33.5c-51.667 29.667 -92.334 72 -122.001 127s-44.5 118.833 -44.5 191.5c0 67.333 14.167 128.333 42.5 183s68.5 97.667 120.5 129s111.667 47 179 47c65.333 0 123.833 -14.833 175.5 -44.5s92.334 -71.667 122.001 -126s44.5 -117.5 44.5 -189.5
c0 -68.667 -14.167 -130.5 -42.5 -185.5s-68.5 -98.167 -120.5 -129.5s-111.667 -47 -179 -47c-65.333 0 -123.833 14.833 -175.5 44.5zM490 77.5c30 19 53.833 47.1641 71.5 84.4971s26.5 82 26.5 134c0 58.667 -10 115.334 -30 170.001s-48 99.167 -84 133.5
s-77 51.5 -123 51.5c-36 0 -69 -9.5 -99 -28.5s-53.833 -47 -71.5 -84s-26.5 -80.833 -26.5 -131.5c0 -59.333 10 -116.666 30 -171.999s48 -100.166 84 -134.499s76.667 -51.5 122 -51.5c36.667 0 70 9.5 100 28.5zM213.5 735.497c-3 3 -4.5 6.83301 -4.5 11.5
c0 10.667 15.667 31.834 47 63.501s58.333 54.834 81 69.501c11.333 8 21.333 12 30 12s18.667 -4 30 -12c22.667 -14.667 49.667 -37.834 81 -69.501s47 -52.834 47 -63.501c0 -4.66699 -1.5 -8.5 -4.5 -11.5s-6.5 -4.5 -10.5 -4.5c-4.66699 0 -14.167 5.33301 -28.5 16
s-22.5 16.667 -24.5 18c-22 16 -41.667 29.667 -59 41s-28 17 -32 17c-3.33301 0 -13.5 -5.66699 -30.5 -17l-58.5 -41c-30.667 -22.667 -48 -34 -52 -34c-4.66699 0 -8.5 1.5 -11.5 4.5z" />
    <glyph glyph-name="Otilde" unicode="&#xd5;" horiz-adv-x="742" 
d="M195.5 33.5c-51.667 29.667 -92.334 72 -122.001 127s-44.5 118.833 -44.5 191.5c0 67.333 14.167 128.333 42.5 183s68.5 97.667 120.5 129s111.667 47 179 47c65.333 0 123.833 -14.833 175.5 -44.5s92.334 -71.667 122.001 -126s44.5 -117.5 44.5 -189.5
c0 -68.667 -14.167 -130.5 -42.5 -185.5s-68.5 -98.167 -120.5 -129.5s-111.667 -47 -179 -47c-65.333 0 -123.833 14.833 -175.5 44.5zM490 77.5c30 19 53.833 47.1641 71.5 84.4971s26.5 82 26.5 134c0 58.667 -10 115.334 -30 170.001s-48 99.167 -84 133.5
s-77 51.5 -123 51.5c-36 0 -69 -9.5 -99 -28.5s-53.833 -47 -71.5 -84s-26.5 -80.833 -26.5 -131.5c0 -59.333 10 -116.666 30 -171.999s48 -100.166 84 -134.499s76.667 -51.5 122 -51.5c36.667 0 70 9.5 100 28.5zM405 745.997
c-12.667 4.66699 -27.3311 11.665 -43.998 20.998c-15.333 8 -28.333 14.167 -39 18.5s-21 6.5 -31 6.5s-18.333 -3 -25 -9s-11.667 -14 -15 -24c-8 -14 -18 -21 -30 -21c-6 0 -11.167 2.16699 -15.5 6.5s-6.5 9.83301 -6.5 16.5
c0.666992 26.667 8.83398 47.834 24.501 63.501s35.167 23.5 58.5 23.5c16 0 31 -2.66699 45 -8s30.667 -13 50 -23c12.667 -7.33301 23.5 -12.833 32.5 -16.5s17.5 -5.5 25.5 -5.5c10 0 18.5 2.83301 25.5 8.5s12.167 13.5 15.5 23.5c8 14.667 18 22 30 22
c6.66699 0 12 -2.16699 16 -6.5s6 -9.83301 6 -16.5c-0.666992 -27.333 -8.83398 -48.666 -24.501 -63.999s-35.834 -23 -60.501 -23c-12.667 0 -25.334 2.33301 -38.001 7z" />
    <glyph glyph-name="Odieresis" unicode="&#xd6;" horiz-adv-x="742" 
d="M195.5 33.5c-51.667 29.667 -92.334 72 -122.001 127s-44.5 118.833 -44.5 191.5c0 67.333 14.167 128.333 42.5 183s68.5 97.667 120.5 129s111.667 47 179 47c65.333 0 123.833 -14.833 175.5 -44.5s92.334 -71.667 122.001 -126s44.5 -117.5 44.5 -189.5
c0 -68.667 -14.167 -130.5 -42.5 -185.5s-68.5 -98.167 -120.5 -129.5s-111.667 -47 -179 -47c-65.333 0 -123.833 14.833 -175.5 44.5zM490 77.5c30 19 53.833 47.1641 71.5 84.4971s26.5 82 26.5 134c0 58.667 -10 115.334 -30 170.001s-48 99.167 -84 133.5
s-77 51.5 -123 51.5c-36 0 -69 -9.5 -99 -28.5s-53.833 -47 -71.5 -84s-26.5 -80.833 -26.5 -131.5c0 -59.333 10 -116.666 30 -171.999s48 -100.166 84 -134.499s76.667 -51.5 122 -51.5c36.667 0 70 9.5 100 28.5zM213 748.497c-12.667 9.66699 -19 22.167 -19 37.5
s6.33301 27.5 19 36.5s29.334 13.5 50.001 13.5c20 0 36.167 -4.66699 48.5 -14s18.5 -21.333 18.5 -36c0 -15.333 -6.16699 -27.833 -18.5 -37.5s-28.5 -14.5 -48.5 -14.5c-20.667 0 -37.334 4.83301 -50.001 14.5zM428 748.497c-12.667 9.66699 -19 22.167 -19 37.5
s6.33301 27.5 19 36.5s29.334 13.5 50.001 13.5c20 0 36 -4.5 48 -13.5s18 -21.167 18 -36.5s-6 -27.833 -18 -37.5s-28 -14.5 -48 -14.5c-20.667 0 -37.334 4.83301 -50.001 14.5z" />
    <glyph glyph-name="multiply" unicode="&#xd7;" horiz-adv-x="351" 
d="M34 134c0 10 5.33398 20.332 16.001 30.999l70 71c2.66699 2.66699 4 5.33398 4 8.00098c0 3.33301 -1.66699 6.66602 -5 9.99902l-74 74c-10.667 10.667 -16 19.667 -16 27c0 6.66699 3.33301 13.334 10 20.001c10 8.66699 18.667 13 26 13c9.33301 0 20 -6 32 -18
l68 -69c3.33301 -2.66699 7 -4 11 -4s7.33301 1.33301 10 4l74 75c7.33301 7.33301 15.333 11 24 11c10 0 19.333 -4.33301 28 -13c6.66699 -6.66699 10 -13.334 10 -20.001c0 -7.33301 -4.66699 -15.666 -14 -24.999l-76 -75c-5.33301 -6.66699 -6 -12.667 -2 -18l77 -77
c7.33301 -7.33301 11 -15.333 11 -24c0 -10 -3.66699 -18.667 -11 -26c-6.66699 -6.66699 -13.667 -10 -21 -10c-8.66699 0 -17 4.66699 -25 14l-78 77c-2 2 -4.33301 3 -7 3c-2 0 -4.66699 -1 -8 -3l-76 -77c-10 -10 -19 -15 -27 -15
c-6.66699 0 -13.334 3.33301 -20.001 10c-7.33301 7.33301 -11 16 -11 26z" />
    <glyph glyph-name="Oslash" unicode="&#xd8;" horiz-adv-x="742" 
d="M627 601c27.333 -31.333 48.5 -68.167 63.5 -110.5s22.5 -88.833 22.5 -139.5c0 -68.667 -14.167 -130.5 -42.5 -185.5s-68.5 -98.167 -120.5 -129.5s-111.667 -47 -179 -47c-40 0 -78 5.83301 -114 17.5s-68.333 28.5 -97 50.5l-45 -52c-2 -2.66699 -5.33301 -4 -10 -4
c-6.66699 0 -14 2.5 -22 7.5s-14 10.833 -18 17.5s-4 12.334 0 17.001l49 57c-27.333 32.667 -48.333 70.167 -63 112.5s-22 88.833 -22 139.5c0 67.333 14.167 128.333 42.5 183s68.5 97.667 120.5 129s111.667 47 179 47c40 0 78 -5.83301 114 -17.5
s68.333 -28.5 97 -50.5l45 52c2 2.66699 5.33301 4 10 4c6 0 13 -2.5 21 -7.5s14 -10.833 18 -17.5s4 -12.334 0 -17.001zM165.5 298.499c7.66699 -35.667 18.833 -68.832 33.5 -99.499l311 360c-21.333 29.333 -45.333 52 -72 68s-55.667 24 -87 24
c-36 0 -69 -9.5 -99 -28.5s-53.833 -47 -71.5 -84s-26.5 -80.833 -26.5 -131.5c0 -36.667 3.83301 -72.834 11.5 -108.501zM489.999 77.501c30 19 53.833 47.167 71.5 84.5s26.5 82 26.5 134c0 36 -3.83301 71.667 -11.5 107s-18.834 68.333 -33.501 99l-311 -361
c44.667 -61.333 97.334 -92 158.001 -92c36.667 0 70 9.5 100 28.5z" />
    <glyph glyph-name="Ugrave" unicode="&#xd9;" horiz-adv-x="748" 
d="M169 55c-48 44 -72 109.995 -72 197.995v302c0 22 -1.33301 38.333 -4 49s-8.16699 19 -16.5 25s-21.833 12 -40.5 18c-16 6.66699 -24 16.334 -24 29.001c0 8.66699 3 15 9 19s16.333 6 31 6l202 -1c16 0 27.167 -1.83301 33.5 -5.5s9.5 -10.5 9.5 -20.5
c0 -6 -2.33301 -11.5 -7 -16.5s-10.334 -8.83301 -17.001 -11.5c-19.333 -5.33301 -33.166 -11 -41.499 -17s-13.833 -13.667 -16.5 -23s-4 -23.666 -4 -42.999v-303c0 -64 16.333 -113 49 -147s80.667 -51 144 -51c62 0 109.333 15.833 142 47.5s49 76.834 49 135.501v298
c0 27.333 -1.5 47.333 -4.5 60s-8.5 21.834 -16.5 27.501s-21.333 10.834 -40 15.501c-16 6.66699 -24 16 -24 28c0 9.33301 3.33301 16 10 20s17.667 6 33 6h140c28.667 0 43 -8.33301 43 -25c0 -6 -2.33301 -11.5 -7 -16.5s-10.334 -9.16699 -17.001 -12.5
c-18 -4 -31.167 -9 -39.5 -15s-14.166 -15.5 -17.499 -28.5s-5 -32.833 -5 -59.5v-289c0 -176.667 -89 -265 -267 -265c-94.667 0 -166 22 -214 66zM371 757.495c-32.667 16.333 -63 34.168 -91 53.501s-42.333 34 -43 44c0 8 3 13.5 9 16.5s17.667 4.83301 35 5.5
c17.333 0 30 -1 38 -3s15 -7.33301 21 -16c6 -6.66699 21 -20.667 45 -42c43.333 -38 65.333 -60.667 66 -68c0 -9.33301 -5.66699 -14 -17 -14c-9.33301 -0.666992 -30.333 7.16602 -63 23.499z" />
    <glyph glyph-name="Uacute" unicode="&#xda;" horiz-adv-x="748" 
d="M169 55c-48 44 -72 109.995 -72 197.995v302c0 22 -1.33301 38.333 -4 49s-8.16699 19 -16.5 25s-21.833 12 -40.5 18c-16 6.66699 -24 16.334 -24 29.001c0 8.66699 3 15 9 19s16.333 6 31 6l202 -1c16 0 27.167 -1.83301 33.5 -5.5s9.5 -10.5 9.5 -20.5
c0 -6 -2.33301 -11.5 -7 -16.5s-10.334 -8.83301 -17.001 -11.5c-19.333 -5.33301 -33.166 -11 -41.499 -17s-13.833 -13.667 -16.5 -23s-4 -23.666 -4 -42.999v-303c0 -64 16.333 -113 49 -147s80.667 -51 144 -51c62 0 109.333 15.833 142 47.5s49 76.834 49 135.501v298
c0 27.333 -1.5 47.333 -4.5 60s-8.5 21.834 -16.5 27.501s-21.333 10.834 -40 15.501c-16 6.66699 -24 16 -24 28c0 9.33301 3.33301 16 10 20s17.667 6 33 6h140c28.667 0 43 -8.33301 43 -25c0 -6 -2.33301 -11.5 -7 -16.5s-10.334 -9.16699 -17.001 -12.5
c-18 -4 -31.167 -9 -39.5 -15s-14.166 -15.5 -17.499 -28.5s-5 -32.833 -5 -59.5v-289c0 -176.667 -89 -265 -267 -265c-94.667 0 -166 22 -214 66zM316 747.995c0.666992 4.66699 6.83301 12.665 18.5 23.998s28.167 26.333 49.5 45c24 21.333 38.667 35 44 41
c6 8.66699 12.833 14 20.5 16s20.5 3 38.5 3c16.667 -0.666992 28 -2.5 34 -5.5s9 -8.5 9 -16.5c0 -10 -14 -24.667 -42 -44s-58.333 -37.166 -91 -53.499s-54 -24.166 -64 -23.499c-11.333 0 -17 4.66699 -17 14z" />
    <glyph glyph-name="Ucircumflex" unicode="&#xdb;" horiz-adv-x="748" 
d="M169 55c-48 44 -72 109.995 -72 197.995v302c0 22 -1.33301 38.333 -4 49s-8.16699 19 -16.5 25s-21.833 12 -40.5 18c-16 6.66699 -24 16.334 -24 29.001c0 8.66699 3 15 9 19s16.333 6 31 6l202 -1c16 0 27.167 -1.83301 33.5 -5.5s9.5 -10.5 9.5 -20.5
c0 -6 -2.33301 -11.5 -7 -16.5s-10.334 -8.83301 -17.001 -11.5c-19.333 -5.33301 -33.166 -11 -41.499 -17s-13.833 -13.667 -16.5 -23s-4 -23.666 -4 -42.999v-303c0 -64 16.333 -113 49 -147s80.667 -51 144 -51c62 0 109.333 15.833 142 47.5s49 76.834 49 135.501v298
c0 27.333 -1.5 47.333 -4.5 60s-8.5 21.834 -16.5 27.501s-21.333 10.834 -40 15.501c-16 6.66699 -24 16 -24 28c0 9.33301 3.33301 16 10 20s17.667 6 33 6h140c28.667 0 43 -8.33301 43 -25c0 -6 -2.33301 -11.5 -7 -16.5s-10.334 -9.16699 -17.001 -12.5
c-18 -4 -31.167 -9 -39.5 -15s-14.166 -15.5 -17.499 -28.5s-5 -32.833 -5 -59.5v-289c0 -176.667 -89 -265 -267 -265c-94.667 0 -166 22 -214 66zM230.5 735.495c-3 3 -4.5 6.83301 -4.5 11.5c0 10.667 15.667 31.834 47 63.501s58.333 54.834 81 69.501
c11.333 8 21.333 12 30 12s18.667 -4 30 -12c22.667 -14.667 49.667 -37.834 81 -69.501s47 -52.834 47 -63.501c0 -4.66699 -1.5 -8.5 -4.5 -11.5s-6.5 -4.5 -10.5 -4.5c-4.66699 0 -14.167 5.33301 -28.5 16s-22.5 16.667 -24.5 18c-22 16 -41.667 29.667 -59 41
s-28 17 -32 17c-3.33301 0 -13.5 -5.66699 -30.5 -17l-58.5 -41c-30.667 -22.667 -48 -34 -52 -34c-4.66699 0 -8.5 1.5 -11.5 4.5z" />
    <glyph glyph-name="Udieresis" unicode="&#xdc;" horiz-adv-x="748" 
d="M169 55c-48 44 -72 109.995 -72 197.995v302c0 22 -1.33301 38.333 -4 49s-8.16699 19 -16.5 25s-21.833 12 -40.5 18c-16 6.66699 -24 16.334 -24 29.001c0 8.66699 3 15 9 19s16.333 6 31 6l202 -1c16 0 27.167 -1.83301 33.5 -5.5s9.5 -10.5 9.5 -20.5
c0 -6 -2.33301 -11.5 -7 -16.5s-10.334 -8.83301 -17.001 -11.5c-19.333 -5.33301 -33.166 -11 -41.499 -17s-13.833 -13.667 -16.5 -23s-4 -23.666 -4 -42.999v-303c0 -64 16.333 -113 49 -147s80.667 -51 144 -51c62 0 109.333 15.833 142 47.5s49 76.834 49 135.501v298
c0 27.333 -1.5 47.333 -4.5 60s-8.5 21.834 -16.5 27.501s-21.333 10.834 -40 15.501c-16 6.66699 -24 16 -24 28c0 9.33301 3.33301 16 10 20s17.667 6 33 6h140c28.667 0 43 -8.33301 43 -25c0 -6 -2.33301 -11.5 -7 -16.5s-10.334 -9.16699 -17.001 -12.5
c-18 -4 -31.167 -9 -39.5 -15s-14.166 -15.5 -17.499 -28.5s-5 -32.833 -5 -59.5v-289c0 -176.667 -89 -265 -267 -265c-94.667 0 -166 22 -214 66zM230 748.495c-12.667 9.66699 -19 22.167 -19 37.5s6.33301 27.5 19 36.5s29.334 13.5 50.001 13.5
c20 0 36.167 -4.66699 48.5 -14s18.5 -21.333 18.5 -36c0 -15.333 -6.16699 -27.833 -18.5 -37.5s-28.5 -14.5 -48.5 -14.5c-20.667 0 -37.334 4.83301 -50.001 14.5zM445 748.495c-12.667 9.66699 -19 22.167 -19 37.5s6.33301 27.5 19 36.5s29.334 13.5 50.001 13.5
c20 0 36 -4.5 48 -13.5s18 -21.167 18 -36.5s-6 -27.833 -18 -37.5s-28 -14.5 -48 -14.5c-20.667 0 -37.334 4.83301 -50.001 14.5z" />
    <glyph glyph-name="Yacute" unicode="&#xdd;" horiz-adv-x="683" 
d="M212.5 5c-6.33301 3.33301 -9.49512 10 -9.49512 20c0 6 2.33301 11.5 7 16.5s10.334 8.83301 17.001 11.5c19.333 6 33.166 11.833 41.499 17.5s13.833 13.334 16.5 23.001s4 24.167 4 43.5v105c0 21.333 -8 46 -24 74l-160 277c-10.667 18.667 -20.834 31 -30.501 37
s-24.834 10.333 -45.501 13c-8 2.66699 -14 6.16699 -18 10.5s-6 10.833 -6 19.5c0 10.667 4 18 12 22s21 6 39 6h125h68c20 0 33.833 -2.16699 41.5 -6.5s11.5 -10.5 11.5 -18.5c0 -13.333 -7 -23 -21 -29c-18.667 -3.33301 -32.334 -7 -41.001 -11s-13 -9.33301 -13 -16
c0 -5.33301 2.66699 -12.333 8 -21l128 -220c4 -6 8 -9 12 -9c4.66699 0 8.33398 3.33301 11.001 10l131 228c3.33301 5.33301 5 10.666 5 15.999c0 8 -5 14 -15 18s-26 7.33301 -48 10c-10 5.33301 -15 13 -15 23c0 9.33301 3.16699 15.833 9.5 19.5s16.5 5.5 30.5 5.5h157
c24.667 0 37 -7.33301 37 -22s-10.333 -25.667 -31 -33c-13.333 -1.33301 -23.333 -3.83301 -30 -7.5s-12.167 -8.33398 -16.5 -14.001s-10.833 -16.167 -19.5 -31.5l-159 -270c-12.667 -23.333 -19 -49.666 -19 -78.999v-98c0 -22.667 1.16699 -39.167 3.5 -49.5
s7.66602 -18.5 15.999 -24.5s22.166 -12 41.499 -18c16 -6.66699 24 -16 24 -28c0 -8.66699 -2.83301 -15.167 -8.5 -19.5s-15.834 -6.5 -30.501 -6.5l-203 1c-16 0 -27.167 1.66699 -33.5 5zM292.005 748c0.666992 4.66699 6.83301 12.665 18.5 23.998
s28.167 26.333 49.5 45c24 21.333 38.667 35 44 41c6 8.66699 12.833 14 20.5 16s20.5 3 38.5 3c16.667 -0.666992 28 -2.5 34 -5.5s9 -8.5 9 -16.5c0 -10 -14 -24.667 -42 -44s-58.333 -37.166 -91 -53.499s-54 -24.166 -64 -23.499c-11.333 0 -17 4.66699 -17 14z" />
    <glyph glyph-name="Thorn" unicode="&#xde;" horiz-adv-x="616" 
d="M40.5 5c-6.33301 3.33301 -9.50195 9.99707 -9.50195 19.9971c0 6 2.33301 11.5 7 16.5s10.334 8.83301 17.001 11.5c19.333 6 33 11.833 41 17.5s13.333 13.334 16 23.001s4 24.167 4 43.5v418c0 22.667 -1.16699 39.167 -3.5 49.5s-7.66602 18.5 -15.999 24.5
s-22.166 12 -41.499 18c-16 10 -24 20.333 -24 31c0 8 2.66699 13.833 8 17.5s15.666 5.5 30.999 5.5l205 -1c16 0 27.167 -1.66699 33.5 -5s9.5 -10 9.5 -20c0 -6 -2.33301 -11.333 -7 -16s-10.334 -8 -17.001 -10c-26 -5.33301 -42.667 -12.333 -50 -21
s-11 -21.334 -11 -38.001v-26c0 -7.33301 1.83301 -13 5.5 -17s10.5 -6 20.5 -6h59c92.667 0 162.667 -15.833 210 -47.5s71 -78.167 71 -139.5c0 -59.333 -22.5 -104.166 -67.5 -134.499s-110.833 -45.5 -197.5 -45.5h-73c-20.667 0 -31 -12.667 -31 -38v-20
c0 -15.333 1.33301 -26.666 4 -33.999s8.16699 -13.166 16.5 -17.499s21.833 -8.5 40.5 -12.5c16 -5.33301 24 -15 24 -29c0 -8 -2.66699 -14 -8 -18s-15.666 -6 -30.999 -6l-202 1c-16 0 -27.167 1.66699 -33.5 5zM319.998 232.997c48.667 0 86.333 10.668 113 32.001
s40 51.666 40 90.999c0 40 -13.5 71.167 -40.5 93.5s-65.167 33.5 -114.5 33.5h-53c-22.667 0 -34 -11.333 -34 -34v-186c0 -20 10.667 -30 32 -30h57z" />
    <glyph glyph-name="germandbls" unicode="&#xdf;" horiz-adv-x="607" 
d="M54 -1c-21.333 0 -36.1631 1.83594 -44.4961 5.50293s-12.5 10.167 -12.5 19.5c0 10.667 7.33301 18.334 22 23.001c16.667 4 28.667 9.33301 36 16s12.166 16 14.499 28s3.5 30 3.5 54v46v311c0 66.667 18.333 118.167 55 154.5s93 54.5 169 54.5
c36.667 0 69.667 -6.5 99 -19.5s52.166 -31 68.499 -54s24.5 -49.5 24.5 -79.5s-7.16699 -56 -21.5 -78s-34.166 -39.333 -59.499 -52c-4.66699 -2.66699 -7 -5.33398 -7 -8.00098s3 -5 9 -7c49.333 -14 89.666 -40.333 120.999 -79s47 -83.667 47 -135
c0 -46.667 -9.66699 -85.834 -29 -117.501s-44.166 -55 -74.499 -70s-62.166 -22.5 -95.499 -22.5c-38.667 0 -70.334 8.33301 -95.001 25s-40.334 37.334 -47.001 62.001c-4 8 -6 15.333 -6 22c0 10.667 3.33301 16 10 16c3.33301 0 7 -2 11 -6
c8 -19.333 20.333 -34.333 37 -45s37.667 -16 63 -16c30 0 55.833 12 77.5 36s32.5 61.333 32.5 112c0 35.333 -8 66.666 -24 93.999s-37.167 48.5 -63.5 63.5s-54.833 22.5 -85.5 22.5c-14 0 -23.5 2.33301 -28.5 7s-7.5 12.667 -7.5 24c0 6 2 10.667 6 14
s11.333 7.33301 22 12c37.333 11.333 64.833 27.166 82.5 47.499s26.5 47.5 26.5 81.5c0 32 -9.33301 56.333 -28 73s-42.334 25 -71.001 25c-34.667 0 -61.334 -12.833 -80.001 -38.5s-28 -59.5 -28 -101.5v-424c0 -10 1 -18.333 3 -25s5 -13.667 9 -21
c4.66699 -8 7 -15.333 7 -22c0 -10.667 -4.5 -17.834 -13.5 -21.501s-21.833 -5.5 -38.5 -5.5h-28z" />
    <glyph glyph-name="agrave" unicode="&#xe0;" horiz-adv-x="552" 
d="M71.5 27c-25.667 25.333 -38.4961 57.9971 -38.4961 97.9971c0 44.667 19 80.667 57 108s90.333 42.333 157 45c26 1.33301 45.167 3 57.5 5s20.333 5.33301 24 10s4.83398 11.667 3.50098 21l-2 23c-4.66699 32.667 -14.167 57.334 -28.5 74.001s-34.833 25 -61.5 25
s-48.5 -7.5 -65.5 -22.5s-25.5 -35.833 -25.5 -62.5c-5.33301 -29.333 -23 -44 -53 -44c-10 0 -19 3.66699 -27 11s-12 17.333 -12 30c0 25.333 9.16699 48.833 27.5 70.5s43.166 38.667 74.499 51s66.333 18.5 105 18.5c55.333 0 96.666 -13.667 123.999 -41
s44.333 -68 51 -122l23 -189c3.33301 -26.667 8 -44.5 14 -53.5s13.667 -13.5 23 -13.5c6 0 10.833 1.33301 14.5 4s7.5 6.66699 11.5 12s8 8 12 8c4.66699 0 8.5 -1.66699 11.5 -5s4.5 -8.66602 4.5 -15.999c0 -11.333 -3.83301 -23.166 -11.5 -35.499
s-18.334 -22.666 -32.001 -30.999s-28.834 -12.5 -45.501 -12.5c-25.333 0 -44.833 6.5 -58.5 19.5s-23.834 32.5 -30.501 58.5c-1.33301 6 -3.66602 9 -6.99902 9c-2 0 -9 -8.33301 -21 -25s-30.833 -31.834 -56.5 -45.501s-59.834 -20.5 -102.501 -20.5
c-52 0 -90.833 12.667 -116.5 38zM316.004 86.4971c22 23 33 51.5 33 85.5c0 8.66699 -0.333008 15 -1 19l-2 16c-1.33301 10 -4 17 -8 21s-10.5 6.5 -19.5 7.5s-24.833 1.5 -47.5 1.5c-44 0 -76.167 -8.5 -96.5 -25.5s-30.5 -39.167 -30.5 -66.5c0 -30 7.66699 -53 23 -69
s38 -24 68 -24c32 0 59 11.5 81 34.5zM228.004 555.497c-30.667 20.333 -58.999 42.334 -84.999 66.001s-39 40.5 -39 50.5c0 7.33301 3 12.5 9 15.5s17 4.5 33 4.5s28.667 -1.5 38 -4.5s17 -9.16699 23 -18.5c9.33301 -12.667 18.666 -24.334 27.999 -35.001
c46.667 -56 70 -88 70 -96c0 -8.66699 -5.66699 -13 -17 -13c-9.33301 0 -29.333 10.167 -60 30.5z" />
    <glyph glyph-name="aacute" unicode="&#xe1;" horiz-adv-x="552" 
d="M71.5 27c-25.667 25.333 -38.4961 57.9971 -38.4961 97.9971c0 44.667 19 80.667 57 108s90.333 42.333 157 45c26 1.33301 45.167 3 57.5 5s20.333 5.33301 24 10s4.83398 11.667 3.50098 21l-2 23c-4.66699 32.667 -14.167 57.334 -28.5 74.001s-34.833 25 -61.5 25
s-48.5 -7.5 -65.5 -22.5s-25.5 -35.833 -25.5 -62.5c-5.33301 -29.333 -23 -44 -53 -44c-10 0 -19 3.66699 -27 11s-12 17.333 -12 30c0 25.333 9.16699 48.833 27.5 70.5s43.166 38.667 74.499 51s66.333 18.5 105 18.5c55.333 0 96.666 -13.667 123.999 -41
s44.333 -68 51 -122l23 -189c3.33301 -26.667 8 -44.5 14 -53.5s13.667 -13.5 23 -13.5c6 0 10.833 1.33301 14.5 4s7.5 6.66699 11.5 12s8 8 12 8c4.66699 0 8.5 -1.66699 11.5 -5s4.5 -8.66602 4.5 -15.999c0 -11.333 -3.83301 -23.166 -11.5 -35.499
s-18.334 -22.666 -32.001 -30.999s-28.834 -12.5 -45.501 -12.5c-25.333 0 -44.833 6.5 -58.5 19.5s-23.834 32.5 -30.501 58.5c-1.33301 6 -3.66602 9 -6.99902 9c-2 0 -9 -8.33301 -21 -25s-30.833 -31.834 -56.5 -45.501s-59.834 -20.5 -102.501 -20.5
c-52 0 -90.833 12.667 -116.5 38zM316.004 86.4971c22 23 33 51.5 33 85.5c0 8.66699 -0.333008 15 -1 19l-2 16c-1.33301 10 -4 17 -8 21s-10.5 6.5 -19.5 7.5s-24.833 1.5 -47.5 1.5c-44 0 -76.167 -8.5 -96.5 -25.5s-30.5 -39.167 -30.5 -66.5c0 -30 7.66699 -53 23 -69
s38 -24 68 -24c32 0 59 11.5 81 34.5zM197.004 537.997c0 8 23.335 39.999 70.002 95.999c9.33301 10.667 18.666 22.334 27.999 35.001c6 9.33301 13.667 15.5 23 18.5s22 4.5 38 4.5c15.333 0 26.166 -1.5 32.499 -4.5s9.5 -8.16699 9.5 -15.5
c0 -10 -13 -26.833 -39 -50.5s-54.333 -45.667 -85 -66s-50.667 -30.5 -60 -30.5c-11.333 0 -17 4.33301 -17 13z" />
    <glyph glyph-name="acircumflex" unicode="&#xe2;" horiz-adv-x="552" 
d="M71.5 27c-25.667 25.333 -38.4961 57.9971 -38.4961 97.9971c0 44.667 19 80.667 57 108s90.333 42.333 157 45c26 1.33301 45.167 3 57.5 5s20.333 5.33301 24 10s4.83398 11.667 3.50098 21l-2 23c-4.66699 32.667 -14.167 57.334 -28.5 74.001s-34.833 25 -61.5 25
s-48.5 -7.5 -65.5 -22.5s-25.5 -35.833 -25.5 -62.5c-5.33301 -29.333 -23 -44 -53 -44c-10 0 -19 3.66699 -27 11s-12 17.333 -12 30c0 25.333 9.16699 48.833 27.5 70.5s43.166 38.667 74.499 51s66.333 18.5 105 18.5c55.333 0 96.666 -13.667 123.999 -41
s44.333 -68 51 -122l23 -189c3.33301 -26.667 8 -44.5 14 -53.5s13.667 -13.5 23 -13.5c6 0 10.833 1.33301 14.5 4s7.5 6.66699 11.5 12s8 8 12 8c4.66699 0 8.5 -1.66699 11.5 -5s4.5 -8.66602 4.5 -15.999c0 -11.333 -3.83301 -23.166 -11.5 -35.499
s-18.334 -22.666 -32.001 -30.999s-28.834 -12.5 -45.501 -12.5c-25.333 0 -44.833 6.5 -58.5 19.5s-23.834 32.5 -30.501 58.5c-1.33301 6 -3.66602 9 -6.99902 9c-2 0 -9 -8.33301 -21 -25s-30.833 -31.834 -56.5 -45.501s-59.834 -20.5 -102.501 -20.5
c-52 0 -90.833 12.667 -116.5 38zM316.004 86.4971c22 23 33 51.5 33 85.5c0 8.66699 -0.333008 15 -1 19l-2 16c-1.33301 10 -4 17 -8 21s-10.5 6.5 -19.5 7.5s-24.833 1.5 -47.5 1.5c-44 0 -76.167 -8.5 -96.5 -25.5s-30.5 -39.167 -30.5 -66.5c0 -30 7.66699 -53 23 -69
s38 -24 68 -24c32 0 59 11.5 81 34.5zM98.5039 537.497c-3 3 -4.50098 6.83203 -4.50098 11.499c0 12.667 15.333 34.834 46 66.501s57.667 55.167 81 70.5c9.33301 6.66699 19.333 10 30 10s20.667 -3.33301 30 -10c20.667 -14 45.334 -35.833 74.001 -65.5
s45.667 -51.834 51 -66.501l1 -5c0 -4.66699 -1.5 -8.5 -4.5 -11.5s-6.5 -4.5 -10.5 -4.5c-10.667 0 -24 6.33301 -40 19c-16.667 12.667 -31.667 25 -45 37c-12.667 10.667 -24.667 20.334 -36 29.001s-18.333 13 -21 13s-12.667 -6.83301 -30 -20.5l-37 -29.5l-35 -29
c-16 -12.667 -28.667 -19 -38 -19c-4.66699 0 -8.5 1.5 -11.5 4.5z" />
    <glyph glyph-name="atilde" unicode="&#xe3;" horiz-adv-x="552" 
d="M71.5 27c-25.667 25.333 -38.4961 57.9971 -38.4961 97.9971c0 44.667 19 80.667 57 108s90.333 42.333 157 45c26 1.33301 45.167 3 57.5 5s20.333 5.33301 24 10s4.83398 11.667 3.50098 21l-2 23c-4.66699 32.667 -14.167 57.334 -28.5 74.001s-34.833 25 -61.5 25
s-48.5 -7.5 -65.5 -22.5s-25.5 -35.833 -25.5 -62.5c-5.33301 -29.333 -23 -44 -53 -44c-10 0 -19 3.66699 -27 11s-12 17.333 -12 30c0 25.333 9.16699 48.833 27.5 70.5s43.166 38.667 74.499 51s66.333 18.5 105 18.5c55.333 0 96.666 -13.667 123.999 -41
s44.333 -68 51 -122l23 -189c3.33301 -26.667 8 -44.5 14 -53.5s13.667 -13.5 23 -13.5c6 0 10.833 1.33301 14.5 4s7.5 6.66699 11.5 12s8 8 12 8c4.66699 0 8.5 -1.66699 11.5 -5s4.5 -8.66602 4.5 -15.999c0 -11.333 -3.83301 -23.166 -11.5 -35.499
s-18.334 -22.666 -32.001 -30.999s-28.834 -12.5 -45.501 -12.5c-25.333 0 -44.833 6.5 -58.5 19.5s-23.834 32.5 -30.501 58.5c-1.33301 6 -3.66602 9 -6.99902 9c-2 0 -9 -8.33301 -21 -25s-30.833 -31.834 -56.5 -45.501s-59.834 -20.5 -102.501 -20.5
c-52 0 -90.833 12.667 -116.5 38zM316.004 86.4971c22 23 33 51.5 33 85.5c0 8.66699 -0.333008 15 -1 19l-2 16c-1.33301 10 -4 17 -8 21s-10.5 6.5 -19.5 7.5s-24.833 1.5 -47.5 1.5c-44 0 -76.167 -8.5 -96.5 -25.5s-30.5 -39.167 -30.5 -66.5c0 -30 7.66699 -53 23 -69
s38 -24 68 -24c32 0 59 11.5 81 34.5zM281.004 567.997c-12.667 4.66699 -27.3311 11.665 -43.998 20.998c-15.333 8 -28.333 14.167 -39 18.5s-21 6.5 -31 6.5s-18.333 -3 -25 -9s-11.667 -14 -15 -24c-8 -14 -18 -21 -30 -21c-6 0 -11.167 2.16699 -15.5 6.5
s-6.5 9.83301 -6.5 16.5c0.666992 26.667 8.83398 47.834 24.501 63.501s35.167 23.5 58.5 23.5c16 0 31 -2.66699 45 -8s30.667 -13 50 -23c12.667 -7.33301 23.5 -12.833 32.5 -16.5s17.5 -5.5 25.5 -5.5c10 0 18.5 2.83301 25.5 8.5s12.167 13.5 15.5 23.5
c8 14.667 18 22 30 22c6.66699 0 12 -2.16699 16 -6.5s6 -9.83301 6 -16.5c-0.666992 -27.333 -8.83398 -48.666 -24.501 -63.999s-35.834 -23 -60.501 -23c-12.667 0 -25.334 2.33301 -38.001 7z" />
    <glyph glyph-name="adieresis" unicode="&#xe4;" horiz-adv-x="552" 
d="M71.5 27c-25.667 25.333 -38.4961 57.9971 -38.4961 97.9971c0 44.667 19 80.667 57 108s90.333 42.333 157 45c26 1.33301 45.167 3 57.5 5s20.333 5.33301 24 10s4.83398 11.667 3.50098 21l-2 23c-4.66699 32.667 -14.167 57.334 -28.5 74.001s-34.833 25 -61.5 25
s-48.5 -7.5 -65.5 -22.5s-25.5 -35.833 -25.5 -62.5c-5.33301 -29.333 -23 -44 -53 -44c-10 0 -19 3.66699 -27 11s-12 17.333 -12 30c0 25.333 9.16699 48.833 27.5 70.5s43.166 38.667 74.499 51s66.333 18.5 105 18.5c55.333 0 96.666 -13.667 123.999 -41
s44.333 -68 51 -122l23 -189c3.33301 -26.667 8 -44.5 14 -53.5s13.667 -13.5 23 -13.5c6 0 10.833 1.33301 14.5 4s7.5 6.66699 11.5 12s8 8 12 8c4.66699 0 8.5 -1.66699 11.5 -5s4.5 -8.66602 4.5 -15.999c0 -11.333 -3.83301 -23.166 -11.5 -35.499
s-18.334 -22.666 -32.001 -30.999s-28.834 -12.5 -45.501 -12.5c-25.333 0 -44.833 6.5 -58.5 19.5s-23.834 32.5 -30.501 58.5c-1.33301 6 -3.66602 9 -6.99902 9c-2 0 -9 -8.33301 -21 -25s-30.833 -31.834 -56.5 -45.501s-59.834 -20.5 -102.501 -20.5
c-52 0 -90.833 12.667 -116.5 38zM316.004 86.4971c22 23 33 51.5 33 85.5c0 8.66699 -0.333008 15 -1 19l-2 16c-1.33301 10 -4 17 -8 21s-10.5 6.5 -19.5 7.5s-24.833 1.5 -47.5 1.5c-44 0 -76.167 -8.5 -96.5 -25.5s-30.5 -39.167 -30.5 -66.5c0 -30 7.66699 -53 23 -69
s38 -24 68 -24c32 0 59 11.5 81 34.5zM99.0039 579.497c-12.667 9.66699 -19 22.167 -19 37.5s6.33301 27.5 19 36.5s29.334 13.5 50.001 13.5c20 0 36.167 -4.66699 48.5 -14s18.5 -21.333 18.5 -36c0 -15.333 -6.16699 -27.833 -18.5 -37.5s-28.5 -14.5 -48.5 -14.5
c-20.667 0 -37.334 4.83301 -50.001 14.5zM314.004 579.497c-12.667 9.66699 -19 22.167 -19 37.5s6.33301 27.5 19 36.5s29.334 13.5 50.001 13.5c20 0 36 -4.5 48 -13.5s18 -21.167 18 -36.5s-6 -27.833 -18 -37.5s-28 -14.5 -48 -14.5
c-20.667 0 -37.334 4.83301 -50.001 14.5z" />
    <glyph glyph-name="aring" unicode="&#xe5;" horiz-adv-x="552" 
d="M71.5 27c-25.667 25.333 -38.4961 57.9971 -38.4961 97.9971c0 44.667 19 80.667 57 108s90.333 42.333 157 45c26 1.33301 45.167 3 57.5 5s20.333 5.33301 24 10s4.83398 11.667 3.50098 21l-2 23c-4.66699 32.667 -14.167 57.334 -28.5 74.001s-34.833 25 -61.5 25
s-48.5 -7.5 -65.5 -22.5s-25.5 -35.833 -25.5 -62.5c-5.33301 -29.333 -23 -44 -53 -44c-10 0 -19 3.66699 -27 11s-12 17.333 -12 30c0 25.333 9.16699 48.833 27.5 70.5s43.166 38.667 74.499 51s66.333 18.5 105 18.5c55.333 0 96.666 -13.667 123.999 -41
s44.333 -68 51 -122l23 -189c3.33301 -26.667 8 -44.5 14 -53.5s13.667 -13.5 23 -13.5c6 0 10.833 1.33301 14.5 4s7.5 6.66699 11.5 12s8 8 12 8c4.66699 0 8.5 -1.66699 11.5 -5s4.5 -8.66602 4.5 -15.999c0 -11.333 -3.83301 -23.166 -11.5 -35.499
s-18.334 -22.666 -32.001 -30.999s-28.834 -12.5 -45.501 -12.5c-25.333 0 -44.833 6.5 -58.5 19.5s-23.834 32.5 -30.501 58.5c-1.33301 6 -3.66602 9 -6.99902 9c-2 0 -9 -8.33301 -21 -25s-30.833 -31.834 -56.5 -45.501s-59.834 -20.5 -102.501 -20.5
c-52 0 -90.833 12.667 -116.5 38zM316.004 86.4971c22 23 33 51.5 33 85.5c0 8.66699 -0.333008 15 -1 19l-2 16c-1.33301 10 -4 17 -8 21s-10.5 6.5 -19.5 7.5s-24.833 1.5 -47.5 1.5c-44 0 -76.167 -8.5 -96.5 -25.5s-30.5 -39.167 -30.5 -66.5c0 -30 7.66699 -53 23 -69
s38 -24 68 -24c32 0 59 11.5 81 34.5zM186.504 550.497c-18.333 15 -27.502 34.8311 -27.502 59.498s8.83301 44.334 26.5 59.001s38.834 22 63.501 22c25.333 0 47.333 -7.66699 66 -23s28 -35.666 28 -60.999c0 -24 -9 -43.167 -27 -57.5s-39.333 -21.5 -64 -21.5
c-25.333 0 -47.166 7.5 -65.499 22.5zM281.502 574.495c7.66699 8.33301 11.5 18.834 11.5 31.501c0 13.333 -4.16699 25.166 -12.5 35.499s-18.5 15.5 -30.5 15.5s-21.833 -4.5 -29.5 -13.5s-11.5 -19.833 -11.5 -32.5c0 -13.333 4.16699 -24.833 12.5 -34.5
s18.5 -14.5 30.5 -14.5s21.833 4.16699 29.5 12.5z" />
    <glyph glyph-name="ae" unicode="&#xe6;" horiz-adv-x="804" 
d="M71.5 28c-25.667 26 -38.499 60.332 -38.499 102.999c0 41.333 18.667 74.833 56 100.5s89 39.5 155 41.5c28 0.666992 48 1.5 60 2.5s20.333 3.33301 25 7s6.66699 9.5 6 17.5l-5 37c-5.33301 39.333 -13.833 67 -25.5 83s-32.167 24 -61.5 24
c-28 0 -50.833 -8.5 -68.5 -25.5s-27.5 -39.5 -29.5 -67.5c-4.66699 -27.333 -21.667 -41 -51 -41c-10 0 -18.5 3.33301 -25.5 10s-10.5 16.667 -10.5 30c0 25.333 8.83301 48.5 26.5 69.5s41.667 37.667 72 50s63.833 18.5 100.5 18.5
c38.667 0 70.334 -7.83301 95.001 -23.5s43.334 -39.834 56.001 -72.501c18 29.333 42.333 52.333 73 69s63.667 25 99 25c38.667 0 73 -8.16699 103 -24.5s53 -37.166 69 -62.499s24 -51 24 -77c0 -22.667 -5.33301 -38.5 -16 -47.5s-29 -15.5 -55 -19.5l-226 -33
c-6 -1.33301 -10.167 -3 -12.5 -5s-3.5 -5.66699 -3.5 -11c0 -21.333 5.66699 -43.166 17 -65.499s28.166 -40.833 50.499 -55.5s48.5 -22 78.5 -22c31.333 0 59.166 6.83301 83.499 20.5s43.833 30.5 58.5 50.5c5.33301 6 10.333 9 15 9c8 0 13.333 -3 16 -9s3 -12 1 -18
c-15.333 -36.667 -40.5 -67 -75.5 -91s-78.5 -36 -130.5 -36c-43.333 0 -81.333 9.5 -114 28.5s-59 45.167 -79 78.5c-42 -71.333 -107 -107 -195 -107c-52.667 0 -91.834 13 -117.501 39zM642.001 299.999c12 2 20.333 5 25 9s7 10.333 7 19
c0 16.667 -4.5 33.334 -13.5 50.001s-21.667 30.5 -38 41.5s-35.166 16.5 -56.499 16.5c-19.333 0 -37.833 -5.66699 -55.5 -17s-31.834 -27.333 -42.501 -48s-16 -44.334 -16 -71.001c0 -13.333 1.5 -21.5 4.5 -24.5s8.83301 -3.83301 17.5 -2.5zM295.501 57.499
c19 11 33.5 26.5 43.5 46.5s13.667 42.667 11 68l-7 45c-2.66699 7.33301 -6.16699 12.333 -10.5 15s-12 4.16699 -23 4.5s-24.5 0.5 -40.5 0.5c-42.667 0 -74.167 -8 -94.5 -24s-30.5 -36.667 -30.5 -62c0 -35.333 7.5 -62.5 22.5 -81.5s37.5 -28.5 67.5 -28.5
c22 0 42.5 5.5 61.5 16.5z" />
    <glyph glyph-name="ccedilla" unicode="&#xe7;" horiz-adv-x="501" 
d="M466.5 137.5c3 -3.66699 4.50293 -8.1709 4.50293 -13.5039c0 -3.33301 -0.333008 -6 -1 -8c-14 -35.333 -37 -64.666 -69 -87.999s-72 -36.333 -120 -39c-0.666992 -7.33301 1.83301 -13.666 7.5 -18.999s14.167 -10.666 25.5 -15.999c16 -8 28.167 -16.333 36.5 -25
s12.5 -21 12.5 -37c0 -22 -8.5 -40.5 -25.5 -55.5s-40.5 -22.5 -70.5 -22.5c-19.333 0 -36.833 2.5 -52.5 7.5s-28.5 11.833 -38.5 20.5c-6.66699 6.66699 -10 12.667 -10 18c0 6.66699 4 10 12 10c4 0 8.33301 -1 13 -3c18 -10.667 38 -16 60 -16
c17.333 0 31.166 3.83301 41.499 11.5s15.5 18.167 15.5 31.5c0 10 -3.16699 17.667 -9.5 23s-15.5 11 -27.5 17c-12.667 6.66699 -22.167 13 -28.5 19s-9.5 14.333 -9.5 25c0 2 0.666992 6.33301 2 13c-63.333 7.33301 -113.5 33.833 -150.5 79.5s-55.5 101.5 -55.5 167.5
c0 47.333 10.5 90 31.5 128s49.333 67.5 85 88.5s74.5 31.5 116.5 31.5c32.667 0 64 -6.16699 94 -18.5s54.167 -29.666 72.5 -51.999s27.5 -47.166 27.5 -74.499c0 -12.667 -3.33301 -23.334 -10 -32.001s-16.334 -13 -29.001 -13c-15.333 0 -27.333 4 -36 12
s-15.334 20 -20.001 36c-8.66699 61.333 -42.667 92 -102 92c-20.667 0 -40.167 -6.5 -58.5 -19.5s-32.833 -31.5 -43.5 -55.5s-16 -52.333 -16 -85c0 -62 13.5 -113 40.5 -153s65.833 -60 116.5 -60c29.333 0 56 6.5 80 19.5s43.667 29.5 59 49.5
c6 7.33301 11.333 11 16 11c6 0 10.5 -1.83301 13.5 -5.5z" />
    <glyph glyph-name="egrave" unicode="&#xe8;" horiz-adv-x="491" 
d="M138.5 23.5c-35.667 23 -62.832 53.666 -81.499 91.999s-28 80.833 -28 127.5c0 48 10.833 90.333 32.5 127s50.834 65.167 87.501 85.5s76 30.5 118 30.5c39.333 0 73.833 -8.16699 103.5 -24.5s52.667 -37.166 69 -62.499s24.5 -51 24.5 -77
c0 -22.667 -5.5 -38.5 -16.5 -47.5s-29.167 -15.5 -54.5 -19.5l-227 -33c-5.33301 -1.33301 -9.33301 -3 -12 -5s-4 -5.66699 -4 -11c0 -21.333 5.66699 -43.166 17 -65.499s28.166 -40.833 50.499 -55.5s48.5 -22 78.5 -22c32 0 60 6.66699 84 20s43.333 30.333 58 51
c5.33301 6 10.333 9 15 9c6 0 10.667 -1.83301 14 -5.5s5 -8.16699 5 -13.5c0 -2.66699 -0.666992 -5.33398 -2 -8.00098c-15.333 -36.667 -40.333 -67 -75 -91s-78 -36 -130 -36c-48.667 0 -90.834 11.5 -126.501 34.5zM330.002 299.999c12 2 20.334 5 25.001 9
s7 10.333 7 19c0 16.667 -4.5 33.334 -13.5 50.001s-21.833 30.5 -38.5 41.5s-35.667 16.5 -57 16.5c-19.333 0 -37.833 -5.66699 -55.5 -17s-31.834 -27.333 -42.501 -48s-16 -44.334 -16 -71.001c0 -13.333 1.5 -21.5 4.5 -24.5s8.83301 -3.83301 17.5 -2.5z
M239.003 555.499c-30.667 20.333 -58.999 42.334 -84.999 66.001s-39 40.5 -39 50.5c0 7.33301 3 12.5 9 15.5s17 4.5 33 4.5s28.667 -1.5 38 -4.5s17 -9.16699 23 -18.5c9.33301 -12.667 18.666 -24.334 27.999 -35.001c46.667 -56 70 -88 70 -96
c0 -8.66699 -5.66699 -13 -17 -13c-9.33301 0 -29.333 10.167 -60 30.5z" />
    <glyph glyph-name="eacute" unicode="&#xe9;" horiz-adv-x="491" 
d="M138.5 23.5c-35.667 23 -62.832 53.666 -81.499 91.999s-28 80.833 -28 127.5c0 48 10.833 90.333 32.5 127s50.834 65.167 87.501 85.5s76 30.5 118 30.5c39.333 0 73.833 -8.16699 103.5 -24.5s52.667 -37.166 69 -62.499s24.5 -51 24.5 -77
c0 -22.667 -5.5 -38.5 -16.5 -47.5s-29.167 -15.5 -54.5 -19.5l-227 -33c-5.33301 -1.33301 -9.33301 -3 -12 -5s-4 -5.66699 -4 -11c0 -21.333 5.66699 -43.166 17 -65.499s28.166 -40.833 50.499 -55.5s48.5 -22 78.5 -22c32 0 60 6.66699 84 20s43.333 30.333 58 51
c5.33301 6 10.333 9 15 9c6 0 10.667 -1.83301 14 -5.5s5 -8.16699 5 -13.5c0 -2.66699 -0.666992 -5.33398 -2 -8.00098c-15.333 -36.667 -40.333 -67 -75 -91s-78 -36 -130 -36c-48.667 0 -90.834 11.5 -126.501 34.5zM330.002 299.999c12 2 20.334 5 25.001 9
s7 10.333 7 19c0 16.667 -4.5 33.334 -13.5 50.001s-21.833 30.5 -38.5 41.5s-35.667 16.5 -57 16.5c-19.333 0 -37.833 -5.66699 -55.5 -17s-31.834 -27.333 -42.501 -48s-16 -44.334 -16 -71.001c0 -13.333 1.5 -21.5 4.5 -24.5s8.83301 -3.83301 17.5 -2.5z
M208.003 537.999c0 8 23.335 39.999 70.002 95.999c9.33301 10.667 18.666 22.334 27.999 35.001c6 9.33301 13.667 15.5 23 18.5s22 4.5 38 4.5c15.333 0 26.166 -1.5 32.499 -4.5s9.5 -8.16699 9.5 -15.5c0 -10 -13 -26.833 -39 -50.5s-54.333 -45.667 -85 -66
s-50.667 -30.5 -60 -30.5c-11.333 0 -17 4.33301 -17 13z" />
    <glyph glyph-name="ecircumflex" unicode="&#xea;" horiz-adv-x="491" 
d="M138.5 23.5c-35.667 23 -62.832 53.666 -81.499 91.999s-28 80.833 -28 127.5c0 48 10.833 90.333 32.5 127s50.834 65.167 87.501 85.5s76 30.5 118 30.5c39.333 0 73.833 -8.16699 103.5 -24.5s52.667 -37.166 69 -62.499s24.5 -51 24.5 -77
c0 -22.667 -5.5 -38.5 -16.5 -47.5s-29.167 -15.5 -54.5 -19.5l-227 -33c-5.33301 -1.33301 -9.33301 -3 -12 -5s-4 -5.66699 -4 -11c0 -21.333 5.66699 -43.166 17 -65.499s28.166 -40.833 50.499 -55.5s48.5 -22 78.5 -22c32 0 60 6.66699 84 20s43.333 30.333 58 51
c5.33301 6 10.333 9 15 9c6 0 10.667 -1.83301 14 -5.5s5 -8.16699 5 -13.5c0 -2.66699 -0.666992 -5.33398 -2 -8.00098c-15.333 -36.667 -40.333 -67 -75 -91s-78 -36 -130 -36c-48.667 0 -90.834 11.5 -126.501 34.5zM330.002 299.999c12 2 20.334 5 25.001 9
s7 10.333 7 19c0 16.667 -4.5 33.334 -13.5 50.001s-21.833 30.5 -38.5 41.5s-35.667 16.5 -57 16.5c-19.333 0 -37.833 -5.66699 -55.5 -17s-31.834 -27.333 -42.501 -48s-16 -44.334 -16 -71.001c0 -13.333 1.5 -21.5 4.5 -24.5s8.83301 -3.83301 17.5 -2.5z
M109.503 537.499c-3 3 -4.50098 6.83203 -4.50098 11.499c0 12.667 15.333 34.834 46 66.501s57.667 55.167 81 70.5c9.33301 6.66699 19.333 10 30 10s20.667 -3.33301 30 -10c20.667 -14 45.334 -35.833 74.001 -65.5s45.667 -51.834 51 -66.501l1 -5
c0 -4.66699 -1.5 -8.5 -4.5 -11.5s-6.5 -4.5 -10.5 -4.5c-10.667 0 -24 6.33301 -40 19c-16.667 12.667 -31.667 25 -45 37c-12.667 10.667 -24.667 20.334 -36 29.001s-18.333 13 -21 13s-12.667 -6.83301 -30 -20.5l-37 -29.5l-35 -29c-16 -12.667 -28.667 -19 -38 -19
c-4.66699 0 -8.5 1.5 -11.5 4.5z" />
    <glyph glyph-name="edieresis" unicode="&#xeb;" horiz-adv-x="491" 
d="M138.5 23.5c-35.667 23 -62.832 53.666 -81.499 91.999s-28 80.833 -28 127.5c0 48 10.833 90.333 32.5 127s50.834 65.167 87.501 85.5s76 30.5 118 30.5c39.333 0 73.833 -8.16699 103.5 -24.5s52.667 -37.166 69 -62.499s24.5 -51 24.5 -77
c0 -22.667 -5.5 -38.5 -16.5 -47.5s-29.167 -15.5 -54.5 -19.5l-227 -33c-5.33301 -1.33301 -9.33301 -3 -12 -5s-4 -5.66699 -4 -11c0 -21.333 5.66699 -43.166 17 -65.499s28.166 -40.833 50.499 -55.5s48.5 -22 78.5 -22c32 0 60 6.66699 84 20s43.333 30.333 58 51
c5.33301 6 10.333 9 15 9c6 0 10.667 -1.83301 14 -5.5s5 -8.16699 5 -13.5c0 -2.66699 -0.666992 -5.33398 -2 -8.00098c-15.333 -36.667 -40.333 -67 -75 -91s-78 -36 -130 -36c-48.667 0 -90.834 11.5 -126.501 34.5zM330.002 299.999c12 2 20.334 5 25.001 9
s7 10.333 7 19c0 16.667 -4.5 33.334 -13.5 50.001s-21.833 30.5 -38.5 41.5s-35.667 16.5 -57 16.5c-19.333 0 -37.833 -5.66699 -55.5 -17s-31.834 -27.333 -42.501 -48s-16 -44.334 -16 -71.001c0 -13.333 1.5 -21.5 4.5 -24.5s8.83301 -3.83301 17.5 -2.5z
M109.003 579.499c-12.667 9.66699 -19 22.167 -19 37.5s6.33301 27.5 19 36.5s29.334 13.5 50.001 13.5c20 0 36.167 -4.66699 48.5 -14s18.5 -21.333 18.5 -36c0 -15.333 -6.16699 -27.833 -18.5 -37.5s-28.5 -14.5 -48.5 -14.5c-20.667 0 -37.334 4.83301 -50.001 14.5z
M324.003 579.499c-12.667 9.66699 -19 22.167 -19 37.5s6.33301 27.5 19 36.5s29.334 13.5 50.001 13.5c20 0 36 -4.5 48 -13.5s18 -21.167 18 -36.5s-6 -27.833 -18 -37.5s-28 -14.5 -48 -14.5c-20.667 0 -37.334 4.83301 -50.001 14.5z" />
    <glyph glyph-name="igrave" unicode="&#xec;" horiz-adv-x="296" 
d="M41 1.5c-10.667 4.33301 -15.999 11.166 -15.999 20.499c0 10 6 17.333 18 22c17.333 4 29.833 9.16699 37.5 15.5s12.334 14.166 14.001 23.499s2.5 24.333 2.5 45v237c0 14.667 -1.66699 25.334 -5 32.001s-10.333 10 -21 10l-24 -1
c-9.33301 0 -16.333 1.16699 -21 3.5s-7 6.5 -7 12.5c0 7.33301 2.66699 12.833 8 16.5s13.666 7.83398 24.999 12.501l29 9c47.333 15.333 78.333 23 93 23c11.333 0 19.5 -2.33301 24.5 -7s7.5 -12.334 7.5 -23.001v-324c0 -20.667 1 -35.834 3 -45.501
s6.66699 -17.667 14 -24s20 -11.5 38 -15.5c12.667 -5.33301 19 -12.666 19 -21.999s-4.83301 -16.166 -14.5 -20.499s-29.167 -6.5 -58.5 -6.5l-53 1l-54 -1c-28.667 0 -48.334 2.16699 -59.001 6.5zM113.001 555.5c-30.667 20.333 -58.999 42.334 -84.999 66.001
s-39 40.5 -39 50.5c0 7.33301 3 12.5 9 15.5s17 4.5 33 4.5s28.667 -1.5 38 -4.5s17 -9.16699 23 -18.5c9.33301 -12.667 18.666 -24.334 27.999 -35.001c46.667 -56 70 -88 70 -96c0 -8.66699 -5.66699 -13 -17 -13c-9.33301 0 -29.333 10.167 -60 30.5z" />
    <glyph glyph-name="iacute" unicode="&#xed;" horiz-adv-x="296" 
d="M41 1.5c-10.667 4.33301 -15.999 11.166 -15.999 20.499c0 10 6 17.333 18 22c17.333 4 29.833 9.16699 37.5 15.5s12.334 14.166 14.001 23.499s2.5 24.333 2.5 45v237c0 14.667 -1.66699 25.334 -5 32.001s-10.333 10 -21 10l-24 -1
c-9.33301 0 -16.333 1.16699 -21 3.5s-7 6.5 -7 12.5c0 7.33301 2.66699 12.833 8 16.5s13.666 7.83398 24.999 12.501l29 9c47.333 15.333 78.333 23 93 23c11.333 0 19.5 -2.33301 24.5 -7s7.5 -12.334 7.5 -23.001v-324c0 -20.667 1 -35.834 3 -45.501
s6.66699 -17.667 14 -24s20 -11.5 38 -15.5c12.667 -5.33301 19 -12.666 19 -21.999s-4.83301 -16.166 -14.5 -20.499s-29.167 -6.5 -58.5 -6.5l-53 1l-54 -1c-28.667 0 -48.334 2.16699 -59.001 6.5zM81.001 538c0 8 23.335 39.999 70.002 95.999
c9.33301 10.667 18.666 22.334 27.999 35.001c6 9.33301 13.667 15.5 23 18.5s22 4.5 38 4.5c15.333 0 26.166 -1.5 32.499 -4.5s9.5 -8.16699 9.5 -15.5c0 -10 -13 -26.833 -39 -50.5s-54.333 -45.667 -85 -66s-50.667 -30.5 -60 -30.5c-11.333 0 -17 4.33301 -17 13z" />
    </font>
</defs>
</svg>
